<?xml version="1.0" encoding="utf-8"?>
<!-- Generator: Adobe Illustrator 28.2.0, SVG Export Plug-In . SVG Version: 6.00 Build 0)  -->
<svg version="1.1" id="Layer_1" xmlns="http://www.w3.org/2000/svg" xmlns:xlink="http://www.w3.org/1999/xlink" x="0px" y="0px"
	 viewBox="0 0 2000 2000" style="enable-background:new 0 0 2000 2000;" xml:space="preserve">
<style type="text/css">
	.st0{fill:#032E35;}
	.st1{fill:#6C8DFC;}
	.st2{fill:#042B31;}
	.st3{fill:#F8F0EB;}
	.st4{fill:#093243;}
	.st5{fill:#6B8CFC;}
	.st6{fill:#072026;}
	.st7{fill:#497AF4;}
	.st8{fill:#062B33;}
	.st9{fill:#E1E0ED;}
	.st10{fill:#E4E2EC;}
	.st11{fill:#071B1F;}
	.st12{fill:#4D7CF5;}
	.st13{fill:#6A8CFB;}
	.st14{fill:#4F7DF6;}
	.st15{fill:#051D1F;}
	.st16{fill:#F5EEEB;}
	.st17{fill:#061D20;}
	.st18{fill:#ECE8EC;}
	.st19{fill:#EBE7EC;}
	.st20{fill:#07191B;}
	.st21{fill:#071B1E;}
	.st22{fill:#6E8EFC;}
	.st23{fill:#063240;}
	.st24{fill:#032D32;}
	.st25{fill:#042C33;}
	.st26{fill:#0A2431;}
	.st27{fill:#4377F3;}
	.st28{fill:#051D1E;}
	.st29{fill:#051919;}
	.st30{fill:#061C1E;}
	.st31{fill:#678AFB;}
	.st32{fill:#062126;}
	.st33{fill:#061717;}
	.st34{fill:#5681F7;}
	.st35{fill:#C4CCF0;}
	.st36{fill:#5781F7;}
	.st37{fill:#6388FA;}
	.st38{fill:#6187FA;}
	.st39{fill:#4176F2;}
	.st40{fill:#4B7BF5;}
	.st41{fill:#0C293B;}
	.st42{fill:#042D34;}
	.st43{fill:#032C31;}
	.st44{fill:#6F8FFD;}
	.st45{fill:#051B1C;}
	.st46{fill:#07181A;}
	.st47{fill:#07232C;}
	.st48{fill:#051A1B;}
	.st49{fill:#051C1E;}
	.st50{fill:#061616;}
	.st51{fill:#0B2836;}
	.st52{fill:#06323E;}
	.st53{fill:#032E33;}
	.st54{fill:#527FF6;}
	.st55{fill:#113E5D;}
	.st56{fill:#071F26;}
	.st57{fill:#052329;}
	.st58{fill:#092531;}
	.st59{fill:#5C84F8;}
	.st60{fill:#042F37;}
	.st61{fill:#06313E;}
	.st62{fill:#042225;}
	.st63{fill:#4376F3;}
	.st64{fill:#071C21;}
	.st65{fill:#4477F3;}
	.st66{fill:#11364F;}
	.st67{fill:#3770F0;}
	.st68{fill:#10304A;}
	.st69{fill:#072127;}
	.st70{fill:#10324C;}
	.st71{fill:#2E3192;}
</style>
<g>
	<path class="st0" d="M1350.05,696.8h31.76l3.97,3.97v19.85l-15.88,11.91l-11.91,3.97l3.97,31.76l-19.85,19.85l-39.7,23.82
		l-23.82,7.94h-23.82l3.97,7.94v27.79l-15.88,23.82l-35.73,15.88l-99.26,39.7l-47.64,27.79l-19.85,15.88l-15.88,55.58l63.53-7.94
		l11.91,7.94l7.94-15.88l7.94-11.91l7.94-51.61l19.85-23.82l27.79-3.97l11.91,11.91v27.79l-7.94,23.82h43.67l3.97,15.88v7.94
		l15.88,3.97l3.97,19.85l3.97,31.76l-11.91,11.91l-7.94,27.79l-31.76,15.88l-63.53,3.97h-11.91l-11.91,23.82l-75.44,31.76
		l-43.67,7.94h-27.79l23.82,134.99v71.47l-11.91,39.7l-23.82,35.73l-23.82,27.79l-31.76,27.79l-63.53,51.61l-31.76,3.97
		l-27.79-19.85l-15.88,3.97l-3.97,3.97l-11.91,95.29l-11.91,23.82l-3.97,3.97h-23.82l-11.91-11.91l-19.85-59.56l-11.91-55.58
		l-3.97-27.79v-39.7l23.82-7.94h23.82l-11.91-19.85l-3.97-11.91l15.88-15.88l87.35-55.58l35.73-23.82l-3.97-35.73l-11.91-59.56
		v-15.88l-7.94,3.97l-15.88,47.64l-23.82,35.73l-35.73,23.82l-35.73,11.91l-27.79,3.97h-43.67l11.91-51.61l11.91-11.91l39.7,47.64
		l15.88,3.97l-15.88-127.05l-3.97-47.64l27.79-11.91l35.73-39.7l15.88-23.82l7.94-15.88l7.94-3.97h99.26v-51.61l11.91-43.67
		l11.91-3.97l-3.97,31.76v67.5l11.91,35.73l31.76,27.79l15.88,3.97h39.7l111.17-27.79v-55.58l-15.88-39.7l-43.67,3.97l-19.85,11.91
		l-3.97,19.85l-15.88-3.97l7.94-67.5l11.91-47.64v-43.67l-11.91-11.91l-11.91-3.97h-47.64v-11.91l71.47-7.94l7.94-15.88h7.94
		l7.94-67.5l3.97-11.91l23.82-15.88l-3.97-11.91l-27.79-3.97l-3.97-7.94l7.94-3.97h35.73l11.91,15.88v19.85h-7.94v7.94l-19.85,11.91
		l-3.97,47.64l-23.82,43.67l3.97,19.85l3.97,3.97v27.79l35.73-11.91l91.32-39.7l35.73-19.85l3.97-7.94l23.82-3.97v-51.61
		l-15.88-39.7l-15.88-3.97l-35.73,23.82l-67.5,31.76l-15.88,3.97l3.97-11.91l15.88-3.97l3.97-11.91l43.67-23.82h7.94v-7.94
		l31.76-19.85h23.82l7.94-15.88l11.91-15.88l23.82-3.97v-7.94h15.88l-3.97,11.91l-31.76,15.88l-3.97,19.85l15.88,31.76l3.97,23.82
		l47.64-15.88l39.7-23.82l3.97-11.91l-35.73,7.94l-3.97-15.88l55.58-27.79h7.94v-7.94l-63.53,19.85h-7.94v-7.94h7.94l3.97-11.91
		L1350.05,696.8z"/>
	<path class="st1" d="M778.32,859.58h27.79l23.82,11.91l-7.94,3.97h-31.76l-31.76,15.88l-39.7,35.73l-39.7,39.7l-35.73,43.67
		l-39.7,43.67l-27.79,39.7l15.88,27.79l27.79,23.82l47.64,19.85l15.88-3.97l27.79-27.79l31.76-39.7h7.94l7.94-15.88l27.79-27.79
		l51.61-67.5l15.88-27.79l3.97-27.79l-11.91-31.76V883.4l19.85,23.82l3.97,27.79l19.85-19.85l23.82-19.85l19.85-3.97l-7.94,15.88
		l-31.76,39.7l-23.82,47.64v39.7l3.97,15.88l-3.97,51.61l-99.26,3.97l-7.94,3.97l-11.91,23.82l-47.64,55.58l-11.91,7.94H675.1
		l19.85,134.99v39.7l-19.85-3.97l-35.73-43.67l-7.94,7.94l-15.88,51.61h31.76v3.97l-31.76,3.97l-19.85,31.76l-11.91-3.97
		l-7.94-27.79l-63.53-3.97l-43.67,43.67h-11.91v-51.61l7.94-51.61l-27.79,19.85h-15.88l3.97-23.82l27.79-67.5l-15.88,3.97h-71.47
		l3.97-15.88l27.79-23.82l43.67-23.82v-7.94l-35.73-7.94l-3.97-15.88l59.56-19.85l87.35-19.85v-43.67l23.82-35.73l95.29-111.17
		l43.67-43.67l39.7-23.82L778.32,859.58z"/>
	<path class="st2" d="M1350.05,696.8h31.76l3.97,3.97v19.85l-15.88,11.91l-11.91,3.97l3.97,31.76l-19.85,19.85l-39.7,23.82
		l-23.82,7.94h-23.82l3.97,7.94v27.79l-15.88,23.82l-35.73,15.88l-99.26,39.7l-47.64,27.79l-19.85,15.88l-15.88,55.58l63.53-7.94
		l11.91,7.94l7.94-15.88l7.94-11.91l7.94-51.61l19.85-23.82l27.79-3.97l11.91,11.91v27.79l-7.94,23.82h43.67l3.97,15.88v7.94
		l15.88,3.97l3.97,19.85l3.97,31.76l-11.91,11.91l-7.94,27.79l-31.76,15.88l-63.53,3.97h-11.91l-11.91,23.82l-75.44,31.76h-31.76
		l15.88-11.91l11.91-11.91l63.53-19.85h7.94v-55.58l-15.88-39.7l-43.67,3.97l-19.85,11.91l-3.97,19.85l-15.88-3.97l7.94-67.5
		l11.91-47.64v-43.67l-11.91-11.91l-11.91-3.97h-47.64v-11.91l71.47-7.94l7.94-15.88h7.94l7.94-67.5l3.97-11.91l23.82-15.88
		l-3.97-11.91l-27.79-3.97l-3.97-7.94l7.94-3.97h35.73l11.91,15.88v19.85h-7.94v7.94l-19.85,11.91l-3.97,47.64l-23.82,43.67
		l3.97,19.85l3.97,3.97v27.79l35.73-11.91l91.32-39.7l35.73-19.85l3.97-7.94l23.82-3.97v-51.61l-15.88-39.7l-15.88-3.97
		l-35.73,23.82l-67.5,31.76l-15.88,3.97l3.97-11.91l15.88-3.97l3.97-11.91l43.67-23.82h7.94v-7.94l31.76-19.85h23.82l7.94-15.88
		l11.91-15.88l23.82-3.97v-7.94h15.88l-3.97,11.91l-31.76,15.88l-3.97,19.85l15.88,31.76l3.97,23.82l47.64-15.88l39.7-23.82
		l3.97-11.91l-35.73,7.94l-3.97-15.88l55.58-27.79h7.94v-7.94l-63.53,19.85h-7.94v-7.94h7.94l3.97-11.91L1350.05,696.8z"/>
	<path class="st3" d="M790.24,871.49H822l19.85,7.94l15.88,31.76l3.97,27.79l-11.91,31.76l-47.64,63.53l-43.67,47.64l-7.94,11.91
		h-7.94l-7.94,15.88l-55.58,59.56l-23.82-3.97l-47.64-23.82l-31.76-35.73l-3.97-11.91l31.76-43.67l43.67-47.64l35.73-43.67
		l63.53-63.53l31.76-19.85L790.24,871.49z"/>
	<path class="st4" d="M1155.51,927.08l19.85,3.97l7.94,7.94v27.79l-7.94,23.82h43.67l3.97,15.88v7.94l15.88,3.97l3.97,19.85
		l3.97,31.76l-11.91,11.91l-3.97,23.82l-7.94-7.94l-19.85,11.91l-23.82,3.97h-59.56l-11.91-55.58l-11.91-15.88l7.94-19.85
		l11.91-15.88l7.94-51.61l19.85-23.82L1155.51,927.08z"/>
	<path class="st5" d="M1433.43,1105.74h39.7l31.76,15.88l19.85,27.79l15.88,59.56l7.94,11.91l-19.85,23.82h-11.91v-43.67
		l-11.91-43.67l-11.91-19.85l-15.88-7.94h-47.64l-31.76,19.85l-15.88,23.82l-3.97,11.91v63.53l7.94,19.85l-3.97,15.88l-15.88-7.94
		l-19.85-15.88l-39.7-15.88l-35.73,7.94l-19.85,11.91l-19.85,39.7v39.7l-19.85-3.97l-19.85-11.91l-7.94-3.97h-39.7l-15.88,15.88
		l-3.97,27.79l-3.97,7.94h-7.94l-3.97-7.94l3.97-35.73l15.88-19.85l15.88-7.94h39.7l23.82,7.94l7.94-31.76l15.88-23.82l31.76-27.79
		l27.79-7.94l39.7,3.97l27.79,11.91l-3.97-39.7l11.91-39.7l31.76-35.73L1433.43,1105.74z"/>
	<path class="st6" d="M1349.07,697.09c0.65-0.19,1.32-0.29,2-0.29h30.74l3.97,3.97v16.37c0,2.19-1.03,4.26-2.79,5.58l-12.19,9.14
		c-0.6,0.45-1.27,0.8-1.98,1.04l-5.42,1.81c-3.15,1.05-5.12,4.18-4.71,7.48l2.84,22.71c0.27,2.13-0.47,4.27-1.99,5.79l-16.84,16.84
		c-0.4,0.4-0.85,0.75-1.34,1.05l-38.31,22.99c-0.44,0.26-0.9,0.47-1.38,0.64l-22.02,7.34c-0.71,0.24-1.45,0.36-2.2,0.36h-22.69
		l3.23,6.47c0.48,0.97,0.74,2.03,0.74,3.12v24.04c0,1.38-0.41,2.72-1.17,3.87l-13.59,20.38c-0.73,1.1-1.76,1.97-2.97,2.5
		l-33.89,15.06l-98.99,39.6c-0.18,0.07-0.36,0.15-0.53,0.24l-22.09,11.05c-0.97,0.48-2.03,0.74-3.12,0.74h-3.3
		c-3.85,0-6.97-3.12-6.97-6.97v-0.39c0-2.76,1.63-5.27,4.16-6.38l94.8-41.71c0.2-0.09,0.39-0.18,0.58-0.29l33.57-18.65
		c1.23-0.68,2.22-1.72,2.85-2.98l1.42-2.84c1-1.99,2.89-3.39,5.09-3.76l14.5-2.42c3.36-0.56,5.82-3.47,5.82-6.87v-44.37
		c0-0.89-0.17-1.77-0.5-2.59l-14.06-35.15c-0.83-2.08-2.61-3.63-4.78-4.17l-9.43-2.36c-1.9-0.48-3.92-0.13-5.56,0.96l-32.74,21.83
		c-0.29,0.19-0.59,0.36-0.9,0.51l-66.41,31.25c-0.41,0.19-0.84,0.35-1.28,0.46l-15.22,3.81l2.76-8.28c0.75-2.26,2.61-3.98,4.92-4.56
		l8.46-2.11c2.31-0.58,4.17-2.3,4.92-4.56l1.89-5.68c0.56-1.67,1.73-3.07,3.27-3.91l39.71-21.66c1.02-0.56,2.17-0.85,3.34-0.85h6.16
		v-4.08c0-2.4,1.24-4.64,3.28-5.91l26.79-16.75c1.11-0.69,2.39-1.06,3.69-1.06h17.52c2.64,0,5.05-1.49,6.23-3.85l5.73-11.47
		c0.19-0.37,0.41-0.73,0.66-1.06l9.86-13.15c1.08-1.43,2.66-2.4,4.43-2.69l21.07-3.51v-7.94h6.21c4.76,0,8.12,4.66,6.61,9.17l0,0
		c-0.58,1.75-1.84,3.2-3.49,4.03l-26.13,13.07c-1.92,0.96-3.3,2.76-3.72,4.87l-2.83,14.16c-0.3,1.52-0.09,3.1,0.6,4.48l14.34,28.69
		c0.31,0.62,0.53,1.29,0.64,1.97l2.46,14.74c0.7,4.22,5.02,6.82,9.08,5.47l39.18-13.06c0.48-0.16,0.95-0.37,1.38-0.64l36.84-22.1
		c1.43-0.86,2.5-2.19,3.03-3.77l3.16-9.47l-29.11,6.47c-3.69,0.82-7.36-1.45-8.27-5.11l-0.97-3.87c-0.79-3.17,0.72-6.46,3.64-7.92
		l49.11-24.56c0.97-0.48,2.03-0.74,3.12-0.74h6.3v-7.94l-62.51,19.53c-0.67,0.21-1.37,0.32-2.08,0.32h-6.88v-7.94h2.92
		c3,0,5.66-1.92,6.61-4.77l1.24-3.71c0.72-2.15,2.44-3.82,4.61-4.47L1349.07,697.09z"/>
	<path class="st7" d="M460.7,803.99h35.73l35.73,15.88l27.79,27.79l15.88,27.79l15.88-11.91l31.76-3.97v11.91l-43.67,15.88
		l-7.94,23.82h-11.91l-15.88-51.61l-7.94-15.88l-15.88-7.94l-19.85-7.94h-43.67l-47.64,23.82l-27.79,31.76l-7.94,19.85v47.64
		l11.91,23.82v7.94l-19.85-3.97l-27.79-11.91h-19.85l-23.82,27.79H286l3.97-23.82l23.82-19.85h39.7l-3.97-11.91v-31.76l15.88-39.7
		l27.79-31.76l39.7-23.82L460.7,803.99z"/>
	<path class="st8" d="M905.38,692.82h23.82l-3.97,7.94l-31.76,15.88c0,0-15.88,19.85-15.88,19.85c0.69,4.86,1.36,9.72,2.05,14.58
		c0.34,2.43,0.69,4.86,1.05,7.29c0.21,1.41,1.6,5.47,0.24,6.32c-9.24,5.81-18.32,11.93-27.8,17.35c-1.08,0.67-2.16,1.35-3.08,2.22
		c-1.06,1-1.87,2.23-2.68,3.44c-1.27,1.92-2.54,3.84-3.81,5.76c-0.62,0.93-1.25,1.89-1.51,2.97c-0.19,0.76-0.19,1.55-0.19,2.34
		c0,7.64,0,15.28,0.01,22.92c0,0.61,0,1.23,0.22,1.79c0.22,0.55,0.62,1,1.02,1.44c5.38,5.94,11.07,12.1,18.63,14.78
		c-2.11-5.23-4.22-10.47-6.32-15.7c-0.52-1.29-1.04-2.58-1.33-3.94c-0.37-1.72-0.36-3.5-0.35-5.27c0.02-4.2,0.04-8.39,0.06-12.59
		c0-0.78,0.01-1.59,0.36-2.29c0.25-0.52,0.67-0.93,1.07-1.34c2.97-2.97,5.93-5.93,8.9-8.9c0.53-0.53,1.08-1.08,1.77-1.39
		c0.63-0.28,1.32-0.34,2-0.4c13.82-1.19,27.63-2.48,41.47-3.74l23.82-11.91l11.91-27.79l19.85-15.88l43.67-15.88h19.85v7.94
		l-75.44,35.73v7.94l11.91,27.79l-7.94,7.94l-19.85,7.94l-15.88-3.97h-43.67l-3.97,19.85v7.94l39.7,7.94l3.97,11.91l-11.91,7.94
		H861.7l-23.82-11.91L822,831.79v-35.73l7.94-19.85l19.85-19.85h7.94V736.5l19.85-23.82L905.38,692.82z"/>
	<path class="st9" d="M1195.21,1002.51h11.91v11.91l-23.82,11.91h-7.94v15.88l35.73-11.91h15.88v11.91l-35.73,11.91l-3.97,11.91
		l39.7-3.97l-15.88,15.88l-23.82,3.97v11.91h27.79l-11.91,15.88l-23.82,3.97h-59.56l-11.91-55.58l-3.97-19.85l19.85-19.85
		l11.91,3.97v11.91l23.82-7.94L1195.21,1002.51z"/>
	<path class="st1" d="M1119.77,1125.59h67.5l-7.94,3.97l-7.94,23.82l-27.79,31.76l-35.73,19.85l-39.7,7.94h-39.7l-35.73-7.94
		l-19.85-7.94l15.88-7.94l51.61-11.91l67.5-27.79L1119.77,1125.59z"/>
	<path class="st10" d="M1295.92,701.44l6.49,11.24l-3.97,15.88l55.58-19.85h15.88v7.94l-55.58,27.79l-4.07,1.33l0.1,10.58
		l35.73-3.97l-3.97,15.88l-47.64,27.79l-39.7,7.94l-15.88-35.73l-7.94-19.85l3.97-19.85l7.94-7.94l39.7-15.88L1295.92,701.44z"/>
	<path class="st11" d="M1072.13,1026.33l19.85,3.97l11.91,7.94l15.88,51.61v23.82l83.38-7.94l23.82-11.91l-3.97,19.85l-27.79,11.91
		l-63.53,3.97h-11.91l-11.91,23.82l-75.44,31.76h-31.76l15.88-11.91l11.91-11.91l63.53-19.85h7.94v-55.58l-15.88-39.7l-43.67,3.97
		l-15.88,3.97l15.88-15.88v-7.94L1072.13,1026.33z"/>
	<path class="st12" d="M1433.43,1105.74h39.7l31.76,15.88l19.85,27.79l15.88,59.56l7.94,11.91l-19.85,23.82h-11.91v-43.67
		l-11.91-43.67l-11.91-19.85l-15.88-7.94h-47.64l-31.76,19.85l-15.88,23.82l-3.97,11.91h-7.94v59.56l-7.94-3.97l-3.97-35.73
		l3.97-39.7l23.82-31.76l23.82-19.85L1433.43,1105.74z"/>
	<path class="st13" d="M1020.52,720.62l11.91,3.97v19.85l11.91,3.97l-3.97,3.97l11.91,7.94h-7.94l-3.97,23.82l-19.85,15.88
		l-27.79,3.97l-31.76-7.94l-7.94-27.79l-7.94-7.94l31.76-19.85L1020.52,720.62z"/>
	<path class="st14" d="M1052.28,1530.57h35.73l31.76,7.94l27.79,15.88v7.94l-23.82-3.97l-19.85-7.94h-55.58l-23.82,15.88l-3.97,7.94
		l-3.97,43.67l-7.94,3.97l-23.82-11.91l-19.85,7.94l-19.85,15.88h-11.91l3.97-15.88l27.79-23.82l7.94-3.97h27.79l3.97-27.79
		l15.88-19.85L1052.28,1530.57z"/>
	<path class="st15" d="M500.4,1189.12h55.58l-3.97,23.82l-23.82,39.7l51.61-19.85l7.94,59.56l15.88-15.88l19.85-27.79l11.91,3.97
		l-27.79,43.67l-15.88,15.88l-11.91-3.97l-7.94-27.79v-27.79l-55.58,23.82l-15.88-3.97l7.94-23.82l23.82-39.7l3.97-11.91H500.4
		V1189.12z"/>
	<path class="st16" d="M889.49,1101.77h27.79l27.79,11.91l19.85,19.85l7.94,11.91v23.82l15.88,3.97h-39.7l-19.85-7.94l-31.76-27.79
		l-7.94-19.85V1101.77z"/>
	<path class="st16" d="M845.82,1022.36l7.94,3.97l3.97,27.79l7.94,7.94l3.97,39.7h-91.32v-7.94l27.79-23.82l31.76-39.7
		L845.82,1022.36z"/>
	<path class="st17" d="M1258.74,700.77h15.88l-3.97,11.91l-31.76,15.88l-3.97,19.85l7.94,23.82h-11.91v-7.94l-11.91,3.97
		l-15.88-3.97l-35.73,23.82l-67.5,31.76l-15.88,3.97l3.97-11.91l15.88-3.97l3.97-11.91l43.67-23.82h7.94v-7.94l31.76-19.85h23.82
		l7.94-15.88l11.91-15.88l23.82-3.97V700.77z"/>
	<path class="st18" d="M1119.77,1125.59l35.73,3.97l3.97,7.94l-27.79,31.76l-31.76,15.88l-43.67,7.94l-47.64,3.97v-11.91l31.76-7.94
		l67.5-27.79L1119.77,1125.59z"/>
	<path class="st19" d="M1080.07,883.4h23.82l27.79,19.85l-3.97,11.91l-63.53,27.79h-19.85l-3.97-31.76h11.91l7.94-15.88
		L1080.07,883.4z"/>
	<path class="st20" d="M905.38,692.82h23.82l-3.97,7.94l-31.76,15.88l-15.88,19.85c0,0,3.97,27.79,3.97,27.79
		c-9.48,5.92-18.81,12.4-28.6,17.75c-2.85,1.56-4.71,4.25-6.45,6.91c-1.07,1.63-2.14,3.26-3.2,4.89c-0.44,0.67-0.88,1.35-1.15,2.1
		c-0.96,2.65-0.3,6.3-0.3,9.11c0,2.83,0,5.65,0,8.48c0,3.21-0.63,7.15,0,10.31c0,0,3.97,19.85,3.97,19.85l7.94,7.94
		c0,0-15.88-3.97-15.88-3.97c-0.49-0.12-1.3-1.3-1.65-1.65c-1.31-1.31-2.63-2.63-3.94-3.94c-3.2-3.2-6.41-6.4-9.61-9.6
		c-0.25-0.25-0.51-0.51-0.62-0.84c-0.08-0.24-0.08-0.5-0.08-0.76c0.07-10.64,0-21.28,0-31.92c0-0.9,0-1.8,0.14-2.69
		c0.49-3.11,1.95-5.9,3.15-8.77c1.38-3.28,2.75-6.57,4.13-9.85c1.09-2.6,3.47-4.38,5.44-6.35c2.16-2.16,4.33-4.33,6.49-6.49
		c2.82-2.82,5.64-5.64,8.46-8.46h7.94V736.5l19.85-23.82L905.38,692.82z"/>
	<path class="st21" d="M1044.34,744.44h35.73l11.91,15.88v19.85h-7.94v7.94l-19.85,11.91l-3.97,47.64l-23.82,43.67l-15.88,3.97
		l7.94-27.79h7.94l7.94-67.5l3.97-11.91l23.82-15.88l-3.97-11.91l-27.79-3.97l-3.97-7.94L1044.34,744.44z"/>
	<path class="st22" d="M1357.99,1177.21h3.97l3.97,63.53V1205l3.97-19.85h3.97l3.97,63.53l7.94,19.85l-3.97,15.88l-15.88-7.94
		l-19.85-15.88l-39.7-15.88h-27.79l11.91-7.94l35.73,3.97l-3.97-7.94l-47.64-3.97l15.88-7.94l39.7,3.97l27.79,11.91l-3.97-39.7
		L1357.99,1177.21z"/>
	<path class="st23" d="M694.95,974.72h11.91l-7.94,51.61l11.91-7.94h19.85l-7.94,63.53l-3.97,11.91h-11.91l3.97-47.64l-15.88,7.94
		h-15.88l11.91-67.5L694.95,974.72z"/>
	<path class="st24" d="M635.39,1320.14l19.85,19.85l23.82,27.79l11.91,7.94l-3.97,3.97l-27.79,3.97h-43.67l11.91-51.61
		L635.39,1320.14z"/>
	<path class="st25" d="M865.67,788.11h19.85v3.97l23.82,3.97v3.97l-31.76,3.97l-3.97,19.85v7.94l39.7,7.94l3.97,11.91l-11.91,7.94
		H861.7l-11.91-7.94l-7.94-11.91l11.91-3.97l7.94,3.97l-7.94-19.85v-19.85L865.67,788.11z"/>
	<path class="st26" d="M1230.94,1022.36l11.91,3.97v23.82l3.97,19.85l-11.91,11.91l-3.97,23.82l-7.94-7.94l-15.88,7.94l3.97-7.94
		l-23.82-3.97v-11.91l31.76-11.91l3.97-3.97h-35.73l3.97-15.88l35.73-11.91L1230.94,1022.36z"/>
	<path class="st27" d="M1262.71,1228.82h59.56l3.97,11.91h-47.64v7.94l-27.79,15.88l-19.85,23.82l-7.94,7.94l-3.97-3.97l3.97-27.79
		l31.76-31.76L1262.71,1228.82z"/>
	<path class="st28" d="M1072.13,1026.33l19.85,3.97l11.91,7.94l11.91,31.76v39.7l-7.94,3.97l-19.85-63.53l-15.88-3.97l-47.64,7.94
		l15.88-15.88v-7.94L1072.13,1026.33z"/>
	<path class="st29" d="M1203.15,879.43h11.91l-7.94,15.88l-99.26,39.7l-23.82,11.91h-11.91v-11.91l99.26-43.67L1203.15,879.43z"/>
	<path class="st30" d="M1348.76,697.18c0.86-0.26,1.75-0.39,2.65-0.39h30.41l3.97,3.97V716c0,2.9-1.37,5.64-3.69,7.38l-10.99,8.25
		c-0.79,0.59-1.68,1.06-2.62,1.37l-9.23,3.08c-0.83,0.28-1.58,0.74-2.19,1.36l-3.03,3.03c-2.19,2.19-5.75,2.19-7.94,0l0,0
		c-2.19-2.19-2.19-5.75,0-7.94l13.18-13.18c1.73-1.73,4.08-2.7,6.52-2.7h4.12v-7.94l-62.18,19.43c-0.89,0.28-1.82,0.42-2.75,0.42
		h-6.53v-7.94h1.29c3.97,0,7.5-2.54,8.75-6.31l0.35-1.06c0.95-2.85,3.23-5.06,6.1-5.92L1348.76,697.18z"/>
	<path class="st31" d="M889.49,1101.77h27.79l27.79,11.91l19.85,19.85l7.94,11.91v23.82l15.88,3.97h-39.7l11.91-3.97l-19.85-39.7
		l-35.73-15.88l-11.91-3.97l-3.97,7.94V1101.77z"/>
	<path class="st32" d="M1258.74,700.77h15.88l-3.97,11.91l-31.76,15.88l-3.97,19.85l7.94,23.82h-11.91v-7.94l-11.91,3.97
		l-23.82-11.91l3.97-11.91h15.88l7.94-15.88l11.91-15.88l23.82-3.97V700.77z"/>
	<path class="st33" d="M1223,1093.83l3.97,15.88l-31.76,15.88l-63.53,3.97l-11.91-3.97v-11.91l83.38-7.94L1223,1093.83z"/>
	<path class="st34" d="M1000.66,1574.24h3.97v27.79v7.94l3.97,7.94l-23.82-7.94l-19.85,7.94l-19.85,15.88h-11.91l3.97-15.88
		l27.79-23.82l7.94-3.97h27.79V1574.24z"/>
	<path class="st35" d="M877.58,800.02h43.67l-11.91,3.97l7.94,27.79h-7.94v7.94l-35.73-7.94l-3.97-23.82L877.58,800.02z"/>
	<path class="st36" d="M353.5,938.99l15.88,19.85l-3.97,15.88l-27.79-7.94h-19.85l-23.82,27.79H286l3.97-23.82l23.82-19.85h39.7
		V938.99z"/>
	<path class="st37" d="M1080.07,883.4h23.82l27.79,19.85l-3.97,11.91h-11.91v-7.94l-35.73-3.97l-19.85,11.91h-11.91v27.79h-3.97
		l-3.97-31.76h11.91l7.94-15.88L1080.07,883.4z"/>
	<path class="st38" d="M559.96,855.61l15.88,19.85l15.88-11.91l31.76-3.97v11.91l-43.67,15.88l-7.94,23.82h-11.91l-7.94-43.67
		L559.96,855.61z"/>
	<path class="st39" d="M1135.66,1308.23h43.67l15.88,7.94l-7.94,3.97l-43.67-3.97v7.94l-15.88,15.88l-3.97,27.79l-3.97,7.94h-7.94
		l-3.97-7.94l3.97-35.73l15.88-19.85L1135.66,1308.23z"/>
	<path class="st40" d="M1076.1,537.98l11.91,3.97l-7.94,19.85l-23.82,27.79l-11.91,15.88h-7.94l3.97-23.82l23.82-35.73
		L1076.1,537.98z"/>
	<path class="st41" d="M905.38,692.82h23.82l-3.97,7.94l-31.76,15.88l-15.88,19.85c0,0-7.94,27.79-7.94,27.79
		c-3.58,0-7.17,0-10.75,0c-2.65,0-5.31,0-7.96,0c-1.11,0-4.52,0.73-4.87-0.47c-0.17-0.57,1.21-2.66,1.48-3.23
		c0.56-1.17,1.14-2.32,1.75-3.47c0.12-0.23,0.25-0.46,0.45-0.63c0.65-0.52,2.51-0.15,3.3-0.15c1.56,0,3.12,0,4.69,0
		c0,0,0-19.85,0-19.85l19.85-23.82L905.38,692.82z"/>
	<path class="st42" d="M1012.57,1010.45l11.91,15.88v7.94l19.85,3.97l-19.85,19.85l-7.94,23.82l-15.88-3.97l7.94-63.53
		L1012.57,1010.45z"/>
	<path class="st43" d="M559.96,1339.99l7.94,7.94l3.97,35.73h-43.67v-11.91L559.96,1339.99z"/>
	<path class="st33" d="M1354.02,756.35h7.94l-3.97,19.85l-39.7,27.79l-23.82,11.91h-31.76v-3.97l27.79-7.94l15.88-11.91h11.91
		l3.97-11.91l11.91-7.94h15.88L1354.02,756.35z"/>
	<path class="st44" d="M1052.28,1530.57h35.73l31.76,7.94l27.79,15.88v7.94l-23.82-3.97l-19.85-7.94l-51.61-3.97v-3.97l19.85-3.97
		l-19.85-3.97V1530.57z"/>
	<path class="st45" d="M694.95,974.72h11.91l-7.94,39.7l3.97,15.88l3.97,11.91h-7.94l-3.97,11.91h-15.88l11.91-67.5L694.95,974.72z"
		/>
	<path class="st46" d="M885.52,1002.51h7.94l-11.91,95.29l-7.94-3.97v-63.53L885.52,1002.51z"/>
	<path class="st37" d="M849.79,1359.84l35.73,3.97l11.91,7.94v7.94l-19.85,3.97v7.94l-19.85-3.97v-11.91l-7.94-3.97V1359.84z"/>
	<path class="st47" d="M984.78,653.12h15.88l7.94,11.91v35.73l-7.94,11.91h-7.94L988.75,669L984.78,653.12z"/>
	<path class="st48" d="M1008.6,712.68h19.85v7.94l-51.61,23.82l-15.88-3.97l19.85-15.88L1008.6,712.68z"/>
	<path class="st49" d="M1131.69,907.22l7.94,3.97l-3.97,11.91l-51.61,23.82h-11.91v-11.91L1131.69,907.22z"/>
	<path class="st50" d="M1091.98,1050.16l19.85,7.94l3.97,11.91v39.7l-7.94,3.97l-15.88-51.61V1050.16z"/>
	<path class="st51" d="M1211.09,1002.51l3.97,15.88l-3.97,15.88l-19.85,7.94h-15.88v-15.88l23.82-11.91h11.91V1002.51z"/>
	<path class="st52" d="M1191.24,990.6h27.79l3.97,15.88v7.94l15.88,7.94h-7.94l-3.97,15.88v-7.94l-15.88-3.97l-3.97-23.82h-11.91
		L1191.24,990.6z"/>
	<path class="st53" d="M1314.32,780.17l7.94,3.97l-3.97,7.94l-23.82,11.91l-15.88,15.88h-23.82v-15.88l47.64-15.88L1314.32,780.17z"
		/>
	<path class="st54" d="M1004.63,534.01l11.91,3.97l-7.94,51.61h-11.91v-35.73L1004.63,534.01z"/>
	<path class="st55" d="M1179.33,752.38l7.94,3.97l-3.97,11.91l-15.88,3.97l-11.91,11.91l-43.67,19.85l-7.94-3.97l27.79-15.88
		l19.85-11.91h7.94v-7.94L1179.33,752.38z"/>
	<path class="st56" d="M937.14,657.09l15.88,3.97l15.88,15.88v31.76h-7.94l-11.91-27.79L937.14,669V657.09z"/>
	<path class="st54" d="M1111.83,585.63l7.94,3.97v11.91l-31.76,19.85h-11.91l7.94-15.88L1111.83,585.63z"/>
	<path class="st44" d="M1119.77,1320.14l7.94,11.91l-3.97,39.7l-11.91,3.97l-3.97-7.94l3.97-35.73L1119.77,1320.14z"/>
	<path class="st57" d="M1341.15,703.09L1341.15,703.09c3.25,1.08,6.2,2.91,8.62,5.33l4.26,4.26l-44.25,14.75
		c-2.25,0.75-4.6,1.13-6.97,1.13h-4.36v-7.94h0.53c4.43,0,8.36-2.83,9.76-7.03v0c1.02-3.07,3.43-5.48,6.5-6.5l11.97-3.99
		C1331.73,701.58,1336.62,701.58,1341.15,703.09z"/>
	<path class="st58" d="M1324.53,736.5h4.01c5.31,0,9.61,4.3,9.61,9.61v1.91c0,4.78-3.52,8.83-8.25,9.51l-10.97,1.57
		c-4.87,0.7-9.48-2.4-10.68-7.18l0,0c-1.09-4.37,1-8.91,5.02-10.92l6.96-3.48C1321.57,736.85,1323.04,736.5,1324.53,736.5z"/>
	<path class="st59" d="M960.96,1133.53l11.91,11.91v23.82l15.88,3.97h-39.7l11.91-3.97l-3.97-19.85L960.96,1133.53z"/>
	<path class="st43" d="M1115.8,1089.86h3.97v39.7l-7.94,11.91l-11.91-3.97l3.97-39.7l7.94,11.91L1115.8,1089.86z"/>
	<path class="st60" d="M968.9,887.37h31.76l-3.97,11.91l-47.64,3.97v-11.91L968.9,887.37z"/>
	<path class="st44" d="M353.5,938.99l15.88,19.85l-3.97,15.88l-27.79-7.94l7.94-7.94l-11.91-7.94h19.85V938.99z"/>
	<path class="st61" d="M1211.09,863.55h23.82v15.88l-15.88,7.94l-3.97-7.94l-19.85,3.97L1211.09,863.55z"/>
	<path class="st39" d="M1524.75,1201.03h7.94v19.85l7.94,3.97l-11.91,19.85h-11.91v-11.91h7.94V1201.03z"/>
	<path class="st44" d="M778.32,859.58h27.79l23.82,11.91l-7.94,3.97h-43.67V859.58z"/>
	<path class="st62" d="M694.95,974.72h11.91l-7.94,39.7l-11.91,3.97l3.97-31.76L694.95,974.72z"/>
	<path class="st63" d="M1350.05,1252.64l15.88,3.97l15.88,15.88v11.91l-15.88-7.94l-15.88-19.85V1252.64z"/>
	<path class="st64" d="M714.8,1046.19l7.94,11.91l-3.97,35.73h-11.91L714.8,1046.19z"/>
	<path class="st65" d="M849.79,1367.78l35.73,7.94l-7.94,15.88l-19.85-3.97v-11.91L849.79,1367.78z"/>
	<path class="st50" d="M885.52,788.11h27.79l23.82,11.91v7.94l-15.88-3.97l-39.7-7.94L885.52,788.11z"/>
	<path class="st66" d="M1258.74,700.77h15.88l-3.97,11.91l-27.79,11.91l-7.94-11.91l23.82-3.97V700.77z"/>
	<path class="st67" d="M1008.6,1570.27h3.97v51.61l-15.88-19.85h7.94v-27.79L1008.6,1570.27z"/>
	<path class="st48" d="M607.6,1280.44l3.97,7.94l-19.85,23.82l-11.91-3.97v-11.91h15.88v-7.94L607.6,1280.44z"/>
	<path class="st68" d="M1111.83,1010.45l11.91,3.97l-7.94,19.85l-19.85,7.94l7.94-19.85L1111.83,1010.45z"/>
	<path class="st69" d="M1119.77,796.05l7.94,3.97l-11.91,11.91l-19.85,11.91l-11.91-3.97l11.91-11.91L1119.77,796.05z"/>
	<path class="st70" d="M1299.97,702.92l1.58,6.3c0.52,2.07-0.32,4.25-2.1,5.44l-7.67,5.11c-0.83,0.55-1.81,0.85-2.81,0.85h-9.29
		c-2.79,0-5.06-2.27-5.06-5.06v-3.72c0-1.92,1.08-3.67,2.8-4.53l15.38-7.69C1295.69,698.17,1299.18,699.77,1299.97,702.92z"/>
</g>
<g>
	<g>
		<path class="st71" d="M1000.29,759.71c0.57,0.42,0.85,0.81,0.88,1.49c0-0.04,0-0.08,0-0.12c0.01,0.29-0.06,0.56-0.21,0.8
			c0.11-0.19,0.18-0.19-0.19,0.2c0.03-0.03,0.06-0.06,0.09-0.09c-0.18,0.18-0.39,0.31-0.64,0.38c0.52-0.18-0.53-0.04,0.02,0.01
			c-0.09-0.01-0.56-0.14-0.14-0.01c0.15,0.05,0.95,0.18,1,0.34c-0.1-0.04-0.2-0.09-0.3-0.13c0.1,0.04,0.2,0.09,0.29,0.13
			c0.15,0.07,0.29,0.14,0.43,0.21c0.24,0.12,0.47,0.25,0.71,0.39c0.23,0.14,0.45,0.28,0.67,0.43c0.04,0.03,0.09,0.06,0.13,0.09
			c0.21,0.16,0.17,0.13-0.13-0.1c-0.01,0.02,0.31,0.26,0.36,0.31c0.23,0.21,0.44,0.44,0.65,0.68c0.24,0.27-0.14-0.05-0.1-0.14
			c-0.01,0.02,0.23,0.35,0.26,0.39c0.07,0.11,0.13,0.23,0.19,0.34c0.14,0.27,0.02,0.36-0.04-0.12c0.02,0.21,0.13,0.57,0.21,0.76
			c-0.21-0.49-0.05-0.48-0.03-0.14c0.01,0.13,0.01,0.27,0.01,0.4c0,0.09-0.01,0.18-0.01,0.26c-0.02,0.5,0.14-0.63,0.02-0.14
			c-0.05,0.21-0.11,0.42-0.17,0.63c-0.13,0.47,0.29-0.54,0.05-0.12c-0.06,0.11-0.12,0.23-0.18,0.34c-0.15,0.24-0.34,0.28,0.1-0.09
			c-0.09,0.08-0.17,0.19-0.25,0.28c-0.06,0.05-0.14,0.11-0.18,0.17c0.33-0.42,0.37-0.26,0.1-0.11c-0.08,0.04-0.46,0.22-0.04,0.04
			c0.42-0.18,0.02-0.02-0.06,0c-0.05,0.01-0.1,0.02-0.15,0.04c-0.27,0.05-0.2,0.04,0.21-0.03c-0.08-0.02-0.37-0.02-0.45-0.01
			c0.12,0.02,0.24,0.03,0.37,0.05c-0.1-0.02-0.2-0.04-0.3-0.07c-0.05-0.01-0.1-0.03-0.15-0.04c-0.25-0.09-0.2-0.06,0.17,0.09
			c-0.1-0.14-0.52-0.29-0.68-0.38c-0.45-0.27,0.31,0.29,0.07,0.06c-0.09-0.09-0.2-0.18-0.29-0.27c-0.02-0.02-0.31-0.36-0.32-0.35
			c0.21,0.28,0.26,0.34,0.15,0.19c-0.05-0.06-0.09-0.13-0.13-0.2c-0.09-0.14-0.16-0.29-0.24-0.43c-0.3-0.52,0.15,0.5-0.03-0.06
			c-0.09-0.29-0.19-0.57-0.26-0.86c-0.06-0.27-0.18-0.61-0.17-0.89c-0.02,0.67,0.02,0.1,0.01-0.06c-0.02-0.18-0.03-0.37-0.04-0.55
			c-0.04-0.63-0.06-1.27-0.04-1.91c0-0.13,0.01-0.25,0.02-0.38c0.03-0.4,0.16-0.11-0.02,0.14c0.05-0.07,0.08-0.34,0.1-0.43
			c0.1-0.47-0.26,0.48-0.03,0.07c0.25-0.43-0.43,0.39-0.05,0.06c-0.32,0.23-0.38,0.28-0.17,0.14c-0.12,0.05-0.24,0.1-0.37,0.15
			c0.04-0.01,0.08-0.03,0.12-0.04c0.26-0.06,0.16-0.05-0.3,0.03c0.43-0.02-0.7-0.14-0.05-0.01c0.26,0.05,0.04,0.19-0.24-0.11
			c0.08,0.04,0.16,0.08,0.23,0.13c0.21,0.14,0.15,0.09-0.18-0.15c0.02,0.04,0.15,0.15,0.2,0.19c0.33,0.27-0.37-0.5,0.02,0.03
			c0.27,0.37-0.09-0.45-0.05-0.17c0.02,0.06,0.04,0.13,0.06,0.19c0.05,0.23,0.05,0.17-0.01-0.16c0.07,0.12,0.01,0.43,0.01,0.56
			c0.01,0.5,0.14-0.44-0.02,0.08c-0.11,0.34-0.14,0.79-0.35,1.1c0.33-0.49,0-0.01-0.06,0.12c-0.11,0.23-0.22,0.46-0.34,0.69
			c-0.58,1.17-0.35,2.76,0.9,3.42c1.27,0.67,2.63,0.26,3.42-0.9c-0.37,0.54-1,0.85-1.48,0.87c0.29-0.01-0.7-0.13-0.33-0.04
			c0.36,0.09-0.51-0.26-0.27-0.11c0.23,0.15-0.47-0.39-0.26-0.21c0.29,0.26-0.12-0.17-0.17-0.24c0.18,0.25-0.14-0.32-0.14-0.34
			c-0.15-0.45-0.04-0.97,0.17-1.37c-0.59,1.17-0.35,2.76,0.9,3.42c1.14,0.6,2.79,0.35,3.42-0.9c0.89-1.76,0.26-3.67-1.39-4.69
			c-0.59-0.36-1.38-0.57-2.07-0.53c-1.17,0.07-2.05,0.65-2.7,1.6c1.44,0.84,2.88,1.68,4.32,2.52c1.07-2.16,2-4.55,1-6.91
			c-0.87-2.06-3.25-3.57-5.51-2.97c-2.46,0.66-3.32,3.11-3.33,5.42c-0.01,2.14,0.2,4.26,1.07,6.23c0.82,1.87,2.57,3.43,4.55,3.96
			c2.02,0.54,4.32-0.06,5.67-1.7c1.17-1.42,1.78-3.25,1.58-5.09c-0.22-2.03-1.24-3.87-2.81-5.19c-0.82-0.69-1.7-1.29-2.66-1.77
			c-1.14-0.56-2.3-1.06-3.58-1.15c-1.51-0.11-3.01,0.68-3.71,2.03c-0.42,0.8-0.54,1.68-0.35,2.56c0.2,0.91,0.78,1.51,1.49,2.05
			c0.49,0.36,1.37,0.41,1.93,0.25c0.58-0.16,1.21-0.61,1.49-1.15C1001.88,761.82,1001.42,760.55,1000.29,759.71L1000.29,759.71z"/>
	</g>
</g>
<g>
	<g>
		<path class="st7" d="M1382.59,519.87c2.88-0.37,5.76-0.74,8.64-1.11c2.07-0.27,3.77-0.66,5.3-2.2c1.3-1.3,2.28-3.43,2.2-5.3
			c-0.17-3.82-3.31-7.81-7.5-7.5c-14.72,1.09-29.44,2.18-44.15,3.27c-7.08,0.52-14.26,0.76-21.28,1.85
			c-6.29,0.97-12.6,3.85-15.97,9.5c-2.2,3.68-2.74,7.94-1.93,12.1c0.71,3.66,2.77,6.83,5.08,9.66c4.16,5.09,9.94,8.47,15.52,11.74
			c12.61,7.39,25.23,14.79,37.84,22.18c6.54,3.84,13.29,7.46,19.51,11.81c0.68,0.48,1.34,1.05,2.05,1.49
			c-1.82-1.13-0.63-0.49-0.19-0.14c0.33,0.26,0.65,0.53,0.97,0.8c1.39,1.17,2.71,2.41,3.94,3.75c0.56,0.61,1.04,1.34,1.64,1.91
			c-1.43-1.36-0.6-0.8-0.21-0.25c0.23,0.32,0.45,0.64,0.66,0.97c0.94,1.44,1.73,2.95,2.4,4.53c-0.25-0.6-0.5-1.19-0.76-1.79
			c0.85,2.06,1.45,4.19,1.78,6.4c-0.09-0.66-0.18-1.33-0.27-1.99c0.24,1.92,0.26,3.82,0.01,5.73c0.09-0.66,0.18-1.33,0.27-1.99
			c-0.24,1.52-0.64,2.98-1.23,4.4c0.25-0.6,0.5-1.19,0.76-1.79c-0.51,1.16-1.15,2.22-1.85,3.27c-0.72,1.07,1.25-1.46,0.39-0.51
			c-0.18,0.2-0.34,0.4-0.52,0.59c-0.39,0.43-0.8,0.83-1.23,1.22c-0.19,0.18-0.4,0.34-0.59,0.51c-1.01,0.87,0.58-0.54,0.65-0.5
			c-0.06-0.04-1.45,0.97-1.58,1.05c-1.01,0.61-2.07,1.12-3.15,1.58c0.6-0.25,1.19-0.5,1.79-0.76c-2.69,1.1-5.52,1.77-8.39,2.16
			c0.66-0.09,1.33-0.18,1.99-0.27c-4.57,0.58-9.18,0.45-13.74-0.14c0.66,0.09,1.33,0.18,1.99,0.27c-9.55-1.29-18.88-3.85-27.76-7.58
			c0.6,0.25,1.19,0.5,1.79,0.76c-5.14-2.18-10.11-4.73-14.86-7.65c-2.31-1.43-4.58-2.94-6.78-4.53c-0.56-0.41-1.12-0.82-1.68-1.24
			c-0.95-0.72-0.08-0.03,0.36,0.28c-0.28-0.2-0.55-0.43-0.82-0.65c-1.15-0.91-2.27-1.84-3.38-2.8c-1.53-1.31-3.23-2.2-5.3-2.2
			c-1.84,0-4.04,0.82-5.3,2.2c-2.58,2.81-3.18,7.88,0,10.61c12.44,10.69,26.91,18.75,42.61,23.54c7.51,2.29,15.4,3.91,23.25,4.42
			c6.65,0.43,13.81-0.15,20.02-2.7c3.7-1.51,7.05-3.37,9.96-6.18c3.01-2.9,5.21-6.62,6.45-10.59c2.6-8.31,0.41-17.88-4.21-25.06
			c-4.72-7.34-11.79-12.68-19.12-17.2c-7.46-4.6-15.12-8.92-22.68-13.35c-7.88-4.62-15.77-9.24-23.65-13.86
			c-3.79-2.22-7.66-4.36-11.38-6.7c-0.71-0.45-1.41-0.91-2.09-1.39c-0.23-0.17-1.02-0.56-1.11-0.81c-0.03-0.08,1.33,1.06,0.74,0.57
			c-0.2-0.17-0.41-0.33-0.62-0.5c-1.4-1.15-2.72-2.4-3.89-3.79c-0.04-0.05-0.3-0.43-0.36-0.43c-0.01,0,0.99,1.35,0.61,0.78
			c-0.24-0.35-0.49-0.69-0.72-1.05c-0.44-0.69-0.82-1.42-1.15-2.17c0.25,0.6,0.5,1.19,0.76,1.79c-0.38-0.94-0.65-1.89-0.8-2.89
			c0.09,0.66,0.18,1.33,0.27,1.99c-0.08-0.78-0.08-1.53,0.01-2.3c-0.09,0.66-0.18,1.33-0.27,1.99c0.12-0.81,0.33-1.57,0.64-2.33
			c-0.25,0.6-0.5,1.19-0.76,1.79c0.27-0.61,0.6-1.17,0.95-1.74c0.67-1.07-1.23,1.36-0.39,0.54c0.26-0.25,0.52-0.51,0.78-0.76
			c1.03-1.01-1.18,0.76-0.53,0.4c0.27-0.15,0.53-0.35,0.8-0.51c0.61-0.36,1.24-0.66,1.88-0.93c-0.6,0.25-1.19,0.5-1.79,0.76
			c2.11-0.85,4.34-1.33,6.59-1.65c-0.66,0.09-1.33,0.18-1.99,0.27c3.61-0.48,7.28-0.64,10.91-0.91c4.13-0.31,8.27-0.61,12.4-0.92
			c8.35-0.62,16.7-1.24,25.05-1.86c4.8-0.36,9.59-0.71,14.39-1.07c0-5,0-10,0-15c-2.88,0.37-5.76,0.74-8.64,1.11
			c-2.07,0.27-3.77,0.66-5.3,2.2c-1.3,1.3-2.28,3.44-2.2,5.3c0.09,1.94,0.72,3.95,2.2,5.3
			C1378.65,518.92,1380.68,520.11,1382.59,519.87L1382.59,519.87z"/>
	</g>
</g>
<g>
	<g>
		<g>
			<path class="st7" d="M1501.02,532.04c-17.23,27.23-34.46,54.46-51.68,81.69c-4.88,7.72-9.77,15.44-14.65,23.16
				c-2.1,3.32-0.8,8.41,2.69,10.26c3.7,1.96,8.02,0.85,10.26-2.69c17.23-27.23,34.46-54.46,51.68-81.69
				c4.88-7.72,9.77-15.44,14.65-23.16c2.1-3.32,0.8-8.41-2.69-10.26C1507.58,527.4,1503.27,528.5,1501.02,532.04L1501.02,532.04z"/>
		</g>
	</g>
	<g>
		<g>
			<path class="st7" d="M1561.44,543.93c-19.05-4.81-38.1-9.61-57.15-14.42c-5.39-1.36-10.77-2.72-16.16-4.08
				c-3.8-0.96-8.31,1.23-9.23,5.24c-0.89,3.89,1.17,8.2,5.24,9.23c19.05,4.81,38.1,9.61,57.15,14.42
				c5.39,1.36,10.77,2.72,16.16,4.08c3.8,0.96,8.31-1.23,9.23-5.24C1567.57,549.27,1565.51,544.96,1561.44,543.93L1561.44,543.93z"
				/>
		</g>
	</g>
	<g>
		<g>
			<path class="st7" d="M1531.69,593.86c-16.63-0.92-33.26-1.84-49.89-2.76c-4.72-0.26-9.43-0.52-14.15-0.78
				c-3.92-0.22-7.67,3.61-7.5,7.5c0.19,4.25,3.3,7.27,7.5,7.5c16.63,0.92,33.26,1.84,49.89,2.77c4.72,0.26,9.43,0.52,14.15,0.78
				c3.92,0.22,7.67-3.61,7.5-7.5C1539,597.11,1535.89,594.1,1531.69,593.86L1531.69,593.86z"/>
		</g>
	</g>
	<g>
		<g>
			<path class="st7" d="M1494.35,639.29c-18.42-4.06-36.83-8.13-55.25-12.19c-3.82-0.84-8.29,1.15-9.23,5.24
				c-0.86,3.79,1.14,8.32,5.24,9.23c3.12,0.69,6.25,1.38,9.37,2.07c3.82,0.84,8.29-1.15,9.23-5.24c0.86-3.79-1.14-8.32-5.24-9.23
				c-3.12-0.69-6.25-1.38-9.37-2.07c-1.33,4.82-2.66,9.64-3.99,14.46c18.42,4.06,36.83,8.13,55.25,12.19
				c3.82,0.84,8.29-1.15,9.23-5.24C1500.45,644.72,1498.44,640.19,1494.35,639.29L1494.35,639.29z"/>
		</g>
	</g>
</g>
<g>
	<g>
		<path class="st7" d="M1613.48,660.39c-4.41-10.07-12.7-18.6-22.33-23.83c-10.32-5.61-21.98-7.51-33.53-5.39
			c-10.52,1.93-20.54,7.65-27.98,15.27c-3.73,3.82-7.03,8.27-9.39,13.07c-2.67,5.43-4.25,10.95-4.97,16.94
			c-2.5,20.93,9.34,43.41,28.04,53.13c20.03,10.41,45.42,6.74,62.21-8.12c16.44-14.55,22.07-40.12,14.49-60.54
			c-1.02-2.76-2.21-5.47-3.63-8.05c-1.9-3.44-6.92-4.85-10.26-2.69c-3.48,2.25-4.72,6.58-2.69,10.26c0.76,1.38,1.45,2.79,2.07,4.24
			c-0.25-0.6-0.5-1.19-0.76-1.79c1.65,3.91,2.75,8,3.35,12.2c-0.09-0.66-0.18-1.33-0.27-1.99c0.61,4.57,0.61,9.19,0.02,13.77
			c0.09-0.66,0.18-1.33,0.27-1.99c-0.61,4.44-1.77,8.78-3.5,12.92c0.25-0.6,0.5-1.19,0.76-1.79c-1.13,2.67-2.48,5.23-4.08,7.65
			c-0.4,0.6-0.81,1.2-1.24,1.78c-0.31,0.42-1.21,1.51,0.3-0.36c-0.23,0.28-0.45,0.57-0.68,0.85c-0.92,1.12-1.89,2.19-2.92,3.21
			c-1.02,1.01-2.08,1.97-3.2,2.88c-0.44,0.36-1.52,1.08,0.39-0.29c-0.29,0.21-0.57,0.43-0.86,0.64c-0.58,0.42-1.17,0.83-1.77,1.22
			c-2.4,1.58-4.94,2.91-7.58,4.04c0.6-0.25,1.19-0.5,1.79-0.76c-4.09,1.72-8.38,2.89-12.78,3.5c0.66-0.09,1.33-0.18,1.99-0.27
			c-4.39,0.58-8.83,0.6-13.22,0.02c0.66,0.09,1.33,0.18,1.99,0.27c-3.9-0.55-7.71-1.56-11.35-3.08c0.6,0.25,1.19,0.5,1.79,0.76
			c-2.66-1.13-5.21-2.52-7.59-4.16c-0.54-0.37-2.67-2.14-0.59-0.38c-0.53-0.45-1.09-0.88-1.62-1.33c-1.06-0.91-2.07-1.88-3.04-2.89
			c-0.97-1.01-1.88-2.07-2.77-3.16c-0.88-1.08,1.14,1.53,0.31,0.41c-0.21-0.28-0.42-0.56-0.62-0.85c-0.41-0.57-0.81-1.15-1.19-1.73
			c-1.6-2.45-2.98-5.04-4.13-7.73c0.25,0.6,0.5,1.19,0.76,1.79c-1.68-3.99-2.83-8.17-3.42-12.46c0.09,0.66,0.18,1.33,0.27,1.99
			c-0.49-3.82-0.51-7.66-0.03-11.48c-0.09,0.66-0.18,1.33-0.27,1.99c0.49-3.63,1.45-7.16,2.86-10.55c-0.25,0.6-0.5,1.19-0.76,1.79
			c1.14-2.67,2.54-5.23,4.18-7.63c0.42-0.61,0.84-1.34,1.35-1.87c-0.25,0.32-0.49,0.64-0.74,0.95c0.15-0.19,0.3-0.37,0.44-0.56
			c0.22-0.28,0.45-0.55,0.68-0.82c0.92-1.09,1.9-2.13,2.92-3.13c1.02-1,2.08-1.95,3.19-2.86c0.28-0.23,0.56-0.44,0.84-0.67
			c-1.88,1.52-0.8,0.62-0.38,0.31c0.58-0.42,1.16-0.83,1.75-1.23c2.47-1.65,5.1-3.06,7.83-4.22c-0.6,0.25-1.19,0.5-1.79,0.76
			c3.61-1.51,7.38-2.56,11.26-3.08c-0.66,0.09-1.33,0.18-1.99,0.27c3.58-0.46,7.17-0.45,10.75,0.03c-0.66-0.09-1.33-0.18-1.99-0.27
			c3.77,0.53,7.42,1.56,10.93,3.03c-0.6-0.25-1.19-0.5-1.79-0.76c2.54,1.08,4.97,2.38,7.28,3.89c0.56,0.37,1.12,0.75,1.67,1.15
			c0.24,0.17,0.61,0.55,0.89,0.66c-0.31-0.24-0.62-0.48-0.94-0.72c0.19,0.15,0.38,0.3,0.57,0.46c1.05,0.85,2.06,1.74,3.02,2.68
			c0.97,0.94,1.89,1.92,2.77,2.94c0.24,0.28,0.48,0.56,0.71,0.84c0.19,0.24,0.91,1.16,0.1,0.1c-0.85-1.1,0.01,0.03,0.19,0.27
			c0.18,0.25,0.36,0.49,0.53,0.75c1.62,2.31,2.99,4.77,4.12,7.36c0.7,1.61,2.87,3,4.48,3.45c1.8,0.49,4.19,0.27,5.78-0.76
			c1.6-1.03,3.01-2.57,3.45-4.48C1614.71,664.08,1614.33,662.34,1613.48,660.39L1613.48,660.39z"/>
	</g>
</g>
</svg>
