<?xml version="1.0" encoding="utf-8"?>
<!-- Generator: Adobe Illustrator 28.2.0, SVG Export Plug-In . SVG Version: 6.00 Build 0)  -->
<svg version="1.1" id="Layer_1" xmlns="http://www.w3.org/2000/svg" xmlns:xlink="http://www.w3.org/1999/xlink" x="0px" y="0px"
	 viewBox="0 0 2000 2000" style="enable-background:new 0 0 2000 2000;" xml:space="preserve">
<style type="text/css">
	.st0{fill:#032E34;}
	.st1{fill:#F6EFEB;}
	.st2{fill:#6A8CFA;}
	.st3{fill:#6E8EFC;}
	.st4{fill:#071A1E;}
	.st5{fill:#EDE8EC;}
	.st6{fill:#688BFB;}
	.st7{fill:#EAE7EC;}
	.st8{fill:#EEE9EC;}
	.st9{fill:#05303A;}
	.st10{fill:#032E35;}
	.st11{fill:#E5E3EC;}
	.st12{fill:#6B8DFC;}
	.st13{fill:#5480F7;}
	.st14{fill:#6F8FFD;}
	.st15{fill:#E4E2EC;}
	.st16{fill:#6D8EFC;}
	.st17{fill:#061819;}
	.st18{fill:#043039;}
	.st19{fill:#5D85F9;}
	.st20{fill:#05191A;}
	.st21{fill:#6A8CFB;}
	.st22{fill:#7694FA;}
	.st23{fill:#05303C;}
	.st24{fill:#061717;}
	.st25{fill:#083447;}
	.st26{fill:#061A1D;}
	.st27{fill:#E3E2ED;}
	.st28{fill:#071D21;}
	.st29{fill:#071B1F;}
	.st30{fill:#6288FA;}
	.st31{fill:#6389FA;}
	.st32{fill:#051B1C;}
	.st33{fill:#061B1D;}
	.st34{fill:#D3D7ED;}
	.st35{fill:#668AFB;}
	.st36{fill:#5882F7;}
	.st37{fill:#062F3B;}
	.st38{fill:#093548;}
	.st39{fill:#4F7DF5;}
	.st40{fill:#09222C;}
	.st41{fill:#061B1C;}
	.st42{fill:#4C7CF5;}
	.st43{fill:#052931;}
	.st44{fill:#061A1C;}
	.st45{fill:#6187F9;}
	.st46{fill:#081E25;}
	.st47{fill:#032B2F;}
	.st48{fill:#052F3A;}
	.st49{fill:#061919;}
	.st50{fill:#DDDEED;}
	.st51{fill:#92A8F8;}
	.st52{fill:#061D20;}
	.st53{fill:#071B1E;}
	.st54{fill:#092837;}
	.st55{fill:#051A1A;}
	.st56{fill:#082F40;}
	.st57{fill:#E3E2EC;}
	.st58{fill:#051D1E;}
	.st59{fill:#5D86F7;}
	.st60{fill:#E1E0ED;}
	.st61{fill:#5C84F8;}
	.st62{fill:#507EF6;}
	.st63{fill:#517EF6;}
	.st64{fill:#3E73F2;}
	.st65{fill:#071F25;}
	.st66{fill:#CFD4ED;}
	.st67{fill:#0A2E40;}
	.st68{fill:#042123;}
	.st69{fill:#061514;}
	.st70{fill:#4C7BF5;}
	.st71{fill:#032C31;}
	.st72{fill:#042326;}
	.st73{fill:#5782F7;}
	.st74{fill:#051A1B;}
	.st75{fill:#042F38;}
	.st76{fill:#032E33;}
	.st77{fill:#3A72F1;}
	.st78{fill:#061616;}
	.st79{fill:#042427;}
	.st80{fill:#052A32;}
	.st81{fill:#4B7BF5;}
	.st82{fill:#356FF0;}
	.st83{fill:#537FF6;}
	.st84{fill:#061818;}
	.st85{fill:#051E20;}
	.st86{fill:#06252C;}
	.st87{fill:#061413;}
</style>
<path class="st0" d="M1319.03,1029.7h82.45l33.73,3.75l26.23,29.98l37.48,56.21l33.73,56.21l26.23,59.96l18.74,44.97l22.49,67.46
	v33.73l-26.23,22.49l-59.96,29.98l-67.46,14.99l-7.5,3.75h-44.97l-14.99-18.74l-7.5-37.48l-48.72-7.5l-26.23-11.24l7.5-22.49
	l7.5-37.48l-14.99,3.75l-7.5,14.99l-22.49,26.23l-41.22-3.75l-37.48-11.24l3.75-22.49l29.98-26.23l7.5-14.99l-18.74,11.24
	l-18.74,18.74l-14.99,11.24l-29.98,3.75l-11.24-3.75l-3.75,26.23l-14.99,7.5h-29.98l-33.73-7.5l-3.75-14.99l7.5-22.49l-3.75-14.99
	l-14.99,22.49l-7.5,18.74h-14.99l14.99,71.21l183.64,3.75l89.94,7.5l-3.75,63.71h187.38l93.69,7.5l7.5,7.5l-67.46,7.5l-108.68,3.75
	H543.26l-89.94-11.24l7.5-7.5l48.72-3.75l-22.49-97.44l-67.46-277.33l3.75-22.49l18.74-18.74h502.19l14.99,18.74l26.23,104.93v7.5
	h37.48l33.73,11.24v-37.48l14.99-59.96l18.74-44.97l18.74-22.49l59.96-11.24l74.95-7.5L1319.03,1029.7z"/>
<path class="st1" d="M442.07,497.53h37.48l161.15,18.74l142.41,14.99l116.18,14.99l33.73,7.5l7.5,7.5v127.42l-7.5,123.67
	l-11.24,93.69l-11.24,7.5l-52.47,3.75h-71.21l29.98,71.21l-3.75,14.99l-26.23-3.75l-44.97-41.22l-29.98-37.48v-7.5l-86.2-3.75
	l-134.92-14.99l-59.96-11.24l-14.99-14.99l-7.5-41.22v-67.46l11.24-134.92l14.99-112.43L442.07,497.53z"/>
<path class="st0" d="M1330.27,564.99l18.74,3.75l11.24,14.99l14.99,63.71l3.75,29.98l71.21,14.99l14.99,14.99l3.75,11.24l3.75,63.71
	h37.48l18.74,11.24l3.75,7.5v26.23l-14.99,37.48l-18.74,18.74l-33.73,14.99l-7.5,63.71l-7.5,11.24l-48.72,14.99l-59.96,7.5h-104.93
	l-82.45-7.5l-33.73-11.24l-11.24-29.98l3.75-52.47l3.75-22.49l-18.74-3.75l-22.49-11.24l-11.24-18.74l3.75-37.48l7.5-26.23
	l11.24-14.99l18.74-3.75h37.48l11.24-41.22l11.24-22.49l11.24-11.24l14.99-3.75h78.7l-22.49-52.47l-3.75-29.98l18.74-11.24
	L1330.27,564.99z"/>
<path class="st2" d="M1247.82,1052.18h172.39l29.98,33.73l41.22,63.71l41.22,78.7l29.98,71.21l18.74,52.47v22.49l-33.73,22.49
	l-71.21,26.23l-52.47,11.24h-18.74l-14.99-33.73l3.75-18.74l44.97-11.24l37.48-26.23l18.74-29.98l7.5-33.73l-3.75-48.72
	l-22.49-56.21l-18.74-22.49l7.5,11.24l22.49,44.97l3.75,26.23l-18.74-18.74l-33.73-22.49h-7.5l33.73,22.49l26.23,22.49v44.97
	l-11.24,29.98l-7.5,3.75l-18.74-41.22l-14.99-22.49l-29.98-22.49l26.23,22.49l22.49,33.73l7.5,26.23v18.74l-22.49,18.74
	l-26.23,11.24h-14.99l7.5-37.48v-26.23l-11.24-33.73l-22.49-29.98l7.5-26.23l-3.75-44.97l-3.75,3.75l3.75,33.73l-11.24,22.49
	l-41.22-3.75l-48.72-26.23l-14.99-3.75h-56.21l-37.48,14.99l-29.98,26.23l-11.24,18.74l-11.24-3.75l-11.24-33.73l-3.75-18.74
	l-3.75,29.98h-22.49l11.24,18.74l18.74,11.24l11.24,11.24v11.24l-14.99,14.99l-3.75,22.49l14.99,7.5v18.74h-37.48l-3.75-56.21
	h-22.49l-18.74,14.99l-7.5,22.49h-11.24l-11.24-44.97l-7.5-37.48v-22.49h33.73l33.73,3.75l22.49-78.7l14.99-33.73l14.99-29.98
	l14.99-11.24l78.7-11.24L1247.82,1052.18z"/>
<path class="st3" d="M442.07,497.53h37.48l161.15,18.74l142.41,14.99l116.18,14.99l33.73,7.5l7.5,7.5v127.42l-7.5,123.67
	l-11.24,93.69l-11.24,7.5l-52.47,3.75h-71.21l29.98,71.21l-3.75,14.99l-26.23-3.75l-44.97-41.22l-29.98-37.48v-7.5l-86.2-3.75
	l-134.92-14.99l-59.96-11.24l-14.99-14.99l-7.5-41.22v-67.46l11.24-134.92l14.99-112.43L442.07,497.53z M457.07,520.01l-7.5,52.47
	l-14.99,157.4v112.43l11.24,18.74l108.68,14.99l149.91,11.24l22.49,7.5l29.98,44.97l7.5,3.75v-48.72l131.17-7.5l11.24-71.21
	l18.74-134.92l7.5-71.21v-48.72l-3.75-3.75l-224.86-11.24l-157.4-14.99L457.07,520.01z"/>
<path class="st4" d="M1319.03,1029.7h82.45l33.73,3.75l26.23,29.98l37.48,56.21l33.73,56.21l26.23,59.96l18.74,44.97l22.49,67.46
	v33.73l-26.23,22.49l-59.96,29.98l-67.46,14.99l-7.5,3.75h-44.97l-14.99-18.74l-7.5-37.48l-48.72-7.5l-26.23-11.24l7.5-22.49
	l18.74-29.98v-11.24h7.5v37.48l-3.75,18.74H1364l11.24-18.74l7.5-18.74v-37.48l-14.99-26.23l-3.75-11.24l-14.99-7.5l-33.73-14.99
	l-41.22-22.49v-7.5l-26.23-7.5l-44.97-3.75l3.75-7.5h56.21l37.48,14.99l26.23,14.99l41.22,3.75l7.5-18.74l-3.75-37.48h7.5l7.5,26.23
	l-3.75,33.73v14.99l22.49,33.73l7.5,26.23v26.23l-11.24,37.48l41.22-14.99l18.74-14.99l-3.75-33.73l-14.99-29.98l-14.99-18.74
	l-26.23-18.74l7.5-3.75l29.98,22.49l14.99,18.74l22.49,44.97l11.24-29.98l3.75-44.97l-14.99-7.5l-29.98-26.23l-29.98-11.24
	l-18.74-3.75v-3.75h26.23l29.98,11.24l22.49,18.74l11.24,14.99l-7.5-33.73l-22.49-37.48l-7.5-11.24l14.99,7.5l22.49,33.73
	l14.99,41.22l3.75,48.72l-7.5,33.73l-22.49,33.73l-37.48,26.23l-44.97,11.24l3.75,26.23l7.5,18.74l37.48-3.75l56.21-14.99
	l56.21-22.49l22.49-14.99l-3.75-33.73l-29.98-78.7l-48.72-101.19l-52.47-78.7l-22.49-26.23h-172.39l-78.7,7.5h-33.73v-7.5h-14.99
	v7.5l-14.99,3.75l18.74-18.74l82.45-11.24L1319.03,1029.7z"/>
<path class="st5" d="M1360.25,812.33h26.23l-3.75,29.98v41.22l7.5,11.24l48.72,7.5v48.72l-18.74,11.24l-74.95,11.24h-119.93
	l-71.21-7.5l-18.74-7.5l-3.75-7.5l3.75-59.96l11.24-52.47l11.24-3.75l41.22,7.5v33.73h44.97l7.5-33.73h89.94l14.99-3.75v-22.49
	L1360.25,812.33z"/>
<path class="st6" d="M1206.6,696.15h86.2l112.43,7.5l33.73,7.5l7.5,7.5v59.96l-33.73,11.24l-18.74,11.24l-33.73,3.75l-7.5-26.23
	v-7.5h-48.72v11.24h29.98l7.5,3.75v41.22l-3.75,3.75h-71.21l-7.5-3.75v-37.48l18.74-7.5v-7.5l-26.23,7.5l-3.75,7.5l-3.75,52.47
	l-14.99,22.49l-11.24,3.75l-3.75-3.75v-41.22l7.5-37.48l-18.74,37.48l-3.75-7.5h-7.5v11.24l-29.98-3.75l-3.75-3.75l3.75-33.73
	l11.24-11.24h41.22l7.5,3.75v-7.5l-48.72-3.75l-3.75-18.74l11.24-37.48l11.24-11.24L1206.6,696.15z"/>
<path class="st7" d="M1247.82,1052.18h172.39l22.49,26.23v7.5l-78.7-3.75v-11.24l-41.22,7.5l-104.93,7.5h-52.47l-18.74-11.24
	l7.5,14.99l7.5,3.75l-3.75,11.24l-22.49,11.24l-29.98,52.47l-7.5,3.75v-7.5h-7.5l3.75,7.5l3.75,52.47h-22.49l11.24,18.74
	l18.74,11.24l11.24,11.24v11.24l-14.99,14.99l-3.75,22.49l14.99,7.5v18.74h-37.48l-3.75-56.21h-22.49l-18.74,14.99l-7.5,22.49
	h-11.24l-11.24-44.97l-7.5-37.48v-22.49h33.73l33.73,3.75l22.49-78.7l14.99-33.73l14.99-29.98l14.99-11.24l78.7-11.24
	L1247.82,1052.18z"/>
<path class="st8" d="M1236.58,1209.58h37.48l41.22,22.49l33.73,14.99l18.74,18.74l14.99,18.74l3.75,11.24v37.48l-14.99,33.73
	l-7.5,7.5l-37.48-3.75v-63.71l-26.23-3.75l-18.74,7.5l-22.49,29.98h-33.73v-14.99l18.74-22.49l3.75-29.98l-3.75-3.75h-33.73
	l-22.49,14.99l-22.49,22.49h-33.73l-3.75-14.99l33.73-37.48l37.48-29.98L1236.58,1209.58z"/>
<path class="st9" d="M1097.92,1183.35l7.5,11.24l11.24,44.97l11.24,11.24l7.5-18.74l33.73-29.98l22.49-11.24l56.21,3.75l26.23,11.24
	v3.75l-48.72,7.5l-37.48,18.74l-44.97,41.22l-11.24,14.99v11.24h33.73l29.98-29.98l14.99-7.5h33.73l7.5,7.5l-3.75,29.98
	l-22.49,26.23v7.5h33.73l22.49-29.98l18.74-7.5l18.74,3.75l7.5,3.75v22.49l-7.5,3.75l-7.5,11.24v-26.23l-14.99,3.75l-7.5,14.99
	l-22.49,26.23l-41.22-3.75l-37.48-11.24l3.75-22.49l29.98-26.23l7.5-14.99l-18.74,11.24l-18.74,18.74l-14.99,11.24l-29.98,3.75
	l-11.24-3.75l-3.75,26.23l-14.99,7.5h-29.98l-33.73-7.5l-3.75-14.99l7.5-22.49l-3.75-22.49l14.99,3.75l7.5,18.74v26.23h37.48
	l-7.5-22.49l-7.5-3.75v-22.49l11.24-14.99h7.5l-11.24-18.74l-29.98-22.49v-11.24h22.49V1183.35z"/>
<path class="st10" d="M1450.2,1149.62l14.99,7.5l22.49,33.73l14.99,41.22l3.75,48.72l-7.5,33.73l-22.49,33.73l-37.48,26.23
	l-44.97,11.24v26.23l-3.75-7.5l-7.5,7.5v22.49l-7.5-14.99l-3.75-22.49l-48.72-7.5l-26.23-11.24l7.5-22.49l18.74-29.98v-11.24h7.5
	v37.48l-3.75,18.74H1364l11.24-18.74l7.5-18.74v-37.48l-14.99-26.23l-3.75-11.24l-14.99-7.5l-33.73-14.99l-41.22-22.49v-7.5
	l-26.23-7.5l-44.97-3.75l3.75-7.5h56.21l37.48,14.99l26.23,14.99l41.22,3.75l7.5-18.74l-3.75-37.48h7.5l7.5,26.23l-3.75,33.73v14.99
	l22.49,33.73l7.5,26.23v26.23l-11.24,37.48l41.22-14.99l18.74-14.99l-3.75-33.73l-14.99-29.98l-14.99-18.74l-26.23-18.74l7.5-3.75
	l29.98,22.49l14.99,18.74l22.49,44.97l11.24-29.98l3.75-44.97l-14.99-7.5l-29.98-26.23l-29.98-11.24l-18.74-3.75v-3.75h26.23
	l29.98,11.24l22.49,18.74l11.24,14.99l-7.5-33.73l-22.49-37.48L1450.2,1149.62z"/>
<path class="st11" d="M1172.87,744.87l191.13,7.5l11.24,11.24l3.75,33.73h-7.5v7.5l-14.99-3.75l-3.75-29.98h-48.72v11.24h29.98
	l7.5,3.75v41.22l-3.75,3.75h-71.21l-7.5-3.75v-37.48l18.74-7.5v-7.5l-26.23,7.5l-3.75,7.5l-3.75,52.47l-14.99,22.49l-11.24,3.75
	l-3.75-3.75v-41.22l7.5-37.48l-18.74,37.48l-3.75-7.5h-7.5v11.24l-29.98-3.75l-3.75-3.75l3.75-33.73l11.24-11.24h41.22l7.5,3.75
	v-7.5l-48.72-3.75l-3.75-18.74L1172.87,744.87z"/>
<path class="st12" d="M1375.24,842.31h3.75l3.75,41.22l7.5,11.24l48.72,7.5v48.72l-18.74,11.24l-74.95,11.24h-119.93v-3.75h74.95
	l3.75-41.22l11.24-44.97l22.49-18.74l33.73-14.99L1375.24,842.31z"/>
<path class="st6" d="M1382.74,1179.6l3.75,7.5l44.97,7.5l33.73,22.49l26.23,22.49v44.97l-11.24,29.98l-7.5,3.75l-18.74-41.22
	l-14.99-22.49l-29.98-22.49l26.23,22.49l22.49,33.73l7.5,26.23v18.74l-22.49,18.74l-26.23,11.24h-14.99l7.5-37.48v-26.23
	l-11.24-33.73l-22.49-29.98l7.5-26.23V1179.6z"/>
<path class="st13" d="M1528.9,662.42l37.48,7.5l33.73,18.74l29.98,26.23l7.5,14.99v29.98l-11.24,14.99l22.49,44.97v33.73
	l-14.99,37.48l-14.99,14.99l3.75,14.99v37.48l-11.24,22.49l-18.74,14.99l-18.74,3.75v26.23l-26.23,44.97l-22.49,22.49h-7.5
	l3.75-18.74l29.98-41.22l3.75-7.5v-26.23l-3.75-14.99l33.73-3.75l11.24-3.75l7.5-18.74l3.75-37.48h-41.22l-14.99-14.99l3.75-14.99
	l7.5-7.5h29.98l22.49,3.75l14.99-33.73v-33.73l-14.99-26.23l-7.5-3.75l-11.24,7.5h-29.98l-18.74-14.99l3.75-18.74l18.74-7.5
	l26.23,3.75l18.74,3.75l3.75-7.5v-26.23l-22.49-26.23l-67.46-33.73V662.42z"/>
<path class="st14" d="M442.07,497.53h37.48l161.15,18.74l142.41,14.99l116.18,14.99l29.98,7.5v3.75h-63.71l-161.15-7.5L547.01,535
	l-93.69-14.99l3.75-7.5h7.5v-11.24h-22.49V497.53z"/>
<path class="st15" d="M1247.82,1052.18h172.39l22.49,26.23v7.5l-78.7-3.75v-11.24l-41.22,7.5l-104.93,7.5h-52.47l-18.74-11.24v-7.5
	l22.49-7.5L1247.82,1052.18z"/>
<path class="st16" d="M1330.27,583.72h11.24l14.99,56.21l3.75,37.48h-78.7l-18.74-56.21v-14.99l41.22-14.99L1330.27,583.72z"/>
<path class="st17" d="M1330.27,564.99l18.74,3.75l11.24,14.99l11.24,41.22v52.47l-11.24,3.75l-18.74-97.44l-71.21,22.49h-7.5
	l18.74,59.96v14.99h48.72v3.75l-41.22,3.75l-7.5,3.75l-93.69,3.75v-11.24l3.75-7.5h78.7l-22.49-52.47l-3.75-29.98l18.74-11.24
	L1330.27,564.99z"/>
<path class="st18" d="M1304.04,771.11h48.72v67.46l-11.24,7.5h-74.95l-14.99-3.75l-7.5,33.73l-11.24,3.75h-26.23l-7.5-3.75
	l-3.75-14.99l3.75-18.74l-41.22-3.75v-14.99l33.73,3.75v-11.24h11.24l14.99-29.98l7.5-3.75l-3.75,22.49l-3.75,18.74v41.22h11.24
	l11.24-22.49l3.75-52.47l11.24-14.99h22.49v7.5l-14.99,7.5l-3.75,37.48h78.7l3.75-41.22l-37.48-3.75V771.11z"/>
<path class="st19" d="M884.3,1108.4h11.24l22.49,59.96l48.72,183.64l18.74,82.45v33.73l-18.74,18.74v-11.24l3.75-3.75l-3.75-33.73
	l-48.72-202.37L884.3,1108.4z"/>
<path class="st20" d="M1450.2,1149.62l14.99,7.5l22.49,33.73l14.99,41.22l3.75,48.72l-7.5,33.73l-22.49,33.73l-37.48,26.23
	l-11.24,3.75h-29.98l18.74-18.74l37.48-18.74l7.5-7.5l-3.75-33.73l-14.99-29.98l-14.99-18.74l-26.23-18.74l7.5-3.75l29.98,22.49
	l14.99,18.74l22.49,44.97l11.24-29.98l3.75-44.97l-14.99-7.5l-29.98-26.23l-29.98-11.24l-18.74-3.75v-3.75h26.23l29.98,11.24
	l22.49,18.74l11.24,14.99l-7.5-33.73l-22.49-37.48L1450.2,1149.62z"/>
<path class="st21" d="M1142.89,849.81l26.23,7.5l11.24,14.99v59.96l-7.5,33.73l-29.98-3.75l-11.24-11.24l3.75-59.96L1142.89,849.81z
	"/>
<path class="st22" d="M1528.9,662.42l37.48,7.5l33.73,18.74l29.98,26.23l7.5,14.99v29.98l-11.24,14.99v11.24l-26.23,7.5l-3.75,3.75
	h-29.98l-18.74-14.99l3.75-18.74l18.74-7.5l26.23,3.75l18.74,3.75l3.75-7.5v-26.23l-22.49-26.23l-67.46-33.73V662.42z"/>
<path class="st23" d="M1221.59,1299.53l14.99,14.99l-11.24,14.99v7.5h33.73l22.49-29.98l18.74-7.5l18.74,3.75l7.5,3.75v22.49
	l-7.5,3.75l-7.5,11.24v-26.23l-14.99,3.75l-7.5,14.99l-22.49,26.23l-41.22-3.75l-37.48-11.24l3.75-22.49L1221.59,1299.53z"/>
<path class="st24" d="M1244.07,1033.44H1364l37.48,7.5l3.75,7.5h-101.19l-71.21,3.75l-26.23,7.5l-37.48,3.75h-33.73v-7.5h-14.99v7.5
	l-14.99,3.75l18.74-18.74l82.45-11.24L1244.07,1033.44z"/>
<path class="st25" d="M1319.03,1029.7h82.45l33.73,3.75l26.23,29.98l33.73,52.47l-7.5,7.5l-41.22-44.97h-7.5l-18.74-22.49h-206.12
	v-3.75l18.74-3.75l78.7-3.75h89.94l-37.48-7.5l-44.97-3.75V1029.7z"/>
<path class="st26" d="M805.6,733.63h18.74l-11.24,11.24l-22.49,11.24l-11.24,11.24l3.75,18.74l18.74,7.5l29.98-3.75l18.74-14.99
	v-18.74l-18.74-11.24v-7.5h26.23l11.24,11.24v29.98l-18.74,22.49l-11.24,7.5l-41.22,3.75l-26.23-11.24l-11.24-14.99v-22.49
	l14.99-18.74L805.6,733.63z"/>
<path class="st27" d="M824.34,733.63h22.49l-14.99,3.75l7.5,11.24l14.99,7.5v18.74l-22.49,18.74l-29.98,3.75l-18.74-7.5l-7.5-7.5
	l3.75-18.74l22.49-18.74L824.34,733.63z"/>
<path class="st28" d="M1109.16,1052.18l7.5,3.75l-3.75,7.5h7.5v-7.5h14.99v7.5l7.5,3.75l-26.23,11.24l-18.74,33.73l-18.74,52.47
	l-14.99,52.47h-7.5v-37.48l14.99-59.96l18.74-44.97L1109.16,1052.18z"/>
<path class="st29" d="M681.92,669.92l26.23,3.75l11.24,14.99l-3.75,29.98l-18.74,18.74l-14.99,7.5h-29.98l-22.49-14.99l-7.5-7.5
	v-29.98l22.49-18.74h22.49l-11.24,11.24l-18.74,14.99l3.75,18.74l18.74,7.5h22.49l14.99-11.24v-26.23l-18.74-11.24L681.92,669.92z"
	/>
<path class="st30" d="M704.41,1220.83l26.23,3.75l44.97,18.74l14.99,11.24l-3.75,18.74l-14.99,18.74l-18.74,14.99l-14.99-3.75
	l3.75-18.74l14.99-14.99l3.75-11.24l-22.49-7.5l-33.73-22.49V1220.83z"/>
<path class="st31" d="M618.21,1220.83h7.5l-3.75,18.74l-11.24,11.24h-7.5l14.99,14.99l37.48,26.23l-3.75,18.74l-26.23-11.24
	l-44.97-26.23l-3.75-18.74l26.23-26.23L618.21,1220.83z"/>
<path class="st32" d="M1304.04,771.11h48.72v67.46l-11.24,7.5h-74.95l-14.99-7.5l-3.75-11.24l3.75-18.74l7.5,7.5v11.24h78.7
	l3.75-41.22l-37.48-3.75V771.11z"/>
<path class="st33" d="M1352.76,1070.92H1364v7.5l-86.2,14.99l-59.96,7.5h-48.72l-22.49-14.99v-11.24l18.74,7.5h52.47l104.93-7.5
	L1352.76,1070.92z"/>
<path class="st34" d="M1172.87,774.85h52.47l-7.5,18.74l-14.99,29.98l-3.75-7.5h-7.5v11.24l-29.98-3.75l-3.75-3.75l3.75-33.73
	L1172.87,774.85z"/>
<path class="st35" d="M1551.38,984.72h33.73l7.5,11.24l-18.74,3.75v26.23l-26.23,44.97l-22.49,22.49h-7.5l3.75-18.74l29.98-41.22
	l3.75-7.5v-26.23L1551.38,984.72z"/>
<path class="st36" d="M678.18,1205.84l11.24,3.75v108.68h-14.99l-3.75-7.5v-78.7L678.18,1205.84z"/>
<path class="st37" d="M1285.3,872.29h14.99v18.74l-37.48,33.73L1236.58,936l-14.99-3.75l-3.75-7.5v-22.49h7.5l3.75,14.99l14.99-7.5
	L1285.3,872.29z"/>
<path class="st38" d="M798.1,617.45h14.99l3.75,11.24v56.21h14.99v14.99h-52.47l3.75-14.99h18.74v-52.47h-14.99l3.75-11.24
	L798.1,617.45z"/>
<path class="st39" d="M1528.9,662.42l37.48,7.5l33.73,18.74l29.98,26.23l7.5,14.99v29.98l-7.5,11.24h-7.5v-37.48l-26.23-29.98
	l-67.46-33.73V662.42z"/>
<path class="st40" d="M576.99,703.65h14.99v33.73l-3.75,26.23h26.23v11.24l-29.98,3.75l-7.5,3.75l-18.74-7.5v-7.5l7.5-3.75
	l11.24-41.22h-18.74l7.5-14.99L576.99,703.65z"/>
<path class="st41" d="M681.92,774.85h18.74l-3.75,7.5l-18.74,11.24v14.99l26.23,3.75l14.99-14.99v-22.49l11.24,3.75l3.75,7.5v22.49
	l-22.49,18.74h-33.73l-18.74-14.99v-22.49l11.24-11.24L681.92,774.85z"/>
<path class="st42" d="M1615.09,782.35l18.74,7.5l14.99,29.98v33.73l-14.99,37.48l-11.24,11.24l-11.24-3.75l7.5-3.75l3.75-22.49
	l7.5-18.74v-33.73l-14.99-26.23V782.35z"/>
<path class="st43" d="M502.04,752.37l7.5,3.75l3.75,26.23v37.48h22.49v14.99l-59.96-3.75l-3.75-11.24l22.49-3.75l3.75-37.48
	l-11.24-3.75l7.5-14.99L502.04,752.37z"/>
<path class="st44" d="M1206.6,1187.1h56.21l37.48,14.99l26.23,14.99l-3.75,14.99h-18.74l-29.98-18.74v-7.5l-26.23-7.5l-44.97-3.75
	L1206.6,1187.1z"/>
<path class="st45" d="M1446.45,812.33h14.99l-11.24,37.48l44.97-3.75v11.24l-37.48,11.24l-18.74-3.75l-11.24-14.99l7.5-26.23
	L1446.45,812.33z"/>
<path class="st46" d="M509.53,583.72l14.99,3.75l-11.24,14.99v18.74l18.74-3.75l3.75-29.98h14.99v26.23l-11.24,18.74l-3.75,3.75
	h-33.73l-7.5-14.99l3.75-26.23L509.53,583.72z"/>
<path class="st47" d="M1450.2,1149.62l14.99,7.5l22.49,33.73l11.24,37.48l-3.75,52.47h-3.75v-41.22l-14.99-7.5l-29.98-26.23
	l-29.98-11.24l-18.74-3.75v-3.75h26.23l29.98,11.24l22.49,18.74l11.24,14.99l-7.5-33.73l-22.49-37.48L1450.2,1149.62z"/>
<path class="st48" d="M1109.16,1052.18l7.5,3.75l-3.75,7.5h7.5v-7.5h14.99v7.5l7.5,3.75l-26.23,11.24l-18.74,33.73h-14.99
	l-3.75-14.99l14.99-29.98L1109.16,1052.18z"/>
<path class="st49" d="M1097.92,1183.35l7.5,11.24l14.99,59.96l3.75,11.24l-14.99-3.75l-11.24-11.24l-18.74-11.24l-3.75-14.99h22.49
	V1183.35z"/>
<path class="st50" d="M1330.27,583.72h11.24v14.99l-59.96,22.49l-11.24,3.75l-7.5-3.75v-14.99l41.22-14.99L1330.27,583.72z"/>
<path class="st51" d="M1562.63,883.54h29.98l26.23,3.75v14.99v18.74l-7.5-3.75v-14.99h-7.5v7.5h-37.48l-7.5-22.49L1562.63,883.54z"
	/>
<path class="st52" d="M1049.2,1280.79l22.49,3.75l3.75,7.5v22.49l-7.5-3.75l-3.75-14.99l-11.24-3.75l-7.5,18.74l-14.99,29.98h-7.5
	l-3.75-14.99l11.24-29.98L1049.2,1280.79z"/>
<path class="st53" d="M861.81,628.7h18.74l3.75,59.96l7.5,14.99l-26.23-3.75l3.75-59.96l-18.74,7.5v-11.24L861.81,628.7z"/>
<path class="st26" d="M1225.34,1265.8h18.74l7.5,7.5l-3.75,29.98l-14.99,11.24l-7.5-18.74l3.75-11.24l-22.49,3.75l7.5-18.74
	L1225.34,1265.8z"/>
<path class="st54" d="M588.23,591.22l18.74,3.75l3.75,37.48l3.75,11.24l-48.72-3.75l3.75-11.24l14.99-3.75l7.5-11.24L588.23,591.22z
	"/>
<path class="st55" d="M1277.8,714.89l33.73,3.75l29.98,18.74l7.5,11.24l-18.74-3.75l-33.73-11.24l-26.23-3.75v-11.24L1277.8,714.89z
	"/>
<path class="st56" d="M1255.32,774.85h22.49v7.5l-14.99,7.5l-3.75,26.23l-7.5,14.99v7.5l7.5,3.75h-7.5l-3.75,11.24l-7.5-3.75
	l3.75-59.96L1255.32,774.85z"/>
<path class="st57" d="M1393.98,1381.98h29.98l-3.75,18.74l-11.24,22.49l-14.99-11.24l-3.75-26.23L1393.98,1381.98z"/>
<path class="st58" d="M805.6,733.63h18.74l-11.24,11.24l-22.49,11.24l-11.24,11.24l-7.5,14.99l-11.24-7.5l3.75-14.99l18.74-18.74
	L805.6,733.63z"/>
<path class="st26" d="M798.1,617.45h14.99v52.47l-3.75,14.99h-7.5v-52.47h-14.99l3.75-11.24L798.1,617.45z"/>
<path class="st14" d="M989.23,737.38h56.21l-3.75,14.99h-52.47V737.38z"/>
<path class="st32" d="M1210.35,722.39h29.98l-3.75,14.99l-33.73,7.5l-18.74,3.75l11.24-18.74L1210.35,722.39z"/>
<path class="st59" d="M1097.92,786.1h11.24l-3.75,33.73l-3.75,14.99l-14.99-7.5l-3.75-14.99l11.24-22.49L1097.92,786.1z"/>
<path class="st60" d="M532.02,583.72l14.99,3.75h-11.24v29.98l-11.24,7.5l-14.99-3.75v-18.74L532.02,583.72z"/>
<path class="st61" d="M1007.97,666.17l18.74,3.75l37.48,22.49l-3.75,11.24l-44.97-22.49L1007.97,666.17z"/>
<path class="st62" d="M457.07,1490.66h33.73v3.75l-29.98,3.75l59.96,7.5v3.75H475.8l-48.72-7.5v-7.5L457.07,1490.66z"/>
<path class="st63" d="M1071.68,598.71h11.24l18.74,37.48l3.75,14.99l-14.99-3.75l-14.99-29.98L1071.68,598.71z"/>
<path class="st35" d="M1543.89,1044.69l7.5,14.99l-7.5,14.99l-18.74,18.74h-7.5l3.75-18.74L1543.89,1044.69z"/>
<path class="st64" d="M1555.13,891.03h7.5l3.75,14.99l37.48,3.75v-7.5h7.5v14.99h-48.72l-11.24-11.24L1555.13,891.03z"/>
<path class="st65" d="M644.45,673.67h22.49l-11.24,11.24l-18.74,14.99l-11.24,11.24l-3.75-18.74L644.45,673.67z"/>
<path class="st66" d="M1408.97,1325.76h11.24l3.75,7.5v22.49h-7.5v7.5h-14.99L1408.97,1325.76z"/>
<path class="st32" d="M1217.84,902.28h7.5l3.75,14.99l18.74-3.75v7.5l7.5,3.75L1236.58,936l-14.99-3.75l-3.75-7.5V902.28z"/>
<path class="st67" d="M1097.92,1217.08l7.5,11.24l3.75,14.99l-22.49,3.75l-11.24-11.24v-11.24h22.49V1217.08z"/>
<path class="st68" d="M1371.49,1164.61h7.5l7.5,26.23l-3.75,33.73h-11.24l-3.75,11.24l3.75-22.49l3.75-29.98L1371.49,1164.61z"/>
<path class="st61" d="M1528.9,662.42l37.48,7.5l14.99,11.24l-3.75,7.5l-22.49-7.5l-26.23-11.24V662.42z"/>
<path class="st61" d="M981.74,831.07h18.74l-3.75,11.24l-22.49,7.5H955.5l3.75-11.24L981.74,831.07z"/>
<path class="st69" d="M1322.78,1314.52h7.5v37.48l-11.24,7.5l-7.5-3.75l3.75-22.49l7.5-7.5V1314.52z"/>
<path class="st70" d="M1581.36,1494.41h26.23l3.75,7.5l-44.97,7.5h-44.97v-3.75l59.96-7.5V1494.41z"/>
<path class="st71" d="M1401.48,1228.32l18.74,7.5l29.98,26.23l11.24,18.74v7.5h-7.5l-22.49-33.73l-29.98-22.49V1228.32z"/>
<path class="st72" d="M1352.76,1070.92H1364v7.5l-37.48,7.5l-41.22-3.75v-3.75L1352.76,1070.92z"/>
<path class="st39" d="M1562.63,1010.96l7.5,3.75l-7.5,33.73l-7.5,11.24h-7.5v-22.49l11.24-11.24L1562.63,1010.96z"/>
<path class="st73" d="M1603.85,958.49l7.5,14.99l3.75-7.5l-3.75,14.99l-11.24,11.24h-22.49l7.5-3.75l3.75-11.24h7.5L1603.85,958.49z
	"/>
<path class="st69" d="M1157.88,823.57l33.73,3.75l3.75,11.24h-37.48V823.57z"/>
<path class="st74" d="M1199.1,842.31l7.5,11.24v18.74l37.48-3.75v7.5l-11.24,3.75h-26.23l-7.5-3.75l-3.75-14.99L1199.1,842.31z"/>
<path class="st75" d="M1011.72,1205.84l29.98,3.75l22.49,7.5l-7.5,7.5l-56.21-7.5L1011.72,1205.84z"/>
<path class="st76" d="M1304.04,771.11h48.72l-7.5,7.5l-11.24,3.75h-29.98V771.11z"/>
<path class="st77" d="M438.33,501.28h26.23v11.24l-14.99,11.24h-11.24V501.28z"/>
<path class="st70" d="M1120.4,1460.68h37.48l-3.75,11.24h-33.73V1460.68z"/>
<path class="st32" d="M1221.59,782.35l3.75,14.99l-11.24,37.48l-11.24-7.5l3.75-3.75l3.75-26.23L1221.59,782.35z"/>
<path class="st78" d="M588.23,591.22l18.74,3.75l-3.75,29.98h-11.24v-22.49L588.23,591.22z"/>
<path class="st79" d="M1251.57,1130.88h11.24l3.75,33.73l-14.99-3.75V1130.88z"/>
<path class="st80" d="M1244.07,846.06h3.75v22.49l-26.23,3.75l14.99-22.49L1244.07,846.06z"/>
<path class="st81" d="M1056.69,1460.68h37.48l-3.75,11.24h-29.98L1056.69,1460.68z"/>
<path class="st82" d="M1270.31,729.88h26.23l33.73,11.24l3.75,7.5l-26.23-3.75l-37.48-11.24V729.88z"/>
<path class="st83" d="M1184.11,1460.68h33.73v11.24h-33.73V1460.68z"/>
<path class="st84" d="M1022.96,1310.77h14.99l-3.75,22.49l-3.75,7.5h-7.5l-3.75-14.99L1022.96,1310.77z"/>
<path class="st85" d="M1225.34,1134.63h11.24l3.75,26.23l-11.24,7.5l-3.75-3.75V1134.63z"/>
<path class="st6" d="M1562.63,883.54h18.74l-3.75,11.24h-7.5v11.24h18.74v3.75h-22.49l-7.5-22.49L1562.63,883.54z"/>
<path class="st86" d="M783.11,741.13l7.5,3.75l-11.24,11.24l-3.75,14.99l-3.75,11.24l-11.24-7.5l3.75-14.99L783.11,741.13z"/>
<path class="st87" d="M1090.42,782.35h7.5l-7.5,18.74l-18.74,7.5l3.75-18.74L1090.42,782.35z"/>
<path class="st87" d="M1341.51,774.85h11.24v37.48l-7.5,11.24l-3.75-33.73l-7.5-3.75v-7.5L1341.51,774.85z"/>
</svg>
