<?xml version="1.0" encoding="utf-8"?>
<!-- Generator: Adobe Illustrator 28.2.0, SVG Export Plug-In . SVG Version: 6.00 Build 0)  -->
<svg version="1.1" id="Layer_1" xmlns="http://www.w3.org/2000/svg" xmlns:xlink="http://www.w3.org/1999/xlink" x="0px" y="0px"
	 viewBox="0 0 2000 2000" style="enable-background:new 0 0 2000 2000;" xml:space="preserve">
<style type="text/css">
	.st0{fill:#6E8EFC;}
	.st1{fill:#052F39;}
	.st2{fill:#FAF1EB;}
	.st3{fill:#F4EDEA;}
	.st4{fill:#052F37;}
	.st5{fill:#F3EDEB;}
	.st6{fill:#FBF2EB;}
	.st7{fill:#FAF2EB;}
	.st8{fill:#EDE9EB;}
	.st9{fill:#032F36;}
	.st10{fill:#FCF3EB;}
	.st11{fill:#6F8FFD;}
	.st12{fill:#F0EBEC;}
	.st13{fill:#6D8EFC;}
	.st14{fill:#6C8DFC;}
	.st15{fill:#6688F3;}
	.st16{fill:#032D33;}
	.st17{fill:#EFEAEB;}
	.st18{fill:#042F37;}
	.st19{fill:#E6E4EC;}
	.st20{fill:#4879F4;}
	.st21{fill:#EBE7EC;}
	.st22{fill:#4E7CF5;}
	.st23{fill:#061616;}
	.st24{fill:#4E7DF5;}
	.st25{fill:#4B7BF5;}
	.st26{fill:#E9E6EC;}
	.st27{fill:#DADCED;}
	.st28{fill:#E9E5EC;}
	.st29{fill:#E5E3EC;}
	.st30{fill:#DDDDED;}
	.st31{fill:#527FF6;}
	.st32{fill:#D4D7ED;}
	.st33{fill:#5D85F8;}
	.st34{fill:#E6E4ED;}
	.st35{fill:#071F27;}
	.st36{fill:#061718;}
	.st37{fill:#517EF6;}
	.st38{fill:#091B21;}
	.st39{fill:#DEDEED;}
	.st40{fill:#061717;}
	.st41{fill:#09212B;}
	.st42{fill:#061515;}
	.st43{fill:#4D7CF5;}
	.st44{fill:#C9D0EF;}
	.st45{fill:#6287FA;}
	.st46{fill:#081B1F;}
	.st47{fill:#08222B;}
	.st48{fill:#03292D;}
	.st49{fill:#042E36;}
	.st50{fill:#4577F3;}
	.st51{fill:#5C85F8;}
	.st52{fill:#4477F3;}
	.st53{fill:#3C73F1;}
	.st54{fill:#081C22;}
	.st55{fill:#4C7BF5;}
	.st56{fill:#0E3149;}
	.st57{fill:#051A1B;}
	.st58{fill:#08303F;}
	.st59{fill:#043039;}
	.st60{fill:#5480F7;}
	.st61{fill:#C6CEEF;}
	.st62{fill:#698CFB;}
	.st63{fill:#051E20;}
	.st64{fill:#061818;}
	.st65{fill:#061514;}
	.st66{fill:#4779F4;}
	.st67{fill:#093343;}
	.st68{fill:#1E4C81;}
	.st69{fill:#5681F7;}
	.st70{fill:#071211;}
	.st71{fill:#13416A;}
	.st72{fill:#0C2330;}
	.st73{fill:#6A8CFB;}
	.st74{fill:#081E26;}
	.st75{fill:#5883F6;}
	.st76{fill:#0F2D45;}
	.st77{fill:#5A83F8;}
	.st78{fill:#6D8DFC;}
	.st79{fill:#04303A;}
	.st80{fill:#071D22;}
</style>
<path class="st0" d="M1029.93,458.8l40.04,3.2l330.43,53.38l56.58,10.14l3.2,3.2l3.2,86.48v700.89h-26.69l-123.31-20.28
	l-176.69-33.1l-6.41-3.2H1110l-10.14,6.41h-40.04l-3.2-26.69l-20.28,6.41l-86.48,29.89l-26.69,3.2l-33.1,23.49l-40.04,16.55
	l-33.1,10.14l-23.49,3.2h-63.52l-16.55-3.2v46.97l-13.35,20.28l-13.35,6.41h-33.1l-76.87-16.55l-46.98-20.28l-33.1-20.28
	l-29.89-20.28v-6.41l-13.35-6.41l-26.69-26.69l-29.89-43.24l-6.41-16.55v-23.49l29.89-23.49l20.28-13.35h10.14v-6.41l53.38-33.1
	l36.83-23.49l36.83-20.28h43.24l96.62,23.49l6.41,16.55v53.38l40.04-6.41l26.69-23.49l13.35-16.55l23.49-40.04l10.14-20.28
	l13.35-16.55L881,1028.9l20.28-6.41h20.28l10.14-10.14l26.69-6.41h23.49l10.14,13.35l3.2,20.28l26.69,3.2l10.14,10.14v6.41h6.41
	l6.41-16.55l3.2-20.28l-20.28-33.1l-3.2-33.1l6.41-16.55l-3.2-69.93l-16.55-6.41v-3.2h16.55l-3.2-23.49l3.2-373.67L1029.93,458.8z"
	/>
<path class="st1" d="M1046.48,819.12h36.83l59.79,6.41l16.55,6.41l3.2,10.14v36.83l-6.41,29.89l-10.14,16.55h-10.14l3.2-20.28
	l3.2-13.35v-43.24l-80.07-10.14v36.83l-6.41,43.24l-6.41,10.14v10.14l116.9,57.12l20.28,10.14h16.55l10.14-13.35l-13.35-3.2
	l-50.18-26.69l-29.89-13.35l13.35-3.2l29.89,13.35l53.38,26.69l16.55-3.2l23.49-20.28h6.41v-6.41l10.14-6.41l-3.2-16.55
	l-26.69-29.89l-6.41-3.2l-6.41,16.55l-20.28,26.69l-16.55,6.41l3.2-10.14h6.41l6.41-13.35l16.55-29.89l10.14-16.55l20.28,10.14
	l29.89,29.89l13.35,20.28v16.55L1260,986.73l-46.98,36.83l-23.49,23.49l-13.35,6.41l-20.28,3.2h-50.18l-3.2,26.69l-10.14,36.83
	l29.89,3.2l13.35,29.89v16.55l-33.1,6.41h-6.41v6.41l33.1,3.2l13.35,10.14l-6.41,29.89l-13.35,23.49l-23.49,16.55h-39.5l-3.2-26.69
	l-20.28,6.41l-86.48,29.89l-26.69,3.2l-33.1,23.49l-40.04,16.55l-33.1,10.14l-23.49,3.2h-63.52l-16.55-3.2v46.98l-13.35,20.28
	l-13.35,6.41h-33.1l-76.87-16.55l-46.98-20.28l-33.1-20.28l-29.89-20.28v-6.41l-13.35-6.41l-26.69-26.69l-29.89-43.24l-6.41-16.55
	v-23.49l29.89-23.49l20.28-13.35h10.14v-6.41l53.38-33.1l36.83-23.49l36.83-20.28h43.24l96.62,23.49l6.41,16.55v53.38l40.04-6.41
	l26.69-23.49l13.35-16.55l23.49-40.04l10.14-20.28l13.35-16.55L881,1028.9l20.28-6.41h20.28l10.14-10.14l26.69-6.41h23.49
	l10.14,13.35l3.2,20.28l26.69,3.2l10.14,10.14v6.41h6.41l6.41-16.55l3.2-20.28l-20.28-33.1l-3.2-33.1l6.41-16.55h6.41l6.41-16.55
	V822.86L1046.48,819.12z"/>
<path class="st2" d="M1303.24,825.52l73.67,10.14l63.52,6.41v196.98l-26.69,20.28l-13.35,16.55l-26.69-3.2l-16.55,16.55
	l-10.14,16.55l-16.55-3.2l-10.14-3.2l3.2,6.41l16.55,10.14l10.14,10.14l23.49-43.24l16.55,3.2l6.41,20.28l13.35,3.2l-3.2-16.55
	l10.14-23.49l16.55-13.35h6.41v237.01l-173.49-26.69l-130.25-16.55l-6.41-3.2l3.2-20.28l6.41-29.89l-10.14-6.41l-33.1-6.41v-6.41
	l33.1-6.41h6.41l-10.14-33.1l-3.2-13.35l-29.89-3.2l6.41-36.83l6.41-26.69l69.93-6.41l20.28-13.35l23.49-23.49l43.24-33.1
	l16.55-6.41v40.04l10.14,69.93l6.41-16.55l3.2-33.1L1303.24,825.52z"/>
<path class="st3" d="M739.54,732.11h40.04v63.52l-10.14,96.62l10.14-3.2l66.73-3.2l-3.2,29.89l-16.55,26.69l-59.79,16.55
	l-10.14,26.69l-13.35,33.1l-20.28,23.49l-13.35,3.2h-96.62l-16.55-16.55l-13.35-50.18l-13.35-86.48l-3.2-43.24v-59.79l10.14-20.28
	l53.38-16.55l83.27-16.55L739.54,732.11z"/>
<path class="st4" d="M1046.48,819.12h36.83l59.79,6.41l16.55,6.41l3.2,10.14v36.83l-6.41,29.89l-10.14,16.55h-10.14l3.2-20.28
	l3.2-13.35v-43.24l-80.07-10.14v36.83l-6.41,43.24l-6.41,10.14v10.14l116.9,57.12l20.28,10.14h16.55l10.14-13.35l-13.35-3.2
	l-50.18-26.69l-29.89-13.35l13.35-3.2l29.89,13.35l53.38,26.69l16.55-3.2l23.49-20.28h6.41v-6.41l10.14-6.41l-3.2-16.55
	l-26.69-29.89l-6.41-3.2l-6.41,16.55l-20.28,26.69l-16.55,6.41l3.2-10.14h6.41l6.41-13.35l16.55-29.89l10.14-16.55l20.28,10.14
	l29.89,29.89l13.35,20.28v16.55L1260,986.73l-46.98,36.83l-23.49,23.49l-13.35,6.41l-20.28,3.2h-50.18l-3.2,26.69l-10.14,36.83
	l29.89,3.2l13.35,29.89v16.55l-33.1,6.41h-6.41v6.41l33.1,3.2l13.35,10.14l-6.41,29.89l-13.35,23.49l-23.49,16.55h-39.5l-3.2-26.69
	l-20.28,6.41l-76.87,26.69h-26.69l10.14-10.14h6.41v-6.41l43.24-16.55l33.1-10.14l3.2-6.41v-50.18l-13.35-29.89h-33.1v-10.14
	l-29.89,3.2l3.2-26.69l-10.14-23.49l-23.49-26.69l-20.28-13.35l-13.35,3.2l-29.89,23.49l-13.35,10.14h-10.14l-6.41,3.2l6.41-16.55
	l13.35-16.55l29.89-23.49l20.28-6.41h20.28l10.14-10.14l26.69-6.41h23.49l10.14,13.35l3.2,20.28l26.69,3.2l10.14,10.14v6.41h6.41
	l6.41-16.55l3.2-20.28l-20.28-33.1l-3.2-33.1l6.41-16.55h6.41l6.41-16.55V822.85L1046.48,819.12z"/>
<path class="st5" d="M579.4,1105.77h43.24l69.93,16.55l6.41,3.2v80.07l-23.49-3.2l-20.28-10.14v-6.41l-13.35-3.2l-26.69-23.49
	l-13.35-13.35l-16.55,6.41l-10.14,3.2l-6.41,13.35l-13.35,16.55l29.89-20.28l6.41-10.14h6.41l20.28,26.69l23.49,23.49l43.24,23.49
	l13.35,3.2v16.55l-23.49,29.89l-10.14,13.35l-16.55-3.2l-40.04-20.28l-10.14-6.41v-6.41l-13.35-6.41l-26.69-26.69l-16.55-23.49
	h-6.41l13.35,26.69l33.1,36.83l43.24,33.1l66.73,33.1v29.89l-6.41,16.55l-3.2,3.2h-36.83l-63.52-16.55l-50.18-20.28l-13.35-10.14
	l-10.14-3.2v-6.41h-8.54v-5.34l-13.35-3.2l-43.24-43.24l-23.49-33.63l-10.14-13.35l3.2-10.14l73.67-46.98l66.73-43.24L579.4,1105.77
	z"/>
<path class="st6" d="M1276.55,545.27h6.41l-3.2,250.36l-43.24-3.2l-133.45-20.28l-53.38-3.2l-3.2-10.14V622.14l13.35,3.2l10.14,3.2
	h29.89l6.41-6.41v-29.89l13.35,6.41l10.14,10.14l10.14,3.2h23.49l20.28-10.14l6.41-29.89l33.1,3.2l16.55-6.41l10.14-13.35
	L1276.55,545.27z"/>
<path class="st7" d="M1296.84,521.79l130.25,20.28l13.35,3.2v59.79h-23.49v-36.3h-10.14l-3.2,6.41h-20.28l-3.2-23.49l3.2-10.14
	l-13.35,13.35l3.2,20.28l10.14,10.14l20.28,3.2l10.14,26.69l3.2,3.2l23.49,3.2v207.12l-83.27-16.55l-53.38-10.14l-3.2-219.93
	L1296.84,521.79z"/>
<path class="st8" d="M1049.68,779.08l53.38,13.35l166.55,26.69l10.14,3.2v86.48l-13.35-6.41l-20.28-16.55l-10.14-3.2l-16.01,33.1
	l-16.55,23.49h-6.41l3.2,6.41l16.55-16.55l20.28-29.89l13.35,6.41l26.69,29.89l-3.2,16.55l-10.14,3.2v6.41l-29.89,23.49l-16.55,3.2
	l-53.38-26.69l-29.89-13.35h-10.14l46.98,20.28l33.1,20.28l10.14,3.2l-6.41,13.35l-3.2,3.2l-23.49-3.2l-133.45-66.73l3.2-13.35
	l6.41-23.49l6.41-63.52h33.1l46.98,6.41l3.2,3.2v43.24l-10.14,33.1h10.14l6.41-16.55l6.41-29.89V841l-3.2-10.14l-36.83-6.41
	l-73.67-6.41v-33.1L1049.68,779.08z"/>
<path class="st0" d="M982.96,1322.5h33.1l16.55,16.55l10.14,16.55v33.1l-10.14,20.28l-6.41,10.14h-6.41v10.14l36.83,10.14
	l23.49,6.41h53.38l16.55-6.41V1433l-29.89-20.28l-20.28-20.28v-26.69l16.55-16.55l20.28-6.41l23.49,3.2l23.49,20.28l10.14,26.69
	V1433l33.1-3.2l20.28-13.35l10.14-20.28v-26.69l6.41-3.2l20.28,13.35l29.89,6.41l23.49-10.14l23.49-26.69l13.35,3.2l-6.41,16.55
	l-13.35,16.55l-33.1,16.55l-33.1-3.2l-13.35-6.41l-3.2,23.49l-16.55,20.28l-26.69,13.35h-56.58l-20.28,13.35l-10.14,3.2h-59.79
	l-66.73-20.28l-6.41-6.41l-16.55,3.2l-10.14,3.2h-50.18l-33.1-10.14l-43.24-23.49l-3.2-10.14l16.55,3.2l46.98,20.28l33.1,6.41
	l40.04-3.2l-10.14-16.55l-13.35-16.55l-6.41-13.35v-26.69l10.14-20.28L982.96,1322.5z"/>
<path class="st9" d="M739.54,732.11h40.04v63.52l-6.41,66.73l-6.41,13.35l-3.2-6.41l-6.41-109.96l-43.24,3.2l-100.36,20.28
	l-20.28,6.41v83.27l13.35,93.42l13.35,53.38h90.21l16.55-26.69l20.28-56.58l59.79-13.35l16.55-13.35l3.2-10.14l-43.24-3.2v-3.2
	l40.04-6.41h23.49l-3.2,29.89l-16.55,26.69l-59.79,16.55l-10.14,26.69l-13.35,33.1l-20.28,23.49l-13.35,3.2h-96.62l-16.55-16.55
	l-13.35-50.18l-13.35-86.48l-3.2-43.24v-59.79l10.14-20.28l53.38-16.55l83.27-16.55L739.54,732.11z"/>
<path class="st10" d="M1046.48,482.29l130.25,20.28l106.76,16.55l3.2,13.35l-29.89,13.35l-20.28-10.14l3.2,16.55l-10.14,13.35
	h-29.89l-16.55-10.14l-13.35-16.55l-13.35-3.2l20.28,29.89v23.49l-10.14,10.14l-23.49,3.2l-26.69-16.55l-16.55-23.49l-10.14-3.2
	l6.41,29.89v29.89l-3.2,3.2l-26.69-3.2l-20.28-10.14V482.29H1046.48z"/>
<path class="st11" d="M982.96,1322.5h33.1l16.55,16.55l10.14,16.55v33.1l-10.14,20.28l-6.41,10.14h-6.41v10.14l36.83,10.14
	l23.49,6.41l50.18,3.2v6.41h-40.04l-40.04-6.41l3.2,6.41l-29.89-6.41l-16.55-10.14l-16.55,3.2l-10.14,3.2h-50.18l-33.1-10.14
	l-43.24-23.49l-3.2-10.14l16.55,3.2l46.98,20.28l33.1,6.41l40.04-3.2l-10.14-16.55l-13.35-16.55l-6.41-13.35v-26.69l10.14-20.28
	L982.96,1322.5z"/>
<path class="st12" d="M592.74,1155.95h6.41l20.28,26.69l23.49,23.49l43.24,23.49l13.35,3.2v16.55l-23.49,29.89l-10.14,13.35
	l-16.55-3.2l-40.04-20.28l-10.14-6.41v-6.41l-13.35-6.41l-26.69-26.69l-16.55-29.89h6.41l3.2-6.41l16.55-6.41l16.55-13.35
	L592.74,1155.95z"/>
<path class="st13" d="M996.3,1139.4h20.28l10.14,13.35l6.41,20.28v50.18l-13.35,13.35l-53.38,16.55l-23.49,6.41l-13.35-50.18
	l-16.55-29.89l6.41-13.35l36.83-16.55L996.3,1139.4z"/>
<path class="st11" d="M982.96,795.1l13.38-12.24l-3.24,9.31l-5.07,13.32l-7.74,36.05l-3.2,20.28l10.94,15.21l8.78,8.81l10.17,16.01
	l-24.02-10.29l-42.97-27.06l-22.85,19.19l-27.06,23.11l-13.35,8.38l9.91-19.75l9.85-36.83v-29.89l-13.29-22.26l-10.2-14.57
	l66.99,36.83"/>
<path class="st14" d="M893.28,1042.78l13.35,3.2l26.69,20.28l20.28,23.49l6.41,20.28v16.55l-13.35,13.35l-36.83,23.49h-13.35
	l-13.35-26.69l-29.89-26.69l-16.55-10.14l10.14-16.55l23.49-23.49L893.28,1042.78z"/>
<path class="st15" d="M733.14,755.59h23.49l3.2,3.2v53.38l-56.58,6.41l-40.04,10.14l-20.28-3.2l-43.24-23.49l-10.14-6.41l3.2-10.14
	l50.18-13.35L733.14,755.59z"/>
<path class="st14" d="M1263.21,1072.68l10.14,3.2l-3.2,16.55l3.2,46.97l3.2,16.55h66.73l3.2,6.41l-10.14,10.14l-43.24,10.14
	l-16.55,13.35l-13.35,33.1l-6.41,26.69h-13.35l-6.41-56.58l-6.41-13.35l-26.69-6.41h-29.89l-6.41-3.2v-10.14l53.38-16.55
	l16.55-13.35l10.14-20.28l6.41-26.69L1263.21,1072.68z"/>
<path class="st16" d="M1036.34,1182.64l13.35,3.2l-3.2,40.04l16.55-3.2h33.1l3.2,6.41l-3.2,6.41l-20.28,6.41l-3.2,6.41l29.89-6.41
	l13.35-16.55l10.14-20.28h13.35l-3.2,20.28l-13.35,23.49l-23.49,16.55h-39.5l-3.2-26.69l-20.28,6.41l-76.87,26.69h-26.69
	l10.14-10.14h6.41v-6.41l43.24-16.55l33.1-10.14l6.41-13.35L1036.34,1182.64z"/>
<path class="st17" d="M786.52,1236.02h29.89l3.2,3.2v53.38l-6.41,20.28l-6.41,3.2h-63.52l6.41-16.55l10.14-29.89l3.2-26.69
	L786.52,1236.02z"/>
<path class="st16" d="M1046.48,819.12h36.83l59.79,6.41l16.55,6.41l3.2,10.14v36.83l-6.41,29.89l-10.14,16.55h-10.14l3.2-20.28
	l3.2-13.35v-43.24l-80.07-10.14v36.83l-6.41,43.24l-16.55,16.55l3.2-13.35V821.25L1046.48,819.12z"/>
<path class="st18" d="M646.12,542.07h29.89l53.38,10.14l10.14,13.35l-6.41,33.1l-10.14,10.14l-46.98,6.41v-10.14l36.83-20.28
	l3.2-13.35l-46.98-6.41h-20.28l-3.2,20.28l16.55,16.55l6.41,10.14l-6.41,6.41l-29.89-13.35l-10.14-6.41l-3.2-13.35l13.35-36.83
	L646.12,542.07z"/>
<path class="st19" d="M866.59,1209.33l10.14,3.2l6.41,33.1v36.83l-13.35,13.35l-29.89,13.35h-16.55l3.2-33.1v-40.04h-6.94v-6.41
	L866.59,1209.33z"/>
<path class="st19" d="M649.33,562.36l43.24,3.2l23.49,6.41l-3.2,16.55l-29.89,16.55h-6.41v10.14l6.41,3.2h-6.41l3.2,16.55
	l-10.14,40.04l-3.2,10.14h29.89l3.2,13.35l-10.14,43.24h-13.35l3.2-26.69l6.41-16.55h-26.69l-13.35-6.41l16.55-53.38l3.2-29.89
	l-20.28-16.55l-3.2-20.28L649.33,562.36z"/>
<path class="st20" d="M1156.45,535.67l16.55,3.2l16.55,20.28l10.14,3.2h29.89l6.41-13.35v-13.35l20.28,6.41l23.49-3.2l-3.2,10.14
	l-29.89,13.35l-13.35,13.35l-26.69,3.2l-13.35-3.2l-6.41,26.69l-23.49,13.35h-23.49l-16.55-10.14l-16.55-13.35l3.2,6.41v23.49
	l-6.41,6.41l-13.35-3.2l10.14-10.14l-3.2-23.49l-6.41-16.55v-16.55l13.35,3.2l20.28,26.69l20.28,10.14l29.89-3.2v-29.89
	l-16.55-23.49v-6.41H1156.45z"/>
<path class="st21" d="M716.05,1236.02l43.24,3.2l-3.2,29.89l-10.14,20.28l-16.55,23.49h-16.55l-33.1-13.35v-13.35l23.49-26.69
	l10.14-20.28L716.05,1236.02z"/>
<path class="st22" d="M1359.83,1349.19l13.35,3.2l-6.41,16.55l-13.35,16.55l-33.1,16.55l-33.1-3.2l-13.35-6.41l-3.2,23.49
	l-16.55,20.28l-26.69,13.35h-43.24l3.2-10.14l40.04-3.2v-6.41l20.28-13.35l10.14-20.28v-26.69l6.41-3.2l20.28,13.35l29.89,6.41
	l23.49-10.14L1359.83,1349.19z"/>
<path class="st10" d="M996.3,1336.38l20.28,6.41l10.14,10.14l3.2,29.89l-10.14,20.28l-10.14,10.14l-16.55-3.2l-16.55-20.28
	l-3.2-6.41v-29.89l13.35-13.35L996.3,1336.38z"/>
<path class="st23" d="M1236.52,878.9l20.28,10.14l29.89,29.89l13.35,20.28v16.55l-53.38,40.04l-13.35-6.41l23.49-26.69h6.41v-6.41
	l10.14-6.41l-3.2-16.55l-26.69-29.89l-6.41-3.2l-6.41,16.55l-20.28,26.69l-16.55,6.41l3.2-10.14h6.41l6.41-13.35l16.55-29.89
	L1236.52,878.9z"/>
<path class="st24" d="M982.96,1322.5h33.1l16.55,16.55l10.14,16.55v33.1l-10.14,20.28l-6.41,10.14l-13.35-3.2l10.14-3.2l3.2-16.55
	v-33.1l-10.14-16.55l-20.28-6.41l-16.01,2.67l-3.2,10.14v29.89l16.55,36.83l-13.35-3.2l-16.55-20.28l-6.41-13.35v-26.69l10.14-20.28
	L982.96,1322.5z"/>
<path class="st25" d="M1136.69,1342.78l23.49,3.2l23.49,20.28l6.41,13.35v29.89h-10.14v-20.28h-6.41l-10.14-20.28l-16.55-6.41
	l-20.28,3.2l-10.14,6.41l3.2,16.55l36.83,26.69l3.2,10.14l-16.55,3.2l-26.69-20.28l-16.55-16.55v-26.69l16.55-16.55L1136.69,1342.78
	z"/>
<path class="st26" d="M832.96,1126.06l13.35,3.2l16.55,13.35l13.35,20.28v20.28l-20.28,16.55l-13.35-3.2l-16.55-26.69l-13.35-10.14
	l3.2-13.35L832.96,1126.06z"/>
<path class="st27" d="M1053.42,1185.84l63.52,13.35l6.41,3.2l-3.2,23.49l-16.55,20.28l-29.89,3.2l3.2-10.14l20.28-3.2v-10.14h-50.18
	L1053.42,1185.84z"/>
<path class="st10" d="M1136.69,1359.33l20.28,3.2l16.55,16.55l3.2,10.14v23.49l-3.2,10.14l-16.55-3.2l-40.04-29.89l-3.2-16.55
	l13.35-10.14L1136.69,1359.33z"/>
<path class="st10" d="M1383.31,538.87l43.24,3.2l13.35,3.2v59.79h-23.49v-36.3h-9.61l-3.2,6.41h-20.28l-3.2-23.49L1383.31,538.87z"
	/>
<path class="st28" d="M803.06,1162.36l13.35,3.2l23.49,26.69l3.2,13.35l-33.1,13.35h-20.28l-13.35-26.69v-13.35l23.49-13.35
	L803.06,1162.36z"/>
<path class="st29" d="M996.3,1139.4h20.28l10.14,13.35l6.41,20.28v40.04l-6.41,6.41l-13.35-43.24l-10.14-13.35h-36.83l-40.04,13.35
	l-6.41-3.2l13.35-13.35l33.1-13.35L996.3,1139.4z"/>
<path class="st30" d="M889.54,1192.78l13.35,3.2l13.35,46.98v23.49L895.95,1283h-6.41l-10.14-66.73l-3.2-13.35L889.54,1192.78z"/>
<path class="st31" d="M669.61,608.8h6.41v6.41l6.41,3.2h-6.41l3.2,16.55l-10.14,40.04l-3.2,10.14h29.89l3.2,13.35l-10.14,43.24
	h-13.35l3.2-26.69l6.41-16.55H658.4l-13.35-6.41l16.55-53.38l3.2-26.69L669.61,608.8z"/>
<path class="st32" d="M1039.54,1135.67h66.73l13.35,16.55l-3.2,6.41l-46.98,10.14h-20.28l-10.14-23.49v-9.61H1039.54z"/>
<path class="st33" d="M1156.45,535.67l16.55,3.2l16.55,20.28l10.14,3.2h29.89l6.41-13.35v-13.35l20.28,6.41l23.49-3.2l-3.2,10.14
	l-29.89,13.35l-13.35,13.35l-26.69,3.2l-13.35-3.2l-3.2,20.28h-3.2V572.5h-6.41v20.28l-6.41,3.2v-29.89l-16.55-23.49v-6.94H1156.45z
	"/>
<path class="st21" d="M893.28,1042.78l13.35,3.2l26.69,20.28l20.28,23.49l-3.2,13.35l-23.49-26.69l-13.35-6.41l-26.69,3.2
	l-20.28,13.35l-13.35,13.35h-16.55l10.14-16.55l23.49-23.49L893.28,1042.78z"/>
<path class="st34" d="M722.99,1189.05h46.98l13.35,20.28v13.35l-10.14,3.2h-33.63l-20.28-10.14l3.2-16.55v-10.14H722.99z"/>
<path class="st35" d="M542.57,1195.99l13.35,16.55l29.89,33.1l13.35,10.14l10.14,16.55l40.04,29.89l26.69,13.35l-10.14,3.2
	l-40.04-20.28l-53.38-43.24l-26.69-29.89l-10.14-16.55v-10.14L542.57,1195.99z"/>
<path class="st36" d="M1049.68,1229.62l16.55,3.2v6.41l-23.49,3.2l-36.83,13.35l-46.98,16.55h-26.69l10.14-10.14h6.41v-6.41
	l43.24-16.55l13.35-3.2h33.1L1049.68,1229.62z"/>
<path class="st11" d="M849.51,1402.57l16.55,3.2l46.98,20.28l33.1,6.41h46.98l-3.2,10.14l-10.14,3.2h-50.18l-33.1-10.14
	l-43.24-23.49L849.51,1402.57z"/>
<path class="st37" d="M1376.91,542.07h6.41v33.1h20.28l3.2-10.14l13.35,3.2l-3.2,40.04h20.28v10.14h-23.49l-10.14-16.55v-13.35
	h-20.28l-13.35-13.35l-3.2-20.28L1376.91,542.07z"/>
<path class="st38" d="M1126.55,1206.13h13.35l-3.2,20.28l-13.35,23.49l-23.49,16.55h-40.04v-16.55l33.1,3.2v-6.41l16.55-10.14
	L1126.55,1206.13z"/>
<path class="st39" d="M993.1,1059.33h16.55l3.2,20.28l-13.35,10.14l-16.55,6.41h-13.35l-6.41-13.35v-16.55l3.2-3.2L993.1,1059.33z"
	/>
<path class="st40" d="M919.97,1249.37l6.41,13.35l-10.14,23.49l-46.98,26.69l-53.38,16.55h-29.89l13.35-10.14l23.49-3.2l23.49-6.41
	l29.89-13.35l20.28-10.14h6.41l6.41-13.35L919.97,1249.37z"/>
<path class="st41" d="M1196.48,849.01l13.35,3.2l-3.2,29.89l-16.55,33.1l-23.49,26.69h-10.14l6.41-16.55l6.41-10.14h6.41l6.41-16.55
	l6.41-20.28l3.2-26.69L1196.48,849.01z"/>
<path class="st11" d="M1230.11,601.86h6.41l-6.41,13.35l-87.01,87.01h-10.14l6.41-13.35l83.27-83.27L1230.11,601.86z"/>
<path class="st42" d="M632.78,548.48l6.41,3.2l6.41,33.1l16.55,16.55l6.41,10.14l-6.41,6.41l-29.89-13.35l-10.14-6.41l-3.2-13.35
	L632.78,548.48z"/>
<path class="st43" d="M1359.83,1349.19l13.35,3.2l-6.41,16.55l-13.35,16.55l-33.1,16.55h-16.55v-5.87l-10.14-3.2l33.1-10.14
	l26.69-23.49L1359.83,1349.19z"/>
<path class="st40" d="M973.35,1129.26l13.35,3.2l6.41,6.41l-36.83,13.35l-36.83,16.55h-13.35l6.41-13.35l33.1-20.28L973.35,1129.26z
	"/>
<path class="st44" d="M953.06,1022.5h20.28l6.41,3.2l3.2,20.28l-20.28,3.2v-10.14l-16.55,13.35h-6.41v-6.41l-13.35-6.41v-10.14
	L953.06,1022.5z"/>
<path class="st45" d="M1383.31,1072.68l6.41,6.41l-13.35,3.2l-23.49,43.24h-10.14l-10.14-13.35l-13.35-6.41v-6.41l26.69,3.2
	l16.55-26.69L1383.31,1072.68z"/>
<path class="st46" d="M1146.3,845.81h6.41l6.41,16.55v40.04l-13.35,23.49h-10.14l3.2-20.28l3.2-13.35L1146.3,845.81z"/>
<path class="st47" d="M1236.52,878.9l20.28,10.14v10.14l-13.35,3.2l-6.41-3.2l-6.41,16.55l-20.28,26.69l-16.55,6.41l3.2-10.14h6.41
	l6.41-13.35l16.55-29.89L1236.52,878.9z"/>
<path class="st11" d="M1260,638.69l6.41,3.2l-6.41,16.55l-16.55,13.35l-10.14,13.35h-6.41l-6.41,13.35l-16.55,3.2l10.14-16.55
	l36.83-36.83L1260,638.69z"/>
<path class="st48" d="M822.82,1259.51l6.41,3.2l-3.2,40.04l-3.2,6.41l33.1-10.14l13.35-3.2l-3.2,10.14l-40.04,10.14l-3.2,3.2h-23.49
	l13.35-6.41l6.41-43.24L822.82,1259.51z"/>
<path class="st49" d="M1276.55,939.22l10.14,6.41l-6.41,16.55h-6.94l-3.2,16.55l-23.49,17.08l-13.35-6.41l23.49-26.69h6.41v-6.41
	l10.14-6.41L1276.55,939.22z"/>
<path class="st50" d="M1179.93,571.96h6.41v29.89l-23.49,13.35h-22.95l-13.35-6.41v-6.41l33.1,3.2v-6.41l16.55-6.41L1179.93,571.96z
	"/>
<path class="st51" d="M1126.55,1239.22l3.2,6.41l29.89,3.2l29.89,10.14l6.41,6.41h-40.04l-40.04-10.14L1126.55,1239.22z"/>
<path class="st52" d="M669.61,608.8h6.41v6.41l6.41,3.2h-6.41l3.2,16.55l-10.14,40.04h-6.41l-3.2,6.41V651.5l6.41-29.89
	L669.61,608.8z"/>
<path class="st53" d="M1049.68,1446.34l40.04,6.41h46.98l6.41,6.41l-10.14,3.2h-66.73l-13.35-3.2v-6.41l-6.41-3.2L1049.68,1446.34z"
	/>
<path class="st54" d="M716.05,589.05l13.35,6.41l3.2-6.41l-3.2,13.35l-6.41,6.41l-46.98,6.41v-10.14l16.55-10.14L716.05,589.05z"/>
<path class="st11" d="M1373.71,1069.47h16.55l10.14,6.41l3.2-6.41l6.41,10.14v29.89l-16.55-3.2l-6.41-20.28l-10.14-6.41l6.41-3.2
	h-16.55L1373.71,1069.47z"/>
<path class="st55" d="M906.09,1433l56.58,3.2l29.89-3.2l-3.2,10.14l-10.14,3.2h-50.18l-23.49-6.41V1433H906.09z"/>
<path class="st56" d="M692.57,918.94l16.55,3.2l10.14,29.89l3.2,13.35l-13.35-3.2l-16.55-26.69V918.94z"/>
<path class="st57" d="M956.27,1005.95h23.49l10.14,13.35l3.2,29.89l-10.14-3.2l-3.2-20.28h-6.41v-6.41l-10.14-3.2l-10.14-6.41
	L956.27,1005.95z"/>
<path class="st58" d="M869.79,1045.99h20.28l-13.35,13.35l-26.69,23.49l-10.14-3.2l-10.14,6.41l6.41-16.55l16.55-6.41
	L869.79,1045.99z"/>
<path class="st59" d="M879.4,1236.02h6.41l3.2,16.55v29.89l16.55-13.35l6.41,3.2l-16.55,16.55l-20.28,10.14l-6.41-3.2l10.14-13.35
	v-46.44H879.4z"/>
<path class="st60" d="M1156.45,535.67l16.55,3.2l13.35,16.55l-6.41,36.83l-6.41,3.2v-29.89l-16.55-23.49v-6.41H1156.45z"/>
<path class="st61" d="M1000.04,1099.37h10.14l-3.2,20.28l-10.14,6.41l-20.28,3.2l-3.2-13.35L1000.04,1099.37z"/>
<path class="st62" d="M1123.35,512.18l16.55,6.41l-6.41,6.41l-40.04,10.14l-13.35-10.14v-6.41l26.69,3.2L1123.35,512.18z"/>
<path class="st63" d="M749.68,1232.82h36.83v6.41l-20.28,3.2l-6.41,36.83l-6.41,13.35l-10.14-3.2l10.14-20.28l6.41-29.89l-10.14-3.2
	V1232.82z"/>
<path class="st64" d="M592.74,1149.55l13.35,3.2v6.41h6.41v10.14l10.14,3.2v10.14h6.41l13.35,16.55l6.41,6.41l-13.35-3.2
	l-29.89-29.89l-6.41-16.55l-13.35,6.41L592.74,1149.55z"/>
<path class="st14" d="M1103.06,568.76l16.55,16.55l23.49,13.35l16.55,3.2v3.2h-36.83l-16.55-13.35l-3.2,6.41l-3.2-13.35
	L1103.06,568.76z"/>
<path class="st65" d="M826.02,1312.89h20.28v6.41l-29.89,10.14h-29.89l13.35-10.14l23.49-3.2L826.02,1312.89z"/>
<path class="st18" d="M966.41,1096.16l23.49,3.2l-13.35,10.14l3.2,6.41h-6.41l3.2,13.35l-10.14,6.41h-13.35l3.2-10.14h13.35
	l-6.41-16.55L966.41,1096.16z"/>
<path class="st66" d="M1420.15,1049.19h16.55l-3.2,10.14l-16.55,16.55l-13.35,6.41v-16.55L1420.15,1049.19z"/>
<path class="st67" d="M942.92,1009.15l23.49,3.2l6.41,10.14l-33.1,3.2l-13.35-3.2l3.2-10.14L942.92,1009.15z"/>
<path class="st68" d="M1119.61,945.63l20.28,3.2l23.49,10.14l26.69,13.35l-3.2,6.41l-16.55-6.41l-50.18-23.49v-3.2H1119.61z"/>
<path class="st69" d="M1369.97,742.25h10.14l-3.2,13.35l-26.69,23.49l-6.41-3.2l6.41-13.35L1369.97,742.25z"/>
<path class="st70" d="M1036.34,1182.64l13.35,3.2l-3.2,33.1l-13.35,6.41L1036.34,1182.64z"/>
<path class="st71" d="M582.6,1152.75l6.41,3.2l-3.2,13.35l-26.69,20.28l-6.41-3.2l23.49-29.89L582.6,1152.75z"/>
<path class="st72" d="M1000.04,1086.02l10.14,3.2l-3.2,10.14l-23.49,13.35l-10.14-3.2l10.14-10.14l3.2-10.14L1000.04,1086.02z"/>
<path class="st22" d="M763.03,868.76l6.41,6.41v16.55l10.14-3.2h23.49v10.14h-23.49l-20.28-6.41L763.03,868.76z"/>
<path class="st73" d="M1376.91,542.07h6.41v33.1l-10.14,6.41l-6.41-13.35l3.2-20.28L1376.91,542.07z"/>
<path class="st74" d="M866.59,1039.05h20.28l3.2,6.41l-23.49,6.41l-23.49,20.28V1062l16.55-16.55L866.59,1039.05z"/>
<path class="st11" d="M1110,1372.68l6.41,10.14l16.55,16.55l23.49,16.55l-13.35,3.2l-10.14-6.41v-6.41l-13.35-6.41l-10.14-13.35
	v-13.88H1110z"/>
<path class="st11" d="M1263.21,1369.47l13.35,6.41l33.1,13.35l-6.41,10.14l-23.49-3.2l6.41-6.41l-20.28-13.35L1263.21,1369.47z"/>
<path class="st13" d="M1186.87,558.62l43.24,6.41v3.2l-23.49,3.2l-13.35,3.2l-3.2,20.28h-3.2l-3.2-29.89L1186.87,558.62z"/>
<path class="st75" d="M1056.62,1039.05l23.49,3.2l10.14,6.41v6.41l-23.49-3.2l-10.14-3.2V1039.05z"/>
<path class="st23" d="M1049.68,889.05h6.41v29.89l-16.55,16.55L1049.68,889.05z"/>
<path class="st76" d="M746.99,826.63l6.68-1.1l-3.2,13.35l-40.61,4.35l8.99-12.71L746.99,826.63z"/>
<path class="st76" d="M744.45,843.22l-3.2,13.35l-14.76-0.46l5.28-10.92"/>
<path class="st64" d="M949.86,1082.29l16.55,10.14v23.49l3.2,10.14l-10.14,3.2L949.86,1082.29z"/>
<path class="st42" d="M1249.86,972.32l16.55,3.2l-16.55,16.55l-10.14,3.2l-6.41-6.41L1249.86,972.32z"/>
<path class="st66" d="M1230.11,562.36h10.14v10.14l-16.55,6.41h-16.55v-6.41l-10.14-3.2h33.1L1230.11,562.36L1230.11,562.36z"/>
<path class="st77" d="M669.61,608.8h6.41v6.41l6.41,3.2h-6.41v10.14h-6.41l-3.2,26.69L660,665.38l6.41-53.38L669.61,608.8z"/>
<path class="st23" d="M1119.61,1159.15l10.14,3.2v10.14h-36.83l13.35-10.14L1119.61,1159.15z"/>
<path class="st78" d="M689.36,712.36l3.2,13.35l-3.2,16.55h-13.35l3.2-26.69l3.2,6.41h6.41v-9.61H689.36z"/>
<path class="st79" d="M635.98,575.17h6.41l10.14,29.89l-20.28-6.41v-10.14L635.98,575.17z"/>
<path class="st52" d="M726.2,1199.19l6.41,13.35l10.14,6.41l29.89,3.2v3.2h-33.1l-20.28-10.14L726.2,1199.19z"/>
<path class="st64" d="M846.3,1202.93h6.41l6.41,13.35l-13.35,6.41l-13.35-3.2l6.41-13.35L846.3,1202.93z"/>
<path class="st80" d="M646.12,595.45l16.55,6.41l6.41,10.14l-6.41,6.41L642.39,612l6.41-10.14L646.12,595.45z"/>
</svg>
