<?xml version="1.0" encoding="utf-8"?>
<!-- Generator: Adobe Illustrator 28.2.0, SVG Export Plug-In . SVG Version: 6.00 Build 0)  -->
<svg version="1.1" id="Layer_1" xmlns="http://www.w3.org/2000/svg" xmlns:xlink="http://www.w3.org/1999/xlink" x="0px" y="0px"
	 viewBox="0 0 2000 2000" style="enable-background:new 0 0 2000 2000;" xml:space="preserve">
<style type="text/css">
	.st0{fill:#032E35;}
	.st1{fill:#6C8DFC;}
	.st2{fill:#F6EFEB;}
	.st3{fill:#F9F1EB;}
	.st4{fill:#6A8CFA;}
	.st5{fill:#05303A;}
	.st6{fill:#032E34;}
	.st7{fill:#6B8CFB;}
	.st8{fill:#497AF4;}
	.st9{fill:#4C7CF5;}
	.st10{fill:#042D34;}
	.st11{fill:#698BFB;}
	.st12{fill:#4B7BF4;}
	.st13{fill:#05191A;}
	.st14{fill:#6F8FFD;}
	.st15{fill:#4D7CF5;}
	.st16{fill:#032C31;}
	.st17{fill:#083344;}
	.st18{fill:#4A7AF4;}
	.st19{fill:#E7E4EC;}
	.st20{fill:#051C1E;}
	.st21{fill:#071B20;}
	.st22{fill:#668AFB;}
	.st23{fill:#FCF3EB;}
	.st24{fill:#4678F4;}
	.st25{fill:#517EF6;}
	.st26{fill:#051D1F;}
	.st27{fill:#5782F7;}
	.st28{fill:#4879F4;}
	.st29{fill:#032B30;}
	.st30{fill:#E5E2ED;}
	.st31{fill:#537FF6;}
	.st32{fill:#EBE7EC;}
	.st33{fill:#082027;}
	.st34{fill:#062E3A;}
	.st35{fill:#6D8EFC;}
	.st36{fill:#6E8EFC;}
	.st37{fill:#092937;}
	.st38{fill:#94ACED;}
	.st39{fill:#4C7BF5;}
	.st40{fill:#0A222C;}
	.st41{fill:#051A1A;}
	.st42{fill:#678BFB;}
	.st43{fill:#6087F9;}
	.st44{fill:#042629;}
	.st45{fill:#092531;}
	.st46{fill:#5781F7;}
	.st47{fill:#527FF6;}
	.st48{fill:#061C20;}
	.st49{fill:#061414;}
	.st50{fill:#061616;}
	.st51{fill:#5D85F8;}
	.st52{fill:#051B1C;}
	.st53{fill:#698CFB;}
	.st54{fill:#5580F7;}
	.st55{fill:#6489FA;}
	.st56{fill:#4E7DF5;}
	.st57{fill:#051919;}
	.st58{fill:#6589FA;}
	.st59{fill:#5B84F8;}
	.st60{fill:#6B8CFC;}
	.st61{fill:#061615;}
	.st62{fill:#042325;}
	.st63{fill:#042528;}
	.st64{fill:#1B4373;}
	.st65{fill:#6187F9;}
	.st66{fill:#143D5A;}
	.st67{fill:#061F23;}
	.st68{fill:#08232A;}
	.st69{fill:#051E1F;}
	.st70{fill:#688BFB;}
	.st71{fill:#042224;}
	.st72{fill:#03292D;}
	.st73{fill:#133958;}
	.st74{fill:#5A83F8;}
	.st75{fill:#103B5B;}
	.st76{fill:#4779F4;}
	.st77{fill:#0C354B;}
	.st78{fill:#6081C6;}
	.st79{fill:#DEDEED;}
	.st80{fill:#163D65;}
	.st81{fill:#052022;}
	.st82{fill:#5380F6;}
	.st83{fill:#071C20;}
	.st84{fill:#051B1B;}
	.st85{fill:#042326;}
	.st86{fill:#061818;}
	.st87{fill:#143D65;}
	.st88{fill:#DBDCEC;}
	.st89{fill:#4075F2;}
	.st90{fill:#04303A;}
</style>
<path class="st0" d="M793.71,540.57h15.71l25.34,28.38l9.63,12.67v6.08l9.63,3.04l15.71,31.42l15.71,6.08l12.67,9.63v6.08h6.08
	l6.08,19.26l-22.3-19.26l-6.08-6.08h-97.81l-31.42,9.63l-9.63,9.63l-9.63,28.38l-3.04,22.3v85.65l9.63,56.76l9.63,28.38l12.67,6.08
	l47.64,6.08h28.38l-38.01-41.05l-16.22-17.74l3.04-6.08l41.05,41.05l19.26,25.34l19.26-3.04l19.26-15.71l28.38-50.68l25.34-9.63
	l22.3-9.63l-3.04-9.63l-79.06-22.3l-22.3-12.67v-28.38l9.63-9.63l22.3,3.04l44.6,15.71l22.3,12.67l-12.67-38.01l-15.71-28.38v-6.08
	h6.08l25.34,34.97l15.71,31.42l9.63,34.97v41.05l-6.08,6.08l-47.64,12.67l-22.3,44.6l-25.34,22.3l-28.38,9.63h-53.72L795.23,946
	l-3.04,19.26l38.01,15.71l47.64,22.3l-3.04,6.08l-22.3-6.08v-6.08l-22.3-3.04l-91.73-22.3l-79.06-15.71H628l-22.3,12.67l-22.3,31.42
	l-28.38,50.68l-22.3,50.68l-9.63,50.68l76.02-15.71l38.01-9.63l19.26-56.76l25.34-63.35l6.08-12.67l3.04,9.63l-22.3,88.69
	l-12.67,34.97l41.05-9.63h28.38l31.42,19.26l63.35,31.42l50.68,19.26l6.08,3.04v-41.05l8.62-89.7l3.04-12.67h6.08l3.04,66.39v72.98
	h9.63l6.08-12.67l6.08-6.08l6.08-47.64l15.71-34.97l19.26-25.34l-3.04-12.67l-22.3-25.34l-25.34-41.05l-3.04-12.67h-6.08l3.04-12.67
	l34.97-19.26h6.08v-6.08l19.26-9.63l41.05-25.34l34.97-22.3l12.67-9.63h9.63v-6.08l31.42-19.26l41.05-28.38l15.71-9.63l12.67,3.04
	l19.26,76.02l15.71,41.05l38.01,56.76l9.63,12.67v6.08l12.67,6.08l25.34,25.34v6.08l15.71,6.08l22.3,19.26v50.68l9.63-3.04
	l6.08-56.76l25.34-3.04h47.64l6.08,15.71l3.04,47.64l-9.63,53.72l-9.63,25.34l-12.67,25.34l-12.67-6.08l-25.34-22.3l-38.01-38.01
	l9.63-6.08l25.34-12.67l6.08-9.63l3.04-19.26h-6.08l-6.08,19.26l-12.67,12.67l-25.34,6.08h-25.34l-22.3,6.08h-12.67l-3.04-22.3
	l-22.3,9.63l-41.05,31.42h-6.08v6.08h-6.08l-6.08,12.67l-22.3,22.3l31.42,12.67l38.01,12.67l-3.04,25.34L1189,1283l-15.71,19.26
	l-41.05,28.38l-25.34,12.67l-28.38,6.08l3.04-9.63l31.42-12.67l22.3-15.71h6.08l6.08-12.67l12.67-6.08l6.08-15.71l15.71-22.3
	l3.04-12.67l-28.38-6.08l-41.05-19.26l-53.72-22.3l-72.98-25.34l-22.3-9.63l-12.67,3.04l-34.97,34.97l-38.01,28.38l-47.64,22.3
	h-6.08l6.08-12.67l19.26-9.63l15.71-12.67l-63.35-25.34l-76.02-38.01l-15.71-12.67l-85.65,15.71l-129.73,31.42l-9.63,3.04
	l12.67,19.26l19.26,15.71v6.08h6.08l-3.04,9.63l-28.38-22.3l-22.3-22.3l-6.08-15.71l12.67-9.63l19.26-6.08l3.04-50.68l9.63-34.97
	l25.34-50.68l31.42-56.76l25.34-28.38l22.3-9.63l34.97-3.04l76.02,12.67l9.63,3.04l6.08-19.26l6.08-9.63l-3.04-12.67l-15.71-9.63
	l-9.63-19.26l-12.67-63.35l-3.04-38.01v-41.05l6.08-56.76l9.63-31.42l12.67-15.71l22.3-6.08l-6.08-25.34l-3.04-38.01l25.34-12.67
	L793.71,540.57z"/>
<path class="st1" d="M612.79,1192.8l15.71,3.04l31.42,22.3l41.05,25.34l47.64,31.42l9.63,9.63h22.3l98.31-28.38l72.98-22.3h6.08
	l6.08,41.05l28.38,85.65l28.38,53.72l3.04,12.67l-36.99,13.18h-50.68l-136.32-19.26h-38.01l-53.72,38.01l-15.71-3.04l6.08-9.63
	l-3.04-12.67l-28.38-28.38l-22.3-31.42l-9.63-9.63l-15.71,9.63l-12.67,9.63h-9.63l6.08-12.67l25.34-12.67h6.08l-6.08-34.97
	l-44.6,28.38l-9.63,6.08l-12.67-3.04l31.42-22.3l47.64-34.97h9.63l-6.08,12.67l-9.63,9.63l95.27-22.3h15.71l-3.04-9.63l-56.76-34.97
	l-63.35-41.05l-15.71,6.08l-47.64,31.42l-56.76,31.42l-76.02,31.42h-6.08l15.71,15.71l41.05,34.97l34.97,22.3l28.38,19.26l3.04,6.08
	l-19.26-3.04l-41.05-22.3l-50.68-38.01l-34.97-34.97v-6.08l79.06-34.97l53.72-28.38l63.35-38.01L612.79,1192.8z"/>
<path class="st2" d="M1144.91,825.89h6.08l22.3,76.02l25.34,53.72l38.01,50.68l41.05,41.05l6.08,3.04v6.08l12.67,6.08v9.63
	l-69.94,44.6l-15.71,12.67l-22.3,12.67l-31.42,28.38l-19.26,22.3l-6.08,9.63l-9.63-3.04v-12.67h6.08l6.08-12.67l19.26-15.71v-15.71
	l-28.38-28.38l-34.97-25.34h-15.71l-28.38,28.38l-15.71,6.08l3.04-19.26l15.71-19.26v-28.38l-12.67-6.08l-25.34-22.3l-19.26,6.08
	l-15.71,12.67l-12.67-6.08l-31.42-47.64l-12.67-22.3v-6.08l50.68-28.38l31.42-19.26l34.97-22.3l44.6-28.38l60.31-38.01
	L1144.91,825.89z"/>
<path class="st3" d="M1411.47,746.33l12.67,6.08l25.34,53.72l31.42,60.31l41.05,79.06l-3.04,15.71l-19.26,25.34l-28.38,31.42
	l-31.42,28.38l-19.26,9.63l-6.08,6.08l-3.04-12.67h-72.98v41.05l-6.08,19.26h-9.63l-3.04-50.68l-28.38-22.3l-47.64-47.64
	l-31.42-44.6l-12.67-25.34l38.01-19.26l44.6-31.42l38.01-34.97l41.05-38.01L1411.47,746.33z"/>
<path class="st1" d="M616.34,955.62h9.63v6.08l34.97,3.04l47.64,12.67l91.73,31.42l25.34,15.71l9.63,15.71v70.44l-3.04,56.76
	l-12.67,3.04l-82.1-41.05l-12.67-9.63h-28.38l-41.05,6.08l9.63-34.97l22.3-88.69l-6.08,12.67l-34.97,88.69l-9.63,25.34l-38.01,9.63
	l-66.39,12.67h-9.63v-22.3l9.63-34.97l22.3-50.68l28.38-50.68l22.3-28.38L616.34,955.62z"/>
<path class="st4" d="M784.08,635.34h31.42v6.08l28.38,6.08l25.34,15.71l9.63,15.71l28.38,3.04v9.63h-6.08l19.26,44.6l-31.42-9.63
	l-22.3-3.04l-6.59,7.09V759l31.42,12.67l66.39,19.26l6.08,12.67l-12.67,9.63l-31.42,9.63l-9.12,9.12l-22.3,41.05l-22.3,19.26
	l-19.26,3.04l-34.97-41.05l-25.34-25.34l9.63,15.71l31.42,31.42l12.67,19.26h-30.91l-47.64-6.08l-15.71-9.63l-12.67-41.05
	l-6.08-44.6v-85.65l9.63-44.6l9.63-15.71l22.3-9.63L784.08,635.34z"/>
<path class="st5" d="M1151.5,800.55l12.67,3.04l19.26,76.02l15.71,41.05l38.01,56.76l9.63,12.67v6.08l12.67,6.08l25.34,25.34v6.08
	l15.71,6.08l22.3,19.26v50.68l9.63-3.04l6.08-56.76l25.34-3.04h47.64l6.08,15.71l3.04,47.64l-9.63,53.72l-9.63,25.34l-12.67,25.34
	l-12.67-6.08l-25.34-22.3l-38.01-38.01l9.63-6.08l25.34-12.67l6.08-9.63l3.04-19.26h-6.08l-6.08,19.26l-12.67,12.67l-25.34,6.08
	h-25.34l-22.3,6.08h-12.67l-3.04-22.3l-22.3,9.63l-41.05,31.42h-6.08v6.08h-6.08l-6.08,12.67l-15.71,15.71h-7.09l3.04-15.71
	l38.01-38.01l22.3-15.71l22.3-12.67l66.39-44.6h6.08l-6.08-11.15l-6.08-3.04v-6.08l-12.67-6.08l-44.6-44.6l-34.97-50.68
	l-25.34-56.76l-15.71-56.76v-9.63l-60.31,38.01l-47.64,31.42l-63.35,38.01l-44.6,25.34l-15.71,6.08l15.71,28.38l34.97,50.68v9.63
	l-12.67-6.08l-22.3-25.34l-25.34-41.05l-3.04-12.67h-6.08l3.04-12.67l34.97-19.26h6.08v-6.08l19.26-9.63l41.05-25.34l34.97-22.3
	l12.67-9.63h9.63v-6.59l31.42-19.26l41.05-28.38L1151.5,800.55z"/>
<path class="st6" d="M793.71,540.57h15.71l25.34,28.38l9.63,12.67v6.08l9.63,3.04l15.71,31.42l15.71,6.08l12.67,9.63v6.08h6.08
	l6.08,19.26l-22.3-19.26l-6.08-6.08h-97.81l-31.42,9.63l-9.63,9.63l-9.63,28.38l-3.04,22.3v85.65l9.63,56.76l9.63,28.38l12.67,6.08
	l47.64,6.08h28.38l-38.01-41.05l-16.22-17.74l3.04-6.08l41.05,41.05l19.26,25.34l19.26-3.04l19.26-15.71l28.38-50.68l25.34-9.63
	l22.3-9.63l-3.04-9.63l-79.06-22.3l-22.3-12.67v-28.38l9.63-9.63l22.3,3.04l44.6,15.71l22.3,12.67l-12.67-38.01l-15.71-28.38v-6.08
	h6.08l25.34,34.97l15.71,31.42l9.63,34.97v41.05l-6.08,6.08l-47.64,12.67l-22.3,44.6l-25.34,22.3l-28.38,9.63h-53.72L795.23,946
	l-9.63,15.71l-15.71-3.04l12.67-3.04l-3.04-9.63l-6.08-6.08l12.67-3.04l6.08-19.26l-25.34-6.08l-8.11,21.79L743.03,946h-6.08
	l6.08-19.26l6.08-9.63l-3.04-12.67l-15.71-9.63l-9.63-19.26l-12.67-63.35l-3.04-38.01v-41.05l6.08-56.76l9.63-31.42l12.67-15.71
	l22.3-6.08l-6.08-25.34l-3.04-38.01l25.34-12.67L793.71,540.57z"/>
<path class="st7" d="M1351.17,1101.07h6.08v19.26l-12.67,15.71l-28.38,12.67l53.72,53.72l19.26,12.67l3.04,9.63l63.35,41.05
	l19.26,12.67l-15.71,15.71l-34.97,9.63h-12.67l19.26,76.02l3.04,15.71v22.3h-22.3l-47.64-9.63l-25.34-3.04h-104.4l-60.31,6.08
	h-19.26l9.63-12.67h6.08v-6.08l15.71-9.63h6.08v-6.08l9.63-3.04l12.67-12.67l31.42-12.67l19.26-9.63h6.08v-6.08l79.06-31.42
	l47.64-12.67l41.05-6.08l-9.63-9.63l-34.97-22.3l-34.97-28.38l-63.35-63.35l-28.38,3.04l-47.64,12.67l-38.01,15.71l-31.42,19.26
	l-9.63,3.04l-6.08-6.08l28.38-28.38l3.04-6.08h6.08v-6.08l47.64-34.97l9.63-6.08h12.67l3.04,22.3l34.97-9.63h28.38l25.34-9.63
	l9.63-9.63L1351.17,1101.07z"/>
<path class="st8" d="M612.79,1192.8l15.71,3.04l31.42,22.3l41.05,25.34l47.64,31.42l9.63,9.63h22.3l98.31-28.38l72.98-22.3h6.08
	v12.67l-50.68,19.26l-95.27,28.38l-98.31,25.34l-63.35,12.67h-6.08l12.67,31.42l22.3,34.97l25.34,31.42l-9.63,3.04l-28.38-28.38
	l-22.3-31.42l-9.63-9.63l-15.71,9.63l-12.67,9.63h-9.63l6.08-12.67L628,1357.5h6.08l-6.08-34.97l-44.6,28.38l-9.63,6.08l-12.67-3.04
	l31.42-22.3l47.64-34.97h9.63l-6.08,12.67l-9.63,9.63l95.27-22.3h15.71l-3.04-9.63l-56.76-34.97l-63.35-41.05l-15.71,6.08
	l-47.64,31.42l-56.76,31.42l-76.02,31.42h-6.08l15.71,15.71l41.05,34.97l34.97,22.3l28.38,19.26l3.04,6.08l-19.26-3.04l-41.05-22.3
	l-50.68-38.01l-34.97-34.97v-6.08l79.06-34.97l53.72-28.38l63.35-38.01L612.79,1192.8z"/>
<path class="st9" d="M1075.48,644.97h38.01l31.42,15.71l12.67,15.71l15.71-3.04l41.05-12.67h25.34l31.42,9.63l25.34,22.3l6.08,15.71
	l66.39,6.08l22.3,9.63v6.08l-31.42-3.04h-53.72l-9.63,25.34l-22.3,22.3l-22.3,9.63l-22.3-3.04l-9.63-9.63l3.04-15.71l22.3-19.26
	l28.38-15.71l12.67-6.08l-6.08-15.71l-19.26-15.71l-19.26-6.08h-26.86l-47.64,15.71l3.04,34.97l-9.63,25.34l-15.71,19.26
	l-31.42,15.71h-19.26l-15.71-15.71l6.08-25.34l12.67-19.26l15.71-15.71l19.26-15.71l15.71-6.08l-12.67-15.71l-19.26-9.63
	l-31.42-3.04l-25.34,9.63l-15.71,6.08v6.08h-6.08l-6.08,12.67l-12.67,34.97h-9.63l3.04-28.38l9.63-19.26l12.67-15.71l31.42-19.26
	L1075.48,644.97z"/>
<path class="st1" d="M1100.82,898.36l9.63,6.08l12.67,31.42l19.26,22.3l15.71,12.67l-3.04,9.63l-63.35,47.64l-44.6,28.38
	l-22.3-19.26l-12.67-9.63l-19.26,3.04l-6.08-12.67l-9.63-15.71l3.04-15.71l47.64-38.01l44.6-31.42L1100.82,898.36z"/>
<path class="st10" d="M1363.84,1047.35h47.64l6.08,15.71l3.04,47.64l-9.63,53.72l-9.63,25.34l-12.67,25.34l-12.67-6.08l-25.34-22.3
	l-38.01-38.01l9.63-6.08l25.34-12.67l6.08-9.63l3.04-19.26h-6.08l-3.04,9.63l-9.63,6.08l-3.04-6.08l3.04-60.31L1363.84,1047.35z"/>
<path class="st11" d="M1351.17,1101.07h6.08v19.26l-12.67,15.71l-28.38,12.67l53.72,53.72l19.26,12.67l3.04,9.63l63.35,41.05
	l19.26,12.67l-15.71,15.71l-34.97,9.63l-50.68,6.08l-66.39,15.71l-25.34,9.63l-9.63-3.04l79.06-31.42l47.64-12.67l41.05-6.08
	l-9.63-9.63l-34.97-22.3l-34.97-28.38l-63.35-63.35l-28.38,3.04l-47.64,12.67l-38.01,15.71l-31.42,19.26l-9.63,3.04l-6.08-6.08
	l28.38-28.38l3.04-6.08h6.08v-6.08l47.64-34.97l9.63-6.08h12.67l3.04,22.3l34.97-9.63h28.38l25.34-9.63l9.63-9.63L1351.17,1101.07z"
	/>
<path class="st12" d="M1411.47,746.33l12.67,6.08l25.34,53.72l31.42,60.31l41.05,79.06l-3.04,15.71l-19.26,25.34l-28.38,31.42
	l-31.42,28.38l-19.26,9.63l-6.08,6.08l-3.04-15.71l28.38-22.3l38.01-38.01l25.34-34.97l-9.63-22.3l-66.39-129.73l-9.63-28.38
	l-15.71,9.63l-66.39,66.39l-34.97,28.38l-38.01,28.38l-53.72,31.42l-9.63-12.67l9.63-6.08l47.64-28.38l44.6-34.97l28.38-28.38
	l25.34-22.3L1411.47,746.33z"/>
<path class="st13" d="M951.83,1234.35h6.08v12.67l-50.68,19.26l-95.27,28.38L713.64,1320l-63.35,12.67h-6.08l12.67,31.42l22.3,34.97
	l25.34,31.42l-9.63,3.04l-28.38-28.38l-22.3-31.42l-9.63-9.63l-15.71,9.63l-12.67,9.63h-9.63l6.08-12.67l25.34-12.67h6.08
	l-6.08-34.97l-44.6,28.38l-9.63,6.08l-12.67-3.04l31.42-22.3l47.64-34.97h9.63l-6.08,12.67l-9.63,9.63l120.61-28.38l105.41-28.38
	L951.83,1234.35z"/>
<path class="st14" d="M1518.91,1171.01h53.72l6.08,3.04l12.67,126.69l12.67,72.98v12.67l-88.69,3.04l-31.42,12.67l-12.67,3.04
	l3.04-12.67l31.42-15.71l34.97-6.08h28.38l19.26,3.04l-9.63-38.01l-9.63-66.39l-3.04-34.97v-47.64l-60.31,3.04l-50.68,9.63
	l-50.68,19.26h-12.16l3.04-9.63l38.01-19.26l41.05-12.67L1518.91,1171.01z"/>
<path class="st15" d="M1214.84,660.68h25.34l31.42,9.63l25.34,22.3l6.08,15.71l66.39,6.08l22.3,9.63v6.08l-31.42-3.04h-53.72
	l-9.63,25.34l-22.3,22.3l-22.3,9.63l-22.3-3.04l-9.63-9.63l3.04-15.71l22.3-19.26l28.38-15.71l12.67-6.08l-6.08-15.71l-19.26-15.71
	l-19.26-6.08h-27.37l-50.68,15.71l3.04-15.71l34.97-12.67L1214.84,660.68z"/>
<path class="st16" d="M1389.17,1303.78h22.3l-3.04,9.63l-66.39,19.26l-6.08,3.04l3.04,41.05h-6.08l-3.04-6.08l-3.04-28.38
	l-28.38,6.08l-34.97,15.71l-60.31,25.34l-34.97,22.3l-12.67-3.04l9.63-9.63h6.08v-6.08l15.71-9.63h6.08v-6.08l9.63-3.04l12.67-12.67
	l31.42-12.67l50.68-22.3l60.31-15.71L1389.17,1303.78z"/>
<path class="st17" d="M1053.18,863.39l6.08,3.04v9.63v9.63l-38.01,22.3l-28.38,19.26l-34.97,19.26l-31.42,19.26h-6.08l15.71,28.38
	l34.97,50.68v9.63l-12.67-6.08l-22.3-25.34l-25.34-41.05l-3.04-12.67h-6.08l3.04-12.67l34.97-19.26h6.08v-6.08l19.26-9.63
	l41.05-25.34l34.97-22.3L1053.18,863.39z"/>
<path class="st18" d="M1407.92,749.87v9.63l12.67,6.08l-3.04,12.67v-6.08l-15.71,9.63l-66.39,66.39l-34.97,28.38l-38.01,28.38
	l-53.72,31.42l-9.63-12.67l9.63-6.08l47.64-28.38l44.6-34.97l28.38-28.38l25.34-22.3L1407.92,749.87z"/>
<path class="st3" d="M1075.48,930.29h6.08l-6.08,15.71l-19.26,34.97l-50.68,9.63h44.6l-3.04,25.34l-6.08,31.42l-12.67-6.08
	l-28.38-22.3l-9.63-19.26l3.04-9.63h6.08l6.08-12.67l50.68-34.97L1075.48,930.29z"/>
<path class="st19" d="M790.16,556.28l15.71,3.04l25.34,28.38v6.08l15.71,15.71l3.04,6.08h-85.65l-3.04-19.26v-28.38L790.16,556.28z"
	/>
<path class="st9" d="M612.79,1192.8l15.71,3.04l31.42,22.3l41.05,25.34l47.64,31.42l9.63,9.63l9.63,6.08l-22.3,3.04l-9.63-9.63
	l-69.94-44.6l-44.6-28.38l-15.71,6.08l-31.42,22.3l-6.08-3.04h-9.63l-19.26,12.67l-22.3,9.63l-12.67,6.08l-9.63-3.04l38.01-22.3
	l34.97-19.26L612.79,1192.8z"/>
<path class="st20" d="M641.68,1297.7h9.63l-6.08,12.67l-9.63,9.63l22.3-3.04l-12.67,9.63l6.08,6.08h-6.08l12.67,31.42l22.3,34.97
	l25.34,31.42l-9.63,3.04l-28.38-28.38l-22.3-31.42l-9.63-9.63l-15.71,9.63l-12.67,9.63h-9.63l6.08-12.67l25.34-12.67h6.08
	l-6.08-34.97l-44.6,28.38l-9.63,6.08l-12.67-3.04l31.42-22.3L641.68,1297.7z"/>
<path class="st21" d="M793.71,540.57h15.71l25.34,28.38l9.63,12.67v6.08l9.63,3.04l6.08,9.63v15.71L844.39,610l-6.08-9.63
	l-34.97-3.04v-3.04h28.38l-28.38-34.97l-22.3,3.04l-15.71,6.08l-3.04,47.64l-9.63-3.04l-6.08-53.72l25.34-12.67L793.71,540.57z"/>
<path class="st22" d="M1100.82,898.36l9.63,6.08l9.63,34.97l6.08,15.71l-12.67-3.04l-9.63-15.71l-3.04-12.67l-9.63,3.04l-3.04,6.59
	l-19.26,3.04L1002.5,984l-9.63,9.63l6.08,19.26l9.63,12.67l-15.71,6.08l-6.08-12.67l-9.63-15.71l3.04-15.71l47.64-38.01l44.6-31.42
	L1100.82,898.36z"/>
<path class="st9" d="M1518.91,1171.01h53.72l3.04,9.63l-6.08,9.63h-63.35l-50.68,9.63l-50.68,19.26h-12.67l3.04-9.63l38.01-19.26
	l41.05-12.67L1518.91,1171.01z"/>
<path class="st23" d="M1144.91,702.24h9.63v31.42l-12.67,19.26l-19.26,15.71l-15.71,6.08l-15.71-3.04l3.04-19.26l19.26-25.34
	L1144.91,702.24z"/>
<path class="st24" d="M1293.9,714.91l6.08,6.08l-15.71,6.08v6.08l-38.01,22.3l-9.63,15.71l31.42-15.71l19.26-12.67l9.63-9.63v19.26
	l-22.3,22.3l-22.3,9.63l-22.3-3.04l-9.63-9.63l3.04-15.71l22.3-19.26l28.38-15.71L1293.9,714.91z"/>
<path class="st25" d="M1585.3,1335.71l9.63,12.67l3.04,25.34h6.08v12.67l-88.69,3.04l-31.42,12.67l-12.67,3.04l3.04-12.67
	l31.42-15.71l34.97-6.08h28.38l19.26,3.04l-3.04-6.08V1335.71z"/>
<path class="st26" d="M796.75,673.86h3.04l3.04,56.76l9.63,25.34l3.04,34.97l-6.08,15.71l-12.67,9.63l-19.26,3.04l-19.26-9.63v-9.63
	h38.01l3.04-3.04v-28.38l-9.63-19.26v-6.08l-19.26-6.08l-6.08-3.04v-6.08h22.3l9.63,3.04l-3.04-12.67v-25.34L796.75,673.86z"/>
<path class="st27" d="M413.63,1310.37l12.67,3.04h-6.08l15.71,15.71l41.05,34.97l34.97,22.3l28.38,19.26l3.04,6.08l-19.26-3.04
	l-41.05-22.3l-50.68-38.01L404,1320L413.63,1310.37z"/>
<path class="st23" d="M1132.74,971.33l6.08,3.04l-41.05,31.42l-34.97,25.34l-15.71,9.63l3.04-22.3l9.63-28.38l50.68-12.67
	L1132.74,971.33z"/>
<path class="st28" d="M1161.12,682.98l6.08,3.04l3.04,41.05l-9.63,25.34l-15.71,19.26l-31.42,15.71h-19.26l-9.63-6.08v-19.26
	l3.04,9.63l28.38-3.04l19.26-12.67l12.67-15.71l3.04-6.08h6.08v-31.42l-9.63-9.63L1161.12,682.98z"/>
<path class="st14" d="M967.54,1221.68l15.71,6.08l60.31,25.34l66.39,25.34l3.04,9.63l-22.3-3.04l-88.69-31.42l-31.42-15.71
	L967.54,1221.68z"/>
<path class="st23" d="M1094.23,920.66l9.63,3.04l9.63,28.38h6.08l6.08,15.71l-60.31,12.67l3.04-15.71l22.3-41.05L1094.23,920.66z"/>
<path class="st29" d="M951.83,1234.35h6.08v12.67l-50.68,19.26l-50.68,15.71l-9.63-3.04l3.04-3.04l-12.67-6.08L951.83,1234.35z"/>
<path class="st30" d="M774.45,594.29h28.38l34.97,3.04l12.67,19.26h-85.65v-19.26L774.45,594.29z"/>
<path class="st28" d="M1148.46,971.33l3.04,6.08l-12.67,15.71l-56.76,41.05l-19.26,12.67l-15.71,3.04l6.08-15.71l60.31-44.6
	l31.42-15.71L1148.46,971.33z"/>
<path class="st31" d="M1154.54,676.9l12.67,6.08l-15.71,9.63l9.63,12.67l-3.04,28.38h-3.04v-31.42l-22.3,12.67l-12.67,12.67h-6.59
	l-6.08,12.67l-12.67,22.3l-9.63,15.71l-6.08-12.67l12.67-31.42l15.71-19.26l25.34-19.26l15.71-6.08v-6.08h6.08L1154.54,676.9
	L1154.54,676.9z"/>
<path class="st32" d="M1230.55,1123.37h12.67v25.34l-31.42,12.67l-38.01,19.26l-9.63-3.04l3.04-6.08h6.08v-6.08l47.64-34.97
	L1230.55,1123.37z"/>
<path class="st33" d="M904.7,955.62h12.67l6.08,15.71l22.3,38.01l25.34,34.97v9.63l-12.67-6.08l-22.3-25.34l-25.34-41.05
	l-3.04-12.67h-6.08L904.7,955.62z"/>
<path class="st24" d="M1411.47,746.33l12.67,6.08l22.3,47.64l9.63,34.97l6.08,6.08l-3.04,12.67l-9.63-9.63l-28.38-56.76l-3.04-22.3
	l-12.67-3.04L1411.47,746.33z"/>
<path class="st34" d="M977.16,914.07h12.67v12.67l-34.97,22.3l-38.01,19.26v-12.67l-6.08-3.04l28.38-15.71h6.08v-6.08l19.26-9.63
	L977.16,914.07z"/>
<path class="st35" d="M1043.55,936.37l6.08,3.04l-6.08,6.08v9.63l-38.01,25.34l-12.67,12.67l6.08,19.26l9.63,12.67l-15.71,6.08
	l-6.08-12.67l-9.63-15.71l3.04-15.71l47.64-38.01L1043.55,936.37z"/>
<path class="st36" d="M1376.5,863.39h15.71l9.63,28.38l15.71,31.42l19.26,31.42l6.08,19.26l-12.67-6.08l-22.3-41.05l-19.26-25.34
	l-6.08-25.34L1376.5,863.39z"/>
<path class="st37" d="M1214.84,1123.37h12.67v6.08l-31.42,22.3l-15.71,12.67h-6.08v6.08h-6.08l-6.08,12.67l-15.71,15.71h-7.6
	l3.04-15.71l38.01-38.01l22.3-15.71L1214.84,1123.37z"/>
<path class="st38" d="M764.83,911.03h19.26l9.63,9.63l-9.63,19.26l-6.08,3.04l3.04,12.67l-31.42-6.08v-9.63l9.63-15.71
	L764.83,911.03z"/>
<path class="st39" d="M1445.93,806.63l9.63,9.63l38.01,76.02l-3.04,9.63l-9.63,3.04l-25.34-47.64l3.04-15.71l-6.08-3.04
	L1445.93,806.63z"/>
<path class="st40" d="M1214.84,1361.05h19.26l3.04,12.67l-50.68,25.34l-19.26,12.67l-12.67-3.04l9.63-9.63h6.08v-6.08l15.71-9.63
	h6.08v-6.08l9.63-3.04L1214.84,1361.05z"/>
<path class="st41" d="M1389.17,1303.78h22.3l-3.04,9.63l-66.39,19.26l-22.3,3.04l-3.04-9.63l15.71-6.08h9.63v-6.59L1389.17,1303.78z
	"/>
<path class="st15" d="M1224.47,1205.97l12.67,3.04l44.6,44.6l19.26,25.34v6.08l-15.71-3.04l-28.38-34.97l-28.38-31.42
	L1224.47,1205.97z"/>
<path class="st42" d="M1344.58,904.95l9.63,3.04l28.38,53.72l19.26,31.42v9.63h-9.63l-34.97-60.31l-12.67-28.38V904.95z"/>
<path class="st43" d="M1452.52,1183.67h15.71l9.63,3.04h28.38v3.04l-50.68,9.63l-50.68,19.26h-12.67l3.04-9.63l38.01-19.26
	L1452.52,1183.67z"/>
<path class="st27" d="M1167.21,1015.42h9.63l-3.04,12.67l-28.38,22.3l-50.68,25.34l6.08-12.67l19.26-15.71l38.01-22.3
	L1167.21,1015.42z"/>
<path class="st44" d="M885.44,1326.08l12.67,3.04l-22.3,9.63l-95.27,25.34l-38.01,6.08l-6.08-3.04v-6.08l31.42-3.04l95.27-25.34
	L885.44,1326.08z"/>
<path class="st1" d="M1262.48,1189.76l15.71,6.08l25.34,34.97l34.97,38.01l3.04,9.63l-6.08,3.04l-15.71-12.67v-6.08h-6.08
	l-25.34-34.97l-12.67-19.26l-12.67-12.67v-6.08H1262.48z"/>
<path class="st45" d="M612.79,1272.36h9.63l-3.04,9.63L565.66,1320l-19.26,6.08l-15.71-3.04v-6.08l28.38-9.63l34.97-22.3
	L612.79,1272.36z"/>
<path class="st36" d="M445.05,984h60.31l3.04,12.67l-76.02,3.04v-12.67L445.05,984z"/>
<path class="st46" d="M467.35,888.73l25.34,3.04l53.72,28.38v6.08l-22.3-3.04l-44.6-19.26l-12.67-6.08v-9.12H467.35z"/>
<path class="st47" d="M540.32,816.26l12.67,3.04l31.42,34.97l15.71,12.67l3.04,9.63l-15.71-3.04l-25.34-22.3l-22.3-25.34v-9.63
	H540.32z"/>
<path class="st48" d="M1154.54,1303.78h6.08l-3.04,12.67l-34.97,22.3l-34.97,12.67h-9.63l3.04-9.63l31.42-12.67l28.38-19.26
	L1154.54,1303.78z"/>
<path class="st14" d="M1468.23,1237.39h6.08l15.71,50.68l6.08,28.38v15.71l-9.63-3.04l-19.26-82.1v-9.63H1468.23z"/>
<path class="st49" d="M828.68,619.63h22.3l-6.08,3.04l3.04,3.04h19.26l6.08,6.08l-47.64,3.04h-50.68l12.67-3.04v-6.08L828.68,619.63
	z"/>
<path class="st35" d="M1186.46,1037.72l12.67,3.04l-15.71,15.71l-34.97,25.34l-15.71,9.63h-6.08l6.08-12.67L1186.46,1037.72z"/>
<path class="st50" d="M1154.54,831.97l9.63,6.08l15.71,63.35l19.26,44.6l-6.08,3.04l-25.34-56.76l-12.67-41.05v-19.26H1154.54z"/>
<path class="st14" d="M578.33,1215.09l9.63,3.04v6.08l6.08,3.04l-19.26,12.67l-6.08-3.04h-9.63l-19.26,12.67l-22.3,9.63l-12.67,6.08
	l-9.63-3.04l38.01-22.3l34.97-19.26L578.33,1215.09z"/>
<path class="st51" d="M1072.44,1104.62l15.71,3.04l28.38,22.3l3.04,6.08v19.26l-12.67-6.08l-3.04-12.67l-12.67-6.08l-19.26-22.3
	v-3.55H1072.44z"/>
<path class="st13" d="M641.68,1297.7h9.63l-6.08,12.67l-19.26,6.08l-3.04,9.63l-47.64,31.42l-12.67-3.04l31.42-22.3L641.68,1297.7z"
	/>
<path class="st15" d="M996.42,1044.31l12.67,3.04l19.26,19.26l-6.08,12.67l-15.71,25.34l-6.08,19.26h-6.08l3.04-22.3l19.26-28.38
	l-19.26-22.3v-6.59H996.42z"/>
<path class="st52" d="M685.77,993.63l3.04,9.63l-19.26,76.02l-9.63,9.63v-34.97l19.26-47.64L685.77,993.63z"/>
<path class="st53" d="M1116.53,930.29L1129.2,946l28.38,25.34l-3.04,9.63l-6.08-3.04l-12.67,6.08l-9.63-3.04l6.08-6.08l-12.67,3.04
	l-3.04-6.08l6.08-6.08l-3.04-12.67v-9.63L1116.53,930.29z"/>
<path class="st14" d="M1509.28,1221.68h6.08l19.26,76.02l3.04,25.34l-9.63-3.04l-19.26-79.06v-19.26H1509.28z"/>
<path class="st23" d="M1284.78,730.62l6.08,3.04l-22.3,25.34l-22.3,12.67h-9.63l3.04-12.67l31.42-22.3L1284.78,730.62z"/>
<path class="st50" d="M473.93,1180.63l9.63,9.63h6.08l12.67,19.26l19.26,15.71v6.08h6.08l-3.04,9.63l-28.38-22.3l-22.3-22.3
	l-3.04-12.67L473.93,1180.63z"/>
<path class="st14" d="M1313.16,930.29l12.67,12.67l25.34,50.68v6.08l-12.67-3.04l-22.3-44.6l-6.08-19.26L1313.16,930.29z"/>
<path class="st41" d="M844.39,797h6.08l6.08,22.3l25.34,15.71v9.63l-15.71-3.04l-22.3-12.67l-3.04-6.08v-22.3L844.39,797z"/>
<path class="st14" d="M1407.92,749.87v9.63l12.67,6.08l-3.04,12.67v-6.08l-15.71,9.63l-12.67,9.63l-15.71-3.04l19.26-22.3
	L1407.92,749.87z"/>
<path class="st54" d="M619.38,787.37l12.67,3.04l9.63,22.3l6.08,28.38l-12.67,3.04l-12.67-44.6L619.38,787.37z"/>
<path class="st54" d="M730.36,1189.76l12.67,3.04l-15.71,15.71l-25.34,15.71h-15.71l3.04-9.63L730.36,1189.76z"/>
<path class="st55" d="M1173.79,1177.09h6.08l3.04,12.67l-31.42,19.26l-9.63,3.04l-6.08-6.08l25.34-25.34L1173.79,1177.09z"/>
<path class="st56" d="M1351.17,1101.07h6.08v19.26l-12.67,15.71l-22.3,9.63l-15.71-3.04l3.04-6.08l25.34-9.63l9.63-9.63
	L1351.17,1101.07z"/>
<path class="st57" d="M594.04,968.29l3.04,6.08l-38.01,63.35l-15.71,28.38l-3.04-6.08l25.34-50.68l22.3-34.97L594.04,968.29z"/>
<path class="st58" d="M714.15,1256.65l15.71,6.08l38.01,28.38l-22.3,3.04l-9.63-9.63l-15.71-12.67l6.08-3.04l-12.67-6.08v-6.08
	H714.15z"/>
<path class="st59" d="M1357.25,1066.1h38.01l6.08,12.67l-6.08,3.04l-38.01-3.04V1066.1z"/>
<path class="st60" d="M612.79,1192.8l15.71,3.04l3.04,6.08h-22.3l6.08,9.63l-19.26,12.67h-9.63l-3.04-12.67L612.79,1192.8z"/>
<path class="st61" d="M1217.88,980.96l22.3,12.67v6.08l9.63,3.04l15.71,22.3l3.04,9.63l-12.67-6.08l-28.38-28.38l-9.63-12.67V980.96
	z"/>
<path class="st14" d="M1300.49,717.95l60.31,3.04v3.04l-53.72,3.04l-6.08,19.26l-6.08-6.08l-12.67,12.67l-6.08-3.04l12.67-15.71
	l-3.04-6.08L1300.49,717.95z"/>
<path class="st14" d="M1186.46,1075.73l12.67,3.04l-12.67,15.71l-25.34,12.67l-9.63-3.04l15.71-15.71L1186.46,1075.73z"/>
<path class="st62" d="M784.08,825.89l22.3,19.26l22.3,22.3l12.67,15.71v6.08l-12.67-6.08l-44.6-50.68L784.08,825.89L784.08,825.89z"
	/>
<path class="st59" d="M1506.24,1376.76l12.67,3.04l-9.63,3.04l6.08,6.08l-31.42,12.67l-12.67,3.04l3.04-12.67L1506.24,1376.76z"/>
<path class="st13" d="M869.73,1218.14l9.63,3.04l-15.71,15.71l-28.38,12.67h-6.08l6.08-12.67l19.26-9.63L869.73,1218.14z"/>
<path class="st14" d="M1224.47,1205.97l12.67,3.04l44.6,44.6l-3.04,6.08l-15.71-12.67l-9.63-9.63v-6.08l-9.63,3.04l-19.26-25.34
	V1205.97z"/>
<path class="st18" d="M1085.11,914.07l6.08,6.08l-15.71,3.04v9.63l-22.3,15.71l-12.67-3.04l12.67-15.71l19.26-12.67L1085.11,914.07z
	"/>
<path class="st14" d="M1445.93,806.63l9.63,9.63l31.42,63.35l-3.04,6.08l-6.08-15.71h-6.08l-3.04-15.71h-6.08l-6.08-15.71h-3.04
	L1445.93,806.63z"/>
<path class="st14" d="M708.07,1171.01l12.67,3.04v6.08l-34.97,15.71h-15.71l9.63-9.63L708.07,1171.01z"/>
<path class="st63" d="M885.44,1361.05h12.67v6.08l-47.64,12.67l-31.42,3.04l9.63-6.08L885.44,1361.05z"/>
<path class="st64" d="M872.77,629.26l15.71,3.04l9.63,6.08v6.08h6.08l6.08,19.26l-22.3-19.26l-6.08-6.08l-56.76-3.04v-3.04
	L872.77,629.26z"/>
<path class="st65" d="M980.71,993.63h9.63l12.67,25.34l6.08,6.08l-15.71,6.08l-6.08-12.67l-9.63-15.71L980.71,993.63z"/>
<path class="st59" d="M1369.92,955.62l19.26,15.71l12.67,22.3v9.63h-9.63l-22.3-38.01V955.62z"/>
<path class="st13" d="M790.16,920.66h6.08v19.26l-12.67,22.3l-15.71-3.04l12.67-3.04l-3.04-9.63l-6.08-6.08l12.67-3.04
	L790.16,920.66z"/>
<path class="st66" d="M809.42,980.96h19.26l47.64,22.3l-3.04,6.08l-22.3-6.08v-6.08l-22.3-3.04L809.42,984V980.96z"/>
<path class="st67" d="M888.48,682.98h19.26v9.63l-34.97,9.63h-9.63l3.04-9.63L888.48,682.98z"/>
<path class="st27" d="M1452.52,1183.67h15.71l9.63,3.04h28.38v3.04l-69.94,9.63l6.08-12.67L1452.52,1183.67z"/>
<path class="st68" d="M755.7,911.03h6.08l-3.04,22.3L743.03,946h-6.08l6.08-19.26L755.7,911.03z"/>
<path class="st15" d="M774.45,594.29h28.38l34.97,3.04v3.04l-66.39,6.08l-6.08,3.04v-12.67L774.45,594.29z"/>
<path class="st14" d="M1217.88,1250.06l12.67,3.04l19.26,28.38l-6.08,6.08l-15.71-15.71l-9.63-15.71v-6.08H1217.88z"/>
<path class="st52" d="M1179.88,1151.75h6.08l-6.08,12.67h-6.08v6.08h-6.08l-6.08,12.67l-15.71,15.71h-7.09v-9.63l25.34-22.3
	L1179.88,1151.75z"/>
<path class="st69" d="M565.66,1069.65l15.71,3.04l28.38,15.71v6.08l-19.26-3.04l-19.26-12.67L565.66,1069.65z"/>
<path class="st70" d="M1167.21,1015.42h9.63l-3.04,12.67l-19.26,15.71l-15.71-3.04l12.67-12.67L1167.21,1015.42z"/>
<path class="st20" d="M603.67,1012.38l12.67,3.04l28.38,15.71v6.08l-19.26-3.04l-22.3-15.71v-6.08H603.67z"/>
<path class="st71" d="M1360.79,1332.67l9.63,3.04l12.67,38.01v9.63l-9.63-3.04l-12.67-41.05V1332.67z"/>
<path class="st72" d="M746.07,730.62l6.08,3.04l-9.63,12.67v25.34l3.04,19.26l-9.63-6.08l-6.08-34.97L746.07,730.62z"/>
<path class="st69" d="M584.41,1040.76l12.67,3.04l28.38,12.67v9.63l-15.71-3.04l-25.34-15.71V1040.76z"/>
<path class="st73" d="M926.49,679.94h6.08l25.34,34.97l-3.04,6.08h-9.63l-19.26-34.97v-6.08H926.49z"/>
<path class="st27" d="M499.27,1386.39l34.97,12.67l9.63,12.67l-19.26-3.04l-25.34-12.67L499.27,1386.39L499.27,1386.39z"/>
<path class="st47" d="M1354.21,714.91l28.38,3.04l9.63,6.08v6.08l-31.42-3.04v-9.63L1354.21,714.91z"/>
<path class="st74" d="M746.07,1212.05h6.08l-3.04,12.67l-22.3,12.67l-12.67-3.04L746.07,1212.05z"/>
<path class="st75" d="M562.11,1303.78l6.08,3.04l-3.04,12.67l-19.26,6.08l-15.71-3.04v-6.08l28.38-9.63L562.11,1303.78z"/>
<path class="st76" d="M1107.41,917.62h6.08l9.63,25.34l3.04,12.67l-12.67-3.04l-6.08-9.63V917.62z"/>
<path class="st77" d="M635.09,1351.42l3.04,9.63l-9.63,9.63l-19.26,9.63l-12.67,3.04l6.08-12.67l25.34-12.67h6.08v-6.59H635.09z"/>
<path class="st78" d="M764.83,911.03h19.26l9.63,9.63l-9.63,6.08l-15.71-3.04l-6.08-6.08L764.83,911.03z"/>
<path class="st79" d="M942.2,790.92h15.71l6.08,12.67l-6.08,6.08h-12.67L942.2,790.92z"/>
<path class="st80" d="M597.08,1329.12l6.08,9.63l-28.38,19.26l-12.67-3.04l31.42-22.3L597.08,1329.12z"/>
<path class="st81" d="M885.44,1326.08l12.67,3.04l-22.3,9.63l-28.38,3.04l3.04-6.08L885.44,1326.08z"/>
<path class="st82" d="M1009.09,1082.32h6.08l-6.08,15.71l-9.63,25.34h-6.08l3.04-22.3L1009.09,1082.32z"/>
<path class="st83" d="M1214.84,1123.37h12.67v6.08l-25.34,15.71h-6.08l6.08-15.71L1214.84,1123.37z"/>
<path class="st84" d="M1170.25,895.32l12.67,12.67l15.71,41.05h-6.08l-22.3-47.64L1170.25,895.32L1170.25,895.32z"/>
<path class="st85" d="M685.77,993.63l3.04,9.63l-9.63,38.01l-9.63-3.04l9.63-31.42L685.77,993.63z"/>
<path class="st86" d="M584.41,1291.11l6.08,3.04l-3.04,9.63l-19.26,12.67h-6.08l6.08-12.67L584.41,1291.11z"/>
<path class="st87" d="M505.36,1212.05l15.71,12.67v6.08h6.08l-3.04,9.63l-22.3-15.71L505.36,1212.05z"/>
<path class="st88" d="M761.78,920.66l25.34,3.04v12.67l-22.3-3.04L761.78,920.66z"/>
<path class="st1" d="M1445.93,1303.78l15.71,9.63l6.08,15.71l-15.71-6.08l-6.08-9.63V1303.78z"/>
<path class="st89" d="M565.66,1231.31l9.63,3.04l-15.71,15.71h-15.71l15.71-15.71L565.66,1231.31z"/>
<path class="st8" d="M587.45,1209.01h15.71v12.67l-15.71,3.04l-3.04-12.67L587.45,1209.01z"/>
<path class="st8" d="M1290.86,1101.07l9.63,3.04l3.04,28.38l-9.63-6.08L1290.86,1101.07z"/>
<path class="st15" d="M885.44,1018.97l6.08,3.04l3.04,25.34h-6.08l-3.04,12.67V1018.97z"/>
<path class="st90" d="M860.1,610l9.63,12.67l12.67,6.08h-38.01v-6.08h6.08l3.04-9.63L860.1,610z"/>
</svg>
