<?xml version="1.0" encoding="utf-8"?>
<!-- Generator: Adobe Illustrator 28.2.0, SVG Export Plug-In . SVG Version: 6.00 Build 0)  -->
<svg version="1.1" id="Layer_1" xmlns="http://www.w3.org/2000/svg" xmlns:xlink="http://www.w3.org/1999/xlink" x="0px" y="0px"
	 viewBox="0 0 2000 2000" style="enable-background:new 0 0 2000 2000;" xml:space="preserve">
<style type="text/css">
	.st0{fill:#7793FB;}
	.st1{fill:#7894FC;}
	.st2{fill:#043737;}
	.st3{fill:#F6F8FD;}
	.st4{fill:#053839;}
	.st5{fill:#F3F6FC;}
	.st6{fill:#0B3D43;}
	.st7{fill:#F0F3FD;}
	.st8{fill:#ECF0F9;}
	.st9{fill:#053838;}
	.st10{fill:#E6EBFD;}
	.st11{fill:#F2F5FD;}
	.st12{fill:#E2E9FD;}
	.st13{fill:#E4EAFD;}
	.st14{fill:#043636;}
	.st15{fill:#DEE5FB;}
	.st16{fill:#ECF0FD;}
	.st17{fill:#D6DFFD;}
	.st18{fill:#DDE4FD;}
	.st19{fill:#DBE3FD;}
	.st20{fill:#042F2F;}
	.st21{fill:#D9E1FD;}
	.st22{fill:#DAE2FD;}
	.st23{fill:#ABBDFC;}
	.st24{fill:#FDFEFE;}
	.st25{fill:#032C2C;}
</style>
<path class="st0" d="M930.45,586.23h580.21l13.34,13.34v20.01l16.67,3.33l16.67,10l10,16.67V959.7l-10,16.67l-13.34,6.67h-543.53
	l13.34,16.67l-3.33,16.67l-10,3.33l3.33,20.01l-20.01,16.67l-3.33,6.67l-23.34,10l-23.34,3.33l-20.01,3.33l3.33,23.34l-13.34,16.67
	l-26.68,23.34l-36.68,26.68l-33.35,13.34h-43.35l-30.01-13.34l-36.68-20.01l-3.33,53.35l3.33,20.01l6.67,16.67l-13.34,6.67
	l3.33,23.34l-3.33,3.33h-16.67l3.33,20.01l-10,6.67l-20.01-3.33l-10-3.33l-13.34,13.34l-20.01,3.33l-13.34-10l-16.67,6.67
	l-16.67,3.33l-23.34,3.33l-26.68,6.67h-63.36l-46.68-10l-26.68-23.34l-13.34-20.01l-10-33.35v-70.03l13.34-90.03l13.34-53.35
	l20.01-26.68l20.01-13.34l23.34-6.67h30.01l13.34,13.34l20.01,30.01l26.68,26.68l33.35,26.68l20.01,10l-10-23.34l-20.01-30.01
	l-40.01-43.35l-10-16.67l-40.01-10l-36.68-20.01l-6.67-13.34l16.67-36.68l13.34-50.02l20.01-40.01l23.34-20.01l33.35-13.34
	l16.67-13.34l10-3.33h43.35l36.68,13.34l20.01,16.67l-10,3.33l-46.68-16.67h-43.35l-20.01,10l-23.34,6.67l-26.68,23.34l-16.67,33.35
	l-3.33,16.67h50.02l23.34-26.68l10-30.01l20.01,16.67v6.67h-13.34l-20.01,36.68l10-3.33l10-20.01l13.34-10h23.34l13.34,13.34v16.67
	l-16.67-16.67l-23.34,3.33l-3.33,6.67v20.01l13.34,13.34l23.34-3.33l-3.33,10l-6.67,3.33h-23.34l-20.01-20.01h-23.34l-10,3.33
	l-13.34-6.67h-26.68l-3.33,13.34l3.33,10l33.35,10l-6.67,13.34l-26.68-10l-16.67-10l-16.67,36.68l26.68,3.33l10-23.34l3.33,13.34
	l3.33,20.01l30.01,6.67l-3.33-26.68l13.34,6.67l6.67,10l6.67,20.01l23.34,10l16.67,3.33h40.01l26.68-36.68l13.34-33.35l-16.67,6.67
	H607l-16.67-10l13.34-3.33h26.68l16.67-6.67l3.33-6.67l-30.01-3.33l-10-6.67v-6.67L597,859.66l10-6.67l10-23.34l-40.01-23.34
	l-16.67-16.67v-6.67l13.34,6.67l10,10l43.35,13.34h46.68l-13.34,13.34l-33.35,13.34l-3.33,6.67v23.34l10,3.33l-3.33-13.34h6.67
	l6.67,13.34l10-3.33l3.33-30.01l6.67,3.33l-3.33,73.36l-10,30.01l20.01-10h6.67l-6.67-33.35l13.34,13.34l6.67,20.01l-16.67,16.67
	l-23.34,10l-16.67,3.33l3.33,13.34l-10,30.01l-13.34,20.01l-10,36.68v13.34l40.01-36.68l10-13.34l3.33-26.68l3.33-10l6.67,13.34
	l-3.33,30.01l-13.34,20.01l-30.01,30.01l-16.67,10H597v6.67l33.35-3.33h33.35l10,6.67l10,23.34v-36.68l-6.67-40.01l6.67,6.67
	l13.34,36.68l6.67,36.68l40.01,23.34l33.35,10l36.68-3.33l36.68-20.01l43.35-40.01h6.67l-3.33-23.34l-23.34-40.01l-20.01-20.01
	l-13.34,6.67l-43.35,33.35v13.34l-23.34,3.33l-6.67-20.01l-60.02-60.02l-16.67-10l-30.01-3.33h-6.67v-6.67l6.67-3.33h36.68
	l26.68,16.67l60.02,60.02l13.34-6.67l36.68-30.01l13.34-6.67h16.67l23.34-30.01l26.68-16.67l23.34-6.67h16.67v-6.67l-33.35-6.67
	l-6.67-6.67V599.57L930.45,586.23z"/>
<path class="st1" d="M1187.21,622.91h353.46l16.67,10l10,16.67V959.7l-10,16.67l-13.34,6.67h-543.53l13.34,16.67l-3.33,16.67
	l-10,3.33l3.33,20.01l-20.01,16.67l-3.33,6.67l-23.34,10l-23.34,3.33l-20.01,3.33l3.33,23.34l-13.34,16.67l-26.68,23.34
	l-36.68,26.68l-33.35,13.34h-43.35l-30.01-13.34l-36.68-20.01l-3.33,53.35l3.33,20.01l6.67,16.67l-13.34,6.67l3.33,23.34l-3.33,3.33
	h-16.67l3.33,20.01l-10,6.67l-20.01-3.33l-10-3.33l-13.34,13.34l-20.01,3.33l-13.34-10l-16.67,6.67l-16.67,3.33l-23.34,3.33
	l-26.68,6.67h-63.36l-46.68-10l-26.68-23.34l-13.34-20.01l-10-33.35v-70.03l13.34-90.03l13.34-53.35l20.01-26.68l20.01-13.34
	l23.34-6.67h30.01l13.34,13.34l20.01,30.01l26.68,26.68l33.35,26.68l20.01,10l-10-23.34l-20.01-30.01l-40.01-43.35l-10-16.67
	l-40.01-10l-36.68-20.01l-6.67-13.34l16.67-36.68l13.34-50.02l20.01-40.01l23.34-20.01l33.35-13.34l16.67-13.34l10-3.33h43.35
	l36.68,13.34l20.01,16.67l-10,3.33l-46.68-16.67h-43.35l-20.01,10l-23.34,6.67l-26.68,23.34l-16.67,33.35l-3.33,16.67h50.02
	l23.34-26.68l10-30.01l20.01,16.67v6.67h-13.34l-20.01,36.68l10-3.33l10-20.01l13.34-10h23.34l13.34,13.34v16.67l-16.67-16.67
	l-23.34,3.33l-3.33,6.67v20.01l13.34,13.34l23.34-3.33l-3.33,10l-6.67,3.33h-23.34l-20.01-20.01h-23.34l-10,3.33l-13.34-6.67h-26.68
	l-3.33,13.34l3.33,10l33.35,10l-6.67,13.34l-26.68-10l-16.67-10l-16.67,36.68l26.68,3.33l10-23.34l3.33,13.34l3.33,20.01l30.01,6.67
	l-3.33-26.68l13.34,6.67l6.67,10l6.67,20.01l23.34,10l16.67,3.33h40.01l26.68-36.68l13.34-33.35l-16.67,6.67H607l-16.67-10
	l13.34-3.33h26.68l16.67-6.67l3.33-6.67l-30.01-3.33l-10-6.67v-6.67L597,859.66l10-6.67l10-23.34l-40.01-23.34l-16.67-16.67v-6.67
	l13.34,6.67l10,10l43.35,13.34h46.68l-13.34,13.34l-33.35,13.34l-3.33,6.67v23.34l10,3.33l-3.33-13.34h6.67l6.67,13.34l10-3.33
	l3.33-30.01l6.67,3.33l-3.33,73.36l-10,30.01l20.01-10h6.67l-6.67-33.35l13.34,13.34l6.67,20.01l-16.67,16.67l-23.34,10l-16.67,3.33
	l3.33,13.34l-10,30.01l-13.34,20.01l-10,36.68v13.34l40.01-36.68l10-13.34l3.33-26.68l3.33-10l6.67,13.34l-3.33,30.01l-13.34,20.01
	l-30.01,30.01l-16.67,10H597v6.67l33.35-3.33h33.35l10,6.67l10,23.34v-36.68l-6.67-40.01l6.67,6.67l13.34,36.68l6.67,36.68
	l40.01,23.34l33.35,10l36.68-3.33l36.68-20.01l43.35-40.01h6.67l-3.33-23.34l-23.34-40.01l-20.01-20.01l-13.34,6.67l-43.35,33.35
	v13.34l-23.34,3.33l-6.67-20.01l-60.02-60.02l-16.67-10l-30.01-3.33h-6.67v-6.67l6.67-3.33h36.68l26.68,16.67l60.02,60.02
	l13.34-6.67l36.68-30.01l13.34-6.67h16.67l23.34-30.01l26.68-16.67l23.34-6.67h16.67l-3.33-6.67v-86.7l3.33-110.04l3.33-50.02
	l6.67,6.67l6.67,86.7v153.39h6.67l6.67-16.67l43.35-50.02l23.34-30.01l6.67-3.33l-3.33,16.67l-26.68,46.68l-33.35,46.68l-3.33,3.33
	l316.78,3.33h210.08l23.34-3.33l3.33-3.33V646.25l-16.67-3.33h-303.44l-120.04-6.67l-33.35-3.33v-3.33l30.01-3.33L1187.21,622.91z"
	/>
<path class="st2" d="M1187.21,622.91h353.46l16.67,10l10,16.67V959.7l-10,16.67l-13.34,6.67h-543.53l13.34,16.67l-3.33,16.67
	l-10,3.33l3.33,20.01l-20.01,16.67l-3.33,6.67l-23.34,10l-23.34,3.33l-20.01,3.33l3.33,23.34l-13.34,16.67l-26.68,23.34
	l-36.68,26.68l-33.35,13.34h-43.35l-30.01-13.34l-36.68-20.01v20.01l-6.67,6.67l-6.67-33.35v-50.02l-6.67-40.01l6.67,6.67
	l13.34,36.68l6.67,36.68l40.01,23.34l33.35,10l36.68-3.33l36.68-20.01l43.35-40.01h6.67l-3.33-23.34l-23.34-40.01l-20.01-20.01
	l-13.34,6.67l-43.35,33.35v13.34l-23.34,3.33l-6.67-20.01l-60.02-60.02l-16.67-10l-30.01-3.33h-6.67v-6.67l6.67-3.33h36.68
	l26.68,16.67l60.02,60.02l13.34-6.67l36.68-30.01l13.34-6.67h16.67l23.34-30.01l26.68-16.67l23.34-6.67h16.67l-3.33-6.67v-86.7
	l3.33-110.04l3.33-50.02l6.67,6.67l6.67,86.7v153.39h6.67l6.67-16.67l43.35-50.02l23.34-30.01l6.67-3.33l-3.33,16.67l-26.68,46.68
	l-33.35,46.68l-3.33,3.33l316.78,3.33h210.08l23.34-3.33l3.33-3.33V646.25l-16.67-3.33h-303.44l-120.04-6.67l-33.35-3.33v-3.33
	l30.01-3.33L1187.21,622.91z"/>
<path class="st3" d="M456.94,979.71l13.34,3.33l13.34,26.68l36.68,40.01l40.01,33.35l23.34,13.34v6.67l-63.36,3.33l-10-20.01h-30.01
	l-43.35,13.34l-6.67,3.33l6.67,36.68l13.34,50.02v13.34l-16.67,3.33l3.33,16.67l23.34-6.67l70.03-6.67h26.68l13.34,33.35l3.33,16.67
	v30.01l-10,10l-30.01,3.33l-26.68,6.67h-53.35l-40.01-6.67l-23.34-13.34l-20.01-26.68l-10-36.68v-36.68l10-93.37l13.34-63.36
	l13.34-23.34l23.34-20.01l16.67-6.67L456.94,979.71z"/>
<path class="st4" d="M550.31,746.29h43.35l36.68,13.34l20.01,16.67l-10,3.33l-46.68-16.67h-43.35l-20.01,10l-23.34,6.67
	l-26.68,23.34l-16.67,33.35l-3.33,16.67h50.02l23.34-26.68l10-30.01l20.01,16.67v6.67h-13.34l-20.01,36.68l10-3.33l10-20.01
	l13.34-10h23.34l13.34,13.34v16.67l-16.67-16.67l-23.34,3.33l-3.33,6.67v20.01l13.34,13.34l23.34-3.33l-3.33,10l-6.67,3.33h-23.34
	l-20.01-20.01h-23.34l-10,3.33l-13.34-6.67h-26.68l-3.33,13.34l3.33,10l33.35,10l-6.67,13.34l-26.68-10l-16.67-10l-16.67,36.68
	l26.68,3.33l10-23.34l3.33,13.34l3.33,20.01l30.01,6.67l-3.33-26.68l13.34,6.67l6.67,10l6.67,20.01l23.34,10l16.67,3.33h40.01
	l26.68-36.68l13.34-33.35l-16.67,6.67H607l-16.67-10l13.34-3.33h26.68l16.67-6.67l3.33-6.67l-30.01-3.33l-10-6.67v-6.67L597,859.66
	l10-6.67l10-23.34l-40.01-23.34l-16.67-16.67v-6.67l13.34,6.67l10,10l43.35,13.34h46.68l-13.34,13.34l-33.35,13.34l-3.33,6.67v23.34
	l10,3.33l-3.33-13.34h6.67l6.67,13.34l10-3.33l3.33-30.01l6.67,3.33l-3.33,73.36l-10,30.01l20.01-10h6.67l-6.67-33.35l13.34,13.34
	l6.67,20.01l-16.67,16.67l-23.34,10l-16.67,3.33l3.33,13.34l-10,30.01l-13.34,20.01l-10,36.68v13.34l40.01-36.68l10-13.34
	l3.33-26.68l3.33-10l6.67,13.34l-3.33,30.01l-13.34,20.01l-30.01,30.01L597,1099.75l-20.01-3.33l-33.35-23.34l-40.01-36.68
	l-23.34-26.68l-13.34-26.68l-40.01,6.67l-26.68,20.01l-13.34,23.34l-13.34,63.36l-10,93.37v36.68l10,36.68l20.01,26.68l20.01,10
	l40.01,6.67h53.35l36.68-10h10l-3.33,10l-43.35,13.34h-63.36l-46.68-10l-26.68-23.34l-13.34-20.01l-10-33.35v-70.03l13.34-90.03
	l13.34-53.35l20.01-26.68l20.01-13.34l23.34-6.67h30.01l13.34,13.34l20.01,30.01l26.68,26.68l33.35,26.68l20.01,10l-10-23.34
	l-20.01-30.01l-40.01-43.35l-10-16.67l-40.01-10l-36.68-20.01l-6.67-13.34l16.67-36.68l13.34-50.02l20.01-40.01l23.34-20.01
	l33.35-13.34l16.67-13.34L550.31,746.29z"/>
<path class="st5" d="M650.35,976.37l3.33,6.67l23.34-3.33l23.34,10l26.68,23.34l46.68,46.68v16.67l23.34-3.33l-3.33-13.34
	l53.35-43.35l13.34,6.67l23.34,26.68l20.01,36.68l-3.33,16.67l-36.68,30.01l-23.34,20.01l-26.68,13.34l-36.68,3.33l-33.35-10
	l-40.01-23.34l-3.33-3.33l-10-50.02l-10-20.01l6.67,30.01v36.68l-6.67,6.67l-10-30.01l-6.67-3.33H597v-6.67l30.01-20.01l26.68-26.68
	l10-23.34l-3.33-30.01l-6.67,3.33L650.35,976.37z"/>
<path class="st6" d="M1370.61,1043.06h30.01l16.67,6.67h36.68l33.35,16.67l23.34,20.01H1534l30.01-33.35l26.68-10l30.01,3.33
	l16.67,13.34l13.34,26.68l3.33,16.67v30.01l-10,16.67l-16.67,13.34l-33.35,6.67l-3.33-10l33.35-13.34l10-13.34v-36.68l-10-30.01
	l-10-3.33h-33.35l-20.01,13.34h-6.67l-6.67,13.34l-6.67,20.01l3.33,33.35l13.34,26.68l26.68,10l40.01,3.33l-6.67,6.67h-40.01
	l-26.68-3.33l-13.34,13.34l-20.01,33.35l-33.35,26.68l16.67,16.67l3.33,20.01l-13.34,10l-53.35,20.01l-70.03,36.68l-40.01,26.68
	l-23.34,20.01h-6.67l6.67-16.67l16.67-23.34l-3.33-33.35l10-13.34l-23.34-36.68l-16.67-40.01l-6.67-36.68v-13.34l-30.01-6.67
	l-13.34-16.67v-26.68l13.34-20.01l13.34-6.67h30.01l33.35,10l3.33,6.67h-53.35l-16.67,6.67l-6.67,10l3.33,20.01l13.34,6.67
	l23.34,3.33l13.34,66.69l23.34,53.35l10,13.34l20.01-6.67l63.36-30.01l30.01-10h13.34v-10l-13.34-6.67l-3.33-10l23.34,3.33
	l33.35-30.01l13.34-16.67l-3.33-13.34l-13.34-26.68l-3.33-10l-3.33-40.01l-10-20.01l-3.33-10l-16.67-6.67l-23.34-10h-33.35
	l-13.34-6.67h-30.01l-36.68,10l13.34-13.34L1370.61,1043.06z"/>
<path class="st2" d="M1027.15,1153.1l23.34,6.67l13.34,23.34l-3.33,30.01l66.69,36.68l26.68,6.67l16.67,16.67l3.33,6.67v26.68
	l-16.67,20.01l-16.67,6.67h-36.68l-3.33-13.34l3.33-3.33l33.35-3.33l13.34-6.67l3.33-20.01l-13.34-13.34h-40.01l-16.67,3.33
	l6.67-13.34l16.67-10l-60.02-20.01l-6.67,13.34l-16.67,16.67l-26.68,3.33l-16.67-13.34l-6.67-16.67l3.33-23.34l-83.36,3.33
	l-20.01,6.67l13.34,13.34l46.68,20.01l26.68,10v90.03l10,76.69l30.01-6.67l76.69-20.01l70.03-10h23.34l10,10l3.33,10v33.35
	l-13.34,3.33l-6.67-6.67v-26.68l-86.7,13.34l-93.37,23.34l-26.68,10l-6.67,20.01l-6.67-6.67v-23.34l6.67-10l-3.33-30.01l-10-53.35
	l-3.33-30.01v-33.35l3.33-20.01l-30.01-6.67l-40.01-20.01l-16.67-20.01l3.33-23.34l16.67-13.34l10-3.33h70.03l40.01,10l3.33,40.01
	l20.01,3.33l16.67-16.67l10-26.68l3.33-23.34l-10-6.67h-23.34l6.67-13.34L1027.15,1153.1z"/>
<path class="st7" d="M1527.33,639.58l20.01,6.67v310.11l-6.67,6.67l-23.34,3.33h-210.08l-320.12-3.33l13.34-20.01l513.52-3.33
	l6.67-3.33l3.33-290.11L1527.33,639.58z"/>
<path class="st8" d="M566.98,832.99l23.34,3.33l13.34,13.34V863l16.67,13.34l30.01,6.67l-3.33,10l-16.67,6.67h-36.68l13.34,6.67
	h26.68l16.67-3.33l-3.33,16.67l-16.67,33.35l-20.01,23.34h-40.01l-36.68-10l-10-10l-6.67-20.01l-13.34-13.34l6.67,20.01l-3.33,6.67
	l-30.01-3.33l-6.67-10v-23.34l-10,23.34l-20.01-3.33l-6.67-3.33l3.33-13.34l13.34-26.68l20.01,13.34l23.34,6.67l3.33-6.67
	l-30.01-13.34L460.28,873l6.67-10h26.68l16.67,6.67l6.67-3.33h23.34l13.34,16.67l6.67,3.33h23.34l10-10l-13.34,6.67l-16.67-3.33
	l-10-13.34v-20.01L566.98,832.99z"/>
<path class="st9" d="M623.67,1166.44l26.68,3.33l6.67,6.67v20.01l23.34,10l16.67,16.67l6.67,16.67l-13.34,6.67l3.33,23.34
	l-3.33,3.33h-16.67l3.33,20.01l-10,6.67l-20.01-3.33l-10-3.33l-13.34,13.34l-20.01,3.33l-13.34-10l-16.67,6.67l-16.67,3.33
	l-6.67-6.67l6.67-6.67h13.34v-36.68l-13.34-46.68l-60.02,3.33l-36.68,3.33l-23.34,3.33l-3.33-16.67l16.67-3.33l-6.67-33.35h6.67
	l3.33,6.67v23.34l46.68-3.33h70.03l33.35-23.34L623.67,1166.44z"/>
<path class="st1" d="M1370.61,1043.06h30.01l16.67,6.67h36.68l33.35,16.67l23.34,20.01H1534l30.01-33.35l26.68-10l30.01,3.33
	l16.67,13.34l13.34,26.68l3.33,16.67v30.01l-10,16.67l-16.67,13.34l-33.35,6.67l-3.33-10l33.35-13.34l10-13.34v-36.68l-10-30.01
	l-10-3.33h-33.35l-20.01,13.34h-6.67l-6.67,13.34l-6.67,20.01l3.33,33.35l13.34,26.68l26.68,10l40.01,3.33l-6.67,6.67h-40.01
	l-26.68-3.33l-13.34,10H1524l-16.67-26.68l-6.67-20.01l-3.33-40.01l-10-20.01l-3.33-10l-16.67-6.67l-23.34-10h-33.35l-13.34-6.67
	h-30.01l-36.68,10l13.34-13.34L1370.61,1043.06z"/>
<path class="st1" d="M677.03,512.87h46.68l143.39,16.67l10,6.67l-30.01,33.35l-10,10l30.01,36.68l10,20.01l-3.33,10l-23.34-33.35
	l-26.68-26.68l-6.67-3.33l3.33-13.34l30.01-23.34v-3.33l-153.39-16.67l-10-3.33l-10,70.03l-13.34,63.36l33.35-13.34l16.67,3.33
	l33.35,40.01l30.01,56.69l13.34,53.35v36.68l-10,46.68l-16.67,33.35l-30.01,33.35l-13.34,3.33l20.01-23.34l23.34-36.68l10-30.01
	l3.33-16.67v-43.35l-10-40.01l-26.68-53.35l-26.68-36.68l-3.33-10l-20.01,3.33l-43.35,16.67h-6.67l3.33-20.01l13.34-43.35
	l16.67-93.37L677.03,512.87z"/>
<path class="st9" d="M1013.81,1063.07l36.68,3.33l40.01,16.67l23.34,13.34l40.01,10l20.01,13.34l16.67,20.01l3.33,10v33.35
	l26.68,20.01l20.01,30.01l3.33,10v50.02l-13.34,26.68l-26.68,23.34l-16.67,6.67h-16.67l16.67-16.67l23.34-20.01l13.34-23.34
	l3.33-13.34v-26.68l-13.34-26.68l-16.67-16.67l-26.68-16.67l3.33-13.34v-30.01l-16.67-20.01l-40.01-16.67l-3.33,10l-13.34,3.33
	l-13.34-6.67l3.33-20.01l-40.01-16.67l-33.35-3.33l-16.67,16.67l6.67,16.67l16.67,13.34l33.35,13.34l43.35,6.67l-3.33,16.67
	l-3.33,10v30.01l13.34,26.68l-3.33,6.67l-16.67-20.01l-6.67-16.67l-3.33-40.01l-53.35-13.34l-26.68-16.67l-13.34-16.67v-23.34
	l16.67-20.01L1013.81,1063.07z"/>
<path class="st9" d="M1470.65,686.27h23.34l6.67,3.33v226.75l-13.34,6.67h-50.02l-6.67-6.67V766.3l6.67-36.68l6.67-13.34l3.33,10
	l3.33,70.03v103.37h30.01v-193.4l-36.68-3.33l3.33-10L1470.65,686.27z"/>
<path class="st2" d="M1250.57,666.26l53.35,6.67l20.01,10l-3.33,16.67l-20.01,43.35h-16.67l3.33-30.01l-70.03,33.35l-40.01,23.34
	l-16.67,3.33v-13.34l13.34-10l3.33-10h-20.01l-66.69,30.01l-43.35,20.01h-10v-6.67l93.37-53.35l20.01-10h30.01l10,10v6.67
	l40.01-20.01l43.35-23.34l3.33-6.67l-20.01-3.33l-10-6.67L1250.57,666.26z"/>
<path class="st2" d="M1377.28,746.29h33.35v173.4l-6.67,3.33h-56.69l-6.67-10V806.31l10-46.68l6.67,10l6.67,126.71l30.01,3.33
	l-3.33-136.72l-30.01-3.33l-3.33-6.67L1377.28,746.29z"/>
<path class="st10" d="M627.01,1179.78h13.34l-3.33,13.34l-20.01,10v3.33l46.68,6.67l20.01,13.34l3.33,6.67l-26.68-3.33l-10-3.33
	l16.67,16.67l13.34,16.67l-16.67-3.33l-10-6.67h-10l6.67,13.34l13.34,13.34v10l-20.01-6.67l-16.67-10l-3.33,20.01l-6.67,6.67h-10
	l3.33-23.34l-10,3.33l-3.33,6.67l-13.34-3.33l-6.67-46.68l-6.67-26.68l43.35-23.34L627.01,1179.78z"/>
<path class="st9" d="M1283.91,829.65h36.68l3.33,3.33v80.03l-3.33,6.67l-10,3.33h-50.02l-10-10v-53.35l10-20.01L1283.91,829.65z"/>
<path class="st11" d="M1447.31,702.94h23.34l10,3.33v193.4h-30.01l-3.33-103.37V702.94z"/>
<path class="st1" d="M730.38,1283.15l10,3.33l-23.34,23.34l-13.34,26.68v20.01l6.67,20.01l16.67,6.67l6.67,3.33h33.35l20.01-40.01
	l16.67-16.67l16.67,3.33l6.67,6.67v20.01l-16.67,20.01l-23.34,16.67l3.33,13.34l20.01,10h33.35l20.01-10l10-13.34h6.67l6.67,30.01
	l3.33,13.34l-13.34-3.33l-3.33-10l-16.67,3.33l-16.67,6.67h-33.35l-20.01-10l-13.34-16.67v-10h-43.35l-23.34-13.34l-16.67-26.68
	v-23.34l13.34-26.68L730.38,1283.15z"/>
<path class="st12" d="M927.12,969.7h16.67l-6.67,13.34l-13.34,13.34l-3.33,26.68l13.34,6.67l10-3.33l6.67-13.34l20.01-26.68
	l23.34,6.67l10,6.67l-3.33,10l-30.01-6.67l20.01,23.34v6.67l-30.01-10l13.34,23.34l-6.67,3.33l-13.34-3.33l-6.67,16.67l-10-3.33
	l-6.67-6.67l-13.34,13.34l-13.34-6.67l-23.34-30.01l-10-10v-10l26.68-23.34l20.01-13.34L927.12,969.7z"/>
<path class="st2" d="M1197.21,809.65h33.35l3.33,3.33v100.04l-10,10h-50.02l-10-6.67l-3.33-10v-53.35l10-30.01l6.67,6.67l6.67,46.68
	v23.34l26.68-3.33v-63.36l-33.35-13.34l6.67-6.67L1197.21,809.65z"/>
<path class="st9" d="M1117.19,842.99h23.34l3.33,3.33v70.03l-16.67,6.67h-43.35l-10-6.67l-3.33-20.01l3.33-30.01l16.67-16.67
	L1117.19,842.99z"/>
<path class="st13" d="M1357.27,759.63l33.35,3.33l3.33,6.67v130.05h-30.01l-3.33-3.33l-3.33-83.36V759.63z"/>
<path class="st9" d="M1590.69,1043.06l30.01,3.33l16.67,13.34l13.34,26.68l3.33,16.67v30.01l-10,16.67l-16.67,13.34l-33.35,6.67
	l-3.33-10l33.35-13.34l10-13.34v-36.68l-10-30.01l-10-3.33h-33.35l-20.01,13.34h-6.67l-10,20.01h-6.67l3.33-20.01l23.34-23.34
	L1590.69,1043.06z"/>
<path class="st14" d="M560.32,782.97l13.34,6.67l10,10l43.35,13.34h46.68l-13.34,13.34l-33.35,13.34l-3.33,6.67v23.34l10,3.33
	l-3.33-13.34h6.67l6.67,13.34l10-3.33l3.33-30.01l6.67,3.33V873l-3.33,36.68h-10v-6.67l-16.67,6.67H607l-16.67-10l13.34-3.33h26.68
	l16.67-6.67l3.33-6.67l-30.01-3.33l-10-6.67v-6.67L597,859.66l10-6.67l10-23.34l-40.01-23.34l-16.67-16.67V782.97z"/>
<path class="st9" d="M1383.95,1079.74h20.01v46.68l10,20.01l10,10l36.68,3.33l16.67,20.01v23.34l-16.67,16.67l-23.34,10h-13.34v-10
	l33.35-16.67l3.33-3.33v-16.67l-13.34-10l-26.68,3.33l-16.67,10l-6.67-3.33l13.34-20.01l-16.67-20.01l-3.33-10v-36.68l3.33-6.67
	l-30.01,6.67h-33.35l3.33-6.67L1383.95,1079.74z"/>
<path class="st15" d="M566.98,832.99l23.34,3.33l13.34,13.34V863l16.67,13.34l30.01,6.67l-3.33,10l-16.67,6.67h-43.35l-3.33-13.34
	l10-10l-13.34,6.67l-16.67-3.33l-10-13.34v-20.01L566.98,832.99z"/>
<path class="st16" d="M450.28,889.67l20.01,13.34l23.34,6.67l3.33-6.67l-10-6.67l26.68,3.33l3.33,10l-3.33,16.67l-10-3.33
	l6.67,20.01l-3.33,6.67l-30.01-3.33l-6.67-10v-23.34l-10,23.34l-20.01-3.33l-6.67-3.33l3.33-13.34L450.28,889.67z"/>
<path class="st10" d="M1177.21,826.32h30.01l6.67,6.67v63.36l-3.33,3.33h-26.68l-6.67-50.02V826.32z"/>
<path class="st17" d="M1037.16,1146.43l40.01,6.67l3.33,3.33l3.33,40.01l13.34,26.68l13.34,6.67v10l-20.01-6.67l-30.01-16.67
	l-3.33-10l3.33-23.34l-10-20.01l-16.67-6.67L1037.16,1146.43z"/>
<path class="st9" d="M1370.61,1043.06h30.01l16.67,6.67h36.68l33.35,16.67l16.67,16.67l-3.33,13.34l-13.34-6.67l-3.33-10
	l-16.67-6.67l-23.34-10h-33.35l-13.34-6.67h-30.01l-36.68,10l13.34-13.34L1370.61,1043.06z"/>
<path class="st18" d="M1267.24,842.99l33.35,3.33l3.33,13.34v36.68l-3.33,3.33h-26.68l-3.33-3.33L1267.24,842.99z"/>
<path class="st2" d="M550.31,746.29h43.35l36.68,13.34l20.01,16.67l-10,3.33l-46.68-16.67h-43.35l-20.01,10h-13.34l16.67-20.01
	L550.31,746.29z"/>
<path class="st9" d="M500.29,1133.1h16.67l26.68,23.34v6.67l-20.01,6.67l-36.68,3.33l3.33-23.34L500.29,1133.1z"/>
<path class="st19" d="M1087.17,856.33l33.35,6.67l3.33,3.33v30.01l-3.33,3.33h-26.68l-3.33-3.33L1087.17,856.33z"/>
<path class="st20" d="M657.02,839.66l6.67,3.33V873l-3.33,36.68h-10v-6.67l-16.67,6.67H607l-16.67-10l13.34-3.33h26.68l16.67-6.67
	l6.67-20.01L657.02,839.66z"/>
<path class="st21" d="M450.28,889.67l20.01,13.34l13.34,6.67l-13.34,3.33l-10,23.34l-20.01-3.33l-6.67-3.33l3.33-13.34
	L450.28,889.67z"/>
<path class="st22" d="M663.69,909.68l10,3.33l3.33,23.34l-16.67,10h-10l6.67-30.01L663.69,909.68z"/>
<path class="st23" d="M550.31,816.31l30.01,3.33v3.33l-23.34,6.67l-10,13.34l-10,16.67l-10-3.33L550.31,816.31z"/>
<path class="st24" d="M807.07,1343.17h10l-3.33,16.67l-20.01,16.67l-10-3.33l13.34-20.01L807.07,1343.17z"/>
<path class="st9" d="M637.01,893.01l10,3.33h-6.67v10l-6.67,3.33H607l-16.67-10l13.34-3.33h26.68L637.01,893.01z"/>
<path class="st1" d="M486.96,896.34l26.68,3.33l3.33,10l-3.33,16.67h-13.34l-10-13.34l6.67-10L486.96,896.34z"/>
<path class="st9" d="M1557.35,1176.45l66.69,6.67l-6.67,6.67h-40.01l-20.01-6.67V1176.45z"/>
<path class="st9" d="M993.81,1299.82l13.34,3.33l-10,16.67l-20.01,6.67l-6.67-3.33l3.33-13.34h13.34L993.81,1299.82z"/>
<path class="st1" d="M720.37,722.95h6.67v10l-33.35,23.34l-10-3.33l30.01-26.68L720.37,722.95z"/>
<path class="st1" d="M670.36,689.6h10l-6.67,13.34l-16.67,20.01l-10,3.33l6.67-20.01L670.36,689.6z"/>
<path class="st25" d="M1343.93,1206.46h10v10h-6.67v6.67l-10,6.67l-20.01-3.33l3.33-13.34l3.33,10l13.34-6.67L1343.93,1206.46z"/>
<path class="st9" d="M1123.85,1186.45l6.67,13.34l13.34,20.01l10,10v6.67l-13.34-6.67l-13.34-16.67l-3.33-6.67V1186.45z"/>
<path class="st1" d="M737.05,779.63h10l-3.33,10l-23.34,10h-10v-6.67L737.05,779.63z"/>
<path class="st9" d="M1420.63,1106.42l10,10l16.67,20.01l10,10l-16.67-3.33l-16.67-20.01L1420.63,1106.42z"/>
</svg>
