<?xml version="1.0" encoding="utf-8"?>
<!-- Generator: Adobe Illustrator 28.2.0, SVG Export Plug-In . SVG Version: 6.00 Build 0)  -->
<svg version="1.1" id="Layer_1" xmlns="http://www.w3.org/2000/svg" xmlns:xlink="http://www.w3.org/1999/xlink" x="0px" y="0px"
	 viewBox="0 0 2000 2000" style="enable-background:new 0 0 2000 2000;" xml:space="preserve">
<style type="text/css">
	.st0{fill:#6C8DFC;}
	.st1{fill:#6E8EFC;}
	.st2{fill:#032E33;}
	.st3{fill:#032E34;}
	.st4{fill:#6D8EFC;}
	.st5{fill:#052F39;}
	.st6{fill:#ECE8EC;}
	.st7{fill:#6489FA;}
	.st8{fill:#F2ECEB;}
	.st9{fill:#6A8CFB;}
	.st10{fill:#6B8DFC;}
	.st11{fill:#4C7CF5;}
	.st12{fill:#4F7DF6;}
	.st13{fill:#06191A;}
	.st14{fill:#E7E4EC;}
	.st15{fill:#081C23;}
	.st16{fill:#061A1B;}
	.st17{fill:#DEDDE8;}
	.st18{fill:#5983F8;}
	.st19{fill:#051A1B;}
	.st20{fill:#3C73F1;}
	.st21{fill:#F0EAEC;}
	.st22{fill:#071B1F;}
	.st23{fill:#D7D9ED;}
	.st24{fill:#081E25;}
	.st25{fill:#6087F9;}
	.st26{fill:#4879F4;}
	.st27{fill:#6F8FFD;}
	.st28{fill:#5E85F9;}
	.st29{fill:#527FF6;}
	.st30{fill:#051B1B;}
	.st31{fill:#05191A;}
	.st32{fill:#5A83F8;}
	.st33{fill:#083242;}
	.st34{fill:#5580F7;}
	.st35{fill:#4779F4;}
	.st36{fill:#5F86F9;}
	.st37{fill:#061F23;}
	.st38{fill:#4D7CF5;}
	.st39{fill:#688BFB;}
	.st40{fill:#061919;}
	.st41{fill:#0A2F3F;}
	.st42{fill:#C0CAEF;}
	.st43{fill:#061D20;}
	.st44{fill:#4C7BF5;}
	.st45{fill:#668AFB;}
	.st46{fill:#051D1E;}
	.st47{fill:#5782F7;}
	.st48{fill:#6D8DFC;}
	.st49{fill:#4F7DF5;}
	.st50{fill:#537FF6;}
	.st51{fill:#0E3950;}
	.st52{fill:#061819;}
	.st53{fill:#678AFB;}
	.st54{fill:#5480F6;}
	.st55{fill:#05313C;}
	.st56{fill:#042528;}
	.st57{fill:#051C1E;}
	.st58{fill:#061F24;}
	.st59{fill:#061818;}
	.st60{fill:#295697;}
	.st61{fill:#051B1D;}
	.st62{fill:#1B4979;}
	.st63{fill:#051E1F;}
	.st64{fill:#497AF4;}
	.st65{fill:#4B7BF5;}
</style>
<path class="st0" d="M613,710.43h45.42l45.42,9.18l27.06,18.36l24.16,24.16l12.08,21.26l-2.9,5.8l-9.18-9.18v-5.8l-12.08-5.8
	l-29.96-18.36l-33.34-12.08l-18.36-2.9H607.2l-48.32,9.18l-42.52,18.36l-9.18,12.08l48.32-14.98l21.26-2.9h48.32l36.24,5.8
	l29.96,12.08l9.18,9.18v5.8h5.8l2.9-9.18l9.18,2.9l9.18,21.26L751.69,838l14.98,39.14l2.9,42.52h5.8l5.8-36.24l2.9-42.52l5.8,12.08
	l5.8,33.34v50.74l-14.98,9.18h-93.75l-29.96,9.18l-42.52,2.9l-12.08,18.36l-24.16,18.36l-24.16,9.18l-24.16,2.9l-21.26-5.8
	l-18.36-21.26l-29.96-72.48l-5.8-29.96v-61.37l9.18-29.96l18.36-24.16l24.16-21.26l24.16-12.08l39.14-12.08L613,710.43z"/>
<path class="st1" d="M936.28,1000.36h48.32l33.34,5.8l36.24,18.36l24.16,27.06l14.98,29.96l5.8,24.16v39.14l-12.08,36.24
	l-18.36,29.96l-21.26,21.26l-48.32,24.16l-12.08,2.9h-45.42l-36.24-12.08l-29.96-18.36l-21.26-24.16l-21.26-42.52l-5.32-31.89
	l2.9-36.24l14.98-36.24l18.36-24.16l24.16-18.36l33.34-12.08L936.28,1000.36z"/>
<path class="st2" d="M1395.34,1160.31h45.42l36.24,14.98l14.98,12.08l24.16,33.34l21.26,33.34l12.08,21.26l24.16,45.42l12.08,29.96
	v5.8h-150.77l-163.33-2.9l12.08-66.68l21.26-51.22l21.26-29.96l21.26-21.26L1395.34,1160.31z"/>
<path class="st3" d="M613,710.43h45.42l45.42,9.18l27.06,18.36l24.16,24.16l12.08,21.26l-2.9,5.8l-9.18-9.18v-5.8l-12.08-5.8
	l-29.96-18.36l-33.34-12.08l-18.36-2.9H607.2l-48.32,9.18l-42.52,18.36l-21.26,21.26l-14.98,29.96l-2.9,14.98v42.52l9.18,36.24
	l18.36,12.08l36.24,9.18l42.52,5.8h48.32l14.98-12.08l2.9-5.8l-2.9-29.96l-12.08-24.16l-21.26-18.36l-9.18-2.9h-54.12l-21.26,9.18
	l-9.18,14.98l-2.9,33.34l-5.8-5.8v-29.96l9.18-18.36l14.98-12.08l14.98-5.8h59.92l24.16,12.08l18.36,27.06l12.08,36.24v27.06
	l21.26-5.8h54.12l39.14,2.9l5.8-84.56l5.8,12.08l5.8,33.34v49.77l-14.98,9.18H687.9l-29.96,9.18l-42.52,2.9l-12.08,18.36
	l-24.16,18.36l-24.16,9.18l-24.16,2.9l-21.26-5.8l-18.36-21.26l-29.96-72.48l-5.8-29.96v-61.37l9.18-29.96l18.36-24.16l24.16-21.26
	l24.16-12.08l39.14-12.08L613,710.43z"/>
<path class="st3" d="M1404.52,882.94l24.16,2.9l18.36,12.08l9.18,9.18l9.18,24.16v27.06l-12.08,29.96l-18.36,21.26l-29.96,14.98
	l-12.08,2.9h-24.16l-29.96-12.08l-14.98-12.08l-2.9,12.08l-18.36,27.06l-18.36,33.34l-14.98,14.98l5.8,18.36l18.36,33.34v5.8h5.8
	l5.8-18.36l27.06-57.5l21.26-18.36l24.16-9.18h9.18l-3.38,13.05l-9.18,5.8l-24.16,5.8v5.8h-5.8l-5.8,14.98l-18.36,42.52
	l-12.08,24.16l-9.18,9.18l-39.14,5.8h-54.12l-21.26-2.9v-5.8l90.85-9.18h12.08l-21.26-36.24l-9.18-18.36l-24.16,2.9h-36.24
	l-39.14-12.08l-5.8-9.18h78.28l27.06-9.18l9.18-9.18h5.8l2.9-12.08l21.26-42.52l14.98-12.08h9.18l-5.8-18.36v-27.06l9.18-29.96
	l21.26-18.36l45.42-18.36L1404.52,882.94z"/>
<path class="st4" d="M1117.49,644.22l18.36,14.98l29.96,54.12l33.34,63.3l5.8,9.18l18.36-29.96l24.16-21.26l21.26-5.8h33.34
	l-12.08,5.8l-29.96,9.18l-14.98,12.08l-14.98,24.16l-33.34,81.66l-21.26,66.68l-14.98,78.28l-2.9,48.32l5.8,18.36l27.06,5.8
	l39.14,2.9v2.9h-81.66v-5.8h-6.28l-5.8-12.08v-63.3l12.08-66.68l18.36-60.4l21.26-54.12l5.8-12.08l-69.58,29.96l-39.14,14.98
	l-2.9,2.9h-14.98l2.9-27.06l9.18-39.14l-14.98-5.8l-33.34-14.98l-29.96-9.18l-24.16-2.9h-29.96l-33.34,5.8l-48.32,21.26
	l-29.96,24.16l-14.98,14.98h-5.8l5.8-14.98l27.06-27.06l42.52-24.16l36.24-12.08l18.36-2.9h42.52l45.42,9.18l48.32,24.16l12.08,9.18
	l2.9,12.08l-9.18,39.14l27.06-9.18l75.38-33.34l-5.8-18.36l-33.34-66.68l-18.36-33.34l-2.9-2.9l-2.9,9.18l-2.9,42.52l-5.8,2.9
	l-9.18-5.8l-5.8-12.08l-36.24-14.98l-27.06-9.18l-51.22-9.18h-57.5l-29.96,5.8l-45.42,18.36l-33.34,21.26l-9.18-2.9l14.98-14.98
	l27.06-18.36l48.32-18.36l29.96-5.8h60.4l48.32,9.18l45.42,14.98l18.36,9.18h5.8l5.8-48.32L1117.49,644.22z"/>
<path class="st5" d="M809.19,934.16h27.06l12.08,9.18l2.9,21.26l-9.18,14.98l-14.98,9.18l-24.16,2.9l-2.9,29.96l-14.98,42.52
	l-24.16,42.52l-27.06,33.34l-2.9,14.5l-2.9,12.08l-27.06,24.16l2.9,14.98l12.08,12.08l27.06,48.32l21.26,42.52l14.98,51.22
	l-12.08-2.9l-24.16-54.12l-29.96-57.5l-30.44-42.52l-33.34-29.96l-5.8-2.9l2.9-21.26l5.8-24.16l-36.24-12.08l-2.9,27.06l-5.8,5.8
	v-36.24L577.24,1097v27.06l-9.18,12.08h-6.28l5.8-14.98l2.9-29.96l-32.86-9.18l-9.18-2.9v-5.8l21.26,2.9l78.28,24.16l81.66,33.34
	h5.8l33.34-48.32l24.16-42.52l12.08-39.14l2.9-21.26l14.98-5.8l24.16-5.8l5.8-5.8l2.9-18.36h-29.96L809.19,934.16z"/>
<path class="st6" d="M607.2,731.69h54.12l29.96,5.8l42.52,21.26l21.26,14.98l12.08,12.08l9.18,12.08l12.08,33.34l-5.8,78.28
	l-5.8,12.08l-9.18-2.9l-2.9-42.52l-14.98-39.14l-29.96-42.52l-2.9-12.08h-5.8l-2.9,5.8h-5.8l-14.98-14.98l-36.24-12.08l-24.16-2.9
	h-48.32l-45.42,9.18l-27.06,9.18l5.8-12.08l18.36-12.08l42.52-14.98L607.2,731.69z"/>
<path class="st7" d="M1337.84,731.69l45.42,5.8l29.96,12.08l21.26,18.36l14.98,27.06l5.8,24.16v48.32l-5.8,21.26l-5.8,9.18
	l-14.98-9.18l5.8-36.24l-27.06,5.8l-108.73,12.08h-21.26v29.96l18.36,24.16l2.9,18.36l-14.98,75.38l-5.8,9.18h-5.8l2.9-29.96
	l9.18-54.12l-2.9-18.36l-14.98-18.36v-27.06l21.26-72.48l21.26-57.5l9.18-14.98l2.9,9.18l-36.24,108.73l-2.9,12.08l48.32-9.18
	l96.64-14.98h9.18l-9.18-42.52l-12.08-27.06l-24.16-18.36l-48.32-14.98L1337.84,731.69z"/>
<path class="st8" d="M1359.1,1063.66h14.98l33.34,51.22l24.16,33.34l9.18,12.08l-45.42,2.9l-42.52,18.36l-29.96-48.32l-2.9-9.18
	l24.16-48.32h5.8v-5.8L1359.1,1063.66z"/>
<path class="st9" d="M1322.86,1003.74l12.08,5.8l21.26,12.08l12.08,2.9h33.34l-9.18,14.98l-5.8,12.08v-5.8l-39.14,14.98
	l-14.98,18.36l-33.34,69.58h-5.8l-27.06-51.22l5.8-12.08l18.36-24.16l21.26-39.14l9.18-9.18L1322.86,1003.74z"/>
<path class="st10" d="M1156.63,1091.21l39.14,9.18h36.24l24.16-2.9l18.36,29.96l12.08,21.26v5.8l-36.24,5.8l-69.58,5.8v-5.8
	l-9.18-2.9l-12.08-29.96L1156.63,1091.21z"/>
<path class="st11" d="M1117.49,644.22l18.36,14.98l29.96,54.12l24.16,45.42l-2.9,14.98l-9.18-2.9l-29.96-60.4l-18.36-33.34l-2.9-2.9
	l-2.9,9.18l-2.9,42.52l-5.8,2.9l-9.18-5.8l-5.8-12.08l-36.24-14.98l-27.06-9.18l-51.22-9.18h-57.5l-29.96,5.8l-45.42,18.36
	l-33.34,21.26l-9.18-2.9l14.98-14.98l27.06-18.36l48.32-18.36l29.96-5.8h60.4l48.32,9.18l45.42,14.98l18.36,9.18h5.8l5.8-48.32
	L1117.49,644.22z"/>
<path class="st12" d="M942.56,743.77h42.52l45.42,9.18l48.32,24.16l12.08,9.18l2.9,12.08l-9.18,39.14l27.06-9.18l63.3-27.06
	l21.26-2.9l-2.9,9.18h-5.8v5.8l-93.75,39.14l-12.08,5.8h-14.98l2.9-27.06l9.18-39.14l-14.98-5.8l-33.34-14.98l-29.96-9.18
	l-24.16-2.9h-29.96l-33.34,5.8l-48.32,21.26l-29.96,24.16l-14.98,14.98h-5.8l5.8-14.98l27.06-27.06l42.52-24.16l36.24-12.08
	L942.56,743.77z"/>
<path class="st13" d="M1011.66,1069.94l12.08,5.8l18.36,21.26l9.18,12.08l-2.9,12.08l-21.26,24.16l-48.32,48.32l-21.26,12.08h-5.8
	l-2.9-9.18l18.36-12.08l63.3-63.3l2.9-12.08l-18.36-21.26h-5.8l-27.06,33.34l-12.08,18.36l-5.8,14.98h-12.08l-24.16-33.34l-5.8-2.9
	l-2.9,9.18l-9.18,5.8v9.18l9.18,9.18l21.26,24.16l5.8,2.9v9.18l-14.98-5.8l-33.34-27.06l-12.08-14.98l12.08-18.36l24.16-18.36
	l14.98,2.9l18.36,24.16l14.98-14.98l21.26-24.16L1011.66,1069.94z"/>
<path class="st14" d="M1008.76,1084.92l12.08,5.8l14.98,18.36l-5.8,14.98l-66.68,66.68h-14.98l-2.9-12.08l-12.08-5.8l-18.36-21.26
	v-5.8l-9.18-2.9l2.9-12.08l12.08-12.08l12.08,5.8l18.36,24.16v5.8l12.08-2.9l9.18-21.26l21.26-27.06L1008.76,1084.92z"/>
<path class="st15" d="M519.26,1094.1l5.8,2.9l2.9,21.26l9.18,9.18l-2.9,24.16l-9.18,33.34l-14.98,36.24l-42.52,93.75l-14.98,51.22
	l-12.08-2.9v-27.06l18.36-48.32l24.16-48.32l14.98-39.14l14.98-33.34l9.18-24.16v-14.98l-5.8-5.8v-24.16L519.26,1094.1z"/>
<path class="st4" d="M1337.84,731.69l45.42,5.8l29.96,12.08l21.26,18.36l14.98,27.06l5.8,24.16v48.32l-5.8,21.26l-5.8,9.18
	l-14.98-9.18l5.8-36.24h-24.16l5.8-5.8l18.36-5.8l-9.18-42.52l-12.08-27.06l-24.16-18.36l-48.32-14.98L1337.84,731.69z"/>
<path class="st16" d="M1377.46,1045.78h9.18l-3.38,12.08l-9.18,5.8l-24.16,5.8v5.8h-5.8l-5.8,14.98l-18.36,42.52l-12.08,24.16
	l-9.18,9.18l-39.14,5.8h-54.12l-21.26-2.9v-5.8l90.85-9.18h12.08l-21.26-36.24l-5.8-12.08v-14.98h5.8l27.06,51.22v5.8h5.8l5.8-18.36
	l27.06-57.5l21.26-18.36L1377.46,1045.78z"/>
<path class="st17" d="M489.3,937.06l12.08,2.9l33.34,9.18v9.18h5.8v-5.8l63.3,2.9l-5.8,12.08l-24.16,21.26l-14.98,5.8h-29.96
	l-21.26-18.36l-18.36-36.24V937.06z"/>
<path class="st18" d="M1398.24,1169.49l9.18,9.18l29.96,66.68v18.36l-14.98,24.16l9.18,2.9l72.48-18.36l27.06-5.8l2.9,9.18
	l-45.42,14.98l-48.32,12.08h-14.98l5.8,27.06V1342l-9.18-2.9l-12.08-48.32l5.8-18.36l9.18-12.08l-2.9-14.98l-18.36-42.52l-5.8-18.36
	v-14.98H1398.24z"/>
<path class="st19" d="M549.7,825.43h60.4l24.16,12.08l18.36,27.06l9.18,27.06v27.06l-14.98,9.18l2.9-29.96l-12.08-33.34
	l-24.16-21.26l-9.18-2.9h-54.12l-21.26,9.18l-9.18,14.98l-2.9,33.34l-5.8-5.8v-29.96l9.18-18.36l14.98-12.08L549.7,825.43z"/>
<path class="st20" d="M1359.1,1063.66h14.98l33.34,51.22l24.16,33.34l9.18,12.08l-51.22,2.9l2.9-5.8l18.36-2.9l-5.8-18.36
	l-12.08-5.8l-2.9,9.18l-27.06,9.18l-12.08-2.9l9.18-9.18l14.98-9.18l14.98-5.8l-9.18-21.26l-12.08,5.8l-5.8,5.8l-24.16,2.9
	l14.98-14.98l14.98-9.18l-2.9-18.36l-9.18-5.8L1359.1,1063.66z"/>
<path class="st21" d="M1325.76,1109.08l2.9,5.8h5.8l5.8,21.26l12.08,9.18l14.98-2.9l21.26-5.8l2.9-5.8l12.08,2.9l9.18,14.98
	l-2.9,9.18l-18.36,2.9l-2.9,5.8l-36.24,14.98l-29.96-48.32l-2.9-9.18L1325.76,1109.08z"/>
<path class="st22" d="M468.04,912.9l12.08,14.98l5.8,2.9v9.18h5.8l18.36,36.24l18.36,14.98h29.96l24.16-12.08l27.06-24.16l2.9,9.18
	l-18.36,21.26l-27.06,14.98l-36.24,5.8l-21.26-5.8l-18.36-21.26l-14.98-36.24l-9.18-21.26v-8.7H468.04z"/>
<path class="st23" d="M658.43,1127.45l18.36,5.8l9.18,5.8v18.36l-9.18,18.36h5.8l2.9-12.08l5.8-18.36l14.98,2.9l5.8,2.9v5.8
	l-14.98,14.98l-5.8,18.36l-12.08-5.8l-29.96-21.26l2.9-14.98L658.43,1127.45z"/>
<path class="st24" d="M1211.23,897.92h14.98l9.18,12.08l2.9,24.16l-9.18,27.06l-14.98,18.36h-18.36l-9.18-9.18l-2.9-24.16l5.8,2.9
	l9.18,18.36l9.18,2.9l5.8-14.98l5.8-12.08l2.9-29.96l-27.06,5.8l2.9-12.08L1211.23,897.92z"/>
<path class="st25" d="M1359.1,1208.63h5.8v9.18l-14.98,14.98l-21.26,42.52l-18.36,63.3l-12.08,2.9l5.8-39.14l14.98-48.32
	l21.26-29.96L1359.1,1208.63z"/>
<path class="st26" d="M924.2,746.67h21.26l-2.9,9.18l-29.96,9.18l-48.32,21.26l-29.96,24.16l-14.98,14.98h-5.8l5.8-14.98
	l27.06-27.06l42.52-24.16L924.2,746.67z"/>
<path class="st26" d="M1189.97,797.89h5.8l-2.9,9.18h-5.8v5.8l-84.56,36.24h-21.26l2.9-5.8h5.8v-5.8l84.56-36.24L1189.97,797.89z"/>
<path class="st27" d="M1407.42,843.31h18.36l-5.8,5.8h5.8v5.8l-150.77,18.36l2.9-9.18l105.83-18.36L1407.42,843.31z"/>
<path class="st28" d="M1377.46,918.69h5.8l-2.9,12.08l-9.18,12.08v21.26l12.08,5.8l18.36-2.9l14.98-14.98l5.8-2.9v14.98
	l-21.26,18.36l-24.16,2.9l-18.36-12.08l-2.9-5.8v-24.16l12.08-18.36L1377.46,918.69z"/>
<path class="st29" d="M912.12,665.49h14.98l-12.08,5.8l12.08,5.8l-29.96,5.8l-45.42,18.36l-33.34,21.26l-9.18-2.9l14.98-14.98
	l27.06-18.36l48.32-18.36L912.12,665.49z"/>
<path class="st30" d="M1026.64,1133.25l5.8,5.8l-54.12,54.12l-21.26,12.08h-5.8l-2.9-9.18l18.36-12.08l48.32-48.32L1026.64,1133.25z
	"/>
<path class="st27" d="M1283.72,924.98h9.18l5.8,5.8l-2.9,27.06l-12.08,60.4l-5.8,9.18h-5.8l2.9-29.96l9.18-54.12v-18.36H1283.72z"/>
<path class="st31" d="M809.19,934.16h27.06l12.08,9.18l2.9,21.26l-9.18,14.98l-5.8,5.8l-12.08-2.9l-2.9-9.18l12.08-9.18l2.9-18.36
	h-29.96L809.19,934.16z"/>
<path class="st32" d="M1398.24,1169.49l9.18,9.18l29.96,66.68v18.36l-14.98,5.8l2.9-18.36l-21.26-48.32l-5.8-18.36V1169.49z"/>
<path class="st33" d="M528.44,1072.84l21.26,2.9l57.5,18.36l5.8,12.08l-18.36-2.9l-18.36-5.8v27.06l-9.18,12.08h-5.32l5.8-14.98
	l2.9-29.96l-32.86-9.66l-9.18-2.9V1072.84z"/>
<path class="st34" d="M1268.25,728.79h33.34l-12.08,5.8l-29.96,9.18l-14.98,12.08l-14.98,24.16h-5.8l-2.9-21.26l27.06-24.16
	L1268.25,728.79z"/>
<path class="st35" d="M1337.84,731.69l45.42,5.8l29.96,12.08l18.36,21.26v5.8l-14.98-2.9l-21.26-18.36L1341.22,737L1337.84,731.69z"
	/>
<path class="st36" d="M1325.76,1109.08l2.9,5.8h5.8l5.8,21.26l12.08,14.98l9.18,14.98v5.8l5.8,2.9l-14.98,5.8l-29.96-48.32
	l-2.9-9.18L1325.76,1109.08z"/>
<path class="st31" d="M721.73,1251.15l5.8,12.08h5.8l24.16,48.32l9.18,9.18l12.08,39.14l-12.08-2.9l-24.16-54.12l-21.26-42.52v-9.18
	H721.73z"/>
<path class="st37" d="M902.94,1133.25l12.08,12.08l9.18,14.98l21.26,18.36v9.18l-14.98-5.8l-33.34-27.06l-9.18-9.18l2.9-9.18
	L902.94,1133.25z"/>
<path class="st4" d="M1316.57,734.59l2.9,9.18l-33.34,99.54h-9.18l5.8-27.06l18.36-51.22L1316.57,734.59z"/>
<path class="st32" d="M1522.43,1266.13l12.08,2.9v5.8l-45.42,14.98l-33.34,5.8l2.9-12.08L1522.43,1266.13z"/>
<path class="st38" d="M694.67,601.7h5.8l-2.9,21.26l-18.36,42.52l-12.08,2.9l2.9-18.36L685,610.88L694.67,601.7z"/>
<path class="st39" d="M1359.1,1063.66h14.98l18.36,27.06l-2.9,5.8l-5.8-12.08h-5.8l2.9,12.08l-18.36,14.98l-24.16,2.9l14.98-14.98
	l14.98-9.18l-2.9-18.36l-9.18-5.8L1359.1,1063.66z"/>
<path class="st40" d="M610.1,955.42l2.9,9.18l-18.36,21.26l-27.06,14.98l-36.24,5.8l-2.9-5.8l27.06-5.8l29.96-18.36L610.1,955.42z"
	/>
<path class="st41" d="M658.43,1266.13l5.8,9.18l18.36,66.68l2.9,24.16h-12.08l-5.8-36.24l-9.18-51.22L658.43,1266.13L658.43,1266.13
	z"/>
<path class="st42" d="M691.77,1145.33l14.98,2.9l5.8,2.9v5.8l-14.98,14.98l-5.8,18.36l-12.08-5.8l-9.18-9.18l5.8-2.9l5.8,2.9
	l2.9-12.08L691.77,1145.33z"/>
<path class="st0" d="M870.08,767.93h5.8v5.8h-9.18l2.9,9.18l-33.34,24.16l-18.36,18.36h-5.8l5.8-14.98l27.06-27.06L870.08,767.93z"
	/>
<path class="st43" d="M558.88,867.47l2.9,5.8v21.26l18.36,9.18l29.96,2.9l-2.9,5.8h-42.52l-14.98-14.98v-18.36L558.88,867.47z"/>
<path class="st44" d="M767.15,644.22h9.18l-2.9,14.98l-27.06,24.16h-12.08l2.9-12.08l24.16-24.16L767.15,644.22z"/>
<path class="st45" d="M1392.44,1097l9.18,9.18l29.96,42.52l9.18,12.08l-51.22,2.9l2.9-5.8l18.36-2.9l2.9-12.08h2.9l-21.26-33.34
	L1392.44,1097z"/>
<path class="st29" d="M1362,644.22l9.18,2.9l-2.9,24.16l-9.18,33.34h-12.08l12.08-57.5L1362,644.22z"/>
<path class="st46" d="M1259.55,1091.21h5.8l27.06,51.22v5.8l5.8,2.9l-11.6,3.38l-21.26-36.24l-5.8-12.08L1259.55,1091.21
	L1259.55,1091.21z"/>
<path class="st34" d="M604.3,620.06l9.18,2.9v48.32H601.4v-48.32L604.3,620.06z"/>
<path class="st47" d="M912.12,665.49h14.98l-12.08,5.8l12.08,5.8l-29.96,5.8l-29.96,9.18v-12.08L912.12,665.49z"/>
<path class="st48" d="M1389.06,1111.98l5.8,5.8v9.18h9.18l-2.9,5.8l-9.18-2.9l-2.9,9.18l-27.06,9.18l-12.08-2.9l9.18-9.18
	l14.98-9.18l14.98-5.8L1389.06,1111.98L1389.06,1111.98z"/>
<path class="st49" d="M1232.49,662.1l12.08,5.8l18.36,27.06v9.18l-12.08-2.9l-21.26-29.96L1232.49,662.1z"/>
<path class="st50" d="M1286.62,647.12l12.08,2.9l2.9,48.32h-9.18l-5.8-36.24L1286.62,647.12L1286.62,647.12z"/>
<path class="st51" d="M809.19,934.16h27.06l12.08,9.18v5.8h-9.18v18.36h-9.18l5.8-21.26h-29.96L809.19,934.16z"/>
<path class="st32" d="M1008.76,1084.92l12.08,5.8v9.18h-14.98l-29.96,36.24l-9.18,12.08l2.9-14.98l24.16-29.96L1008.76,1084.92z"/>
<path class="st52" d="M522.64,749.57l9.18,2.9l-24.16,18.36l-18.36,21.26l-9.18,9.18l2.9-14.98l18.36-24.16L522.64,749.57z"/>
<path class="st53" d="M1072.06,819.15h2.9v21.26l5.8-2.9l9.18,5.8l-5.8,2.9l9.18,5.8l-12.08,5.8h-14.98l2.9-27.06L1072.06,819.15z"
	/>
<path class="st54" d="M897.14,755.85l9.18,2.9l-5.8,2.9l5.8,5.8l-29.96,12.08h-9.18v-5.8h9.18v-9.18L897.14,755.85z"/>
<path class="st27" d="M1337.84,731.69l45.42,5.8l18.36,5.8l-9.18,2.9h-21.26l-29.96-9.18L1337.84,731.69z"/>
<path class="st2" d="M1026.64,1133.25l5.8,5.8l-33.34,33.34l-2.9-5.8l12.08-18.36h5.8l-2.9-9.18L1026.64,1133.25z"/>
<path class="st31" d="M736.71,1003.74l9.18,2.9v14.98l5.8,2.9v9.18l-14.98-2.9l-5.8-14.98L736.71,1003.74z"/>
<path class="st55" d="M507.66,976.2l21.26,14.98l27.06,2.9v2.9l-27.06,5.8l-12.08-2.9l-3.38-14.5l-9.18-2.9L507.66,976.2z"/>
<path class="st29" d="M1446.56,1287.39l12.08,2.9l-5.8,9.18l-27.06,2.9l-2.9,9.18v-12.08l9.18-9.18L1446.56,1287.39z"/>
<path class="st56" d="M658.43,1266.13l5.8,9.18l9.18,29.96v27.06l-5.8-2.9l-9.18-51.22V1266.13z"/>
<path class="st57" d="M661.32,1175.77l14.98,2.9l9.18,9.18l5.8,18.36l-12.08-5.8l-18.36-18.36v-6.28H661.32z"/>
<path class="st58" d="M709.65,780.01l9.18,2.9l9.18,21.26l-2.9,9.18l-14.98-14.98v-18.36H709.65z"/>
<path class="st59" d="M721.73,1251.15l5.8,12.08h5.8l12.08,24.16v9.18h-5.8l-18.36-36.24v-9.18H721.73z"/>
<path class="st35" d="M1268.25,897.92l21.26,18.36l2.9,14.98l-18.36-12.08l-5.8-5.8V897.92z"/>
<path class="st60" d="M519.26,1094.1l5.8,2.9l2.9,21.26l9.18,12.08l-12.08-5.8l-9.18-2.9v-24.16L519.26,1094.1z"/>
<path class="st27" d="M1359.1,797.89l9.18,5.8l2.9,21.26l-12.08,2.9l-2.9-27.06L1359.1,797.89z"/>
<path class="st61" d="M682.59,789.19l9.18,2.9l9.18,18.36v9.18l-12.08-5.8l-5.8-9.18v-15.46H682.59z"/>
<path class="st62" d="M1211.23,897.92h14.98l-9.18,5.8l-5.8,2.9l9.18,5.8l-14.98,5.8h-9.18l2.9-12.08L1211.23,897.92z"/>
<path class="st63" d="M658.43,794.99h5.8l9.18,21.26v9.18l-12.08-5.8l-5.8-21.26L658.43,794.99z"/>
<path class="st27" d="M1334.94,804.17h5.8l5.8,27.06l-14.98-2.9l2.9-12.08v-12.08H1334.94z"/>
<path class="st27" d="M1383.26,794.99l9.18,2.9l2.9,21.26l-12.08,2.9V794.99z"/>
<path class="st34" d="M881.67,674.18l12.08,2.9l-5.8,9.18l-21.26,5.8v-12.08L881.67,674.18z"/>
<path class="st30" d="M558.88,991.18l9.18,2.9v5.8l-36.24,5.8l-2.9-5.8l27.06-5.8L558.88,991.18z"/>
<path class="st64" d="M1377.46,918.69h5.8l-2.9,12.08l-12.08,12.08h-9.18l5.8-14.98L1377.46,918.69z"/>
<path class="st65" d="M1292.41,668.39h5.8l2.9,5.8v24.16h-9.18v-29.96H1292.41z"/>
<path class="st29" d="M1026.64,1103.29l9.18,5.8l-5.8,14.98l-21.26,21.26v-9.18l18.36-18.36v-14.5H1026.64z"/>
</svg>
