<?xml version="1.0" encoding="utf-8"?>
<!-- Generator: Adobe Illustrator 28.2.0, SVG Export Plug-In . SVG Version: 6.00 Build 0)  -->
<svg version="1.1" id="Layer_1" xmlns="http://www.w3.org/2000/svg" xmlns:xlink="http://www.w3.org/1999/xlink" x="0px" y="0px"
	 viewBox="0 0 2000 2000" style="enable-background:new 0 0 2000 2000;" xml:space="preserve">
<style type="text/css">
	.st0{fill:#6A8CF9;}
	.st1{fill:#6E8EFC;}
	.st2{fill:#082F3C;}
	.st3{fill:#042F37;}
	.st4{fill:#F1EBEB;}
	.st5{fill:#EBE7EC;}
	.st6{fill:#061B1D;}
	.st7{fill:#07303E;}
	.st8{fill:#4678F4;}
	.st9{fill:#051A1B;}
	.st10{fill:#042F36;}
	.st11{fill:#06303C;}
	.st12{fill:#052C34;}
	.st13{fill:#06191A;}
	.st14{fill:#06191B;}
	.st15{fill:#051B1C;}
	.st16{fill:#4A7AF4;}
	.st17{fill:#6F8FFD;}
	.st18{fill:#06303D;}
	.st19{fill:#061819;}
	.st20{fill:#07191C;}
	.st21{fill:#032C31;}
	.st22{fill:#083444;}
	.st23{fill:#E2E1EC;}
	.st24{fill:#081E26;}
	.st25{fill:#5E85F9;}
	.st26{fill:#061B1E;}
	.st27{fill:#061514;}
	.st28{fill:#CFD4ED;}
	.st29{fill:#D7DAED;}
	.st30{fill:#062E3A;}
	.st31{fill:#5D85F9;}
	.st32{fill:#5983F8;}
	.st33{fill:#052E37;}
	.st34{fill:#08222A;}
	.st35{fill:#032D32;}
	.st36{fill:#4678F3;}
	.st37{fill:#07272F;}
	.st38{fill:#083240;}
	.st39{fill:#CED3EE;}
	.st40{fill:#051919;}
	.st41{fill:#062026;}
	.st42{fill:#05303B;}
	.st43{fill:#051D1F;}
	.st44{fill:#052E38;}
	.st45{fill:#051C1D;}
	.st46{fill:#06313D;}
	.st47{fill:#4F7DF5;}
	.st48{fill:#071C21;}
	.st49{fill:#FCF3EB;}
	.st50{fill:#071B20;}
	.st51{fill:#0C2939;}
	.st52{fill:#09232D;}
	.st53{fill:#5480F7;}
	.st54{fill:#042529;}
	.st55{fill:#051E20;}
	.st56{fill:#B8C4EF;}
	.st57{fill:#061616;}
	.st58{fill:#08222B;}
	.st59{fill:#537FF6;}
	.st60{fill:#083446;}
	.st61{fill:#051E1F;}
	.st62{fill:#6B8DFC;}
	.st63{fill:#071D22;}
	.st64{fill:#052D36;}
	.st65{fill:#4E7CF5;}
	.st66{fill:#071F25;}
	.st67{fill:#072A35;}
	.st68{fill:#0A1E26;}
	.st69{fill:#0E2F40;}
	.st70{fill:#091C22;}
	.st71{fill:#083547;}
	.st72{fill:#071211;}
	.st73{fill:#5681F7;}
	.st74{fill:#081C22;}
	.st75{fill:#051D1E;}
	.st76{fill:#0A212C;}
	.st77{fill:#527FF6;}
	.st78{fill:#082B38;}
	.st79{fill:#0F2B3E;}
	.st80{fill:#093549;}
	.st81{fill:#3C73F1;}
	.st82{fill:#042023;}
	.st83{fill:#092C3B;}
	.st84{fill:#1F4D87;}
	.st85{fill:#061919;}
	.st86{fill:#4B7BF5;}
	.st87{fill:#082935;}
</style>
<path class="st0" d="M398.43,607.06l51.02,7.56l165.03,43.46l98.26,31.49l43.46,15.75v7.56l35.27,3.78l137.95,47.24l31.49,11.97
	l15.75,3.78l62.99-11.97l110.23-3.78l35.27-11.97h47.24l27.72,11.97l19.53,15.75l11.97,19.53l3.78,39.05l-11.97,31.49l-22.68,20.79
	l-27.72,7.56h-47.24l-47.24-11.97h-74.96l-19.53,3.78h-43.46l-27.72-11.97l-7.56-7.56h-31.49l-11.97,11.97l3.78,19.53l19.53,11.97
	h90.71l55.43,7.56l3.78,3.78v27.72l-27.72,23.94l-35.27,11.97L996.84,985l-11.97-3.78l3.78,70.55l7.56,15.75l31.49,15.75l11.97,3.78
	h62.99l43.46-15.75l39.05-31.49l19.53-35.27l11.97-31.49l3.78-43.46h11.97v39.05l-11.97,47.24l-23.94,35.27l62.99-31.49l59.21-23.94
	l15.75-3.78h43.46l27.72,15.75l11.97,15.75v11.97l19.53-3.78h31.49l35.27,7.56l31.49,19.53l23.94,35.27l27.72,78.74l27.72,98.26
	l23.94,114.01l15.75,110.23l3.78,39.05v51.02h-177l-157.47-11.97l-3.78-15.75l7.56-23.94l3.78-27.72v-142.99l7.56-118.42
	l11.97-55.43l23.94-39.05l31.49-31.49l55.43-27.72l27.72-7.56h19.53v-11.97l-23.94-3.78h-62.99l-39.05,7.56l-55.43,27.72
	l-31.49,31.49l-15.75,35.27l-7.56,39.05l-3.78,47.24l-3.78,149.92l-7.56,59.21l-15.75,43.46l-19.53,31.49l-15.75,19.53l-23.94,7.56
	l7.56-15.75l27.72-39.05l11.97-47.24l3.78-66.77l3.78-137.95l7.56-74.96l11.97-47.24l-43.46-23.94h-51.02l3.78-11.97l15.75-3.78
	h43.46l31.49,11.97l15.75,7.56l27.72-31.49l31.49-23.94l47.24-19.53l23.94-7.56l-19.53-19.53h-47.24l-66.77,23.94l-62.99,27.72
	l-19.53,11.97l-31.49,11.97l-39.05,15.75l-55.43,3.78l-47.24-7.56l-23.94-11.97l-15.75-23.94l-7.56-35.27v-59.21l-188.97,62.99
	l-114.01,35.27l-27.72,3.78l19.53,19.53l19.53,23.94l19.53-19.53l35.27-3.78l15.75,11.97l7.56,27.72l15.75-3.78l-3.78-31.49
	l11.97-15.75h35.27l35.27,23.94l7.56-15.75h23.94l27.72,23.94l19.53,11.97l15.75,19.53l11.97,43.46v11.97l-11.97-3.78l-15.75-39.05
	l-15.75-19.53l-31.49-19.53l-7.56-11.97l-11.97-3.78l-3.78,31.49l15.75,11.97v7.56l15.75,7.56l3.78,11.97h-8.19v31.49l-15.75-3.78
	v-31.49l-15.75-7.56v-7.56h-7.56l-11.97-39.05l-31.49-15.75l-15.75-3.78l3.78,23.94l15.75,3.78v7.56l19.53,7.56l15.75,15.75v11.97
	l-19.53-3.78l-31.49-11.97h-19.53v11.97l51.02,23.94l-3.78,15.75h-43.46l31.49,31.49v3.78l51.02,7.56l23.94,11.97l3.78,11.97h11.97
	l3.78-15.75l31.49-27.72l19.53-7.56h55.43l35.27-66.77l27.72-27.72l35.27-11.97l15.75,3.78v7.56l-27.72,7.56l-27.72,27.72
	l-23.31,44.72l-19.53,43.46l-31.49,62.99l-31.49,47.24l-19.53,23.94h-11.97l3.78-27.72l11.97-11.97v-7.56l-31.49-15.75l-23.94-19.53
	l-15.75-15.75l-27.72-19.53l-51.02-7.56l-39.05,23.94l-39.05,59.21l-11.97,3.78l7.56-19.53l11.97-23.94l35.27-39.05l19.53-15.75
	l11.97-7.56l-15.75-7.56l-27.72,3.78l-35.27,27.72l-27.72,31.49l-11.97,15.75l-7.56,31.49l11.97,3.78v7.56l15.75,3.78l7.56,31.49
	l23.94,31.49l19.53,15.75l11.97,15.75l15.75,7.56l7.56,11.97l11.97,3.78l3.78,7.56l11.97,3.78l3.78,7.56l11.97,3.78v7.56l15.75,7.56
	l66.77,35.27l35.27,11.97l23.94,3.78h55.43l35.27-11.97l19.53-15.75h7.56l7.56-15.75l19.53-19.53l31.49-39.05l31.49-47.24h7.56
	l-3.78,23.94l-27.72,43.46l-47.24,55.43l-43.46,35.27l-27.72,11.97l-19.53,3.78h-39.05l-55.43-11.97l-51.02-19.53l-23.94-15.75
	l-55.43-39.05l-66.77-55.43l-31.49-35.27l-11.97-23.94l-7.56-23.94l-11.97-3.78l-11.97-27.72l-39.05-15.75v-7.56l-51.02-3.78
	l-15.75-19.53l-3.78-31.49l11.97-23.94l-7.56-19.53v-23.94l19.53-15.75l3.78-7.56h-7.56v-23.94l11.97-11.97h19.53v-11.97
	l-19.53-7.56l-19.53-3.78l-86.93,19.53l-23.94,3.78h-39.05l-19.53-19.53l-7.56-35.27l-3.78-51.02V902.48l7.56-232.43L374.5,631
	l15.75-19.53L398.43,607.06z"/>
<path class="st1" d="M1414.46,1024.05l3.78,11.97l19.53-3.78h31.49l35.27,7.56l31.49,19.53l23.94,35.27l27.72,78.74l27.72,98.26
	l23.94,114.01l15.75,110.23l3.78,39.05v51.02h-177.63l-157.47-11.97l-3.78-15.75l7.56-23.94l3.78-27.72v-143.62l7.56-118.42
	l11.97-55.43l23.94-39.05l31.49-31.49l55.43-27.72l27.72-7.56h19.53v-11.97l-23.94-3.78h-62.99l-39.05,7.56l-55.43,27.72
	l-31.49,31.49l-15.75,35.27l-7.56,39.05l-3.78,47.24l-3.78,149.92l-7.56,59.21l-15.75,43.46l-19.53,31.49l-15.75,19.53l-23.94,7.56
	l7.56-15.75l27.72-39.05l11.97-47.24l3.78-66.77l3.78-137.95l7.56-74.96l11.97-47.24l-43.46-23.94h-51.02l3.78-11.97l15.75-3.78
	h43.46l31.49,11.97l15.75,7.56l27.72-31.49l31.49-23.94l47.24-19.53l35.27-11.97L1414.46,1024.05L1414.46,1024.05z"/>
<path class="st2" d="M564.1,1063.73l51.02,7.56l35.27,19.53l23.94,27.72l19.53-19.53l35.27-3.78l15.75,11.97l7.56,27.72l15.75-3.78
	l-3.78-31.49l11.97-15.75h35.27l35.27,23.94l7.56-15.75h23.94l27.72,23.94l19.53,11.97l15.75,19.53l11.97,43.46v11.97l-11.97-3.78
	l-15.75-39.05l-15.75-19.53l-31.49-19.53l-7.56-11.97l-11.97-3.78l-3.78,31.49l15.75,11.97v7.56l15.75,7.56l3.78,11.97h-7.56v31.49
	l-15.75-3.78v-31.49l-15.75-7.56v-7.56h-7.56l-11.97-39.05l-31.49-15.75l-15.75-3.78l3.78,23.94l15.75,3.78v7.56l19.53,7.56
	l15.75,15.75v11.97l-19.53-3.78l-31.49-11.97h-19.53v11.97l51.02,23.94l-3.78,15.75h-43.46l31.49,31.49v3.78l51.02,7.56l23.94,11.97
	l3.78,11.97h11.97l3.78-15.75l31.49-27.72l19.53-7.56h55.43l35.27-66.77l27.72-27.72l35.27-11.97l15.75,3.78v7.56l-27.72,7.56
	l-27.72,27.72l-23.31,44.72l-19.53,43.46l-31.49,62.99l-31.49,47.24l-19.53,23.94h-11.97l3.78-27.72l11.97-11.97v-7.56l-31.49-15.75
	l-23.94-19.53l-15.75-15.75l-27.72-19.53l-51.02-7.56l-39.05,23.94l-39.05,59.21l-11.97,3.78l7.56-19.53l11.97-23.94l35.27-39.05
	l19.53-15.75l11.97-7.56l-15.75-7.56l-27.72,3.78l-35.27,27.72l-27.72,31.49l-11.97,15.75l-7.56,31.49l11.97,3.78v7.56l15.75,3.78
	l7.56,31.49l23.94,31.49l19.53,15.75l11.97,15.75l15.75,7.56l7.56,11.97l11.97,3.78l3.78,7.56l11.97,3.78l3.78,7.56l11.97,3.78v7.56
	l15.75,7.56l66.77,35.27l35.27,11.97l23.94,3.78h55.43l35.27-11.97l19.53-15.75h7.56l7.56-15.75l19.53-19.53l31.49-39.05
	l31.49-47.24h7.56l-3.78,23.94l-27.72,43.46l-47.24,55.43l-43.46,35.27l-27.72,11.97l-19.53,3.78h-39.05l-55.43-11.97l-51.02-19.53
	l-23.94-15.75l-55.43-39.05l-66.77-55.43l-31.49-35.27l-11.97-23.94l-7.56-23.94l-11.97-3.78l-11.97-27.72l-39.05-15.75v-7.56
	l-51.02-3.78l-15.75-19.53l-3.78-31.49l11.97-23.94l-7.56-19.53v-23.94l19.53-15.75l3.78-7.56h-7.56v-23.94l11.97-11.97h19.53
	v-11.97l-19.53-7.56l-11.97-23.94l-19.53-7.56l15.75-3.78h15.75v-8.19H564.1z"/>
<path class="st3" d="M1185.81,752.57h47.24l27.72,11.97l19.53,15.75l11.97,19.53l3.78,39.05l-11.97,31.49l-23.31,20.16l-27.72,7.56
	h-47.24l-47.24-11.97h-74.96l-19.53,3.78h-43.46l-27.72-11.97l-7.56-7.56h-31.49l-11.97,11.97l3.78,19.53l19.53,11.97h90.71
	l55.43,7.56l3.78,3.78v27.72l-27.72,23.94l-35.27,11.97L996.84,985l-11.97-3.78l3.78,70.55l7.56,15.75l31.49,15.75l11.97,3.78h62.99
	l43.46-15.75l39.05-31.49l19.53-35.27l11.97-31.49l3.78-43.46h11.97v39.05l-11.97,47.24l-23.94,35.27l62.99-31.49l59.21-23.94
	l15.75-3.78h43.46l27.72,15.75l7.56,11.97v11.97l-15.75-3.78l-15.75-11.97h-47.24l-66.77,23.94l-62.99,27.72l-19.53,11.97
	l-31.49,11.97l-39.05,15.75l-55.43,3.78l-47.24-7.56l-23.94-11.97l-15.75-23.94l-7.56-35.27V953.5l3.78-15.75l-39.05-7.56
	l-19.53-15.75l-7.56-27.72l11.97-23.94l23.94-11.97h23.94l-3.78-43.46l11.97-23.94l19.53-7.56l51.02-7.56l110.23-3.78
	L1185.81,752.57z"/>
<path class="st4" d="M953.37,973.03h11.97l7.56,82.52l11.97,23.94l3.78,11.97l43.46,11.97l47.24,3.78l43.46-3.78l-7.56,11.97
	l-23.94,3.78l-27.72,11.97l-27.72,31.49l-27.72,55.43l-3.78,3.78h-55.43l-31.49,15.75l-19.53,19.53l-3.78,11.97h-11.34l-7.56-11.97
	l-31.49-11.97l-39.05-3.78l-11.97-19.53l-19.53-11.97v-7.56l43.46-3.78l3.78-11.97l-15.75-3.78l-39.05-19.53l3.78-15.75l31.49,3.78
	l39.05,15.75l-11.97-19.53l-23.94-15.75v-7.56l-15.75-3.78l-3.78-23.94l27.72,3.78l23.94,15.75l7.56,39.05h7.56v7.56l15.75,3.78
	l3.78,15.75v19.53l11.97,3.78v-31.49h7.56l-19.53-19.53v-7.56l-15.75-7.56l-3.78-19.53l7.56-15.75l15.75,3.78l19.53,19.53
	l23.94,15.75l15.75,19.53l11.97,35.27l7.56,3.78l-15.75-55.43l-19.53-23.94l-23.94-11.97l-15.75-15.75h-23.94l-7.56,11.97
	l-19.53-7.56l-15.75-11.97h-35.27l-7.56,11.97l3.78,31.49l-19.53,7.56l-15.75-35.27l-23.94-3.78l-23.94,7.56l-15.75,15.75
	l-27.72-31.49l-11.97-7.56v-7.56l94.48-27.72L917.47,985L953.37,973.03z"/>
<path class="st5" d="M571.66,1083.26h27.72l39.05,23.94l23.94,27.72l15.75,31.49v7.56h11.97l3.78-47.24l15.75-15.75h11.97v7.56h7.56
	l15.75,74.96l3.78,15.75l-35.27,19.53l-27.72,23.94l-27.72,39.05l-11.97,19.53l-19.53-3.78l-19.53-11.97l-19.53-23.94l-7.56-3.78
	l-7.56,19.53h-11.97l-11.97-19.53l3.78-19.53l15.75-11.97h23.94l-3.78-11.97l-31.49-11.97l-3.78-19.53l11.97-7.56H600l15.75,3.78
	v-15.12l-19.53-3.78l-27.72-11.97l3.78-15.75H600l43.46,15.75l-7.56-23.94l-15.75-15.75l-43.46-23.94L571.66,1083.26z"/>
<path class="st6" d="M926.29,855.24h35.27l-11.97,11.97l-19.53,7.56l-7.56,7.56l3.78,19.53l19.53,11.97h90.71l55.43,7.56l3.78,3.78
	v27.72l-27.72,23.94l-35.27,11.97L997.47,985l-11.97-3.78l3.78,70.55l7.56,15.75l31.49,15.75l11.97,3.78h62.99l43.46-15.75
	l39.05-31.49l19.53-35.27l11.97-31.49l3.78-43.46h11.97v39.05l-11.97,47.24l-23.94,35.27l62.99-31.49l59.21-23.94l15.75-3.78h43.46
	l27.72,15.75l7.56,11.97v11.97l-15.75-3.78l-15.75-11.97h-47.24l-66.77,23.94l-62.99,27.72l-19.53,11.97l-31.49,11.97l-39.05,15.75
	l-55.43,3.78l-47.24-7.56l-23.94-11.97l-15.75-23.94l-7.56-35.27V953.5l3.78-15.75l-39.05-7.56l-19.53-15.75l-7.56-27.72
	l11.97-23.94L926.29,855.24z"/>
<path class="st7" d="M1103.29,1110.98l15.75,3.78v7.56l-27.72,7.56l-27.72,27.72l-23.31,47.87l-19.53,43.46l-31.49,62.99
	l-31.49,47.24l-19.53,23.94h-11.97l3.78-27.72l11.97-11.97v-7.56l-31.49-15.75l-23.94-19.53l-15.75-15.75l-27.72-19.53l3.78-7.56
	l-19.53-7.56l-23.94-3.78v-3.78h39.05l35.27,15.75l3.78,11.97h11.97l3.78-15.75l31.49-27.72l19.53-7.56h55.43l35.27-66.77
	l27.72-27.72L1103.29,1110.98z"/>
<path class="st8" d="M438.12,1185.93h11.97v11.97l-11.97,11.97h-7.56l-7.56,15.75l-19.53,31.49l-7.56,23.94v35.27l15.75,23.94
	l31.49,19.53l19.53-31.49l27.72-23.94l19.53-3.78l15.75,15.75l3.78,23.94l-15.75,27.72l-27.72,15.75l-27.72,3.78l3.78,27.72
	l15.75,19.53l27.72,11.97l31.49,3.78l3.78-27.72l19.53-19.53h27.72L600,1419l-3.78,23.94l-23.94,19.53l-11.97,3.78l3.78,15.75
	l39.05,35.27v7.56h-19.53l-31.49-27.72l-11.97-19.53v-7.56h-27.72l-39.05-15.75l-23.94-19.53l-11.97-23.94v-35.27l-23.94-7.56
	l-23.94-19.53l-15.75-31.49v-35.27l15.75-39.05l23.94-35.27L438.12,1185.93z"/>
<path class="st9" d="M768.81,839.49l15.75,3.78l11.97,35.27l7.56-3.78l11.97-23.94l3.78,11.97l-23.94,66.77l-15.75,23.94
	l-15.75,19.53h31.49l19.53-47.24h7.56l-3.78,35.27l-11.97,27.72l-27.72,3.78l-47.24-3.78l-7.56,11.97l15.75,19.53v7.56h-23.94
	l-31.49,15.75l-23.94-3.78l-19.53-19.53l-23.94-51.02l-3.78-11.97l-11.97-3.78v7.56L538.9,985l-35.27,23.94l-23.94,27.72
	l-19.53,47.24H448.2v-31.49l19.53-39.05l27.72-27.72l39.05-19.53l78.74-23.94l15.75,19.53l27.72,51.02l15.75,15.75l19.53-3.78
	l15.75-7.56l-11.97-19.53l-27.72-31.49l-19.53-35.27v-8.82l11.97,3.78l15.75,23.94L707.71,985l39.05-23.94l31.49-35.27l3.78-11.97
	h-23.94l-19.53-19.53v-15.75l15.75,7.56l7.56,7.56l19.53,3.78l-7.56-31.49l-7.56-11.97v-14.49H768.81z"/>
<path class="st10" d="M662.36,1303.73h3.78l-3.78,35.27l11.97,3.78v7.56l15.75,3.78l7.56,31.49l23.94,31.49l19.53,15.75l11.97,15.75
	l15.75,7.56l7.56,11.97l11.97,3.78l3.78,7.56l11.97,3.78l3.78,7.56l11.97,3.78v7.56l15.75,7.56l66.77,35.27l35.27,11.97l23.94,3.78
	h55.43l35.27-11.97l19.53-15.75h7.56l7.56-15.75l19.53-19.53l31.49-39.05l31.49-47.24h7.56l-3.78,23.94l-27.72,43.46l-47.24,55.43
	l-43.46,35.27l-27.72,11.97l-19.53,3.78h-39.05l-55.43-11.97l-51.02-19.53l-23.94-15.75l-55.43-39.05l-66.77-55.43l-31.49-35.27
	l-11.97-23.94l-7.56-23.94l-11.97-3.78l-3.78-27.72l3.78-15.75h7.56v-9.45H662.36z"/>
<path class="st11" d="M1036.52,666.27h74.96l35.27,3.78l15.75,7.56v-7.56l7.56-3.78h51.02l27.72,11.97l7.56,15.75h39.05l31.49,15.75
	l19.53,23.94l7.56,23.94l-3.78,35.27l-19.53,39.05l-27.72,47.24l-7.56,15.75h-7.56l3.78-27.72l15.75-35.27l23.94-51.02v-31.49
	l-15.75-23.94l-23.94-11.97h-35.27l-23.94-23.94l-11.97-3.78h-47.24l-11.97,23.94l-15.75-3.78l-7.56-11.97l-11.97-3.78h-110.23
	l-59.21,11.97l-15.75,7.56l3.78,19.53l39.05,19.53v7.56l-31.49-3.78l-27.72-15.75l-3.78-7.56v-27.72l23.94-19.53l47.24-11.97
	L1036.52,666.27z"/>
<path class="st12" d="M564.1,1063.73l51.02,7.56l35.27,19.53l15.75,15.75l-3.78,11.97h-15.75l-31.49-23.94l-15.75-7.56l-27.72-3.78
	l15.75,15.75l43.46,23.94l11.97,15.75v19.53l-23.94-3.78l-19.53-7.56h-27.72l-3.78,11.97l47.24,15.75v15.75H564.1l-7.56,3.78v19.53
	l35.27,11.97v11.97l-31.49,7.56l-7.56,7.56l3.78,19.53l7.56,19.53l7.56,3.78v7.56h-19.53l-15.75-19.53l-3.78-31.49l11.97-23.94
	l-7.56-19.53v-23.94l19.53-15.75l3.78-7.56h-7.56v-23.94l11.97-11.97h19.53v-11.97l-19.53-7.56L552.76,1082l-19.53-7.56l15.75-3.78
	h15.75v-6.93H564.1z"/>
<path class="st3" d="M1221.71,929.57h11.97v39.05l-11.97,47.24l-23.94,35.27l62.99-31.49l59.21-23.94l15.75-3.78h43.46l27.72,15.75
	l7.56,11.97v11.97l-15.75-3.78l-15.75-11.97h-47.24l-66.77,23.94l-62.99,27.72l-19.53,11.97l-31.49,11.97l-39.05,15.75l-55.43,3.78
	l-47.24-7.56l3.78-7.56l-23.94-19.53l3.78-7.56l31.49,15.75l11.97,3.78h62.99l43.46-15.75l39.05-31.49l19.53-35.27l11.97-31.49
	L1221.71,929.57z"/>
<path class="st5" d="M445.68,682.02l47.24,3.78l51.02,15.75l7.56,19.53v15.75l23.94-11.97l11.97,3.78l-7.56,31.49l-15.75,7.56
	l-7.56-7.56v-11.97h-11.97l-8.19,16.38l-7.56,3.78l-51.02-3.78l-39.05-11.97v-55.43L445.68,682.02z"/>
<path class="st13" d="M434.34,666.27h35.27l62.99,19.53l23.94,19.53v7.56l31.49-3.78L600,721.07v27.72l-11.97,23.94l-7.56,7.56
	h-23.94l-15.75-3.78l-15.75,7.56l-47.24-3.78l-47.24-11.97l-7.56-7.56l-3.78-15.75l3.78-66.77L434.34,666.27z M445.68,682.02
	l-7.56,15.75v55.43l39.05,11.97l51.02,3.78l15.75-11.97v-7.56h11.97l3.78,15.75h15.75l11.97-27.72l-3.78-11.97l-19.53,7.56
	l-11.97,3.78l-3.78-31.49l-23.94-11.97l-55.43-11.97h-23.31V682.02z"/>
<path class="st14" d="M1182.03,666.27h39.05l27.72,11.97l7.56,15.75h39.05l31.49,15.75l19.53,23.94l7.56,23.94l-3.78,35.27
	l-19.53,39.05l-27.72,47.24l-7.56,15.75h-7.56l3.78-27.72l15.75-35.27l23.94-51.02v-31.49l-15.75-23.94l-23.94-11.97h-35.27
	l-23.94-23.94l-23.94-7.56l-39.05-3.78L1182.03,666.27z"/>
<path class="st15" d="M611.34,941.53l19.53,19.53l27.72,51.02l15.75,15.75l19.53-3.78l15.75-7.56l3.78-7.56l11.97,15.75
	l-39.05,19.53l-23.94-3.78l-19.53-19.53l-23.94-51.02l-3.78-11.97l-11.97-3.78v7.56l-62.99,23.94l-35.27,23.94l-23.94,27.72
	l-19.53,47.24h-11.97v-31.49l19.53-39.05l27.72-27.72l39.05-19.53L611.34,941.53z"/>
<path class="st6" d="M776.37,1083.26h35.27l35.27,23.94l7.56-15.75h23.94l27.72,23.94l19.53,11.97l15.75,19.53l11.97,43.46v11.97
	l-11.97-3.78l-15.75-39.05l-15.75-19.53l-31.49-19.53l-7.56-11.97l-11.97-3.78l-3.78,31.49l15.75,11.97v7.56l15.75,7.56l3.78,11.97
	h-7.56v31.49l-15.75-3.78v-31.49l-15.75-7.56v-7.56h-7.56l-11.97-39.05l-31.49-15.75h-15.75l-7.56,19.53l-11.97-7.56l3.78-19.53
	L776.37,1083.26z"/>
<path class="st16" d="M497.33,1299.95l19.53,3.78l11.97,19.53l-3.78,27.72l-15.75,19.53l-23.94,11.97l-27.72,3.78l3.78,35.27
	l-7.56-3.78l-7.56-23.94v-19.53l-7.56-11.97l23.94-35.27l27.72-23.94L497.33,1299.95z"/>
<path class="st17" d="M560.32,1401.99h27.72l11.97,15.75l-3.78,23.94l-23.94,19.53l-11.97,3.78l3.78,15.75l39.05,35.27v7.56h-19.53
	l-31.49-27.72l-11.97-19.53v-7.56h-27.72l-15.75-7.56l39.05,3.78v-7.56l-35.27-3.78l-23.94-7.56v-7.56l51.02,11.97h7.56l3.78-27.72
	L560.32,1401.99z"/>
<path class="st18" d="M729.13,1217.43l7.56,3.78l3.78,15.75l-31.49,23.94l-27.72,31.49l-23.94,27.72l-7.56,23.94l-7.56-11.97
	l-39.05-15.75v-7.56l-31.49-3.78v-7.56l-11.97-3.78l15.75-15.75l3.78-7.56l15.75,7.56l11.97,11.97v7.56l19.53,7.56l19.53,3.78
	l23.94-39.05l31.49-35.27L729.13,1217.43z"/>
<path class="st19" d="M662.36,709.1h7.56l-7.56,27.72l-27.72,19.53l-11.97,19.53v35.27l7.56,11.97l43.46,7.56l7.56-15.75v-47.24
	l15.75,3.78v47.24l-15.75,19.53l-3.78,15.75l-15.75-7.56l-3.78-3.78h-23.94v19.53l19.53,15.75v11.97l-15.75-3.78l-19.53-19.53
	l-7.56-35.27l-7.56-19.53V776.5l19.53-31.49l27.72-19.53L662.36,709.1z"/>
<path class="st20" d="M662.36,1303.73h3.78l-3.78,35.27l11.97,3.78v7.56l15.75,3.78l7.56,47.24l27.72,31.49l31.49,27.72l23.94,15.75
	v7.56l15.75,7.56l66.77,47.24l31.49,19.53l-11.97,3.78l-39.05-19.53l-62.99-47.24l-62.99-51.02l-31.49-35.27l-11.97-23.94
	l-7.56-23.94l-11.97-3.78l-3.78-27.72l3.78-15.75h7.56V1303.73z"/>
<path class="st21" d="M1335.72,992.56h43.46l27.72,15.75l7.56,11.97v11.97l-15.75-3.78l-15.75-11.97h-47.24l-66.77,23.94
	l-62.99,27.72l-11.97-3.78l19.53-19.53l55.43-27.72L1335.72,992.56z"/>
<path class="st22" d="M1008.81,1236.96h11.97l-3.78,19.53l-27.72,55.43l-31.49,47.24l-19.53,23.94h-11.97l3.78-27.72l11.97-11.97
	v-11.97l7.56-3.78v-7.56h7.56l7.56-15.75l19.53-43.46h7.56l7.56-15.75L1008.81,1236.96z"/>
<path class="st23" d="M996.84,922.01h27.72l51.02,19.53v11.97l-31.49,15.75l-39.05,3.78l-19.53-7.56v-27.72l3.78-11.97
	L996.84,922.01z"/>
<path class="st24" d="M1170.06,1413.96h7.56l-3.78,23.94l-27.72,43.46l-47.24,55.43l-43.46,35.27l-15.75,7.56h-23.94l15.75-19.53
	l23.94-11.97l15.75-11.97h7.56l7.56-15.75l19.53-19.53l31.49-39.05L1170.06,1413.96z"/>
<path class="st25" d="M1020.77,792.25h118.42l3.78,15.75l-3.78,3.78l-90.71,3.78h-71.18v-15.75L1020.77,792.25z"/>
<path class="st9" d="M717.79,709.1h39.05l35.27,15.75l39.05,31.49l19.53,31.49l3.78,11.97v31.49h-11.97l-7.56-35.27l-23.94-35.27
	l-39.05-27.72l-23.94-7.56h-59.21l3.78-7.56L717.79,709.1z"/>
<path class="st6" d="M564.1,1063.73l51.02,7.56l35.27,19.53l15.75,15.75l-3.78,11.97h-15.75l-31.49-23.94l-15.75-7.56l-27.72-3.78
	l15.75,31.49l-19.53-3.78l-11.97-15.75l-3.78-11.97l-19.53-7.56l15.75-3.78h15.75V1063.73z"/>
<path class="st26" d="M760.63,1213.02l31.49,3.78l11.97,15.75v11.97h23.94l23.94,11.97v3.78l-59.21-3.78l-39.05,23.94l-39.05,59.21
	l-11.97,3.78l7.56-19.53l11.97-23.94l35.27-39.05l19.53-15.75l11.97-7.56l-27.72-15.75v-8.82H760.63z"/>
<path class="st27" d="M1024.55,772.09h110.23l-7.56,15.75h-86.93l-62.99,11.97l-11.97,3.78l3.78-19.53l19.53-7.56L1024.55,772.09z"
	/>
<path class="st28" d="M961.56,1229.4l23.94,3.78v11.97l-23.94,11.97l-19.53,7.56v7.56h-7.56l-3.78,11.97h-7.56v11.97l-15.75-3.78
	l-3.78-3.78v-20.16l35.27-27.72L961.56,1229.4z"/>
<path class="st15" d="M843.77,847.05h3.78l7.56,55.43l7.56,35.27v39.05l-7.56,11.97h-15.75v-70.55l-3.78-19.53v-31.49L843.77,847.05
	z"/>
<path class="st29" d="M993.06,1236.96h7.56l-3.78,15.75l-3.78,7.56h-7.56l-11.97,35.27l-15.75,23.94l-23.94-3.78l-7.56-7.56
	l3.78-15.75l31.49-27.72l23.94-15.75L993.06,1236.96z"/>
<path class="st30" d="M713.38,1095.23l11.97,3.78v7.56l-23.94,11.97l-3.78,7.56l-3.78,39.05l-3.78,7.56h-11.97l-19.53-39.05
	l-3.78-11.97l11.97-11.97l11.97,7.56l15.75-19.53L713.38,1095.23z"/>
<path class="st31" d="M1190.22,780.28h19.53v11.97l-19.53,19.53l-3.78,15.75l11.97,19.53h31.49l-7.56,15.75l-19.53,3.78l-19.53-7.56
	l-15.75-19.53l-3.78-19.53l11.97-23.94L1190.22,780.28z"/>
<path class="st32" d="M438.12,1185.93h11.97v11.97l-11.97,11.97h-7.56l-7.56,15.75l-19.53,31.49l-7.56,23.94v35.27l3.78,15.75
	l-11.97-11.97l-3.78-35.27l-3.78,31.49h-3.78v-35.27l15.75-39.05l23.94-35.27L438.12,1185.93z"/>
<path class="st33" d="M575.44,1095.23l19.53,7.56l39.05,23.94l7.56,11.97v19.53l-23.94-3.78l-19.53-7.56l-23.94-3.78l7.56-31.49
	L575.44,1095.23z"/>
<path class="st34" d="M870.86,1091.45l19.53,7.56l15.75,15.75l19.53,11.97l15.75,19.53l11.97,43.46v11.97l-11.97-3.78l-15.75-39.05
	l-15.75-19.53l-31.49-19.53l-11.97-15.75L870.86,1091.45z"/>
<path class="st35" d="M497.33,985l7.56,3.78l3.78,15.75l-27.72,31.49l-19.53,47.24h-11.97v-31.49l19.53-39.05L497.33,985z"/>
<path class="st36" d="M560.32,1401.99h27.72l11.97,15.75l-3.78,23.94l-23.94,19.53h-23.94v-11.97l19.53-7.56l11.97-11.97l3.78-11.97
	l-19.53,3.78l-15.75,11.97l-7.56,11.97v-23.94L560.32,1401.99z"/>
<path class="st37" d="M1103.29,1110.98l15.75,3.78v7.56l-27.72,7.56l-27.72,27.72l-19.53,31.49l-11.97-11.97l3.78-19.53l27.72-31.49
	L1103.29,1110.98z"/>
<path class="st38" d="M780.78,1099.01l7.56,11.97v7.56l15.75,3.78v7.56l19.53,7.56l15.75,15.75v11.97l-19.53-3.78l-43.46-15.75
	l-7.56-15.75l3.78-15.75L780.78,1099.01z"/>
<path class="st39" d="M784.56,1095.23l27.72,3.78l23.94,15.75l7.56,39.05l7.56,3.78l-11.97,3.78l-19.53-23.94l-15.75-7.56v-7.56
	l-15.75-3.78L784.56,1095.23z"/>
<path class="st40" d="M587.4,949.72h19.53l-3.78,11.97l-62.99,23.94l-27.72,15.75l-11.97-3.78l7.56-19.53l51.02-19.53L587.4,949.72z
	"/>
<path class="st41" d="M1221.71,929.57h11.97v39.05l-11.97,47.24l-19.53,27.72l-23.94,11.97l7.56-15.75l19.53-35.27l11.97-31.49
	L1221.71,929.57z"/>
<path class="st42" d="M1194,1044.21l3.78,7.56h7.56l-3.78,19.53l-47.24,19.53l-15.75,3.78v-3.78l-19.53-3.78l11.97-7.56l31.49-19.53
	L1194,1044.21z"/>
<path class="st43" d="M1182.03,666.27h39.05l27.72,11.97l7.56,15.75h39.05v3.78l-27.72,7.56v7.56l-15.75-3.78l-19.53-19.53
	l-23.94-7.56l-39.05-3.78L1182.03,666.27z"/>
<path class="st44" d="M1182.03,1099.01h43.46l31.49,11.97l11.97,7.56l-7.56,15.75l-15.75-3.78l-31.49-15.75h-51.02l3.78-11.97
	L1182.03,1099.01z"/>
<path class="st45" d="M1540.44,1311.91l3.78,15.75l-31.49,35.27l-43.46,35.27l-27.72,19.53l-3.78-11.97l82.52-70.55L1540.44,1311.91
	z"/>
<path class="st46" d="M1028.33,1170.19l15.75,19.53l-19.53,55.43l-3.78-7.56l-19.53,7.56v-8.19l-11.97,3.78l-3.78-7.56l23.94-3.78
	l-23.94-3.78v-3.78l23.94-7.56L1028.33,1170.19z"/>
<path class="st45" d="M1556.19,1362.94l11.97,3.78l-19.53,27.72l-66.77,51.02l-27.72,19.53v-11.97l47.24-39.05l31.49-27.72
	L1556.19,1362.94z"/>
<path class="st47" d="M438.12,1374.9h3.78l7.56,27.72l7.56,15.75l19.53,15.75v11.97l35.27,7.56l23.94,3.78v7.56l-47.24-3.78
	l-31.49-19.53l-15.75-19.53l-3.78-11.97v-35.27H438.12z"/>
<path class="st48" d="M938.26,685.8l15.75,3.78l-11.97,19.53l3.78,19.53l39.05,19.53v7.56l-31.49-3.78l-27.72-15.75l-3.78-7.56
	v-27.09L938.26,685.8z"/>
<path class="st49" d="M492.92,1319.47l19.53,3.78l-3.78,19.53l-19.53,19.53l-31.49,3.78l7.56-19.53L492.92,1319.47z"/>
<path class="st50" d="M548.35,1233.18l11.97,3.78l-7.56,15.75l3.78,19.53l7.56,19.53l7.56,3.78v7.56h-19.53l-15.75-19.53
	l-3.78-31.49l7.56-15.75L548.35,1233.18z"/>
<path class="st45" d="M713.38,745.01l19.53,7.56l47.24,23.94v7.56l-27.72-3.78l-23.94-7.56l-7.56,23.94l-7.56-3.78V745.01z"/>
<path class="st51" d="M855.11,1138.69l15.75,7.56v7.56l15.75,7.56l3.78,11.97h-7.56v31.49l-15.75-3.78v-31.49l-15.75-7.56v-7.56
	h-7.56v-7.56L855.11,1138.69z"/>
<path class="st52" d="M1316.2,811.78h11.97l3.78,19.53l-27.72,47.24l-7.56,15.75h-7.56l3.78-27.72l15.75-35.27L1316.2,811.78z"/>
<path class="st53" d="M1047.86,540.29l11.97,3.78l-11.97,35.27l-15.75,23.94l-15.75,3.78l3.78-15.75l19.53-47.24L1047.86,540.29z"/>
<path class="st54" d="M1107.07,1087.04h35.27l-3.78,11.97l-23.94,7.56l-55.43,3.78l-3.78-7.56l15.75-7.56l31.49-3.78
	L1107.07,1087.04z"/>
<path class="st55" d="M434.34,835.08l74.96,3.78l35.27,3.78l3.78,7.56l-11.97,3.78l-23.94-3.78h-59.21l-23.94-7.56L434.34,835.08z"
	/>
<path class="st9" d="M1335.72,992.56h43.46l27.72,15.75l7.56,11.97v11.97l-15.75-3.78l-27.72-19.53v-3.78l-35.27-3.78
	L1335.72,992.56L1335.72,992.56z"/>
<path class="st56" d="M548.35,721.07l3.78,15.75l23.94-11.97l11.97,3.78l-7.56,31.49l-15.75,7.56l-11.97-19.53L548.35,721.07z"/>
<path class="st42" d="M973.53,673.83l27.72,3.78l15.75,11.97l-59.21,11.97l-11.97,3.78l3.78-15.75l-3.78-7.56L973.53,673.83z"/>
<path class="st57" d="M1075.57,721.07h19.53l-15.75,19.53l-31.49,15.75l-19.53,3.78h-27.72l3.78-7.56l43.46-11.97L1075.57,721.07z"
	/>
<path class="st9" d="M949.6,1217.43h35.27v7.56h23.94l3.78,7.56h-51.02l-19.53,3.78l-11.97-11.97L949.6,1217.43z M926.29,1229.4
	v11.97l-11.97,3.78l3.78-11.97L926.29,1229.4z"/>
<path class="st58" d="M756.85,1260.89l7.56,3.78l-3.78,11.97l-19.53,19.53l-27.72,43.46l-11.97,3.78l7.56-19.53l11.97-23.94
	L756.85,1260.89z"/>
<path class="st55" d="M681.89,768.31l15.75,3.78v47.24l-15.75,19.53l-7.56,15.75l-3.78-19.53l11.97-19.53v-47.24H681.89z"/>
<path class="st47" d="M560.32,1401.99h27.72l7.56,15.75h-7.56l-3.78,11.97v-11.97l-19.53,3.78l-15.75,11.97l-7.56,11.97v-23.94
	L560.32,1401.99z"/>
<path class="st57" d="M1008.81,1236.96h11.97l-3.78,19.53l-15.75,31.49l-15.75-7.56l7.56-27.72L1008.81,1236.96z"/>
<path class="st59" d="M953.37,544.07l11.97,3.78l3.78,7.56v27.72l-7.56,19.53l-15.75,4.41l3.78-15.75v-43.46L953.37,544.07z"/>
<path class="st60" d="M693.86,1386.87l15.75,19.53l31.49,27.72l11.97,15.75l15.75,7.56l-3.78,7.56l-19.53-7.56l-47.24-47.24
	L693.86,1386.87z"/>
<path class="st61" d="M438.12,874.77l98.26,3.78l-3.78,11.97l-94.48-3.78l-7.56-7.56L438.12,874.77z"/>
<path class="st62" d="M445.68,1350.97l15.75,7.56l-3.78,7.56h19.53l-7.56,7.56l15.75,7.56l-27.72,3.78l3.78,35.27l-7.56-3.78
	l-7.56-23.94v-19.53l-7.56-11.97L445.68,1350.97z"/>
<path class="st63" d="M1056.05,1142.47l11.97,3.78l-7.56,19.53l-15.75,23.94l-11.97-11.97l3.78-19.53l7.56-11.97L1056.05,1142.47z"
	/>
<path class="st64" d="M552.13,1205.46l3.78,7.56l35.27,11.97v11.97l-31.49,3.78l-15.75-3.78l7.56-19.53v-11.97H552.13z"/>
<path class="st65" d="M548.35,1481.36l15.75,7.56l11.97,11.97l23.94,11.97l3.78,11.97h-19.53l-31.49-27.72L548.35,1481.36z"/>
<path class="st66" d="M548.35,1173.97l15.75,3.78v11.97l-7.56,3.78v27.72l-15.75-3.78l-3.78-7.56v-23.94L548.35,1173.97z"/>
<path class="st53" d="M1122.82,559.82l11.97,3.78l-7.56,23.94l-19.53,23.94l-11.97,3.78l3.78-19.53L1122.82,559.82z"/>
<path class="st67" d="M930.07,1229.4h11.97l3.78,11.97l-35.27,23.94l-7.56,11.97h-7.56v-19.53l19.53-15.75l11.97-3.78L930.07,1229.4
	z"/>
<path class="st68" d="M564.1,1126.72h19.53l-15.75,31.49h7.56v7.56L551.5,1162v-23.94L564.1,1126.72z"/>
<path class="st9" d="M457.64,1032.24l11.97,3.78v27.72l-7.56,19.53h-11.97v-31.49L457.64,1032.24z"/>
<path class="st69" d="M1182.03,914.45H1194l-3.78,15.75l-15.75,11.97l-35.27,7.56h-19.53l15.75-7.56l35.27-15.75L1182.03,914.45z"/>
<path class="st70" d="M938.26,1347.19h19.53l-3.78,15.75l-15.75,19.53h-11.97l3.78-27.72L938.26,1347.19z"/>
<path class="st71" d="M984.87,1240.74v11.97l-43.46,31.49h-11.97l3.78-11.97h7.56v-7.56l35.27-19.53L984.87,1240.74z M921.88,1284.2
	l7.56,3.78l-7.56,3.78V1284.2z"/>
<path class="st72" d="M1044.08,670.05l19.53,7.56v3.78l-66.77,3.78l-7.56-11.97L1044.08,670.05z"/>
<path class="st49" d="M567.88,1413.96l15.75,3.78l-3.78,15.75l-11.97,11.97h-15.75l3.78-19.53L567.88,1413.96z"/>
<path class="st73" d="M438.12,1185.93h11.97v11.97l-11.97,11.97l-27.72,15.75l-7.56,3.78l7.56-19.53L438.12,1185.93z"/>
<path class="st74" d="M713.38,1095.23l11.97,3.78v7.56l-27.72,15.75h-15.75l3.78-15.75l7.56-7.56L713.38,1095.23z"/>
<path class="st75" d="M627.09,847.05l7.56,15.75l19.53,15.75v11.97l-15.75-3.78l-19.53-19.53l3.78-15.75L627.09,847.05z"/>
<path class="st76" d="M902.35,1303.73l19.53,7.56l27.72,7.56l3.78,11.97l-27.72-3.78l-19.53-11.97L902.35,1303.73z"/>
<path class="st77" d="M875.27,571.78l15.75,7.56l7.56,31.49l-15.75,3.78l-7.56-23.94l-3.78-15.75L875.27,571.78z"/>
<path class="st78" d="M875.27,1162l15.75,3.78v7.56h-8.19v31.49l-15.75-3.78l3.78-31.49L875.27,1162z"/>
<path class="st40" d="M1005.03,914.45h31.49l19.53,7.56l7.56,3.78v7.56l-27.72-3.78l-31.49-11.97v-3.15H1005.03z"/>
<path class="st79" d="M1170.06,1413.96h7.56l-3.78,23.94l-11.97,11.97l-19.53,7.56L1170.06,1413.96z"/>
<path class="st80" d="M1056.05,922.01h31.49v19.53h-7.56l-3.78,7.56v-7.56l-19.53-3.78l7.56-3.78l-7.56-3.78v-8.19H1056.05z"/>
<path class="st81" d="M480.95,1445.45l55.43,11.97v7.56l-47.24-3.78l-7.56-3.78v-11.97H480.95z"/>
<path class="st57" d="M1071.8,1095.23h39.05l-7.56,7.56l-23.94,7.56h-19.53l-3.78-7.56L1071.8,1095.23z"/>
<path class="st43" d="M1469.26,1378.68l7.56,3.78l-11.97,19.53l-27.72,15.75l3.78-15.75L1469.26,1378.68z"/>
<path class="st82" d="M434.34,835.08h31.49l3.78,15.75l-35.27-3.78V835.08z"/>
<path class="st83" d="M1110.85,729.26h11.97l-3.78,15.75l-15.75,11.97h-11.97l7.56-15.75L1110.85,729.26z"/>
<path class="st84" d="M721.57,1299.95l7.56,15.75l-19.53,27.72h-7.56l7.56-19.53L721.57,1299.95z"/>
<path class="st61" d="M1516.5,1445.45h7.56l-3.78,15.75l-15.75,19.53l-11.97-3.78L1516.5,1445.45z"/>
<path class="st85" d="M1532.25,1327.66l3.78,11.97l-35.27,31.49l-7.56-3.78L1532.25,1327.66z"/>
<path class="st15" d="M764.41,996.97l15.75,3.78l15.75,15.75l-3.78,11.97h-7.56L764.41,996.97z"/>
<path class="st86" d="M1115.26,1103.42l7.56,3.78l-7.56,7.56l-23.94,3.78l-15.75,3.78l-3.78-11.34l7.56-3.78L1115.26,1103.42z"/>
<path class="st87" d="M1040.3,745.01l7.56,3.78v7.56l-19.53,3.78h-27.72l3.78-7.56L1040.3,745.01z"/>
</svg>
