<?xml version="1.0" standalone="no"?>
<!DOCTYPE svg PUBLIC "-//W3C//DTD SVG 20010904//EN"
 "http://www.w3.org/TR/2001/REC-SVG-20010904/DTD/svg10.dtd">
<svg version="1.0" xmlns="http://www.w3.org/2000/svg"
 width="1000.000000pt" height="875.000000pt" viewBox="0 0 1000.000000 875.000000"
 preserveAspectRatio="xMidYMid meet">

<g transform="translate(0.000000,875.000000) scale(0.100000,-0.100000)"
fill="#000000" stroke="none">
<path d="M2898 6091 c-31 -10 -76 -30 -100 -44 -53 -31 -135 -116 -170 -177
-60 -102 -58 -65 -58 -1282 0 -1217 -2 -1171 58 -1282 61 -113 199 -211 331
-236 32 -6 270 -10 592 -10 l539 0 0 -65 0 -65 -145 0 -145 0 0 -130 0 -130
879 0 879 0 -7 33 c-5 17 -16 47 -25 66 -10 18 -23 61 -30 95 l-13 61 -111 3
-112 3 0 64 0 65 110 0 109 0 3 898 3 897 24 63 c56 151 189 269 339 301 35 7
207 11 498 11 l446 0 -4 263 -3 262 -37 77 c-61 128 -157 214 -285 257 -62 21
-67 21 -1785 20 -1639 0 -1726 -1 -1780 -18z m584 -1168 c5 -528 5 -533 87
-614 120 -121 315 -76 377 87 17 45 19 91 24 514 l5 465 155 0 155 0 0 -450
c-1 -394 -3 -459 -18 -520 -72 -287 -270 -426 -587 -412 -225 10 -362 93 -446
271 -58 122 -63 176 -64 674 l0 442 154 0 155 0 3 -457z m1378 -228 l0 -685
-155 0 -155 0 0 685 0 685 155 0 155 0 0 -685z"/>
<path d="M5884 5090 c-108 -22 -206 -105 -244 -206 -20 -54 -20 -74 -20 -1019
0 -958 0 -965 21 -1022 32 -88 115 -165 206 -193 67 -20 84 -21 703 -18 l635
3 56 27 c66 33 131 96 159 153 38 79 41 164 38 1105 -4 1048 4 969 -103 1076
-103 104 -60 98 -785 100 -344 1 -644 -2 -666 -6z m1333 -166 c52 -41 83 -105
83 -171 l0 -53 -775 0 -775 0 0 53 c1 85 40 151 115 191 27 14 101 15 672 13
l641 -2 39 -31z m83 -1138 c0 -730 -2 -869 -14 -898 -20 -46 -87 -105 -128
-113 -18 -3 -315 -5 -660 -3 l-626 3 -39 31 c-21 16 -48 50 -60 74 l-23 44 0
863 0 863 775 0 775 0 0 -864z"/>
<path d="M6094 4846 c-3 -8 -3 -20 1 -26 4 -7 147 -10 436 -10 l430 0 -3 23
-3 22 -428 3 c-368 2 -428 0 -433 -12z"/>
<path d="M6030 3962 c0 -244 20 -306 112 -353 34 -17 55 -20 123 -17 103 4
143 28 183 108 26 53 27 61 30 248 l4 192 -60 0 -61 0 -3 -194 c-3 -179 -5
-197 -24 -223 -26 -34 -83 -51 -118 -35 -55 25 -61 49 -64 259 l-4 193 -59 0
-59 0 0 -178z"/>
<path d="M6583 4098 c13 -24 48 -84 76 -135 l51 -91 -75 -131 c-41 -72 -75
-136 -75 -142 0 -6 24 -9 63 -7 l62 3 44 93 c25 50 48 92 53 92 4 0 29 -43 55
-95 l48 -95 68 0 c37 0 66 3 64 8 -2 4 -39 66 -81 139 -42 72 -76 135 -76 140
0 4 16 35 36 68 20 33 54 90 75 128 l38 67 -68 0 -69 0 -38 -90 c-22 -49 -41
-90 -44 -90 -3 0 -26 41 -50 90 l-44 90 -69 0 -69 0 25 -42z"/>
<path d="M6495 3010 c-29 -11 -44 -32 -51 -68 -5 -26 -1 -36 24 -62 72 -72
173 0 131 93 -18 39 -62 55 -104 37z"/>
</g>
</svg>
