<svg id="Capa_1" enable-background="new 0 0 512 512" height="512" viewBox="0 0 512 512" width="512" xmlns="http://www.w3.org/2000/svg"><g><g><path d="m33.523 296.451c4.142 0 7.5-3.358 7.5-7.5v-10.706c0-4.142-3.358-7.5-7.5-7.5s-7.5 3.358-7.5 7.5v10.706c0 4.142 3.358 7.5 7.5 7.5z"/><path d="m33.523 340.344c4.142 0 7.5-3.358 7.5-7.5v-10.706c0-4.142-3.358-7.5-7.5-7.5s-7.5 3.358-7.5 7.5v10.706c0 4.142 3.358 7.5 7.5 7.5z"/><path d="m33.523 384.236c4.142 0 7.5-3.358 7.5-7.5v-10.706c0-4.142-3.358-7.5-7.5-7.5s-7.5 3.358-7.5 7.5v10.706c0 4.142 3.358 7.5 7.5 7.5z"/><path d="m33.523 428.129c4.142 0 7.5-3.358 7.5-7.5v-10.706c0-4.142-3.358-7.5-7.5-7.5s-7.5 3.358-7.5 7.5v10.706c0 4.142 3.358 7.5 7.5 7.5z"/><path d="m33.523 472.021c4.142 0 7.5-3.358 7.5-7.5v-10.706c0-4.142-3.358-7.5-7.5-7.5s-7.5 3.358-7.5 7.5v10.706c0 4.143 3.358 7.5 7.5 7.5z"/><path d="m159.777 194.386h20.468c4.142 0 7.5-3.358 7.5-7.5s-3.358-7.5-7.5-7.5h-20.468c-4.142 0-7.5 3.358-7.5 7.5s3.358 7.5 7.5 7.5z"/><path d="m504.5 179.386h-20.468c-4.143 0-7.5 3.358-7.5 7.5s3.357 7.5 7.5 7.5h20.468c4.143 0 7.5-3.358 7.5-7.5s-3.357-7.5-7.5-7.5z"/><path d="m219.407 83.774c1.466 1.479 3.396 2.221 5.327 2.221 1.908 0 3.817-.724 5.279-2.173 2.942-2.916 2.964-7.664.048-10.606l-14.473-14.606c-2.916-2.942-7.665-2.963-10.606-.048-2.942 2.916-2.964 7.664-.048 10.606z"/><path d="m444.871 289.998c-2.914-2.943-7.663-2.963-10.606-.049-2.942 2.916-2.964 7.664-.048 10.606l14.473 14.606c1.466 1.48 3.396 2.221 5.327 2.221 1.908 0 3.816-.724 5.279-2.172 2.942-2.916 2.964-7.664.048-10.606z"/><path d="m332.139 45.446c4.143 0 7.5-3.358 7.5-7.5v-20.655c0-4.142-3.357-7.5-7.5-7.5s-7.5 3.358-7.5 7.5v20.656c0 4.141 3.357 7.499 7.5 7.499z"/><path d="m448.689 58.61-14.473 14.605c-2.916 2.942-2.895 7.691.048 10.606 1.463 1.449 3.371 2.172 5.279 2.172 1.931 0 3.861-.741 5.327-2.221l14.473-14.605c2.916-2.942 2.895-7.691-.048-10.606-2.942-2.914-7.691-2.894-10.606.049z"/><path d="m138.192 324.807v93.154c0 4.495 2.42 8.679 6.317 10.92 1.939 1.115 4.11 1.672 6.281 1.672 2.191 0 4.383-.568 6.335-1.704l80.065-46.577c3.922-2.281 6.264-6.352 6.264-10.89 0-4.537-2.342-8.608-6.264-10.889l-80.066-46.577c-3.885-2.26-8.719-2.271-12.616-.031-3.896 2.242-6.316 6.427-6.316 10.922zm15 4.176 72.886 42.4-72.886 42.4z"/><path d="m215.588 315.162 14.473-14.606c2.916-2.942 2.894-7.691-.049-10.606-2.941-2.915-7.689-2.894-10.606.049l-14.473 14.606c-2.916 2.942-2.894 7.691.049 10.606 1.462 1.449 3.371 2.172 5.279 2.172 1.93 0 3.861-.741 5.327-2.221z"/><path d="m459.307 203.909c.502-4.111-2.424-7.852-6.535-8.354-4.117-.499-7.853 2.424-8.354 6.536-4.686 38.379-28.092 71.479-62.613 88.543-3.442 1.702-5.986 4.782-6.979 8.449l-4.976 18.371h-14.808v-73.967l27.707-59.438c1.874-4.02 1.569-8.653-.814-12.393s-6.453-5.973-10.888-5.973h-17.941v-5.977c0-4.142-3.357-7.5-7.5-7.5s-7.5 3.358-7.5 7.5v5.977h-11.932v-5.977c0-4.142-3.357-7.5-7.5-7.5s-7.5 3.358-7.5 7.5v5.977h-17.941c-4.435 0-8.505 2.233-10.888 5.973-2.384 3.74-2.688 8.373-.814 12.394l27.707 59.437v73.967h-14.808l-4.976-18.371c-.992-3.666-3.536-6.745-6.98-8.45-18.749-9.267-34.599-23.575-45.836-41.377-11.546-18.292-17.65-39.483-17.65-61.283 0-63.003 50.761-114.261 113.153-114.261 26.962 0 53.075 9.736 73.527 27.414 20.251 17.503 33.78 41.683 38.099 68.084.668 4.087 4.513 6.856 8.612 6.191 4.087-.669 6.859-4.524 6.19-8.612-4.884-29.864-20.188-57.213-43.092-77.011-23.178-20.033-52.773-31.066-83.337-31.066-70.664 0-128.153 57.986-128.153 129.261 0 18.253 3.799 36.129 11.073 52.584h-45.06c-4.142 0-7.5 3.358-7.5 7.5s3.358 7.5 7.5 7.5h52.916c.346.568.679 1.143 1.035 1.706 12.583 19.934 30.286 35.998 51.227 46.496l3.799 14.028c-5.918 1.332-10.356 6.621-10.356 12.936v23.365c0 6.747 5.065 12.321 11.59 13.15v11.953c-4.023.136-7.243 3.432-7.243 7.487s3.221 7.351 7.243 7.487v12.413c0 7.316 5.952 13.268 13.269 13.268h2.884l3.466 16.482v50.882h-231.653v-231.652h66.823c4.142 0 7.5-3.358 7.5-7.5s-3.358-7.5-7.5-7.5h-122.402c-6.947 0-12.598 5.651-12.598 12.597v236.554c0 6.893 5.607 12.5 12.5 12.5h342.908c6.946 0 12.598-5.651 12.598-12.598v-69.766h2.792c7.316 0 13.269-5.952 13.269-13.268v-12.413c4.022-.136 7.243-3.432 7.243-7.487s-3.221-7.351-7.243-7.487v-11.953c6.525-.829 11.59-6.404 11.59-13.15v-23.365c0-6.314-4.438-11.604-10.356-12.936l3.799-14.028c38.711-19.403 64.937-56.676 70.207-99.849zm-406.13 283.3h-38.177v-231.651h38.177zm243.333-306.525h14.663v2.94c0 4.142 3.357 7.5 7.5 7.5s7.5-3.358 7.5-7.5v-2.94h11.932v2.94c0 4.142 3.357 7.5 7.5 7.5s7.5-3.358 7.5-7.5v-2.94h14.663l-35.629 76.431zm43.531 91.604v45.166h-15.805v-45.166c2.207 1.712 4.953 2.682 7.902 2.682s5.696-.97 7.903-2.682zm12.965 214.921h-38.177v-34.448h9.892v11.76c0 4.142 3.357 7.5 7.5 7.5s7.5-3.358 7.5-7.5v-11.76h10.503c.951 0 1.88-.115 2.782-.311zm-41.315-67.363h40.895l-3.768 17.916h-33.359zm57.375-15h-73.855v-10.668h73.855zm11.59-52.491h-40.656c-4.143 0-7.5 3.358-7.5 7.5s3.357 7.5 7.5 7.5h29.066v11.822h-73.855v-11.822h9.789c4.143 0 7.5-3.358 7.5-7.5s-3.357-7.5-7.5-7.5h-21.379v-19.901h97.035z"/></g></g></svg>