<svg enable-background="new 0 0 512 512" viewBox="0 0 512 512" xmlns="http://www.w3.org/2000/svg"><g id="_x35_8_DEVELOPMENT_PROCESS"><g opacity=".99"><path d="m490.646 147.829h-6.02c-2.622-10.536-6.797-20.537-12.429-29.907l4.273-4.272c5.097-5.049 5.097-13.254 0-18.304l-19.227-19.275c-5.049-5.049-13.254-5.049-18.304 0l-4.272 4.272c-9.37-5.632-19.42-9.759-29.955-12.38v-6.069c0-7.089-5.778-12.915-12.915-12.915h-27.237c-7.137 0-12.963 5.826-12.963 12.915v6.069c-10.536 2.622-20.585 6.748-29.907 12.38l-4.272-4.272c-5.049-5.049-13.255-5.001-18.304 0l-19.275 19.275c-5.049 5.049-5.049 13.255 0 18.304l4.272 4.272c-5.631 9.37-9.807 19.372-12.381 29.907h-6.069c-3.398 0-6.505 1.359-8.836 3.544h-159.78c-15.342 0-27.819 12.478-27.819 27.868v187.503c-.243.146-.485.194-.631.388l-58.601 52.241c-1.796 1.602-1.457 3.496-1.603 3.981.194 21.896 18.061 39.666 40.006 39.666h368.161c21.945 0 39.811-17.77 39.957-39.666 0-.049 0-.049 0-.097 0-1.408-.534-2.913-1.602-3.884l-56.951-50.833v-70.35c4.03-2.185 6.749-6.409 6.749-11.312v-6.02c10.535-2.622 20.585-6.797 29.955-12.429l4.272 4.321c5.049 5.001 13.255 5.001 18.304 0l19.227-19.275c5.049-5.049 5.049-13.254 0-18.303l-4.273-4.272c5.632-9.37 9.807-19.372 12.429-29.956h6.02c7.137 0 12.963-5.777 12.963-12.914v-27.237c.001-7.138-5.825-12.964-12.962-12.964zm-381.706 56.95c0-7.525 6.117-13.643 13.642-13.643h130.554c1.408 5.632 6.505 9.807 12.525 9.807h6.069c2.573 10.584 6.749 20.586 12.381 29.956l-4.272 4.272c-5.049 5.049-5.049 13.254 0 18.303l19.275 19.275c5.049 5.001 13.254 5.001 18.304 0l4.272-4.321c9.322 5.632 19.372 9.807 29.907 12.429v6.02c0 4.855 2.67 8.982 6.603 11.215v24.13c0 7.525-6.117 13.643-13.594 13.643h-222.023c-7.525 0-13.642-6.117-13.642-13.643v-117.443zm307.618 248.531h-368.161c-15.05 0-27.576-11.021-29.907-25.441h427.974c-2.33 14.42-14.856 25.441-29.906 25.441zm22.382-35.15h-155.411l-11.021-23.353c-.778-1.699-2.476-2.767-4.37-2.767h-71.369c-1.845 0-3.593 1.068-4.369 2.767l-11.021 23.353h-155.412l47.677-42.579h317.619zm54.959-230.131c0 1.796-1.456 3.204-3.253 3.204h-9.905c-2.282 0-4.272 1.651-4.758 3.884-2.525 12.04-7.234 23.45-14.031 33.84-1.262 1.894-.971 4.467.631 6.069l7.04 6.991c1.262 1.262 1.262 3.35 0 4.564l-19.275 19.275c-1.262 1.262-3.301 1.262-4.564 0l-6.991-6.991c-1.651-1.651-4.176-1.894-6.117-.631-10.391 6.748-21.751 11.458-33.792 14.031-2.282.437-3.884 2.428-3.884 4.71v9.904c0 1.796-1.457 3.253-3.204 3.253h-27.236c-1.797 0-3.253-1.457-3.253-3.253v-9.904c0-2.282-1.602-4.272-3.835-4.71-12.041-2.573-23.45-7.283-33.84-14.031-1.894-1.262-4.467-1.02-6.069.631l-7.04 6.991c-1.262 1.262-3.301 1.262-4.563 0l-19.275-19.275c-1.214-1.214-1.214-3.301 0-4.564l7.04-6.991c1.603-1.602 1.894-4.175.632-6.069-6.749-10.39-11.507-21.799-14.032-33.84-.485-2.233-2.476-3.884-4.758-3.884h-9.905c-1.747 0-3.204-1.408-3.204-3.204v-27.237c0-1.796 1.457-3.253 3.204-3.253h9.905c2.282 0 4.273-1.602 4.758-3.836 2.525-12.04 7.283-23.45 14.032-33.84 1.262-1.894.971-4.467-.632-6.069l-7.04-7.04c-1.214-1.214-1.214-3.301 0-4.564l19.275-19.226c1.262-1.262 3.302-1.262 4.563 0l7.04 6.991c1.602 1.651 4.127 1.894 6.069.631 10.39-6.749 21.799-11.507 33.84-14.031 2.233-.437 3.835-2.428 3.835-4.758v-9.904c0-1.748 1.456-3.205 3.253-3.205h27.237c1.748 0 3.204 1.456 3.204 3.205v9.904c0 2.33 1.602 4.321 3.884 4.758 12.041 2.573 23.401 7.283 33.792 14.031 1.942 1.262 4.466 1.02 6.117-.631l6.991-6.991c1.262-1.262 3.301-1.262 4.564 0l19.275 19.226c1.262 1.262 1.262 3.301 0 4.564l-7.04 7.04c-1.602 1.602-1.893 4.175-.631 6.069 6.797 10.39 11.507 21.799 14.031 33.84.486 2.233 2.476 3.836 4.758 3.836h9.905c1.796 0 3.253 1.456 3.253 3.253v27.237z"/><path d="m392.401 434.789h-8.098c-2.684 0-4.855 2.174-4.855 4.855s2.172 4.855 4.855 4.855h8.098c2.684 0 4.855-2.174 4.855-4.855s-2.172-4.855-4.855-4.855z"/><path d="m409.768 434.789c-2.684 0-4.855 2.174-4.855 4.855s2.172 4.855 4.855 4.855h8.098c2.684 0 4.855-2.174 4.855-4.855s-2.172-4.855-4.855-4.855z"/><path d="m344.504 136.609c-1.897-1.897-4.969-1.897-6.865 0l-34.365 34.365c-1.897 1.897-1.897 4.969 0 6.865l34.365 34.365c.948.948 2.19 1.422 3.433 1.422s2.484-.474 3.433-1.422c1.897-1.897 1.897-4.969 0-6.865l-30.932-30.932 30.932-30.932c1.896-1.897 1.896-4.969-.001-6.866z"/><path d="m411.821 143.475 30.932 30.932-30.932 30.932c-1.897 1.897-1.897 4.969 0 6.865.948.948 2.19 1.422 3.433 1.422s2.484-.474 3.433-1.422l34.365-34.365c1.897-1.897 1.897-4.969 0-6.865l-34.365-34.365c-1.897-1.897-4.969-1.897-6.865 0s-1.897 4.969-.001 6.866z"/><path d="m393.117 121.606c-2.56-.735-5.268.763-5.993 3.347l-27.262 96.26c-.73 2.579.768 5.263 3.347 5.993.441.126.887.187 1.328.187 2.115 0 4.063-1.396 4.665-3.535l27.262-96.26c.73-2.579-.768-5.262-3.347-5.992z"/></g></g><g id="Layer_1"/></svg>