<?xml version="1.0" encoding="UTF-8"?>
<!DOCTYPE svg PUBLIC "-//W3C//DTD SVG 1.1//EN" "http://www.w3.org/Graphics/SVG/1.1/DTD/svg11.dtd">
<svg xmlns="http://www.w3.org/2000/svg" version="1.1" width="512px" height="512px" style="shape-rendering:geometricPrecision; text-rendering:geometricPrecision; image-rendering:optimizeQuality; fill-rule:evenodd; clip-rule:evenodd" xmlns:xlink="http://www.w3.org/1999/xlink">
<g><path style="opacity:0.892" fill="#000000" d="M 400.5,3.5 C 440.221,-0.338728 471.721,13.6613 495,45.5C 512.626,76.283 512.959,107.283 496,138.5C 491.123,146.383 485.123,153.383 478,159.5C 469.408,171.007 462.074,183.341 456,196.5C 453.586,203.319 451.919,210.319 451,217.5C 446.885,226.153 440.051,231.32 430.5,233C 420.5,233.667 410.5,233.667 400.5,233C 390.59,231.805 383.756,226.638 380,217.5C 378.196,205.088 374.196,193.421 368,182.5C 363.667,175.833 359.333,169.167 355,162.5C 325.897,137.858 315.564,106.858 324,69.5C 336.804,32.6951 362.304,10.6951 400.5,3.5 Z M 413.5,13.5 C 445.728,14.6897 470.561,28.6897 488,55.5C 505.681,94.1005 498.681,127.434 467,155.5C 458.386,167.722 451.053,180.722 445,194.5C 442.999,201.879 440.999,209.213 439,216.5C 436.374,219.231 433.207,221.064 429.5,222C 420.167,222.667 410.833,222.667 401.5,222C 397.793,221.064 394.626,219.231 392,216.5C 387.259,194.021 377.926,173.688 364,155.5C 333.855,130.921 325.188,100.255 338,63.5C 349.999,38.5071 369.499,22.6738 396.5,16C 402.303,15.1088 407.97,14.2754 413.5,13.5 Z M 394.5,77.5 C 399.906,76.7353 401.906,79.0687 400.5,84.5C 394.723,84.9886 392.723,82.6553 394.5,77.5 Z M 430.5,77.5 C 435.667,76.4919 437.334,78.3252 435.5,83C 433.564,83.813 431.564,84.313 429.5,84.5C 429.298,82.0504 429.631,79.717 430.5,77.5 Z"/></g>
<g><path style="opacity:0.858" fill="#000000" d="M 202.5,48.5 C 206.514,48.3345 210.514,48.5012 214.5,49C 216.478,51.4973 216.978,54.3307 216,57.5C 211.498,59.0664 206.832,60.0664 202,60.5C 196.996,59.5014 195.33,56.5014 197,51.5C 198.719,50.1312 200.552,49.1312 202.5,48.5 Z"/></g>
<g><path style="opacity:0.845" fill="#000000" d="M 229.5,49.5 C 234.696,50.2868 239.696,51.7868 244.5,54C 247.945,61.437 245.611,64.437 237.5,63C 234.5,62 231.5,61 228.5,60C 224.442,56.0274 224.776,52.5274 229.5,49.5 Z"/></g>
<g><path style="opacity:0.864" fill="#000000" d="M 180.5,57.5 C 187,56.4987 189.5,59.1653 188,65.5C 185.5,68 183,70.5 180.5,73C 173.54,76.1132 170.374,73.9466 171,66.5C 174.062,63.2678 177.229,60.2678 180.5,57.5 Z"/></g>
<g><path style="opacity:0.847" fill="#000000" d="M 253.5,65.5 C 256.97,64.8748 259.804,65.8748 262,68.5C 263.667,71.1667 265.333,73.8333 267,76.5C 267.881,82.2859 265.381,84.7859 259.5,84C 255.868,79.8965 252.868,75.3965 250.5,70.5C 251.26,68.6396 252.26,66.973 253.5,65.5 Z"/></g>
<g><path style="opacity:0.913" fill="#000000" d="M 391.5,66.5 C 405.489,64.4929 412.156,70.4929 411.5,84.5C 413.833,84.5 416.167,84.5 418.5,84.5C 418.76,67.5307 426.76,62.364 442.5,69C 449.151,76.7196 449.151,84.3863 442.5,92C 438.454,94.174 434.121,95.0073 429.5,94.5C 429.667,126.502 429.5,158.502 429,190.5C 428.242,192.91 426.575,193.91 424,193.5C 421.966,193.646 420.299,192.98 419,191.5C 418.5,159.168 418.333,126.835 418.5,94.5C 416.167,94.5 413.833,94.5 411.5,94.5C 411.667,126.502 411.5,158.502 411,190.5C 410.242,192.91 408.575,193.91 406,193.5C 403.966,193.646 402.299,192.98 401,191.5C 400.5,159.168 400.333,126.835 400.5,94.5C 384.394,94.2999 379.228,86.6333 385,71.5C 386.965,69.4497 389.132,67.783 391.5,66.5 Z M 394.5,77.5 C 392.723,82.6553 394.723,84.9886 400.5,84.5C 401.906,79.0687 399.906,76.7353 394.5,77.5 Z M 430.5,77.5 C 429.631,79.717 429.298,82.0504 429.5,84.5C 431.564,84.313 433.564,83.813 435.5,83C 437.334,78.3252 435.667,76.4919 430.5,77.5 Z"/></g>
<g><path style="opacity:0.846" fill="#000000" d="M 163.5,80.5 C 167.801,80.1383 170.468,81.9716 171.5,86C 170.334,90.1643 169.168,94.331 168,98.5C 163.239,102.8 159.739,101.967 157.5,96C 158.245,90.2501 160.245,85.0834 163.5,80.5 Z"/></g>
<g><path style="opacity:0.861" fill="#000000" d="M 265.5,92.5 C 270.104,91.3786 272.937,93.0453 274,97.5C 274.667,102.167 274.667,106.833 274,111.5C 268.853,114.454 265.519,113.121 264,107.5C 263.754,104.11 263.254,100.777 262.5,97.5C 263.26,95.6396 264.26,93.973 265.5,92.5 Z"/></g>
<g><path style="opacity:0.862" fill="#000000" d="M 157.5,110.5 C 160.685,110.02 163.519,110.686 166,112.5C 166.988,118.518 166.488,124.351 164.5,130C 161.253,132.138 158.419,131.638 156,128.5C 154.979,122.29 155.479,116.29 157.5,110.5 Z"/></g>
<g><path style="opacity:0.92" fill="#000000" d="M 266.5,122.5 C 269.365,122.055 271.865,122.722 274,124.5C 274.667,130.167 274.667,135.833 274,141.5C 271,144.167 268,144.167 265,141.5C 264.333,135.833 264.333,130.167 265,124.5C 265.717,123.956 266.217,123.289 266.5,122.5 Z"/></g>
<g><path style="opacity:0.895" fill="#000000" d="M 156.5,140.5 C 158.857,140.337 161.19,140.503 163.5,141C 164.723,143.052 165.723,145.219 166.5,147.5C 179.9,156.531 184.067,168.864 179,184.5C 140,280.167 101,375.833 62,471.5C 47.9272,484.118 33.7605,496.618 19.5,509C 14.2835,511.641 11.1169,510.141 10,504.5C 8.40854,485.481 7.07521,466.481 6,447.5C 44.3333,353.167 82.6667,258.833 121,164.5C 126.816,149.485 137.649,142.485 153.5,143.5C 154.855,142.812 155.855,141.812 156.5,140.5 Z M 147.5,153.5 C 153.306,153.9 158.639,155.734 163.5,159C 169.167,164.319 171.001,170.819 169,178.5C 166.559,185.518 163.559,192.184 160,198.5C 148.187,193.961 136.687,188.961 125.5,183.5C 128.375,176.043 131.541,168.71 135,161.5C 138.378,157.406 142.545,154.739 147.5,153.5 Z M 120.5,194.5 C 123.946,194.647 125.446,196.314 125,199.5C 91.2042,282.085 57.7042,364.752 24.5,447.5C 22.3453,447.628 20.3453,447.128 18.5,446C 53.1895,362.428 87.1895,278.595 120.5,194.5 Z M 135.5,201.5 C 137.564,201.687 139.564,202.187 141.5,203C 107.455,286.971 73.122,370.804 38.5,454.5C 35.4679,453.988 34.3013,452.322 35,449.5C 68.9984,366.998 102.498,284.331 135.5,201.5 Z M 151.5,207.5 C 153.117,208.038 154.784,208.371 156.5,208.5C 123.236,293.016 88.9023,377.016 53.5,460.5C 51.9984,459.917 50.6651,459.084 49.5,458C 83.5996,374.533 117.6,291.033 151.5,207.5 Z M 17.5,457.5 C 27.1711,461.669 36.8378,465.836 46.5,470C 38.2968,477.872 29.7968,485.372 21,492.5C 19.2504,480.934 18.0837,469.268 17.5,457.5 Z"/></g>
<g><path style="opacity:0.949" fill="#000000" d="M 266.5,152.5 C 269.365,152.055 271.865,152.722 274,154.5C 274.667,159.833 274.667,165.167 274,170.5C 271,173.167 268,173.167 265,170.5C 264.333,165.167 264.333,159.833 265,154.5C 265.717,153.956 266.217,153.289 266.5,152.5 Z"/></g>
<g><path style="opacity:0.949" fill="#000000" d="M 266.5,182.5 C 269.365,182.055 271.865,182.722 274,184.5C 274.667,189.833 274.667,195.167 274,200.5C 271,203.167 268,203.167 265,200.5C 264.333,195.167 264.333,189.833 265,184.5C 265.717,183.956 266.217,183.289 266.5,182.5 Z"/></g>
<g><path style="opacity:0.919" fill="#000000" d="M 268.5,211.5 C 270.441,211.869 272.275,212.536 274,213.5C 274.667,219.167 274.667,224.833 274,230.5C 271,233.167 268,233.167 265,230.5C 264.333,224.833 264.333,219.167 265,213.5C 266.302,212.915 267.469,212.249 268.5,211.5 Z"/></g>
<g><path style="opacity:0.918" fill="#000000" d="M 392.5,234.5 C 409.165,234.99 425.831,235.49 442.5,236C 445.592,240.118 444.925,243.451 440.5,246C 423.837,246.01 407.17,245.677 390.5,245C 387.46,240.736 388.126,237.236 392.5,234.5 Z"/></g>
<g><path style="opacity:0.91" fill="#000000" d="M 267.5,241.5 C 269.936,241.317 272.103,241.984 274,243.5C 274.667,249.167 274.667,254.833 274,260.5C 271,263.167 268,263.167 265,260.5C 264.333,254.833 264.333,249.167 265,243.5C 265.995,242.934 266.828,242.267 267.5,241.5 Z"/></g>
<g><path style="opacity:0.884" fill="#000000" d="M 396.5,248.5 C 409.837,248.333 423.171,248.5 436.5,249C 439.645,249.441 441.312,251.275 441.5,254.5C 441.368,256.601 440.368,258.101 438.5,259C 423.5,259.667 408.5,259.667 393.5,259C 390.405,254.201 391.405,250.701 396.5,248.5 Z"/></g>
<g><path style="opacity:0.897" fill="#000000" d="M 397.5,263.5 C 409.171,263.333 420.838,263.5 432.5,264C 435.059,267.075 435.059,270.075 432.5,273C 427.964,274.379 423.297,274.879 418.5,274.5C 418.436,278.062 416.603,279.729 413,279.5C 409.672,279.839 407.839,278.339 407.5,275C 403.713,274.84 400.046,274.174 396.5,273C 395.01,269.603 395.344,266.436 397.5,263.5 Z"/></g>
<g><path style="opacity:0.91" fill="#000000" d="M 267.5,271.5 C 269.936,271.317 272.103,271.984 274,273.5C 274.667,279.167 274.667,284.833 274,290.5C 271,293.167 268,293.167 265,290.5C 264.333,284.833 264.333,279.167 265,273.5C 265.995,272.934 266.828,272.267 267.5,271.5 Z"/></g>
<g><path style="opacity:0.949" fill="#000000" d="M 410.5,289.5 C 413.365,289.055 415.865,289.722 418,291.5C 418.667,296.833 418.667,302.167 418,307.5C 415,310.167 412,310.167 409,307.5C 408.333,302.167 408.333,296.833 409,291.5C 409.717,290.956 410.217,290.289 410.5,289.5 Z"/></g>
<g><path style="opacity:0.91" fill="#000000" d="M 267.5,301.5 C 269.936,301.317 272.103,301.984 274,303.5C 274.667,309.167 274.667,314.833 274,320.5C 271,323.167 268,323.167 265,320.5C 264.333,314.833 264.333,309.167 265,303.5C 265.995,302.934 266.828,302.267 267.5,301.5 Z"/></g>
<g><path style="opacity:0.924" fill="#000000" d="M 410.5,319.5 C 413.365,319.055 415.865,319.722 418,321.5C 418.303,325.529 418.803,329.529 419.5,333.5C 417.834,339.693 414.334,341.026 409,337.5C 408.333,332.167 408.333,326.833 409,321.5C 409.717,320.956 410.217,320.289 410.5,319.5 Z"/></g>
<g><path style="opacity:0.848" fill="#000000" d="M 267.5,331.5 C 270.961,331.146 273.461,332.479 275,335.5C 275.418,339.178 275.918,342.845 276.5,346.5C 274.905,352.688 271.405,354.021 266,350.5C 264.616,344.891 264.283,339.225 265,333.5C 265.995,332.934 266.828,332.267 267.5,331.5 Z"/></g>
<g><path style="opacity:0.853" fill="#000000" d="M 411.5,348.5 C 415.642,348.403 417.976,350.403 418.5,354.5C 417.775,358.965 416.608,363.298 415,367.5C 412,370.167 409,370.167 406,367.5C 405.361,362.02 406.028,356.687 408,351.5C 409.145,350.364 410.312,349.364 411.5,348.5 Z"/></g>
<g><path style="opacity:0.854" fill="#000000" d="M 272.5,361.5 C 275.119,361.232 277.619,361.565 280,362.5C 281.932,366.798 283.766,371.132 285.5,375.5C 283.505,381.888 280.005,382.888 275,378.5C 273.002,374.671 271.502,370.671 270.5,366.5C 270.437,364.486 271.103,362.819 272.5,361.5 Z"/></g>
<g><path style="opacity:0.855" fill="#000000" d="M 400.5,377.5 C 405.156,376.34 407.823,378.007 408.5,382.5C 407.051,388.772 403.551,393.439 398,396.5C 392.976,395.457 391.309,392.457 393,387.5C 395.748,384.266 398.248,380.932 400.5,377.5 Z"/></g>
<g><path style="opacity:0.85" fill="#000000" d="M 288.5,386.5 C 290.655,386.372 292.655,386.872 294.5,388C 298.487,391.143 301.487,394.976 303.5,399.5C 302.182,404.078 299.182,405.578 294.5,404C 291.667,401.167 288.833,398.333 286,395.5C 284.927,391.9 285.76,388.9 288.5,386.5 Z"/></g>
<g><path style="opacity:0.855" fill="#000000" d="M 379.5,398.5 C 386.693,397.847 389.193,400.847 387,407.5C 383.73,409.77 380.23,411.604 376.5,413C 369.44,414.271 366.94,411.438 369,404.5C 372.644,402.599 376.144,400.599 379.5,398.5 Z"/></g>
<g><path style="opacity:0.839" fill="#000000" d="M 312.5,403.5 C 317.601,404.143 322.601,405.309 327.5,407C 331.888,412.005 330.888,415.505 324.5,417.5C 320.411,416.637 316.411,415.47 312.5,414C 308.565,410.504 308.565,407.004 312.5,403.5 Z"/></g>
<g><path style="opacity:0.852" fill="#000000" d="M 344.5,407.5 C 348.846,407.334 353.179,407.501 357.5,408C 360.333,411.663 360,414.996 356.5,418C 351.167,418.667 345.833,418.667 340.5,418C 337.287,412.609 338.62,409.109 344.5,407.5 Z"/></g>
</svg>
