<svg id="Layer_1" height="512" viewBox="0 0 512 512" width="512" xmlns="http://www.w3.org/2000/svg" data-name="Layer 1"><path d="m290.548 82.5a115.755 115.755 0 0 0 25.152 2.8 115.773 115.773 0 0 0 25.161-2.8c-1.236-4.3-2.572-8.4-4.029-12.2-6.286-16.3-13.815-26.4-21.132-26.4s-14.851 10.1-21.116 26.4c-1.464 3.8-2.815 7.9-4.036 12.2zm-49.828-24.7a115.214 115.214 0 0 1 54.1-25.6c-7.587 6.9-14.138 17.4-19.281 30.8-1.608 4.2-3.087 8.7-4.444 13.4l-.228-.1a115.8 115.8 0 0 1 -30.147-18.5zm25.717 38.7c-1.15-.4-2.278-.8-3.407-1.3a139 139 0 0 1 -36.712-22.8 115.453 115.453 0 0 0 -26.211 63.7h62.193a273.929 273.929 0 0 1 4.136-39.6zm78.854 6a137.441 137.441 0 0 1 -29.59 3.2 137.422 137.422 0 0 1 -29.582-3.2 257.092 257.092 0 0 0 -3.329 33.6h65.83a257.265 257.265 0 0 0 -3.329-33.6zm59.787-30.1a138.813 138.813 0 0 1 -36.7 22.8c-1.129.5-2.272.9-3.408 1.3a274.635 274.635 0 0 1 4.136 39.6h62.194a115.309 115.309 0 0 0 -26.218-63.7zm-133.978 144-.228.1a115.428 115.428 0 0 0 -30.147 18.4 115.222 115.222 0 0 0 54.1 25.6c-7.587-6.8-14.138-17.4-19.281-30.8-1.608-4.1-3.087-8.6-4.444-13.3zm69.767-6.2a128.1 128.1 0 0 1 -4.029 12.2c-6.287 16.4-13.816 26.5-21.132 26.5s-14.852-10.1-21.117-26.5a122.127 122.127 0 0 1 -4.036-12.2 118.506 118.506 0 0 1 50.314 0zm49.828 24.7a115.483 115.483 0 0 0 -30.154-18.4l-.229-.1c-1.35 4.7-2.836 9.2-4.436 13.3-5.143 13.4-11.687 24-19.288 30.8a115.255 115.255 0 0 0 54.107-25.6zm-25.718-38.7a273.133 273.133 0 0 0 4.136-39.6h62.187a115.626 115.626 0 0 1 -26.218 63.8 136.239 136.239 0 0 0 -36.7-22.8c-1.129-.5-2.272-1-3.408-1.4zm-78.853-6a138.328 138.328 0 0 1 59.172 0 257.314 257.314 0 0 0 3.329-33.6h-65.835a257.142 257.142 0 0 0 3.329 33.6zm-59.8 30.2a115.771 115.771 0 0 1 -26.211-63.8h62.187a272.435 272.435 0 0 0 4.136 39.6c-1.15.4-2.278.9-3.407 1.4a136.423 136.423 0 0 0 -36.712 22.8zm133.989-144c-1.35-4.7-2.836-9.2-4.436-13.4-5.143-13.4-11.687-23.9-19.288-30.8a115.247 115.247 0 0 1 54.101 25.6 115.857 115.857 0 0 1 -30.154 18.5l-.229.1zm58.059 331.6a35.829 35.829 0 1 1 -25.353 10.5 35.663 35.663 0 0 1 25.353-10.5zm-150.934-.1a35.885 35.885 0 1 1 -25.411 10.5 35.827 35.827 0 0 1 25.411-10.5zm184.41-271.8h49.952v.1a12.65 12.65 0 0 1 3.322.5 10.259 10.259 0 0 1 6.315 13l-53.888 155.2a45.714 45.714 0 0 1 -43.5 31h-179.73a4.8 4.8 0 0 1 -1.2.2 23.692 23.692 0 0 0 -14.295 8 23.471 23.471 0 0 0 17.8 38.7h227.348a10.25 10.25 0 0 1 0 20.5h-227.346a44.037 44.037 0 0 1 -43.942-44 43.586 43.586 0 0 1 10.038-27.8 45.707 45.707 0 0 1 -23.711-26.6l-76.024-218.9a25.471 25.471 0 0 0 -9.287-12.6 25.975 25.975 0 0 0 -14.924-4.6h-68.538a10.251 10.251 0 0 1 0-20.5h68.538a45.734 45.734 0 0 1 43.5 31l19.788 57a12.979 12.979 0 0 1 1.965-.2h35.533a80.119 80.119 0 0 0 0 20.5 136.528 136.528 0 0 0 272.287 0 88.64 88.64 0 0 0 -.001-20.5z" fill-rule="evenodd"/></svg>