<?xml version="1.0" standalone="no"?>
<!DOCTYPE svg PUBLIC "-//W3C//DTD SVG 20010904//EN"
 "http://www.w3.org/TR/2001/REC-SVG-20010904/DTD/svg10.dtd">
<svg version="1.0" xmlns="http://www.w3.org/2000/svg"
 width="2000.000000pt" height="2000.000000pt" viewBox="0 0 2000.000000 2000.000000"
 preserveAspectRatio="xMidYMid meet">

<g transform="translate(0.000000,2000.000000) scale(0.100000,-0.100000)"
fill="#000000" stroke="none">
<path d="M7465 16915 c-11 -2 -78 -9 -150 -15 -143 -13 -425 -66 -562 -104
-508 -145 -944 -372 -1338 -700 -253 -211 -416 -387 -654 -711 -153 -209 -347
-594 -448 -890 -57 -169 -133 -475 -133 -537 l0 -28 2552 0 2552 0 291 290
291 290 685 0 684 0 268 268 267 267 695 0 695 0 280 280 280 280 543 3 c298
2 556 0 573 -3 25 -4 35 -14 52 -53 47 -103 143 -178 268 -209 165 -41 344 49
425 213 30 60 32 72 32 164 0 91 -3 105 -32 164 -81 165 -264 255 -431 212
-121 -31 -227 -117 -267 -218 -13 -32 -20 -38 -47 -40 -17 -1 -42 -2 -56 -3
-14 -1 -281 -2 -595 -3 l-570 -2 -270 -270 c-148 -148 -273 -272 -276 -275
-11 -10 -271 -15 -842 -15 l-559 0 -265 -265 -266 -265 -686 0 -686 0 -289
-290 -289 -290 -2144 0 -2145 0 7 33 c37 176 203 531 357 763 529 799 1382
1279 2328 1310 439 15 894 -71 1260 -238 258 -118 429 -221 666 -403 92 -70
390 -365 434 -431 l31 -44 389 0 c262 0 390 3 390 10 0 13 -14 36 -118 190
-516 765 -1322 1310 -2212 1493 -155 32 -188 38 -310 53 -112 13 -604 28 -655
19z m7871 -1085 c125 -122 -14 -319 -172 -244 -53 25 -64 48 -64 135 0 59 4
82 18 98 31 37 73 52 130 48 44 -3 59 -10 88 -37z"/>
<path d="M13444 14841 c-106 -39 -180 -104 -223 -199 l-24 -52 -621 0 -620 0
-260 -261 c-144 -143 -268 -264 -276 -269 -9 -6 -292 -10 -695 -10 l-681 0
-279 -282 -280 -283 -2675 -5 -2675 -5 0 -115 0 -115 2695 -3 c1482 -1 2706 0
2720 3 15 4 141 122 313 293 l287 287 685 0 685 0 267 268 267 267 572 0 571
0 24 -52 c64 -139 228 -231 380 -214 77 9 113 22 176 63 251 165 220 546 -56
671 -76 34 -203 40 -277 13z m179 -225 c132 -56 121 -240 -17 -286 -79 -26
-179 39 -191 123 -18 119 98 210 208 163z"/>
<path d="M11813 13626 c-100 -32 -189 -109 -238 -205 l-25 -51 -607 0 -608 0
-290 -290 -290 -290 -2787 0 -2788 0 0 -36 c0 -20 4 -53 9 -73 6 -20 17 -70
26 -111 22 -103 38 -160 97 -339 238 -733 738 -1391 1389 -1829 336 -226 707
-394 1069 -487 229 -58 299 -72 520 -101 177 -24 635 -24 815 0 229 30 513 92
680 147 57 19 89 31 253 95 194 77 507 245 662 357 402 290 679 565 924 921
90 131 103 150 168 266 135 238 300 623 285 663 -4 12 -92 14 -569 10 l-563
-3 -365 -365 -366 -365 -749 2 -750 3 -28 52 c-37 69 -123 146 -195 174 -78
30 -194 30 -275 -1 -78 -30 -171 -116 -208 -194 -87 -184 -15 -411 161 -505
37 -20 150 -51 185 -51 53 0 159 35 210 70 57 38 89 73 126 139 l26 46 801 5
802 5 368 368 367 367 108 0 c63 0 107 -4 107 -10 0 -16 -54 -111 -132 -231
-266 -408 -611 -731 -1038 -969 -255 -142 -574 -257 -855 -308 -251 -46 -265
-47 -570 -47 -328 1 -412 10 -681 75 -746 182 -1400 666 -1801 1335 -77 128
-161 295 -205 410 -44 112 -88 238 -93 265 l-4 20 2477 0 c1411 0 2483 4 2491
9 8 5 141 135 295 290 l282 281 560 0 559 0 24 -52 c61 -132 196 -218 347
-218 144 0 272 81 345 220 21 40 24 58 24 165 0 112 -2 123 -28 173 -39 75
-106 138 -185 175 -55 26 -81 32 -147 34 -47 2 -97 -3 -122 -11z m187 -240
c60 -28 94 -128 64 -191 -27 -58 -76 -89 -140 -89 -83 0 -142 54 -151 137 -5
38 -1 54 21 91 22 38 35 48 74 60 48 15 88 13 132 -8z m-4540 -1873 c50 -53
60 -107 31 -166 -28 -56 -63 -80 -125 -84 -68 -5 -114 19 -144 78 -28 54 -25
112 8 159 31 44 73 61 139 57 48 -4 58 -8 91 -44z"/>
<path d="M10287 10782 c-152 -153 -277 -282 -277 -287 0 -5 64 -75 143 -155
78 -80 150 -160 159 -178 l17 -33 38 20 c121 61 305 222 408 356 61 80 145
221 145 245 0 9 -17 26 -37 38 -21 11 -94 77 -163 146 -69 70 -132 126 -140
126 -9 0 -140 -125 -293 -278z"/>
<path d="M10959 10703 c-85 -198 -355 -483 -562 -594 -32 -17 -61 -37 -64 -45
-12 -32 28 -82 202 -253 101 -98 191 -193 200 -211 9 -18 19 -58 21 -89 8 -87
12 -101 34 -101 28 0 189 73 267 121 133 83 294 228 362 326 14 21 33 45 41
55 56 63 179 322 183 386 2 26 1 27 -68 33 -38 3 -83 13 -100 21 -16 9 -109
96 -205 193 -96 97 -187 183 -202 191 -15 8 -41 14 -58 14 -27 0 -33 -5 -51
-47z"/>
<path d="M11679 10233 c-96 -294 -318 -570 -594 -743 -72 -45 -250 -130 -272
-130 -38 0 4 -53 177 -226 105 -104 197 -190 204 -192 32 -7 274 138 406 244
70 56 247 234 297 299 94 123 243 379 243 419 0 16 -331 347 -379 378 -46 31
-57 24 -82 -49z"/>
<path d="M12151 9764 c-128 -218 -282 -409 -465 -576 -119 -108 -283 -233
-378 -286 -26 -15 -48 -34 -48 -43 0 -9 16 -36 35 -60 19 -24 88 -114 155
-199 66 -85 148 -191 182 -235 230 -296 471 -592 757 -930 241 -286 322 -378
580 -659 322 -351 787 -803 1051 -1022 189 -157 437 -333 635 -451 221 -133
278 -153 447 -160 146 -6 192 4 322 70 197 101 412 386 437 579 24 186 -16
325 -182 632 -116 215 -177 304 -417 609 -34 42 -137 165 -202 241 -210 242
-663 708 -900 924 -63 58 -171 157 -240 221 -167 154 -386 350 -549 491 -266
229 -310 266 -417 356 -60 51 -138 116 -173 145 -35 30 -94 79 -131 109 -37
30 -120 100 -185 155 -183 155 -233 195 -243 195 -6 0 -38 -48 -71 -106z m414
-559 c205 -144 627 -481 819 -655 34 -30 108 -96 166 -145 140 -120 757 -736
906 -904 316 -356 528 -617 708 -871 49 -69 93 -131 99 -137 5 -7 7 -13 4 -13
-3 0 -61 62 -129 138 -67 75 -157 173 -198 218 -41 44 -124 134 -185 199 -466
505 -1200 1229 -1840 1815 -39 36 -98 90 -131 120 -33 30 -100 91 -148 135
-141 127 -215 201 -176 173 19 -13 67 -46 105 -73z"/>
<path d="M4780 6581 c-290 -31 -514 -186 -589 -409 -30 -89 -30 -297 0 -377
80 -214 256 -333 689 -465 288 -88 315 -97 357 -124 45 -29 66 -70 66 -130 0
-124 -86 -183 -283 -193 -235 -12 -361 67 -404 254 -8 36 -17 67 -20 71 -4 3
-110 7 -237 8 -191 2 -231 0 -236 -12 -6 -16 20 -166 42 -237 46 -153 169
-302 306 -369 40 -20 112 -47 159 -60 78 -21 105 -23 315 -23 241 0 289 6 429
55 199 68 349 216 402 395 27 93 23 250 -8 341 -44 126 -121 220 -227 280 -64
36 -240 103 -426 164 -309 101 -417 157 -456 237 -19 39 -20 50 -10 83 12 42
64 93 120 119 27 12 67 16 161 16 120 -1 127 -2 179 -30 65 -36 106 -88 128
-164 8 -31 19 -58 23 -61 5 -3 111 -5 237 -5 l228 0 3 34 c2 18 -4 68 -13 110
-52 233 -218 397 -475 470 -85 24 -327 36 -460 22z"/>
<path d="M8690 6580 c-318 -29 -582 -208 -725 -490 -35 -69 -58 -141 -84 -257
-27 -120 -30 -430 -5 -551 66 -330 250 -575 516 -688 142 -61 212 -75 394 -81
103 -3 204 -1 254 6 110 15 260 67 352 122 142 86 278 239 346 389 42 95 49
115 74 215 19 79 21 117 21 305 0 237 -12 314 -74 470 -88 219 -282 415 -496
499 -143 56 -365 80 -573 61z m300 -428 c221 -69 333 -274 332 -607 0 -123
-18 -242 -49 -324 -23 -65 -95 -171 -138 -204 -84 -67 -219 -104 -335 -93
-280 27 -431 243 -431 616 -1 411 162 628 471 629 64 1 113 -5 150 -17z"/>
<path d="M6097 6533 c-12 -11 -8 -1932 3 -1954 10 -19 30 -19 770 -19 l760 0
0 200 0 200 -502 0 c-277 0 -509 4 -516 8 -9 7 -12 56 -10 213 l3 204 448 3
c346 2 449 5 452 15 8 26 12 356 4 369 -7 10 -97 13 -451 15 -244 1 -446 2
-450 2 -5 1 -8 77 -8 170 0 148 2 170 17 175 9 4 226 6 482 6 256 0 474 0 484
0 16 0 17 14 15 198 l-3 197 -746 3 c-410 1 -749 -1 -752 -5z"/>
</g>
</svg>
