<?xml version="1.0" encoding="UTF-8"?>
<!DOCTYPE svg PUBLIC "-//W3C//DTD SVG 1.1//EN" "http://www.w3.org/Graphics/SVG/1.1/DTD/svg11.dtd">
<svg xmlns="http://www.w3.org/2000/svg" version="1.1" width="512px" height="512px" style="shape-rendering:geometricPrecision; text-rendering:geometricPrecision; image-rendering:optimizeQuality; fill-rule:evenodd; clip-rule:evenodd" xmlns:xlink="http://www.w3.org/1999/xlink">
<g><path style="opacity:0.909" fill="#020506" d="M 433.5,104.5 C 464.932,105.766 479.766,122.099 478,153.5C 476.836,157.927 474.502,158.927 471,156.5C 473.099,125.266 458.599,110.766 427.5,113C 425.675,111.534 425.175,109.701 426,107.5C 428.48,106.188 430.98,105.188 433.5,104.5 Z"/></g>
<g><path style="opacity:0.883" fill="#020506" d="M 431.5,119.5 C 450.768,117.775 461.768,126.442 464.5,145.5C 464.694,150.767 462.861,155.101 459,158.5C 454.585,157.016 453.585,154.349 456,150.5C 457.99,137.841 452.823,130.007 440.5,127C 436.761,126.681 433.094,127.181 429.5,128.5C 425.823,127.792 424.823,125.792 426.5,122.5C 428.145,121.304 429.811,120.304 431.5,119.5 Z"/></g>
<g><path style="opacity:0.953" fill="#020203" d="M 353.5,127.5 C 393.24,125.943 421.073,143.276 437,179.5C 448.184,219.453 437.018,251.453 403.5,275.5C 407.818,280.319 412.318,284.985 417,289.5C 417.432,290.6 416.932,291.267 415.5,291.5C 395.398,289.489 375.398,286.822 355.5,283.5C 370.329,270.841 385.329,258.341 400.5,246C 401.332,245.312 401.998,245.479 402.5,246.5C 401.339,251.115 400.839,255.782 401,260.5C 425.369,237.489 430.369,210.823 416,180.5C 396.789,152.232 370.956,143.732 338.5,155C 322.884,162.115 311.884,173.615 305.5,189.5C 303.425,184.766 301.258,180.099 299,175.5C 295.333,179.167 291.667,182.833 288,186.5C 294.002,162.147 308.502,144.647 331.5,134C 338.77,131.188 346.104,129.021 353.5,127.5 Z M 346.5,184.5 C 348.657,185.053 348.49,186.053 346,187.5C 345.53,186.423 345.697,185.423 346.5,184.5 Z"/></g>
<g><path style="opacity:0.969" fill="#020203" d="M 75.5,129.5 C 85.8829,129.162 96.2163,129.662 106.5,131C 128.383,136.718 139.717,150.884 140.5,173.5C 130.842,174.029 121.175,174.362 111.5,174.5C 110.109,161.609 102.942,154.609 90,153.5C 85.92,154.3 81.7533,154.8 77.5,155C 67.6681,157.207 63.8348,163.041 66,172.5C 67.5,174 69,175.5 70.5,177C 87.4518,182.821 104.452,188.488 121.5,194C 139.503,203.84 147.003,219.007 144,239.5C 139.642,260.523 126.809,272.689 105.5,276C 92.0238,278.276 78.6905,277.609 65.5,274C 44.8253,265.52 33.8253,250.02 32.5,227.5C 41.4275,226.947 50.2609,225.947 59,224.5C 63.7559,246.472 77.2559,255.305 99.5,251C 111.931,247.91 117.098,240.077 115,227.5C 111.857,222.503 107.357,219.336 101.5,218C 85.9125,214.688 70.9125,209.688 56.5,203C 37.2875,188.951 32.7875,171.117 43,149.5C 51.1337,138.354 61.967,131.688 75.5,129.5 Z"/></g>
<g><path style="opacity:0.963" fill="#020203" d="M 167.5,131.5 C 201.168,131.333 234.835,131.5 268.5,132C 269.482,140.081 269.816,148.248 269.5,156.5C 244.833,156.5 220.167,156.5 195.5,156.5C 195.5,166.833 195.5,177.167 195.5,187.5C 218.5,187.5 241.5,187.5 264.5,187.5C 264.816,195.752 264.482,203.919 263.5,212C 240.836,212.5 218.169,212.667 195.5,212.5C 195.5,224.833 195.5,237.167 195.5,249.5C 220.833,249.5 246.167,249.5 271.5,249.5C 271.5,257.833 271.5,266.167 271.5,274.5C 236.833,274.5 202.167,274.5 167.5,274.5C 167.5,226.833 167.5,179.167 167.5,131.5 Z"/></g>
<g><path style="opacity:0.942" fill="#020506" d="M 433.5,137.5 C 442.495,136.663 446.661,140.663 446,149.5C 443.367,154.732 439.201,156.565 433.5,155C 425.649,149.19 425.649,143.356 433.5,137.5 Z"/></g>
<g><path style="opacity:0.677" fill="#040405" d="M 357.5,168.5 C 385.214,168.054 401.714,181.388 407,208.5C 407.211,234.296 394.711,250.13 369.5,256C 342.208,257.041 325.708,244.207 320,217.5C 319.511,191.163 332.011,174.829 357.5,168.5 Z M 347.5,176.5 C 344.674,180.144 342.34,184.144 340.5,188.5C 335.57,190.88 331.07,193.88 327,197.5C 330.531,187.467 337.364,180.467 347.5,176.5 Z M 346.5,184.5 C 345.697,185.423 345.53,186.423 346,187.5C 348.49,186.053 348.657,185.053 346.5,184.5 Z M 343.5,191.5 C 344.873,191.343 346.207,191.51 347.5,192C 346.635,196.239 344.635,199.739 341.5,202.5C 341.316,198.856 341.982,195.189 343.5,191.5 Z M 336.5,194.5 C 337.376,194.369 338.043,194.702 338.5,195.5C 337.518,198.096 336.851,200.762 336.5,203.5C 332.834,203.958 329.334,204.958 326,206.5C 325.685,205.092 326.018,203.759 327,202.5C 330.145,199.696 333.312,197.03 336.5,194.5 Z M 340.5,206.5 C 341.376,206.369 342.043,206.702 342.5,207.5C 340.192,208.873 339.525,208.54 340.5,206.5 Z M 333.5,207.5 C 334.552,207.351 335.552,207.517 336.5,208C 335.167,211 335.167,214 336.5,217C 331.635,217.196 327.302,215.696 323.5,212.5C 326.653,210.45 329.986,208.784 333.5,207.5 Z M 339.5,209.5 C 340.117,209.611 340.617,209.944 341,210.5C 341.667,213.167 341.667,215.833 341,218.5C 340.5,218 340,217.5 339.5,217C 339.737,214.712 339.737,212.212 339.5,209.5 Z M 392.5,216.5 C 391.923,217.773 391.257,217.773 390.5,216.5C 390.97,215.537 391.637,215.537 392.5,216.5 Z M 324.5,219.5 C 324.56,218.957 324.893,218.624 325.5,218.5C 328.762,219.752 332.095,220.752 335.5,221.5C 337.324,224.44 337.991,227.44 337.5,230.5C 332.216,227.877 327.883,224.211 324.5,219.5 Z M 390.5,224.5 C 390.833,223.833 391.167,223.167 391.5,222.5C 392.151,221.909 392.818,221.243 393.5,220.5C 394.564,223.064 393.564,224.397 390.5,224.5 Z M 327.5,228.5 C 331.055,231.199 334.889,233.532 339,235.5C 340.193,239.261 341.193,242.927 342,246.5C 335.093,242.1 330.259,236.1 327.5,228.5 Z M 375.5,240.5 C 375.5,240.833 375.5,241.167 375.5,241.5C 374.133,242.853 373.133,242.519 372.5,240.5C 373.425,239.438 374.425,239.438 375.5,240.5 Z"/></g>
<g><path style="opacity:0.935" fill="#020203" d="M 297.5,179.5 C 303.482,193.935 308.816,208.768 313.5,224C 313.167,224.5 312.833,225 312.5,225.5C 309.167,223.833 305.833,222.167 302.5,220.5C 305.5,249.456 319.5,271.79 344.5,287.5C 317.947,280.807 299.447,264.474 289,238.5C 286.426,231.723 284.926,224.723 284.5,217.5C 278.773,218.177 273.106,219.177 267.5,220.5C 267.167,220.167 266.833,219.833 266.5,219.5C 276.857,206.148 287.191,192.815 297.5,179.5 Z"/></g>
<g><path style="opacity:0.924" fill="#020505" d="M 434.5,266.5 C 436.57,266.449 438.403,267.115 440,268.5C 442.159,265.94 444.326,265.94 446.5,268.5C 446.167,269.167 445.833,269.833 445.5,270.5C 450.672,271.364 451.672,273.864 448.5,278C 449.022,278.95 449.689,279.784 450.5,280.5C 449.073,282.718 447.073,284.218 444.5,285C 445.362,287.734 446.195,287.901 447,285.5C 448.734,286.249 450.567,286.749 452.5,287C 451.892,289.184 452.559,291.184 454.5,293C 456.367,293.711 457.867,293.211 459,291.5C 460.878,293.043 462.378,294.876 463.5,297C 462.101,298.062 461.101,299.395 460.5,301C 461.549,303.417 463.215,305.25 465.5,306.5C 464.691,308.071 464.357,309.738 464.5,311.5C 461.675,311.162 459.508,312.162 458,314.5C 457.667,316.047 458.167,317.38 459.5,318.5C 458.055,320.063 456.389,321.396 454.5,322.5C 453.369,321.249 452.036,320.249 450.5,319.5C 447.508,319.809 446.175,321.476 446.5,324.5C 444.194,324.007 441.861,323.674 439.5,323.5C 440.093,320.404 439.093,318.071 436.5,316.5C 434.608,319.044 432.775,319.044 431,316.5C 430,318.167 428.667,319.5 427,320.5C 427.763,324.207 426.263,325.207 422.5,323.5C 421.201,324.09 420.368,325.09 420,326.5C 418.933,325.809 417.766,325.309 416.5,325C 417.833,324.333 417.833,323.667 416.5,323C 415.551,322.383 414.718,322.549 414,323.5C 411.048,321.807 410.882,319.974 413.5,318C 409.748,315.572 410.081,313.405 414.5,311.5C 414.167,310.833 413.833,310.167 413.5,309.5C 416.309,308.573 419.142,307.573 422,306.5C 424.024,306.8 424.524,307.633 423.5,309C 424.325,310.688 425.325,310.855 426.5,309.5C 427.814,310.313 428.981,311.313 430,312.5C 432.687,310.726 432.853,308.559 430.5,306C 429.552,305.517 428.552,305.351 427.5,305.5C 426.14,300.25 428.14,297.583 433.5,297.5C 434.953,295.356 434.62,293.523 432.5,292C 433.833,291 435.167,290 436.5,289C 435.167,288 433.833,287 432.5,286C 433.667,283.167 432.833,282.333 430,283.5C 427.877,281.143 428.044,278.976 430.5,277C 427.716,274.602 427.883,272.435 431,270.5C 432,271.833 433,271.833 434,270.5C 433.645,269.041 433.811,267.707 434.5,266.5 Z"/></g>
<g><path style="opacity:1" fill="#040506" d="M 66.5,296.5 C 173.834,296.333 281.167,296.5 388.5,297C 399.084,298.918 404.751,305.251 405.5,316C 404.408,325.76 399.074,331.76 389.5,334C 281.167,334.667 172.833,334.667 64.5,334C 50.4694,328.926 46.3028,319.426 52,305.5C 55.7678,300.545 60.6011,297.545 66.5,296.5 Z M 236.5,299.5 C 287.168,299.333 337.834,299.5 388.5,300C 391.726,301.198 394.559,303.031 397,305.5C 403.167,318.349 399.001,326.849 384.5,331C 335.168,331.5 285.834,331.667 236.5,331.5C 236.5,320.833 236.5,310.167 236.5,299.5 Z"/></g>
<g><path style="opacity:0.006" fill="#070807" d="M 176.5,342.5 C 180.182,342.335 183.848,342.501 187.5,343C 183.46,343.909 179.46,344.909 175.5,346C 172.473,348.503 170.64,351.67 170,355.5C 168.795,354.929 167.628,354.262 166.5,353.5C 168.154,348.185 171.487,344.518 176.5,342.5 Z"/></g>
<g><path style="opacity:0.651" fill="#34465a" d="M 181.5,348.5 C 182.117,348.611 182.617,348.944 183,349.5C 183.498,352.817 183.665,356.15 183.5,359.5C 185.5,359.5 187.5,359.5 189.5,359.5C 189.104,356.956 189.771,354.789 191.5,353C 195.404,353.135 199.238,352.968 203,352.5C 204.716,352.748 206.216,353.415 207.5,354.5C 209.868,352.777 212.534,352.11 215.5,352.5C 215.238,351.022 215.571,349.689 216.5,348.5C 217.833,353.167 217.833,357.833 216.5,362.5C 214.328,362.324 211.995,362.157 209.5,362C 208.324,360.086 207.324,360.252 206.5,362.5C 202.603,362.141 198.603,362.141 194.5,362.5C 192.626,362.61 191.126,361.944 190,360.5C 187.544,362.321 184.711,362.988 181.5,362.5C 181.5,357.833 181.5,353.167 181.5,348.5 Z M 192.5,354.5 C 194.103,354.312 195.437,354.812 196.5,356C 194.537,356.844 193.204,356.344 192.5,354.5 Z M 201.5,354.5 C 205.221,354.793 205.055,355.459 201,356.5C 200.5,356.333 200,356.167 199.5,356C 200.416,355.722 201.082,355.222 201.5,354.5 Z M 210.5,354.5 C 214.023,354.188 215.356,355.521 214.5,358.5C 210.146,360.146 208.813,358.813 210.5,354.5 Z M 203.5,357.5 C 204.737,358.743 204.404,359.743 202.5,360.5C 202.167,360.167 201.833,359.833 201.5,359.5C 202.243,358.818 202.909,358.151 203.5,357.5 Z M 192.5,359.5 C 193.601,358.402 194.934,358.235 196.5,359C 195.436,360.511 194.103,360.677 192.5,359.5 Z"/></g>
<g><path style="opacity:0.606" fill="#34465a" d="M 224.5,348.5 C 227.798,348.016 230.464,349.016 232.5,351.5C 232.192,352.308 231.692,352.975 231,353.5C 224.929,349.79 222.596,351.457 224,358.5C 226.317,361.182 228.484,361.015 230.5,358C 229.062,357.781 227.729,357.281 226.5,356.5C 228.396,355.534 230.396,355.201 232.5,355.5C 232.808,357.924 232.474,360.257 231.5,362.5C 228.998,362.379 226.332,362.212 223.5,362C 219.305,357.044 219.639,352.544 224.5,348.5 Z"/></g>
<g><path style="opacity:0.418" fill="#34465a" d="M 283.5,348.5 C 285.973,348.947 286.14,349.947 284,351.5C 282.272,350.648 282.105,349.648 283.5,348.5 Z"/></g>
<g><path style="opacity:0.639" fill="#34465a" d="M 276.5,354.5 C 276.795,352.577 277.628,350.91 279,349.5C 279.483,350.448 279.649,351.448 279.5,352.5C 283.5,353.167 283.5,353.833 279.5,354.5C 279.34,356.199 279.506,357.866 280,359.5C 281,359.833 282,360.167 283,360.5C 283.182,357.774 283.682,355.107 284.5,352.5C 285.192,353.025 285.692,353.692 286,354.5C 289.042,351.918 292.042,351.918 295,354.5C 297.804,352.656 300.97,351.989 304.5,352.5C 304.827,354.488 305.16,356.488 305.5,358.5C 305.658,360.319 304.991,361.652 303.5,362.5C 301.5,351.833 299.5,351.833 297.5,362.5C 296.522,362.023 295.689,361.357 295,360.5C 292,363.167 289,363.167 286,360.5C 285.692,361.308 285.192,361.975 284.5,362.5C 282.657,362.245 280.657,362.078 278.5,362C 277.877,359.393 277.21,356.893 276.5,354.5 Z M 289.5,354.5 C 292.764,354.726 293.764,356.226 292.5,359C 287.522,359.864 286.522,358.364 289.5,354.5 Z"/></g>
<g><path style="opacity:0.63" fill="#34465a" d="M 276.5,354.5 C 276.813,357.247 276.48,359.914 275.5,362.5C 273.071,362.579 270.571,362.245 268,361.5C 267.333,360.167 267.333,358.833 268,357.5C 269.816,356.671 271.649,355.837 273.5,355C 273,354.833 272.5,354.667 272,354.5C 269.823,355.523 267.656,355.69 265.5,355C 264.88,357.473 264.214,359.973 263.5,362.5C 260.604,362.293 257.604,362.127 254.5,362C 253.181,360.372 251.848,360.539 250.5,362.5C 248.5,351.833 246.5,351.833 244.5,362.5C 242.596,361.74 240.596,361.74 238.5,362.5C 233.849,361.807 232.349,359.141 234,354.5C 234.5,354 235,353.5 235.5,353C 240.677,353.049 246.01,352.882 251.5,352.5C 251.351,353.552 251.517,354.552 252,355.5C 253.255,353.406 255.088,352.406 257.5,352.5C 261.018,353.045 264.684,353.045 268.5,352.5C 271.441,352.621 274.108,353.287 276.5,354.5 Z M 236.5,354.5 C 238.103,354.312 239.437,354.812 240.5,356C 238.537,356.844 237.204,356.344 236.5,354.5 Z M 255.5,354.5 C 257.103,354.312 258.437,354.812 259.5,356C 257.537,356.844 256.204,356.344 255.5,354.5 Z M 272.5,357.5 C 273.737,358.743 273.404,359.743 271.5,360.5C 271.167,360.167 270.833,359.833 270.5,359.5C 271.243,358.818 271.909,358.151 272.5,357.5 Z M 236.5,359.5 C 237.601,358.402 238.934,358.235 240.5,359C 239.436,360.511 238.103,360.677 236.5,359.5 Z M 255.5,359.5 C 256.601,358.402 257.934,358.235 259.5,359C 258.436,360.511 257.103,360.677 255.5,359.5 Z"/></g>
<g><path style="opacity:0.027" fill="#040405" d="M 264.5,372.5 C 265.251,371.427 266.251,371.26 267.5,372C 266.552,372.483 265.552,372.649 264.5,372.5 Z"/></g>
</svg>
