<?xml version="1.0" encoding="UTF-8"?>
<!DOCTYPE svg PUBLIC "-//W3C//DTD SVG 1.1//EN" "http://www.w3.org/Graphics/SVG/1.1/DTD/svg11.dtd">
<svg xmlns="http://www.w3.org/2000/svg" version="1.1" width="512px" height="512px" style="shape-rendering:geometricPrecision; text-rendering:geometricPrecision; image-rendering:optimizeQuality; fill-rule:evenodd; clip-rule:evenodd" xmlns:xlink="http://www.w3.org/1999/xlink">
<g><path style="opacity:0.941" fill="#000000" d="M 129.5,77.5 C 213.834,77.3333 298.167,77.5 382.5,78C 392.667,81.5 399.5,88.3333 403,98.5C 403.667,163.5 403.667,228.5 403,293.5C 399.099,304.401 391.599,311.568 380.5,315C 297.833,315.667 215.167,315.667 132.5,315C 120.834,312 113.001,304.833 109,293.5C 108.333,228.5 108.333,163.5 109,98.5C 112.685,88.3158 119.519,81.3158 129.5,77.5 Z M 134.5,88.5 C 215.501,88.3333 296.501,88.5 377.5,89C 385.22,90.3858 390.053,94.8858 392,102.5C 392.5,157.832 392.667,213.166 392.5,268.5C 382.833,268.5 373.167,268.5 363.5,268.5C 363.5,258.167 363.5,247.833 363.5,237.5C 367.182,237.665 370.848,237.499 374.5,237C 376.049,235.786 377.215,234.286 378,232.5C 378.888,218.459 378.554,204.459 377,190.5C 373.434,181.268 366.934,175.101 357.5,172C 363.694,156.58 359.027,145.914 343.5,140C 332.079,138.626 323.913,143.126 319,153.5C 316.817,159.718 317.317,165.718 320.5,171.5C 320.291,172.086 319.957,172.586 319.5,173C 305.833,174.667 292.167,176.333 278.5,178C 276.579,178.36 274.912,179.194 273.5,180.5C 272.368,187.783 272.201,195.117 273,202.5C 275.653,204.941 278.82,205.941 282.5,205.5C 293.183,204.893 303.849,204.227 314.5,203.5C 314.5,225.167 314.5,246.833 314.5,268.5C 249.5,268.5 184.5,268.5 119.5,268.5C 119.333,213.166 119.5,157.832 120,102.5C 122.124,94.8739 126.957,90.2072 134.5,88.5 Z M 335.5,151.5 C 345.821,150.655 349.987,155.321 348,165.5C 345.058,170.153 340.891,171.653 335.5,170C 330.268,167.367 328.435,163.201 330,157.5C 331.36,154.977 333.193,152.977 335.5,151.5 Z M 200.5,176.5 C 213.043,178.919 216.543,185.919 211,197.5C 204.054,203.049 197.387,202.716 191,196.5C 186.988,186.194 190.155,179.528 200.5,176.5 Z M 324.5,183.5 C 334.839,183.334 345.172,183.5 355.5,184C 361.026,185.526 364.526,189.026 366,194.5C 366.5,204.828 366.666,215.161 366.5,225.5C 365.5,225.5 364.5,225.5 363.5,225.5C 363.666,217.826 363.5,210.159 363,202.5C 358.837,198.253 355.171,198.586 352,203.5C 351.5,225.164 351.333,246.831 351.5,268.5C 349.167,268.5 346.833,268.5 344.5,268.5C 344.666,258.494 344.5,248.494 344,238.5C 339.54,234.313 335.873,234.98 333,240.5C 332.5,249.827 332.334,259.161 332.5,268.5C 330.167,268.5 327.833,268.5 325.5,268.5C 325.667,243.831 325.5,219.164 325,194.5C 323.278,192.556 321.111,191.556 318.5,191.5C 306.85,192.42 295.183,193.087 283.5,193.5C 283.286,191.856 283.62,190.356 284.5,189C 298.033,187.566 311.367,185.733 324.5,183.5 Z"/></g>
<g><path style="opacity:0.835" fill="#000000" d="M 136.5,99.5 C 143.921,99.1095 151.254,99.6095 158.5,101C 162.5,104.333 162.5,107.667 158.5,111C 150.5,111.667 142.5,111.667 134.5,111C 130.624,109.04 129.791,106.207 132,102.5C 133.409,101.219 134.909,100.219 136.5,99.5 Z"/></g>
<g><path style="opacity:0.832" fill="#000000" d="M 256.5,99.5 C 263.257,99.1226 269.924,99.6226 276.5,101C 280.372,104.641 280.038,107.974 275.5,111C 268.167,111.667 260.833,111.667 253.5,111C 248.983,105.758 249.983,101.925 256.5,99.5 Z"/></g>
<g><path style="opacity:0.829" fill="#000000" d="M 286.5,99.5 C 293.589,99.1156 300.589,99.6156 307.5,101C 311.544,104.671 311.211,108.004 306.5,111C 299.167,111.667 291.833,111.667 284.5,111C 280.057,106.154 280.724,102.32 286.5,99.5 Z"/></g>
<g><path style="opacity:0.832" fill="#000000" d="M 317.5,99.5 C 324.589,99.1156 331.589,99.6156 338.5,101C 341.343,104.619 341.01,107.952 337.5,111C 330.167,111.667 322.833,111.667 315.5,111C 311.064,106.109 311.731,102.275 317.5,99.5 Z"/></g>
<g><path style="opacity:0.83" fill="#000000" d="M 348.5,99.5 C 355.589,99.1156 362.589,99.6156 369.5,101C 372.343,104.619 372.01,107.952 368.5,111C 361.167,111.667 353.833,111.667 346.5,111C 342.064,106.109 342.731,102.275 348.5,99.5 Z"/></g>
<g><path style="opacity:0.881" fill="#000000" d="M 190.5,125.5 C 213.128,122.981 232.461,129.647 248.5,145.5C 252.397,142.518 255.897,142.852 259,146.5C 259.92,153.276 259.586,159.943 258,166.5C 255.757,168.282 253.257,168.782 250.5,168C 246.833,165.667 243.167,163.333 239.5,161C 237.586,159.587 236.253,157.753 235.5,155.5C 236.64,153.922 237.14,152.256 237,150.5C 217.618,134.923 196.784,132.757 174.5,144C 155.676,157.157 147.176,175.323 149,198.5C 144.927,202.619 141.26,202.285 138,197.5C 136.909,159.78 154.409,135.78 190.5,125.5 Z"/></g>
<g><path style="opacity:0.944" fill="#000000" d="M 192.5,144.5 C 198.176,144.334 203.843,144.501 209.5,145C 212.677,146.849 214.177,149.682 214,153.5C 215.194,154.43 216.527,155.097 218,155.5C 220.048,153.947 222.215,152.614 224.5,151.5C 230.957,154.79 235.957,159.623 239.5,166C 238.566,168.591 237.233,170.924 235.5,173C 236.148,174.44 236.481,175.94 236.5,177.5C 244.943,176.999 248.276,180.999 246.5,189.5C 247.861,197.469 244.527,201.469 236.5,201.5C 236.481,203.06 236.148,204.56 235.5,206C 237.233,208.076 238.566,210.409 239.5,213C 236,219.167 231.167,224 225,227.5C 222.361,226.346 219.861,225.012 217.5,223.5C 216.446,223.68 215.446,224.013 214.5,224.5C 214.321,228.529 212.654,231.695 209.5,234C 204.167,234.667 198.833,234.667 193.5,234C 192.584,233.626 191.75,233.126 191,232.5C 190.061,229.879 189.228,227.212 188.5,224.5C 186.902,223.515 185.235,223.349 183.5,224C 180.338,227.635 177.005,227.968 173.5,225C 169.964,221.799 166.797,218.299 164,214.5C 163.333,213.5 163.333,212.5 164,211.5C 169.581,205.012 168.081,201.178 159.5,200C 158.667,199.167 157.833,198.333 157,197.5C 156.333,192.167 156.333,186.833 157,181.5C 159.15,178.037 162.316,176.704 166.5,177.5C 166.519,175.94 166.852,174.44 167.5,173C 165.767,170.924 164.434,168.591 163.5,166C 166.774,160.391 171.108,155.724 176.5,152C 177.833,151.333 179.167,151.333 180.5,152C 182.519,155.566 185.185,156.232 188.5,154C 189.034,150.473 190.368,147.306 192.5,144.5 Z M 200.5,176.5 C 190.155,179.528 186.988,186.194 191,196.5C 197.387,202.716 204.054,203.049 211,197.5C 216.543,185.919 213.043,178.919 200.5,176.5 Z"/></g>
<g><path style="opacity:0.876" fill="#000000" d="M 256.5,177.5 C 260.49,176.616 263.323,177.949 265,181.5C 267.144,212.055 254.644,234.222 227.5,248C 199.601,258.658 175.101,253.491 154,232.5C 150.277,236.311 146.944,235.977 144,231.5C 143.333,225.833 143.333,220.167 144,214.5C 145.033,211.967 146.867,210.301 149.5,209.5C 154.628,212.133 159.628,214.967 164.5,218C 166.01,219.351 167.01,221.018 167.5,223C 166.496,224.798 165.996,226.632 166,228.5C 182.664,241.964 201.164,245.131 221.5,238C 245.111,226.297 255.945,207.13 254,180.5C 255.045,179.627 255.878,178.627 256.5,177.5 Z"/></g>
<g><path style="opacity:0.941" fill="#000000" d="M 139.5,327.5 C 165.265,328.092 176.432,341.092 173,366.5C 171.046,372.454 167.546,377.288 162.5,381C 176.276,387.109 186.442,396.943 193,410.5C 196.341,419.978 193.841,427.478 185.5,433C 159.229,434.64 132.896,434.973 106.5,434C 96.4105,429.652 92.9105,422.152 96,411.5C 102.141,397.359 112.308,387.192 126.5,381C 110.042,363.928 110.709,347.595 128.5,332C 132.157,330.178 135.824,328.678 139.5,327.5 Z M 141.5,335.5 C 157.643,336.142 165.81,344.475 166,360.5C 161.414,376.046 151.247,381.546 135.5,377C 123.733,370.269 120.233,360.436 125,347.5C 128.75,340.893 134.25,336.893 141.5,335.5 Z"/></g>
<g><path style="opacity:0.94" fill="#000000" d="M 250.5,327.5 C 274.956,327.788 286.456,340.122 285,364.5C 283.078,371.408 279.245,376.908 273.5,381C 287.975,387.475 298.475,397.975 305,412.5C 307.242,422.515 303.742,429.682 294.5,434C 268.833,434.667 243.167,434.667 217.5,434C 204.395,426.318 202.228,416.151 211,403.5C 217.562,393.464 226.395,386.131 237.5,381.5C 221.25,364.998 221.583,348.832 238.5,333C 242.451,330.855 246.451,329.021 250.5,327.5 Z M 252.5,335.5 C 269.802,335.634 277.968,344.3 277,361.5C 271.412,377.707 260.579,382.54 244.5,376C 235.958,370.05 232.791,361.883 235,351.5C 237.886,342.774 243.719,337.441 252.5,335.5 Z"/></g>
<g><path style="opacity:0.943" fill="#000000" d="M 361.5,327.5 C 379.005,326.326 390.505,333.993 396,350.5C 398.445,363.179 394.612,373.346 384.5,381C 398.52,386.353 408.687,395.853 415,409.5C 419.192,420.604 416.025,428.771 405.5,434C 379.833,434.667 354.167,434.667 328.5,434C 319.258,429.682 315.758,422.515 318,412.5C 323.833,397.333 334.333,386.833 349.5,381C 337.396,371.328 334.229,359.161 340,344.5C 344.723,335.597 351.89,329.93 361.5,327.5 Z M 364.5,335.5 C 381.82,336.316 389.653,345.316 388,362.5C 381.912,377.874 371.079,382.374 355.5,376C 344.462,366.846 342.628,356.013 350,343.5C 354.134,339.354 358.968,336.687 364.5,335.5 Z"/></g>
<g><path style="opacity:0.041" fill="#000000" d="M 138.5,369.5 C 140.346,369.222 141.68,369.889 142.5,371.5C 141.311,372.429 139.978,372.762 138.5,372.5C 138.5,371.5 138.5,370.5 138.5,369.5 Z"/></g>
</svg>
