<?xml version="1.0" encoding="utf-8"?>
<!-- Generator: Adobe Illustrator 26.4.1, SVG Export Plug-In . SVG Version: 6.00 Build 0)  -->
<svg version="1.1" id="Layer_1" xmlns="http://www.w3.org/2000/svg" xmlns:xlink="http://www.w3.org/1999/xlink" x="0px" y="0px"
	 viewBox="0 0 500 500" style="enable-background:new 0 0 500 500;" xml:space="preserve">
<style type="text/css">
	.st0{fill:#231F20;}
</style>
<g>
	<g>
		<path class="st0" d="M76.76,218.05h15.75c2.69,0,4.79,0.76,6.29,2.28c1.5,1.52,2.25,3.53,2.25,6.04c0,1.24-0.16,2.29-0.49,3.16
			c-0.33,0.87-0.76,1.58-1.3,2.14c-0.54,0.56-1.18,0.97-1.9,1.23c-0.73,0.26-1.51,0.41-2.35,0.44v0.28c0.77,0,1.59,0.14,2.44,0.42
			c0.85,0.28,1.63,0.72,2.35,1.32c0.71,0.6,1.31,1.39,1.79,2.35c0.48,0.96,0.72,2.14,0.72,3.53c0,1.27-0.21,2.47-0.63,3.6
			c-0.42,1.13-1,2.11-1.74,2.95c-0.74,0.84-1.63,1.49-2.65,1.97c-1.02,0.48-2.14,0.72-3.34,0.72H76.76V218.05z M83.82,231.34h7.01
			c0.93,0,1.66-0.26,2.18-0.79c0.53-0.53,0.79-1.25,0.79-2.18v-1.39c0-0.93-0.26-1.66-0.79-2.18c-0.53-0.53-1.25-0.79-2.18-0.79
			h-7.01V231.34z M83.82,244.53h8.13c0.93,0,1.66-0.26,2.21-0.77c0.54-0.51,0.81-1.23,0.81-2.16v-1.58c0-0.93-0.27-1.65-0.81-2.16
			c-0.54-0.51-1.28-0.77-2.21-0.77h-8.13V244.53z"/>
		<path class="st0" d="M117.55,251.04c-1.86,0-3.52-0.3-4.97-0.91c-1.46-0.6-2.69-1.46-3.69-2.55c-1.01-1.1-1.77-2.44-2.28-4.02
			c-0.51-1.58-0.77-3.34-0.77-5.3c0-1.92,0.25-3.66,0.74-5.23c0.5-1.56,1.23-2.9,2.21-4.02c0.98-1.11,2.18-1.97,3.6-2.58
			c1.42-0.6,3.05-0.91,4.88-0.91c2.01,0,3.74,0.34,5.18,1.02s2.62,1.6,3.53,2.74c0.91,1.15,1.58,2.47,2,3.97
			c0.42,1.5,0.63,3.07,0.63,4.72v2.04h-15.66v0.37c0,1.6,0.43,2.86,1.3,3.8c0.87,0.94,2.23,1.41,4.09,1.41
			c1.42,0,2.59-0.28,3.48-0.85c0.9-0.57,1.73-1.25,2.51-2.05l3.44,4.29c-1.08,1.27-2.5,2.27-4.25,2.98
			C121.76,250.68,119.78,251.04,117.55,251.04z M117.41,230.6c-1.39,0-2.49,0.46-3.27,1.37c-0.79,0.91-1.18,2.13-1.18,3.65v0.37
			h8.55v-0.42c0-1.49-0.33-2.69-1-3.6C119.83,231.05,118.8,230.6,117.41,230.6z"/>
		<path class="st0" d="M144.81,250.48v-32.43h21.51v6.27h-14.45v6.6h12.31v6.27h-12.31v13.29H144.81z"/>
		<path class="st0" d="M181.51,251.04c-1.8,0-3.4-0.29-4.81-0.88c-1.41-0.59-2.6-1.44-3.58-2.56c-0.98-1.11-1.73-2.46-2.25-4.04
			c-0.53-1.58-0.79-3.34-0.79-5.3s0.26-3.72,0.79-5.3c0.53-1.58,1.28-2.92,2.25-4.02c0.98-1.1,2.17-1.94,3.58-2.53
			c1.41-0.59,3.01-0.88,4.81-0.88c1.8,0,3.4,0.29,4.81,0.88c1.41,0.59,2.6,1.43,3.58,2.53c0.98,1.1,1.73,2.44,2.25,4.02
			c0.53,1.58,0.79,3.34,0.79,5.3s-0.26,3.72-0.79,5.3c-0.53,1.58-1.28,2.93-2.25,4.04c-0.98,1.12-2.17,1.97-3.58,2.56
			C184.91,250.74,183.31,251.04,181.51,251.04z M181.51,245.6c1.36,0,2.42-0.42,3.16-1.25c0.74-0.84,1.12-2.03,1.12-3.58v-4.97
			c0-1.55-0.37-2.74-1.12-3.58c-0.74-0.84-1.8-1.25-3.16-1.25c-1.36,0-2.42,0.42-3.16,1.25c-0.74,0.84-1.11,2.03-1.11,3.58v4.97
			c0,1.55,0.37,2.74,1.11,3.58C179.1,245.18,180.15,245.6,181.51,245.6z"/>
		<path class="st0" d="M212.22,246.39h-0.23c-0.22,0.62-0.5,1.21-0.86,1.77c-0.36,0.56-0.81,1.05-1.37,1.49
			c-0.56,0.43-1.22,0.77-1.97,1.02c-0.76,0.25-1.63,0.37-2.62,0.37c-2.51,0-4.41-0.83-5.69-2.49c-1.29-1.66-1.93-4.03-1.93-7.13
			v-15.33h6.88v14.73c0,1.49,0.26,2.63,0.79,3.44c0.53,0.81,1.42,1.21,2.69,1.21c0.53,0,1.05-0.08,1.58-0.23
			c0.53-0.15,0.99-0.38,1.39-0.67c0.4-0.29,0.73-0.66,0.98-1.09c0.25-0.43,0.37-0.94,0.37-1.53v-15.84h6.88v24.39h-6.88V246.39z"/>
		<path class="st0" d="M225.51,250.48v-24.39h6.88v4.13h0.28c0.43-1.27,1.19-2.37,2.28-3.3c1.08-0.93,2.59-1.39,4.51-1.39
			c2.51,0,4.41,0.84,5.69,2.51c1.28,1.67,1.93,4.06,1.93,7.15v15.28h-6.88v-14.73c0-1.58-0.25-2.75-0.74-3.51
			c-0.5-0.76-1.38-1.14-2.65-1.14c-0.56,0-1.1,0.07-1.63,0.21c-0.53,0.14-1,0.36-1.42,0.67c-0.42,0.31-0.75,0.69-1,1.14
			c-0.25,0.45-0.37,0.97-0.37,1.56v15.79H225.51z"/>
		<path class="st0" d="M268.15,246.39h-0.23c-0.19,0.65-0.48,1.26-0.88,1.83c-0.4,0.57-0.89,1.07-1.46,1.49
			c-0.57,0.42-1.22,0.74-1.95,0.98c-0.73,0.23-1.48,0.35-2.25,0.35c-3.1,0-5.44-1.09-7.01-3.28c-1.58-2.18-2.37-5.35-2.37-9.5
			c0-4.15,0.79-7.31,2.37-9.48c1.58-2.17,3.92-3.25,7.01-3.25c1.58,0,2.98,0.43,4.2,1.3c1.22,0.87,2,1.98,2.35,3.35h0.23V216.1h6.88
			v34.38h-6.88V246.39z M263.65,245.46c1.3,0,2.38-0.32,3.23-0.95c0.85-0.63,1.28-1.51,1.28-2.62v-7.2c0-1.11-0.43-1.99-1.28-2.62
			c-0.85-0.63-1.93-0.95-3.23-0.95s-2.38,0.46-3.23,1.37c-0.85,0.91-1.28,2.15-1.28,3.69v4.23c0,1.55,0.43,2.78,1.28,3.69
			C261.27,245.01,262.35,245.46,263.65,245.46z"/>
		<path class="st0" d="M305.78,251.04c-2.14,0-4.09-0.36-5.85-1.07c-1.77-0.71-3.27-1.77-4.51-3.18c-1.24-1.41-2.2-3.16-2.88-5.25
			c-0.68-2.09-1.02-4.51-1.02-7.27c0-2.76,0.34-5.18,1.02-7.27c0.68-2.09,1.64-3.84,2.88-5.25c1.24-1.41,2.74-2.47,4.51-3.18
			c1.76-0.71,3.72-1.07,5.85-1.07c2.14,0,4.09,0.36,5.85,1.07c1.77,0.71,3.27,1.77,4.51,3.18c1.24,1.41,2.2,3.16,2.88,5.25
			c0.68,2.09,1.02,4.51,1.02,7.27c0,2.76-0.34,5.18-1.02,7.27c-0.68,2.09-1.64,3.84-2.88,5.25c-1.24,1.41-2.74,2.47-4.51,3.18
			C309.87,250.68,307.92,251.04,305.78,251.04z M305.78,244.76c2.14,0,3.8-0.7,4.99-2.09c1.19-1.39,1.79-3.39,1.79-5.99v-4.83
			c0-2.6-0.6-4.6-1.79-5.99c-1.19-1.39-2.86-2.09-4.99-2.09c-2.14,0-3.8,0.7-4.99,2.09c-1.19,1.39-1.79,3.39-1.79,5.99v4.83
			c0,2.6,0.6,4.6,1.79,5.99C301.98,244.07,303.64,244.76,305.78,244.76z"/>
		<path class="st0" d="M325.57,250.48v-24.39h6.88v4.13h0.28c0.43-1.27,1.19-2.37,2.28-3.3c1.08-0.93,2.59-1.39,4.51-1.39
			c2.51,0,4.41,0.84,5.69,2.51c1.28,1.67,1.93,4.06,1.93,7.15v15.28h-6.88v-14.73c0-1.58-0.25-2.75-0.74-3.51
			c-0.5-0.76-1.38-1.14-2.65-1.14c-0.56,0-1.1,0.07-1.63,0.21c-0.53,0.14-1,0.36-1.42,0.67c-0.42,0.31-0.75,0.69-1,1.14
			c-0.25,0.45-0.37,0.97-0.37,1.56v15.79H325.57z"/>
		<path class="st0" d="M360.09,250.48c-2.35,0-4.08-0.57-5.18-1.72c-1.1-1.15-1.65-2.8-1.65-4.97V216.1h6.88v29.03h3.07v5.34H360.09
			z"/>
		<path class="st0" d="M370.77,223.49c-1.39,0-2.41-0.32-3.04-0.95c-0.64-0.63-0.95-1.45-0.95-2.44v-1.02c0-0.99,0.32-1.8,0.95-2.44
			c0.63-0.63,1.65-0.95,3.04-0.95c1.39,0,2.41,0.32,3.04,0.95c0.63,0.64,0.95,1.45,0.95,2.44v1.02c0,0.99-0.32,1.8-0.95,2.44
			C373.18,223.17,372.17,223.49,370.77,223.49z M367.34,226.09h6.88v24.39h-6.88V226.09z"/>
		<path class="st0" d="M380.62,250.48v-24.39h6.88v4.13h0.28c0.43-1.27,1.19-2.37,2.28-3.3c1.08-0.93,2.59-1.39,4.51-1.39
			c2.51,0,4.41,0.84,5.69,2.51c1.28,1.67,1.93,4.06,1.93,7.15v15.28h-6.88v-14.73c0-1.58-0.25-2.75-0.74-3.51
			c-0.5-0.76-1.38-1.14-2.65-1.14c-0.56,0-1.1,0.07-1.63,0.21c-0.53,0.14-1,0.36-1.42,0.67c-0.42,0.31-0.75,0.69-1,1.14
			c-0.25,0.45-0.37,0.97-0.37,1.56v15.79H380.62z"/>
		<path class="st0" d="M418.48,251.04c-1.86,0-3.51-0.3-4.97-0.91s-2.69-1.46-3.69-2.55c-1.01-1.1-1.76-2.44-2.28-4.02
			c-0.51-1.58-0.77-3.34-0.77-5.3c0-1.92,0.25-3.66,0.74-5.23c0.5-1.56,1.23-2.9,2.21-4.02s2.18-1.97,3.6-2.58
			c1.42-0.6,3.05-0.91,4.88-0.91c2.01,0,3.74,0.34,5.18,1.02s2.62,1.6,3.53,2.74c0.91,1.15,1.58,2.47,2,3.97
			c0.42,1.5,0.63,3.07,0.63,4.72v2.04h-15.66v0.37c0,1.6,0.43,2.86,1.3,3.8c0.87,0.94,2.23,1.41,4.09,1.41
			c1.42,0,2.59-0.28,3.48-0.85c0.9-0.57,1.73-1.25,2.51-2.05l3.44,4.29c-1.08,1.27-2.5,2.27-4.25,2.98
			C422.7,250.68,420.71,251.04,418.48,251.04z M418.34,230.6c-1.39,0-2.49,0.46-3.28,1.37c-0.79,0.91-1.18,2.13-1.18,3.65v0.37h8.55
			v-0.42c0-1.49-0.33-2.69-1-3.6C420.77,231.05,419.74,230.6,418.34,230.6z"/>
	</g>
	<g>
		<path class="st0" d="M209.54,449.98l-8.13,28.72l-19.55-5.53l1.57-5.56l13.29,3.76l1.65-5.84l-11.4-3.23l1.57-5.56l11.4,3.23
			l1.76-6.21L188.42,450l1.57-5.56L209.54,449.98z"/>
		<path class="st0" d="M185.79,442.92l-8.65,20.72l-5.84-2.44l1.47-3.51l-0.24-0.1c-0.82,0.92-1.85,1.59-3.1,1.99
			c-1.25,0.41-2.69,0.27-4.32-0.41c-2.13-0.89-3.45-2.27-3.94-4.15c-0.5-1.88-0.2-4.13,0.9-6.76l5.42-12.98l5.84,2.44l-5.22,12.51
			c-0.56,1.34-0.76,2.42-0.61,3.24c0.15,0.82,0.77,1.46,1.85,1.91c0.47,0.2,0.96,0.33,1.46,0.4c0.5,0.07,0.98,0.04,1.44-0.07
			c0.46-0.12,0.88-0.32,1.25-0.61c0.37-0.29,0.66-0.69,0.87-1.19l5.6-13.42L185.79,442.92z"/>
		<path class="st0" d="M145.81,421.54c0.58-1.05,1.28-1.87,2.08-2.46c0.81-0.59,1.78-0.94,2.91-1.04c1.13-0.1,2.46,0.08,3.98,0.56
			s3.27,1.26,5.26,2.38c1.69,0.95,3.07,1.86,4.14,2.73c1.06,0.87,1.86,1.71,2.37,2.5c0.52,0.8,0.79,1.57,0.81,2.32
			c0.02,0.75-0.17,1.48-0.57,2.2c-0.61,1.1-1.42,1.77-2.41,2.03c-1,0.26-2.11,0.15-3.33-0.34l-0.23,0.41c0.85,0.7,1.33,1.5,1.45,2.4
			c0.12,0.9-0.06,1.77-0.53,2.62c-0.29,0.52-0.65,0.92-1.08,1.19c-0.43,0.27-0.89,0.45-1.39,0.55c-0.5,0.1-1.02,0.11-1.56,0.03
			s-1.07-0.19-1.57-0.34l-0.08,0.15c0.89,1.21,1.35,2.46,1.39,3.74c0.04,1.28-0.3,2.55-1.01,3.82c-1.11,1.99-2.69,3.2-4.75,3.64
			c-2.06,0.43-4.5-0.14-7.34-1.73c-1.29-0.72-2.33-1.47-3.11-2.23l-0.42,0.75c-0.58,1.04-1.26,1.66-2.03,1.83
			c-0.77,0.18-1.62,0-2.57-0.53l-3.1-1.73l2.29-4.11l4.33,2.42l0.13-0.22c-0.84-1.19-1.26-2.41-1.28-3.68
			c-0.01-1.26,0.34-2.53,1.05-3.8c1.1-1.97,2.67-3.16,4.71-3.57c2.04-0.41,4.48,0.18,7.32,1.76c1.27,0.71,2.35,1.49,3.24,2.35
			c0.78-0.05,1.36-0.42,1.73-1.09c0.26-0.47,0.29-0.94,0.07-1.4s-0.75-0.93-1.59-1.4l-5.68-3.17c-2.39-1.33-3.85-2.8-4.37-4.4
			C144.55,425.07,144.79,423.36,145.81,421.54z M149.62,439.45c-1.09-0.61-2.04-0.84-2.83-0.68c-0.79,0.16-1.43,0.67-1.91,1.54
			l-0.25,0.45c-0.48,0.87-0.59,1.68-0.31,2.43c0.28,0.76,0.97,1.44,2.06,2.05c1.1,0.61,2.04,0.84,2.83,0.68
			c0.79-0.16,1.43-0.67,1.91-1.54l0.25-0.45c0.48-0.87,0.59-1.68,0.31-2.43C151.4,440.74,150.72,440.06,149.62,439.45z
			 M151.42,423.7c-0.32,0.57-0.34,1.13-0.06,1.68c0.28,0.55,0.98,1.14,2.1,1.76l6.72,3.75c0.39-0.11,0.73-0.29,1.01-0.54
			c0.29-0.25,0.51-0.52,0.68-0.82c0.4-0.72,0.39-1.42-0.05-2.11c-0.43-0.68-1.4-1.44-2.89-2.28l-2.24-1.25
			c-1.49-0.83-2.65-1.26-3.46-1.27S151.82,422.97,151.42,423.7z"/>
		<path class="st0" d="M129.86,412.09c0.93,0.66,1.49,1.5,1.69,2.52c0.2,1.02,0.03,2.07-0.5,3.16l0.21,0.15
			c1.12-0.98,2.38-1.44,3.77-1.38c1.39,0.07,2.78,0.59,4.17,1.59c1.83,1.31,2.89,2.8,3.17,4.46c0.28,1.67-0.15,3.3-1.29,4.9
			c-1.37,1.92-3.09,2.85-5.17,2.78c-2.07-0.07-4.32-0.96-6.73-2.68l-2.89-2.06l-0.82,1.15c-0.63,0.88-0.9,1.75-0.81,2.6
			c0.09,0.85,0.68,1.67,1.77,2.45c1.02,0.73,1.99,1.09,2.91,1.08c0.92-0.01,1.77-0.15,2.57-0.43l1.11,4.92
			c-1.53,0.57-3.07,0.76-4.64,0.57c-1.57-0.18-3.31-0.96-5.24-2.34c-2.6-1.86-4.14-3.82-4.63-5.88c-0.49-2.07,0.05-4.19,1.61-6.37
			l5.72-8l-1.71-1.22l2.86-4L129.86,412.09z M134.74,420.35c-0.86-0.61-1.73-0.96-2.6-1.03c-0.88-0.07-1.61,0.31-2.21,1.14
			l-1.53,2.14l2.51,1.79c2.02,1.44,3.51,1.48,4.48,0.12l0.37-0.52c0.48-0.67,0.62-1.31,0.42-1.92
			C135.98,421.48,135.5,420.9,134.74,420.35z"/>
		<path class="st0" d="M109.99,392.73c0.8-0.89,1.66-1.54,2.57-1.94c0.92-0.4,1.94-0.53,3.07-0.38c1.13,0.15,2.38,0.62,3.76,1.41
			c1.38,0.79,2.91,1.95,4.61,3.47c1.44,1.29,2.59,2.48,3.44,3.57c0.85,1.08,1.44,2.07,1.77,2.96c0.33,0.89,0.43,1.7,0.29,2.44
			c-0.14,0.73-0.49,1.41-1.04,2.03c-0.84,0.93-1.77,1.42-2.8,1.46c-1.03,0.04-2.09-0.32-3.18-1.07l-0.31,0.35
			c0.67,0.87,0.97,1.76,0.89,2.66c-0.08,0.9-0.45,1.72-1.09,2.44c-0.4,0.45-0.84,0.75-1.31,0.92s-0.97,0.25-1.47,0.23
			c-0.51-0.01-1.02-0.12-1.53-0.31c-0.52-0.19-1-0.42-1.46-0.68l-0.11,0.13c0.6,1.38,0.78,2.7,0.54,3.95
			c-0.24,1.25-0.85,2.42-1.82,3.5c-1.52,1.7-3.33,2.53-5.43,2.51c-2.1-0.03-4.36-1.12-6.78-3.29c-1.1-0.99-1.95-1.94-2.55-2.86
			l-0.57,0.64c-0.8,0.89-1.59,1.34-2.38,1.34c-0.79,0-1.58-0.36-2.39-1.08l-2.64-2.37l3.14-3.5l3.7,3.31l0.17-0.19
			c-0.56-1.34-0.71-2.63-0.44-3.87c0.27-1.24,0.88-2.4,1.85-3.48c1.5-1.68,3.3-2.49,5.38-2.45c2.08,0.05,4.33,1.15,6.76,3.32
			c1.08,0.97,1.97,1.97,2.65,3c0.77,0.12,1.42-0.11,1.93-0.68c0.36-0.4,0.49-0.85,0.38-1.35c-0.11-0.5-0.52-1.07-1.25-1.72
			l-4.84-4.34c-2.04-1.83-3.14-3.58-3.3-5.25S108.6,394.28,109.99,392.73z M109.78,411.03c-0.93-0.84-1.8-1.26-2.61-1.28
			s-1.54,0.34-2.2,1.08l-0.34,0.38c-0.66,0.74-0.94,1.51-0.83,2.31c0.11,0.8,0.63,1.62,1.56,2.46c0.94,0.84,1.81,1.26,2.61,1.28
			c0.81,0.02,1.54-0.34,2.2-1.08l0.34-0.38c0.66-0.74,0.94-1.51,0.83-2.31C111.24,412.69,110.72,411.87,109.78,411.03z
			 M114.98,396.06c-0.44,0.49-0.58,1.03-0.43,1.63c0.15,0.6,0.71,1.32,1.66,2.18l5.73,5.14c0.4-0.02,0.77-0.12,1.1-0.3
			c0.33-0.18,0.61-0.4,0.84-0.65c0.55-0.62,0.69-1.3,0.42-2.07c-0.27-0.76-1.05-1.71-2.32-2.86l-1.91-1.71
			c-1.27-1.14-2.31-1.81-3.09-2C116.21,395.23,115.54,395.44,114.98,396.06z"/>
		<path class="st0" d="M101.69,385.06c1.14,1.27,1.95,2.6,2.43,3.96c0.48,1.37,0.65,2.74,0.52,4.1c-0.13,1.37-0.59,2.71-1.36,4.03
			c-0.77,1.32-1.82,2.58-3.16,3.78c-1.32,1.18-2.66,2.08-4.04,2.7c-1.38,0.62-2.75,0.94-4.11,0.96s-2.69-0.28-3.98-0.88
			c-1.29-0.6-2.5-1.53-3.62-2.79c-1.24-1.38-2.06-2.77-2.48-4.18c-0.42-1.41-0.51-2.77-0.29-4.1c0.22-1.33,0.72-2.6,1.5-3.81
			c0.77-1.21,1.72-2.32,2.85-3.33l1.4-1.26l9.62,10.73l0.25-0.23c1.09-0.98,1.7-2.06,1.81-3.23c0.11-1.17-0.41-2.39-1.55-3.67
			c-0.88-0.98-1.78-1.6-2.73-1.86c-0.94-0.27-1.92-0.42-2.95-0.46l0.82-4.99c1.54-0.04,3.09,0.32,4.66,1.08
			C98.85,382.39,100.32,383.54,101.69,385.06z M87.77,397.72c0.86,0.96,1.84,1.42,2.95,1.4s2.19-0.5,3.23-1.43l0.25-0.23l-5.25-5.86
			l-0.29,0.26c-1.02,0.91-1.64,1.88-1.85,2.9C86.59,395.78,86.91,396.77,87.77,397.72z"/>
		<path class="st0" d="M92.04,375.3l-18.69,12.45l-3.51-5.27l3.17-2.11l-0.14-0.21c-1.22,0.33-2.45,0.33-3.68-0.01
			c-1.24-0.34-2.32-1.21-3.25-2.61c-0.85-1.28-1.26-2.59-1.22-3.92c0.04-1.33,0.54-2.6,1.51-3.83l-0.07-0.11
			c-0.63,0.18-1.29,0.25-1.99,0.22c-0.69-0.04-1.37-0.19-2.03-0.47c-0.66-0.28-1.3-0.66-1.92-1.14c-0.61-0.48-1.16-1.08-1.63-1.79
			c-1.2-1.8-1.48-3.61-0.84-5.43c0.64-1.82,2.15-3.51,4.52-5.09l11.71-7.8l3.51,5.27l-11.28,7.52c-2.37,1.58-2.99,3.22-1.85,4.93
			c0.52,0.78,1.22,1.34,2.1,1.68c0.88,0.34,1.78,0.2,2.7-0.41l12.1-8.06l3.51,5.27l-11.28,7.52c-2.37,1.58-2.99,3.22-1.85,4.93
			c0.25,0.38,0.56,0.72,0.91,1.01c0.35,0.3,0.75,0.51,1.18,0.65c0.44,0.14,0.88,0.18,1.35,0.13c0.46-0.05,0.92-0.23,1.37-0.53
			l12.1-8.06L92.04,375.3z"/>
		<path class="st0" d="M68.58,335.2c0.73,1.54,1.14,3.04,1.21,4.49c0.07,1.45-0.15,2.81-0.67,4.08c-0.52,1.27-1.33,2.43-2.44,3.48
			c-1.11,1.05-2.48,1.96-4.1,2.73c-1.6,0.76-3.14,1.24-4.64,1.45c-1.5,0.21-2.9,0.12-4.21-0.25c-1.31-0.37-2.5-1.03-3.57-1.98
			c-1.06-0.95-1.96-2.18-2.68-3.7c-0.8-1.67-1.19-3.24-1.2-4.71c0-1.47,0.29-2.81,0.88-4.02c0.59-1.21,1.43-2.29,2.51-3.23
			c1.08-0.94,2.31-1.74,3.67-2.38l1.7-0.81l6.19,13.02l0.31-0.15c1.33-0.63,2.21-1.49,2.65-2.58c0.44-1.09,0.29-2.41-0.45-3.95
			c-0.56-1.18-1.26-2.04-2.08-2.56s-1.73-0.95-2.7-1.28l2.21-4.55c1.49,0.4,2.87,1.18,4.16,2.36
			C66.62,331.83,67.7,333.34,68.58,335.2z M51.64,343.39c0.55,1.16,1.36,1.89,2.43,2.18s2.24,0.14,3.5-0.46l0.31-0.15l-3.38-7.11
			l-0.35,0.17c-1.24,0.59-2.1,1.34-2.6,2.25C51.06,341.2,51.09,342.23,51.64,343.39z"/>
		<path class="st0" d="M62.4,322.79l-21.25,7.24l-2.04-5.99l3.6-1.23l-0.08-0.24c-1.23,0-2.42-0.33-3.55-1
			c-1.13-0.67-1.98-1.84-2.55-3.51c-0.75-2.19-0.58-4.09,0.5-5.7c1.08-1.62,2.96-2.88,5.66-3.8L56,304.01l2.04,5.99l-12.83,4.37
			c-1.38,0.47-2.32,1.03-2.84,1.69c-0.51,0.66-0.58,1.54-0.21,2.65c0.17,0.49,0.39,0.94,0.67,1.35c0.28,0.42,0.61,0.76,1.01,1.04
			c0.39,0.27,0.82,0.45,1.29,0.53c0.47,0.08,0.95,0.04,1.47-0.14l13.76-4.69L62.4,322.79z"/>
		<path class="st0" d="M53.05,291.52c0.5,2.14,0.34,3.88-0.48,5.23s-2.28,2.27-4.36,2.76l-10.7,2.52l0.72,3.08l-4.79,1.13
			l-0.36-1.54c-0.2-0.83-0.53-1.35-1.01-1.56c-0.47-0.21-1.09-0.23-1.84-0.05l-3.58,0.84l-1.3-5.54l5.91-1.39l-1.02-4.33l4.79-1.13
			l1.02,4.33l12.28-2.89l-0.94-4l4.79-1.13L53.05,291.52z"/>
		<path class="st0" d="M57.02,187.2c-0.74,2.52-1.8,4.52-3.18,6.02c-1.38,1.5-2.94,2.66-4.67,3.48l-2.94-5.33
			c2.74-1.3,4.53-3.37,5.37-6.22c0.45-1.53,0.48-2.76,0.07-3.68c-0.4-0.92-1.12-1.54-2.15-1.84c-0.79-0.23-1.51-0.21-2.16,0.07
			c-0.66,0.28-1.28,1.06-1.86,2.35l-1.2,2.72c-1.28,2.92-2.85,4.87-4.72,5.85c-1.87,0.98-4,1.11-6.41,0.4
			c-1.29-0.38-2.39-0.97-3.31-1.78c-0.92-0.81-1.63-1.78-2.13-2.92c-0.5-1.14-0.76-2.44-0.79-3.89c-0.03-1.45,0.2-3.02,0.7-4.72
			c0.64-2.16,1.54-3.96,2.71-5.4c1.17-1.44,2.58-2.55,4.25-3.34l2.97,5.38c-0.99,0.45-1.87,1.09-2.66,1.91
			c-0.79,0.82-1.4,1.97-1.83,3.45c-0.41,1.39-0.48,2.51-0.19,3.33c0.29,0.83,0.86,1.37,1.73,1.62c0.97,0.29,1.76,0.23,2.35-0.18
			c0.59-0.41,1.16-1.18,1.7-2.33l1.29-2.7c1.34-2.82,2.89-4.73,4.67-5.76c1.77-1.02,3.91-1.17,6.4-0.43
			c1.37,0.4,2.56,1.02,3.56,1.85c1,0.83,1.78,1.84,2.32,3.03c0.54,1.19,0.83,2.54,0.87,4.07S57.55,185.42,57.02,187.2z"/>
		<path class="st0" d="M64.52,164.6c-0.83,2.03-1.97,3.36-3.43,3.98c-1.46,0.62-3.17,0.53-5.15-0.28l-10.18-4.15l-1.2,2.93
			l-4.55-1.86l0.6-1.47c0.32-0.79,0.35-1.41,0.09-1.86c-0.26-0.45-0.75-0.81-1.47-1.11l-3.41-1.39l2.15-5.27l5.62,2.29l1.68-4.12
			l4.55,1.86l-1.68,4.12l11.68,4.77l1.55-3.8l4.55,1.86L64.52,164.6z"/>
		<path class="st0" d="M67.69,157.33l-20.07-10.08l2.84-5.66l4.36,2.19l0.1-0.19c-0.51-0.38-0.96-0.83-1.36-1.35
			c-0.39-0.52-0.69-1.09-0.89-1.71c-0.2-0.62-0.27-1.29-0.22-2c0.05-0.71,0.28-1.46,0.67-2.25l0.5-0.99l5.27,2.65l-0.71,1.41
			c-0.83,1.66-1.23,2.99-1.2,4.01c0.03,1.02,0.63,1.82,1.8,2.41l11.73,5.89L67.69,157.33z"/>
		<path class="st0" d="M84.05,128.5c-0.61,0.97-1.41,1.58-2.42,1.84c-1.01,0.26-2.07,0.16-3.19-0.31l-0.14,0.22
			c1.05,1.06,1.58,2.29,1.6,3.68c0.02,1.39-0.43,2.81-1.34,4.26c-1.2,1.91-2.62,3.05-4.27,3.43s-3.3,0.04-4.96-1
			c-2-1.26-3.02-2.92-3.08-4.99c-0.06-2.07,0.71-4.36,2.29-6.87l1.89-3l-1.19-0.75c-0.92-0.58-1.8-0.79-2.65-0.65
			c-0.85,0.14-1.63,0.78-2.34,1.91c-0.67,1.06-0.97,2.05-0.91,2.97c0.06,0.92,0.26,1.76,0.58,2.54l-4.84,1.4
			c-0.65-1.49-0.94-3.02-0.84-4.6c0.09-1.57,0.77-3.36,2.03-5.37c1.7-2.7,3.57-4.36,5.6-4.97c2.03-0.61,4.18-0.2,6.45,1.23
			l8.33,5.24l1.12-1.77l4.16,2.62L84.05,128.5z M76.08,133.85c0.56-0.89,0.85-1.78,0.87-2.66c0.02-0.88-0.4-1.59-1.26-2.13
			l-2.23-1.4l-1.64,2.61c-1.32,2.1-1.27,3.59,0.14,4.48l0.54,0.34c0.69,0.44,1.34,0.54,1.94,0.31
			C75.03,135.16,75.58,134.64,76.08,133.85z"/>
		<path class="st0" d="M92.98,116.5c-1.34,1.74-2.79,2.72-4.36,2.93c-1.57,0.22-3.2-0.33-4.9-1.63l-8.71-6.7l-1.93,2.51l-3.9-3
			l0.96-1.25c0.52-0.68,0.71-1.27,0.58-1.77c-0.14-0.5-0.51-0.99-1.12-1.46l-2.92-2.24l3.47-4.51l4.81,3.7l2.71-3.53l3.9,3
			l-2.71,3.53l10,7.69l2.5-3.25l3.9,3L92.98,116.5z"/>
		<path class="st0" d="M104.56,103.81c-1.16,1.25-2.41,2.18-3.73,2.79c-1.32,0.6-2.67,0.9-4.04,0.89c-1.37-0.01-2.75-0.34-4.14-0.98
			c-1.39-0.64-2.74-1.58-4.05-2.8c-1.29-1.2-2.31-2.46-3.06-3.78c-0.74-1.31-1.19-2.65-1.33-4.01c-0.14-1.36,0.03-2.7,0.52-4.04
			c0.48-1.34,1.3-2.62,2.44-3.86c1.26-1.36,2.57-2.31,3.93-2.85s2.72-0.77,4.06-0.67c1.35,0.1,2.66,0.48,3.93,1.14
			c1.28,0.66,2.47,1.5,3.57,2.53l1.38,1.28l-9.81,10.56l0.25,0.23c1.08,1,2.2,1.5,3.38,1.5c1.18,0,2.35-0.62,3.51-1.88
			c0.89-0.96,1.43-1.92,1.61-2.88c0.18-0.96,0.24-1.95,0.19-2.98l5.04,0.37c0.18,1.53-0.04,3.11-0.65,4.74
			C106.97,100.74,105.96,102.3,104.56,103.81z M90.69,91.1c-0.87,0.94-1.25,1.96-1.13,3.07c0.12,1.11,0.69,2.13,1.72,3.08l0.25,0.23
			l5.35-5.77l-0.28-0.26c-1-0.93-2.02-1.46-3.05-1.58C92.51,89.75,91.56,90.16,90.69,91.1z"/>
		<path class="st0" d="M130.64,81.11c0.78,0.91,1.32,1.84,1.6,2.8c0.28,0.96,0.28,1.99-0.01,3.09c-0.29,1.1-0.92,2.28-1.88,3.55
			c-0.96,1.26-2.3,2.64-4.03,4.13c-1.47,1.27-2.79,2.25-3.97,2.96c-1.18,0.7-2.24,1.16-3.16,1.38c-0.93,0.22-1.74,0.21-2.45-0.03
			c-0.71-0.23-1.34-0.66-1.88-1.29c-0.82-0.95-1.18-1.94-1.09-2.96c0.09-1.02,0.58-2.03,1.46-3.02l-0.31-0.36
			c-0.95,0.56-1.87,0.74-2.75,0.54c-0.89-0.2-1.65-0.66-2.28-1.4c-0.39-0.45-0.64-0.93-0.75-1.42c-0.11-0.49-0.12-0.99-0.04-1.49
			c0.08-0.5,0.24-0.99,0.5-1.48c0.26-0.49,0.54-0.94,0.86-1.36l-0.11-0.13c-1.45,0.42-2.77,0.43-3.99,0.03
			c-1.21-0.4-2.29-1.15-3.25-2.25c-1.49-1.72-2.09-3.63-1.8-5.71s1.67-4.18,4.13-6.31c1.12-0.97,2.17-1.69,3.16-2.17l-0.56-0.65
			c-0.78-0.91-1.13-1.75-1.03-2.53c0.1-0.78,0.56-1.53,1.38-2.23l2.69-2.32l3.08,3.56l-3.75,3.25l0.17,0.19
			c1.4-0.38,2.7-0.36,3.89,0.06c1.19,0.42,2.26,1.18,3.22,2.28c1.47,1.7,2.05,3.59,1.74,5.65c-0.31,2.06-1.7,4.15-4.16,6.28
			c-1.1,0.95-2.21,1.7-3.32,2.25c-0.22,0.75-0.07,1.42,0.43,2c0.35,0.41,0.79,0.59,1.29,0.55c0.51-0.04,1.13-0.38,1.86-1.02
			l4.92-4.25c2.07-1.79,3.95-2.66,5.63-2.61C127.76,78.72,129.28,79.54,130.64,81.11z M112.51,78.58c0.95-0.82,1.48-1.63,1.6-2.43
			s-0.14-1.57-0.79-2.32l-0.33-0.39c-0.65-0.75-1.38-1.12-2.18-1.12c-0.81,0-1.68,0.42-2.63,1.24s-1.48,1.63-1.6,2.43
			c-0.12,0.8,0.14,1.57,0.79,2.32l0.33,0.39c0.65,0.75,1.38,1.12,2.18,1.12C110.69,79.81,111.56,79.4,112.51,78.58z M126.71,85.65
			c-0.43-0.5-0.95-0.71-1.56-0.63c-0.61,0.08-1.4,0.54-2.37,1.37l-5.82,5.04c-0.03,0.4,0.02,0.78,0.16,1.13
			c0.14,0.35,0.32,0.66,0.54,0.92c0.54,0.63,1.21,0.85,2,0.68c0.79-0.17,1.83-0.82,3.13-1.94l1.94-1.68
			c1.29-1.12,2.08-2.06,2.37-2.81C127.37,86.96,127.25,86.27,126.71,85.65z"/>
		<path class="st0" d="M119.45,56.84c-1.04,0.76-1.96,1.07-2.78,0.94c-0.82-0.13-1.49-0.56-2.03-1.3l-0.56-0.76
			c-0.54-0.74-0.74-1.51-0.62-2.33c0.13-0.82,0.71-1.6,1.75-2.36c1.04-0.76,1.96-1.07,2.78-0.94c0.82,0.13,1.49,0.56,2.03,1.3
			l0.55,0.76c0.54,0.74,0.74,1.51,0.62,2.33C121.07,55.3,120.49,56.08,119.45,56.84z M118.31,60.64l5.11-3.73l13.24,18.14
			l-5.11,3.73L118.31,60.64z"/>
		<path class="st0" d="M139.9,72.58l-2.62-4.26l2.95-16.52l-9.18,5.64l-2.58-4.19l15.45-9.5l2.6,4.23l-2.96,16.58l9.8-6.02
			l2.58,4.19L139.9,72.58z"/>
		<path class="st0" d="M168,57.33c-1.54,0.74-3.04,1.14-4.49,1.21c-1.45,0.07-2.81-0.15-4.08-0.66c-1.27-0.52-2.43-1.33-3.48-2.44
			c-1.05-1.11-1.96-2.48-2.73-4.1c-0.76-1.6-1.24-3.14-1.45-4.64c-0.21-1.5-0.13-2.9,0.24-4.21c0.37-1.31,1.03-2.5,1.97-3.57
			c0.94-1.07,2.18-1.96,3.7-2.68c1.67-0.8,3.24-1.2,4.71-1.2c1.47,0,2.81,0.29,4.02,0.88c1.21,0.59,2.29,1.43,3.23,2.51
			c0.94,1.08,1.74,2.31,2.39,3.67l0.81,1.7L159.82,50l0.15,0.31c0.63,1.33,1.49,2.21,2.59,2.64c1.09,0.44,2.41,0.29,3.95-0.45
			c1.18-0.56,2.04-1.26,2.56-2.09c0.52-0.83,0.95-1.73,1.27-2.7l4.55,2.2c-0.4,1.49-1.18,2.87-2.35,4.16
			C171.37,55.37,169.86,56.45,168,57.33z M159.8,40.4c-1.16,0.55-1.89,1.36-2.18,2.44c-0.29,1.07-0.14,2.24,0.46,3.5l0.15,0.31
			l7.11-3.38l-0.17-0.35c-0.59-1.24-1.34-2.1-2.25-2.6C161.99,39.82,160.96,39.85,159.8,40.4z"/>
		<path class="st0" d="M281.36,38.67c-2.01-0.22-3.79-0.73-5.34-1.54s-2.82-1.91-3.82-3.29c-1-1.38-1.71-3.05-2.13-5
			c-0.42-1.95-0.49-4.19-0.22-6.71c0.27-2.49,0.82-4.68,1.65-6.55c0.83-1.87,1.89-3.41,3.16-4.61c1.28-1.2,2.76-2.05,4.45-2.55
			c1.69-0.51,3.54-0.65,5.55-0.43c2.75,0.3,4.96,1.1,6.62,2.41c1.67,1.31,2.91,3.23,3.72,5.76l-5.88,2.29
			c-0.26-1.29-0.77-2.36-1.53-3.2c-0.76-0.84-1.94-1.35-3.56-1.52c-1.9-0.2-3.49,0.25-4.77,1.36c-1.28,1.11-2.05,2.84-2.3,5.19
			l-0.51,4.76c-0.25,2.35,0.13,4.21,1.14,5.56c1.02,1.36,2.47,2.14,4.37,2.34c1.59,0.17,2.9-0.12,3.95-0.89
			c1.04-0.76,1.86-1.73,2.44-2.9l4.94,3.63c-1.35,2.15-2.99,3.74-4.92,4.78C286.45,38.6,284.11,38.97,281.36,38.67z"/>
		<path class="st0" d="M295.96,40.28l4.72-21.95l6.19,1.33l-1.02,4.77l0.21,0.04c0.24-0.59,0.57-1.14,0.97-1.65
			c0.4-0.51,0.88-0.94,1.44-1.29c0.56-0.35,1.18-0.58,1.88-0.71s1.48-0.1,2.34,0.09l1.09,0.23l-1.24,5.77l-1.55-0.33
			c-1.81-0.39-3.21-0.44-4.19-0.16c-0.98,0.29-1.61,1.07-1.88,2.35l-2.76,12.84L295.96,40.28z"/>
		<path class="st0" d="M320.93,47.18c-1.63-0.52-3-1.25-4.11-2.18c-1.11-0.94-1.95-2.03-2.53-3.27c-0.58-1.25-0.87-2.63-0.88-4.16
			s0.26-3.15,0.81-4.86c0.54-1.68,1.24-3.14,2.11-4.38c0.87-1.23,1.89-2.2,3.06-2.91s2.46-1.12,3.88-1.26
			c1.42-0.13,2.93,0.06,4.53,0.57c1.77,0.56,3.19,1.34,4.26,2.34c1.07,1,1.85,2.13,2.33,3.39c0.48,1.26,0.7,2.61,0.64,4.04
			c-0.05,1.44-0.31,2.87-0.76,4.31l-0.57,1.79l-13.73-4.37l-0.1,0.32c-0.45,1.4-0.42,2.63,0.08,3.7c0.5,1.06,1.56,1.85,3.19,2.37
			c1.25,0.4,2.35,0.47,3.29,0.22c0.95-0.25,1.87-0.61,2.77-1.1l1.82,4.72c-1.31,0.81-2.83,1.29-4.56,1.43
			C324.73,48.04,322.89,47.8,320.93,47.18z M326.51,29.21c-1.22-0.39-2.31-0.29-3.26,0.29c-0.95,0.58-1.63,1.54-2.06,2.87l-0.1,0.33
			l7.5,2.39l0.12-0.37c0.42-1.3,0.46-2.45,0.13-3.44C328.51,30.28,327.73,29.6,326.51,29.21z"/>
		<path class="st0" d="M349.36,57.93c-1.04-0.47-1.76-1.18-2.16-2.14c-0.4-0.96-0.45-2.03-0.14-3.2l-0.23-0.1
			c-0.91,1.19-2.05,1.89-3.42,2.1c-1.38,0.21-2.84-0.03-4.41-0.73c-2.06-0.92-3.39-2.17-3.99-3.75c-0.61-1.58-0.51-3.26,0.29-5.05
			c0.96-2.15,2.47-3.4,4.51-3.75c2.04-0.35,4.42,0.08,7.13,1.29l3.24,1.45l0.58-1.29c0.44-0.99,0.53-1.89,0.27-2.71
			c-0.26-0.82-1-1.5-2.22-2.05c-1.15-0.51-2.17-0.67-3.07-0.48c-0.9,0.19-1.71,0.5-2.43,0.93l-2.07-4.6
			c1.38-0.86,2.86-1.35,4.43-1.48c1.57-0.13,3.44,0.29,5.6,1.25c2.92,1.3,4.82,2.92,5.7,4.85c0.89,1.93,0.78,4.11-0.31,6.56
			l-4.01,8.98l1.91,0.85l-2.01,4.49L349.36,57.93z M342.94,50.8c0.96,0.43,1.88,0.59,2.76,0.49c0.87-0.1,1.52-0.62,1.94-1.55
			l1.07-2.4l-2.81-1.26c-2.26-1.01-3.74-0.76-4.42,0.77l-0.26,0.58c-0.33,0.75-0.35,1.4-0.03,1.96
			C341.5,49.94,342.08,50.42,342.94,50.8z"/>
		<path class="st0" d="M362.48,65.09c-1.91-1.08-3.08-2.38-3.52-3.91s-0.12-3.21,0.93-5.08l5.41-9.57l-2.75-1.56l2.42-4.28
			l1.38,0.78c0.74,0.42,1.35,0.53,1.83,0.32s0.9-0.64,1.28-1.31l1.81-3.2l4.95,2.8l-2.99,5.29l3.87,2.19l-2.42,4.28l-3.87-2.19
			l-6.21,10.98l3.57,2.02l-2.42,4.28L362.48,65.09z"/>
		<path class="st0" d="M381.68,50.49l5.29,3.47l-12.32,18.77l-5.29-3.47L381.68,50.49z M385.64,50.23c-1.07-0.7-1.69-1.46-1.86-2.27
			c-0.17-0.81,0-1.6,0.5-2.36l0.52-0.79c0.5-0.76,1.16-1.23,1.97-1.4c0.81-0.17,1.75,0.1,2.82,0.8c1.07,0.7,1.69,1.46,1.86,2.27
			c0.17,0.81,0,1.6-0.5,2.36l-0.52,0.79c-0.5,0.76-1.16,1.23-1.96,1.4C387.65,51.2,386.71,50.93,385.64,50.23z"/>
		<path class="st0" d="M382.87,78.6l8-22.23l4.92,3.84l-3.38,8.86l-3.34,7.7l0.27,0.21l6.65-5.12l7.7-5.49l4.72,3.68L388.8,83.22
			L382.87,78.6z"/>
		<path class="st0" d="M411.69,73.24l4.66,4.28l-15.19,16.53l-4.66-4.28L411.69,73.24z M415.64,73.62
			c-0.94-0.87-1.43-1.72-1.47-2.54c-0.04-0.83,0.26-1.57,0.87-2.25l0.64-0.69c0.62-0.67,1.34-1.03,2.17-1.06
			c0.83-0.03,1.71,0.38,2.66,1.25c0.95,0.87,1.43,1.72,1.47,2.54s-0.26,1.57-0.87,2.25l-0.64,0.69c-0.62,0.67-1.34,1.02-2.17,1.06
			C417.47,74.9,416.59,74.48,415.64,73.62z"/>
		<path class="st0" d="M410.52,103.51c-1.52-1.59-2.26-3.17-2.23-4.76c0.03-1.58,0.81-3.11,2.36-4.59l7.95-7.59l-2.18-2.29l3.56-3.4
			l1.09,1.15c0.59,0.62,1.14,0.9,1.66,0.84c0.52-0.06,1.05-0.35,1.61-0.88l2.66-2.54l3.93,4.12l-4.39,4.19l3.07,3.22l-3.56,3.4
			l-3.07-3.22l-9.13,8.71l2.83,2.97l-3.56,3.4L410.52,103.51z"/>
		<path class="st0" d="M442.01,106.03l3.67,4.62l-25.66,9.37c-1.72,0.64-3.22,0.8-4.52,0.5c-1.29-0.3-2.55-1.21-3.75-2.73
			l-2.45-3.08l3.85-3.06l2.64,3.31l2.42-0.94l13.58-20.85l3.91,4.92l-6.15,9.1l-4.08,5.32l0.16,0.2l6.13-2.74L442.01,106.03z"/>
		<path class="st0" d="M491.76,198.67l-18.02,3.2c-2.08,0.37-3.56,1.05-4.44,2.05c-0.88,1-1.15,2.45-0.81,4.36
			c0.34,1.91,1.09,3.18,2.26,3.81c1.17,0.63,2.79,0.76,4.87,0.4l18.02-3.2l1.11,6.23l-17.35,3.08c-2.16,0.38-4.07,0.51-5.73,0.39
			c-1.66-0.13-3.08-0.56-4.27-1.3c-1.19-0.74-2.16-1.8-2.91-3.18c-0.75-1.37-1.31-3.11-1.69-5.22s-0.44-3.93-0.21-5.48
			c0.23-1.55,0.78-2.87,1.64-3.98s2.05-2.01,3.56-2.7c1.51-0.69,3.35-1.22,5.51-1.61l17.35-3.08L491.76,198.67z"/>
		<path class="st0" d="M465.66,233.6c-0.12-2.16,0.12-4.01,0.73-5.53c0.61-1.52,1.53-2.9,2.74-4.14l3.97,3.5
			c-0.84,0.85-1.48,1.77-1.94,2.77c-0.46,1-0.65,2.11-0.58,3.33c0.07,1.25,0.31,2.11,0.73,2.57c0.41,0.46,0.95,0.67,1.6,0.64
			c1.05-0.06,1.64-0.85,1.75-2.37l0.16-2.45c0.33-5.07,2.5-7.73,6.48-7.96c1.08-0.06,2.08,0.09,3,0.45c0.92,0.36,1.72,0.9,2.41,1.62
			c0.68,0.72,1.23,1.6,1.65,2.65c0.42,1.05,0.67,2.24,0.74,3.58c0.07,1.17,0.05,2.2-0.06,3.11c-0.11,0.91-0.29,1.72-0.55,2.43
			c-0.26,0.71-0.59,1.38-1,1.99c-0.41,0.61-0.87,1.21-1.37,1.81l-3.92-3.42c0.67-0.75,1.19-1.59,1.55-2.51
			c0.36-0.92,0.51-1.85,0.46-2.79c-0.06-1.08-0.28-1.84-0.65-2.28c-0.37-0.44-0.84-0.64-1.41-0.6c-0.6,0.03-1.05,0.22-1.36,0.57
			c-0.31,0.35-0.51,0.98-0.6,1.9L480,235c-0.37,4.96-2.48,7.55-6.32,7.78c-1.08,0.06-2.09-0.11-3.03-0.51
			c-0.94-0.4-1.76-1.01-2.48-1.81c-0.72-0.8-1.3-1.78-1.73-2.94C466,236.36,465.74,235.05,465.66,233.6z"/>
		<path class="st0" d="M465.78,256.1c0.08-1.71,0.43-3.22,1.04-4.53c0.62-1.31,1.45-2.41,2.51-3.29c1.05-0.88,2.32-1.52,3.79-1.92
			c1.47-0.4,3.11-0.56,4.9-0.48c1.77,0.08,3.36,0.38,4.78,0.91c1.42,0.52,2.62,1.26,3.6,2.2c0.98,0.94,1.72,2.08,2.22,3.42
			c0.5,1.33,0.7,2.84,0.63,4.52c-0.08,1.85-0.47,3.42-1.16,4.72c-0.69,1.29-1.58,2.34-2.67,3.13c-1.09,0.79-2.34,1.35-3.74,1.67
			c-1.4,0.32-2.85,0.45-4.36,0.38l-1.88-0.09l0.67-14.4l-0.34-0.02c-1.47-0.07-2.65,0.28-3.55,1.04c-0.9,0.76-1.39,1.99-1.47,3.7
			c-0.06,1.31,0.15,2.39,0.64,3.24c0.49,0.85,1.08,1.65,1.78,2.39l-4.09,2.98c-1.12-1.05-1.98-2.4-2.56-4.04
			C465.93,260,465.69,258.15,465.78,256.1z M484.59,256.84c0.06-1.28-0.32-2.3-1.12-3.07c-0.81-0.76-1.91-1.18-3.3-1.24l-0.34-0.02
			l-0.36,7.86l0.38,0.02c1.37,0.06,2.48-0.19,3.35-0.77C484.06,259.05,484.53,258.12,484.59,256.84z"/>
		<path class="st0" d="M482.44,273.6l0.43-3.13l4.87,0.67l-0.43,3.14l2.63,0.36c2.15,0.3,3.69,1.08,4.62,2.36s1.25,3.01,0.95,5.18
			l-0.56,4.07l-4.87-0.67l0.61-4.45l-4.24-0.58l-0.61,4.45l-4.87-0.67l0.61-4.45l-17.37-2.39l0.86-6.27L482.44,273.6z"/>
		<path class="st0" d="M463.81,298.51l0.05-0.21c-0.51-0.33-0.98-0.71-1.4-1.14c-0.42-0.44-0.77-0.95-1.04-1.54
			c-0.27-0.59-0.44-1.25-0.5-1.99c-0.06-0.73,0.01-1.54,0.22-2.43c0.53-2.25,1.67-3.77,3.43-4.57c1.76-0.8,4.02-0.87,6.8-0.22
			l13.74,3.24l-1.45,6.16l-13.2-3.12c-1.33-0.31-2.41-0.32-3.25-0.02c-0.83,0.3-1.38,1.02-1.65,2.16c-0.11,0.47-0.15,0.96-0.13,1.46
			c0.03,0.5,0.13,0.97,0.31,1.39s0.44,0.79,0.77,1.11c0.34,0.31,0.77,0.53,1.29,0.66L482,302.8l-1.46,6.16l-21.85-5.16l1.46-6.16
			L463.81,298.51z"/>
		<path class="st0" d="M455,314.75c0.68-2.06,1.69-3.4,3.01-4.03s2.93-0.63,4.82,0l24.19,8.05l-2,6.01l-25.36-8.44l-0.89,2.68
			l-4.67-1.55L455,314.75z"/>
		<path class="st0" d="M435.65,393.94l-4.11,4.81l-17.08-14.58l4.11-4.81L435.65,393.94z M435.41,397.9
			c0.83-0.98,1.66-1.5,2.49-1.56c0.82-0.07,1.58,0.2,2.28,0.79l0.72,0.61c0.69,0.59,1.07,1.3,1.14,2.12
			c0.06,0.82-0.32,1.72-1.15,2.7s-1.66,1.5-2.49,1.56c-0.82,0.06-1.58-0.2-2.28-0.79l-0.71-0.61c-0.69-0.59-1.07-1.3-1.14-2.12
			C434.2,399.78,434.58,398.88,435.41,397.9z"/>
		<path class="st0" d="M411.08,388.22l15.75,16l-4.51,4.44l-2.67-2.71l-0.18,0.18c0.54,1.11,0.75,2.32,0.64,3.63
			c-0.11,1.31-0.8,2.58-2.06,3.82c-1.65,1.62-3.43,2.3-5.35,2.03c-1.92-0.27-3.89-1.42-5.89-3.45l-9.87-10.03l4.51-4.44l9.51,9.66
			c1.02,1.04,1.94,1.64,2.75,1.82c0.82,0.18,1.64-0.14,2.47-0.96c0.37-0.36,0.68-0.76,0.93-1.19c0.26-0.43,0.42-0.88,0.49-1.36
			c0.07-0.47,0.05-0.94-0.08-1.39c-0.13-0.46-0.38-0.88-0.76-1.26l-10.2-10.36L411.08,388.22z"/>
		<path class="st0" d="M386.91,409.61c1.7-1.34,3.35-2.2,4.94-2.58c1.6-0.37,3.25-0.42,4.96-0.14l-0.58,5.26
			c-1.17-0.2-2.3-0.2-3.38,0c-1.08,0.2-2.1,0.68-3.06,1.44c-0.98,0.78-1.55,1.47-1.69,2.07c-0.14,0.6-0.01,1.16,0.4,1.68
			c0.65,0.83,1.64,0.85,2.95,0.07l2.1-1.28c4.35-2.64,7.76-2.4,10.24,0.73c0.67,0.85,1.13,1.75,1.36,2.72
			c0.23,0.96,0.25,1.93,0.06,2.9c-0.19,0.97-0.6,1.93-1.22,2.87s-1.45,1.83-2.5,2.66c-0.92,0.73-1.78,1.31-2.58,1.74
			c-0.8,0.43-1.57,0.75-2.3,0.95c-0.73,0.2-1.47,0.31-2.2,0.32c-0.73,0.02-1.49-0.01-2.27-0.08l0.54-5.17
			c1,0.12,1.98,0.06,2.94-0.17s1.81-0.64,2.55-1.23c0.85-0.67,1.35-1.29,1.49-1.84c0.15-0.55,0.04-1.05-0.31-1.5
			c-0.37-0.47-0.79-0.73-1.25-0.78c-0.46-0.05-1.09,0.15-1.9,0.6l-2.19,1.3c-4.27,2.55-7.61,2.31-10-0.71
			c-0.67-0.85-1.11-1.77-1.32-2.77c-0.21-1-0.19-2.02,0.05-3.07c0.24-1.05,0.71-2.08,1.41-3.11S385.77,410.52,386.91,409.61z"/>
		<path class="st0" d="M389.02,436.65l-5.25,3.53l-12.52-18.64l5.25-3.53L389.02,436.65z M387.72,440.41c1.07-0.72,2-1,2.81-0.83
			c0.81,0.16,1.47,0.62,1.98,1.38l0.53,0.78c0.51,0.76,0.68,1.54,0.52,2.35c-0.16,0.81-0.77,1.58-1.84,2.29
			c-1.07,0.71-2,0.99-2.81,0.83c-0.81-0.16-1.47-0.62-1.98-1.37l-0.53-0.78c-0.51-0.76-0.68-1.54-0.52-2.35
			C386.05,441.89,386.66,441.12,387.72,440.41z"/>
		<path class="st0" d="M347.88,433.24c-0.58-1.05-0.92-2.07-1-3.07c-0.08-1,0.13-2.01,0.64-3.03c0.51-1.02,1.36-2.05,2.56-3.09
			c1.2-1.04,2.79-2.12,4.78-3.23c1.69-0.95,3.19-1.64,4.49-2.09c1.3-0.45,2.43-0.68,3.38-0.71c0.95-0.02,1.75,0.15,2.4,0.52
			c0.65,0.37,1.17,0.92,1.58,1.64c0.61,1.1,0.77,2.14,0.47,3.12c-0.3,0.98-0.98,1.87-2.04,2.66l0.23,0.41
			c1.04-0.35,1.98-0.34,2.81,0.03s1.48,0.98,1.95,1.83c0.29,0.52,0.44,1.04,0.44,1.54c0,0.5-0.08,0.99-0.26,1.47
			c-0.18,0.47-0.44,0.92-0.79,1.35s-0.72,0.81-1.12,1.16l0.08,0.15c1.5-0.12,2.8,0.14,3.91,0.78s2.01,1.59,2.72,2.86
			c1.11,1.99,1.31,3.97,0.6,5.95c-0.71,1.98-2.48,3.76-5.32,5.34c-1.29,0.72-2.47,1.22-3.53,1.48l0.42,0.75
			c0.58,1.05,0.75,1.94,0.5,2.69c-0.25,0.75-0.85,1.38-1.8,1.91l-3.1,1.73l-2.29-4.11l4.33-2.42l-0.12-0.22
			c-1.45,0.09-2.72-0.19-3.8-0.84c-1.08-0.65-1.98-1.62-2.69-2.88c-1.1-1.97-1.29-3.93-0.56-5.88c0.72-1.95,2.5-3.72,5.34-5.31
			c1.27-0.71,2.5-1.22,3.7-1.53c0.36-0.69,0.36-1.38-0.02-2.05c-0.26-0.47-0.65-0.74-1.16-0.8c-0.51-0.06-1.18,0.15-2.03,0.62
			l-5.68,3.17c-2.39,1.33-4.41,1.8-6.04,1.41C350.22,436.16,348.9,435.05,347.88,433.24z M352.66,429.59
			c0.32,0.57,0.79,0.88,1.4,0.93s1.48-0.24,2.6-0.86l6.72-3.75c0.11-0.39,0.13-0.77,0.07-1.14c-0.06-0.37-0.18-0.71-0.34-1.01
			c-0.4-0.72-1.01-1.08-1.82-1.07c-0.81,0.01-1.96,0.43-3.46,1.27l-2.24,1.25c-1.49,0.83-2.46,1.59-2.89,2.27
			C352.27,428.17,352.26,428.87,352.66,429.59z M365.13,439.39c-1.1,0.61-1.78,1.29-2.06,2.05c-0.28,0.76-0.18,1.57,0.3,2.43
			l0.25,0.45c0.48,0.87,1.12,1.38,1.91,1.54c0.79,0.16,1.73-0.07,2.83-0.68s1.78-1.3,2.06-2.05s0.18-1.57-0.3-2.43l-0.25-0.45
			c-0.48-0.87-1.12-1.38-1.91-1.54C367.16,438.55,366.22,438.78,365.13,439.39z"/>
		<path class="st0" d="M359,464.63l-5.84,2.44l-5-12l-0.24,0.1c0.08,1.23-0.17,2.44-0.77,3.61c-0.59,1.17-1.7,2.1-3.33,2.78
			c-2.13,0.89-4.04,0.85-5.72-0.12s-3.08-2.76-4.17-5.4l-5.42-12.99l5.84-2.44l5.22,12.51c0.56,1.34,1.18,2.25,1.87,2.72
			c0.69,0.47,1.57,0.48,2.65,0.03c0.47-0.2,0.91-0.45,1.31-0.75c0.4-0.3,0.72-0.66,0.96-1.07c0.25-0.41,0.39-0.85,0.45-1.32
			c0.05-0.47-0.03-0.95-0.24-1.45l-5.6-13.42l5.84-2.44L359,464.63z"/>
		<path class="st0" d="M316.22,446.84c2.1-0.64,3.85-0.6,5.25,0.13c1.4,0.73,2.42,2.12,3.04,4.17l3.22,10.51l3.03-0.93l1.44,4.7
			l-1.51,0.46c-0.82,0.25-1.32,0.62-1.49,1.11s-0.16,1.1,0.07,1.83l1.08,3.52l-5.44,1.67l-1.78-5.81l-4.25,1.3l-1.44-4.7l4.25-1.3
			l-3.7-12.06l-3.93,1.2l-1.44-4.7L316.22,446.84z"/>
		<path class="st0" d="M311.36,466.3l3.09-0.7l1.09,4.8l-3.09,0.7l0.59,2.59c0.48,2.11,0.29,3.83-0.58,5.15
			c-0.87,1.32-2.37,2.23-4.51,2.71l-4,0.91l-1.09-4.8l4.38-1l-0.95-4.17l-4.38,1l-1.09-4.8l4.38-1l-3.89-17.1l6.17-1.4L311.36,466.3
			z"/>
		<path class="st0" d="M281.46,457.66l0.21-0.03c0.12-0.59,0.32-1.16,0.58-1.71c0.26-0.55,0.62-1.06,1.08-1.52
			c0.46-0.46,1.02-0.85,1.68-1.17c0.66-0.32,1.45-0.53,2.35-0.65c2.29-0.3,4.12,0.24,5.49,1.6c1.37,1.36,2.24,3.46,2.6,6.28l1.81,14
			l-6.28,0.81l-1.74-13.45c-0.18-1.36-0.55-2.37-1.13-3.04c-0.58-0.67-1.44-0.93-2.6-0.79c-0.48,0.06-0.95,0.19-1.41,0.4
			c-0.46,0.2-0.86,0.46-1.19,0.78c-0.33,0.32-0.59,0.69-0.76,1.11c-0.17,0.42-0.23,0.91-0.16,1.44l1.87,14.46l-6.28,0.81
			l-2.88-22.27l6.28-0.81L281.46,457.66z"/>
		<path class="st0" d="M263.15,455.16c2.17-0.09,3.78,0.38,4.83,1.39c1.05,1.01,1.62,2.52,1.7,4.51l1.03,25.47l-6.32,0.25
			l-1.08-26.71l-2.82,0.11l-0.2-4.91L263.15,455.16z"/>
	</g>
	<circle class="st0" cx="219.8" cy="30.97" r="7.46"/>
	<circle class="st0" cx="40.93" cy="242.91" r="7.46"/>
	<circle class="st0" cx="448.49" cy="156.64" r="7.46"/>
	<circle class="st0" cx="449.04" cy="349.78" r="7.46"/>
	<circle class="st0" cx="231.37" cy="469.03" r="7.46"/>
</g>
</svg>
